<svg width="778" height="492" viewBox="0 0 778 492" fill="none" xmlns="http://www.w3.org/2000/svg">
<g clip-path="url(#clip0)" filter="url(#filter0_d)">
<path d="M517.207 50.0296C514.597 49.1952 512.13 48.7303 509.782 47.8958C503.524 45.6548 501.176 39.9807 504.287 32.8524C507.708 24.9969 512.988 18.4526 520.604 14.1017C522.988 12.7428 525.538 11.2527 527.672 14.1613C529.662 16.8791 528.375 21.3373 525.872 23.4711C521.963 26.7968 518.041 30.1941 514.644 34.0086C511.784 37.2152 512.594 38.9675 516.563 40.3026C520.151 41.5065 523.643 42.9847 527.291 43.9144C528.399 44.2005 529.877 43.0562 531.176 42.5674C530.795 41.6853 530.616 40.6006 529.996 39.9331C526.385 36.047 526.611 34.3424 531.14 31.1001C538.483 25.8432 552.309 26.5584 557.624 35.9397C558.22 37.0006 559.508 37.6682 560.485 38.5145C560.795 37.2391 561.319 35.9636 561.355 34.6881C561.439 31.8272 561.2 29.0736 563.667 26.7849C565.193 25.3664 566.218 25.6286 566.862 27.0829C567.827 29.2286 568.805 31.5411 568.959 33.8298C569.281 38.6576 568.995 43.5211 569.091 48.3727C569.114 49.8031 569.46 51.2574 569.841 52.6401C570.664 55.5845 572.094 58.3261 575.467 58.5645C578.542 58.7791 582.702 54.6904 582.738 51.2335C582.809 45.4283 582.356 39.6231 582.035 33.8179C581.963 32.5067 581.558 31.2193 581.296 29.92C580.867 27.8458 581.749 26.177 583.703 26.1651C584.931 26.1531 586.6 27.369 587.327 28.5014C588.578 30.4445 589.258 32.757 590.163 34.9146C591.582 33.21 592.893 31.3981 594.454 29.8365C597.386 26.9041 599.901 23.3042 604.8 23.3995C609.103 23.483 610.771 24.9015 611.951 29.0379C613.847 35.7133 611.665 41.59 608.96 47.4786C608.078 49.3978 607.243 51.4243 606.886 53.4746C606.743 54.309 607.959 56.2401 608.459 56.2043C612.595 55.9063 616.731 55.4057 620.783 54.5951C621.57 54.4401 622.238 52.7474 622.595 51.6388C625.205 43.7833 627.72 35.904 630.295 28.0366C630.438 27.5955 630.807 27.2379 631.046 26.8207C634.121 21.2539 637.78 20.6817 642.226 25.0326C646.099 28.8352 647.887 33.6391 648.519 38.8483C648.626 39.7185 646.993 41.3635 645.885 41.6853C643.93 42.2694 641.797 41.9357 641.022 39.4682C640.629 38.2165 640.557 36.8576 640.211 35.594C639.937 34.5808 639.461 33.6153 639.079 32.6259C638.447 33.508 637.601 34.3067 637.208 35.296C634.848 41.2085 632.297 47.0733 630.366 53.1289C628.757 58.1831 635.372 63.4161 640.831 61.3897C644.574 60.0069 648.09 57.9447 651.618 56.0374C655.885 53.7249 655.599 49.1952 656.219 45.3449C657.721 35.9874 662.393 29.4193 672.941 27.8577C681.499 26.5823 689.854 23.8406 698.257 21.6353C704.336 20.038 710.355 18.1665 716.446 16.5811C719.127 15.8778 721.38 17.1771 722.012 19.7162C722.584 22.0168 722.56 24.4009 719.437 25.8194C713.943 28.2988 708.698 31.3146 703.394 34.1994C702.846 34.4974 702.155 35.6536 702.322 35.9278C702.798 36.7384 703.621 37.7636 704.431 37.8947C708.662 38.5741 712.929 38.9437 717.185 39.5158C723.239 40.3264 729.366 40.6602 734.849 44.0217C737.113 45.4045 738.138 46.978 738.234 49.5289C738.424 54.6666 738.818 59.8162 732.989 62.4625C730.415 63.6307 727.852 64.8704 725.218 65.8598C717.923 68.6253 710.367 69.9485 702.56 69.3167C700.009 69.114 697.482 68.3154 697.697 65.0373C697.9 62.081 699.115 60.1261 702.763 60.0903C712.417 60.0069 721.297 56.8003 729.819 52.4971C730.355 52.2229 730.796 51.7699 731.285 51.4004C730.713 51.007 730.188 50.3753 729.556 50.2441C726.601 49.6481 723.621 49.1117 720.629 48.6945C714.825 47.872 708.984 47.3594 703.227 46.2985C700.367 45.774 697.53 44.6177 694.967 43.2111C691.189 41.137 690.617 37.1318 692.953 33.0312C693.37 32.2921 693.37 31.3027 693.561 30.4325C692.786 30.6471 692.012 30.8259 691.261 31.0762C685.873 32.8524 680.462 34.5451 675.134 36.4881C673.418 37.1079 671.94 38.3953 670.367 39.3728C672.178 39.4086 673.99 39.4562 675.814 39.492C676.326 39.5039 676.982 39.6946 677.315 39.4562C679.711 37.7755 682.119 38.4907 682.953 40.7079C683.895 43.2111 682.81 46.0124 679.985 47.0972C675.468 48.8256 670.867 50.423 666.195 51.6507C663.883 52.2587 663.632 52.8905 664.717 54.8454C666.564 58.1831 670.116 58.195 672.929 58.4573C679.771 59.101 686.517 58.0996 692.524 54.2136C694.979 52.6282 695.993 53.1765 696.136 56.0613C696.445 62.3194 694.073 64.9777 686.553 67.0757C678.185 69.412 669.711 70.1392 662.131 65.3591C657.816 62.6294 655.122 63.1658 651.356 66.0624C647.542 68.9948 643.334 72.4875 638.042 71.5219C632.75 70.5564 626.505 70.7352 624.037 64.179C623.656 63.1777 623.68 62.0334 623.394 60.9963C623.239 60.4241 622.81 59.9235 622.5 59.387C622.035 59.7685 621.487 60.0784 621.129 60.5433C615.229 68.1247 607.875 67.3617 600.259 64.1909C599.281 63.7856 598.078 63.0466 597.243 63.3088C594.001 64.2982 590.974 65.2757 589.734 60.7102C588.709 61.1751 587.315 61.3539 586.743 62.1406C584.609 65.0373 582.619 67.7432 578.709 68.6611C574.335 69.6862 566.731 66.9207 564.478 62.9035C563.143 60.5314 562.547 60.1023 560.402 62.7963C557.076 66.9565 553.048 70.8186 548.626 73.763C544.859 76.2662 539.639 76.4689 535.705 74.3351C531.045 71.808 526.921 73.0954 522.642 74.1325C515.693 75.8133 509.197 72.8928 506.242 66.5154C506.11 66.2293 504.644 66.0863 504.382 66.3843C497.159 74.5378 490.735 76.1947 481.009 71.4862C478.744 70.3895 476.611 67.5763 475.896 65.1088C475.049 62.1883 474.525 62.7843 472.809 64.1313C470.33 66.0505 467.862 68.0889 465.085 69.5074C460.222 71.9868 455.633 70.771 452.034 66.7777C449.388 63.8453 450.067 60.2334 450.556 57.1222C452.189 46.6442 457.159 37.4298 462.582 28.4538C465.741 23.2207 468.542 17.8804 468.863 11.515C469.042 7.95079 466.909 7.33093 464.68 8.21303C458.256 10.7282 451.879 13.5891 447.505 19.2393C446.646 20.3479 446.325 22.875 446.992 23.9956C450.604 30.0749 449.996 36.4046 448.959 42.9012C448.053 48.5515 447.576 54.2851 446.539 59.9115C445.609 64.9538 444.215 69.9008 442.963 74.8835C442.272 77.6609 440.139 78.3285 437.767 77.6609C435.538 77.0411 433.869 72.0107 435.538 70.2345C439.876 65.5856 439.066 59.6851 439.567 54.2971C440.46 44.5462 440.508 34.7239 440.794 24.9373C440.806 24.4843 439.745 23.5664 439.221 23.5903C435.049 23.8168 433.762 22.0883 435.335 18.2142C438.446 10.5375 445.311 7.04484 452.058 3.58794C454.966 2.0979 458.291 1.35884 461.474 0.464814C467.505 -1.22787 473.428 1.66877 475.681 7.31901C478.375 14.1017 477.421 20.3837 473.715 26.6776C470.854 31.5292 468.899 36.9172 466.492 42.043C464.382 46.5369 462.058 50.9236 460.175 55.501C459.602 56.8838 460.175 58.7314 460.222 60.3764C461.688 60.2811 463.452 60.6744 464.585 60.0069C467.588 58.2069 470.33 55.9659 473.154 53.8679C474.62 52.7713 473.846 52.2348 472.606 51.7103C469.018 50.2084 468.577 48.7422 471.247 45.9409C472.725 44.3913 474.787 43.4257 476.492 42.0668C477.135 41.5661 477.505 40.7198 477.993 40.0284C477.314 39.5874 476.694 38.9675 475.955 38.7291C470.949 37.1318 470.556 35.3914 474.06 31.4696C477.183 27.977 480.806 25.4379 485.467 24.8181C486.885 24.6273 489.245 24.973 489.722 25.8551C490.365 27.071 490.032 29.2167 489.376 30.6113C488.709 32.0179 487.076 32.9477 486.003 34.2113C485.538 34.7596 485.431 35.594 485.157 36.2973C486.122 36.4285 487.278 36.9649 488.005 36.6192C489.829 35.749 491.355 34.2471 493.202 33.4245C494.37 32.9001 495.884 33.1623 497.243 33.0669C497.326 34.4497 497.815 35.9636 497.421 37.1914C495.717 42.4959 491.533 45.7025 487.123 48.6587C483.834 50.864 482.022 56.0613 483.488 59.1248C484.859 61.9738 490.199 64.3578 493.631 63.13C496.837 61.9857 499.913 60.3407 502.833 58.5765C505.324 57.0745 509.507 57.7182 510.604 60.2215C511.7 62.7247 513.524 64.2148 516.265 63.9287C519.138 63.6307 522.094 63.2969 524.764 62.2956C526.063 61.8069 527.505 59.8281 527.577 58.4453C527.672 56.7526 526.885 54.2375 525.622 53.415C523.178 51.8653 520.163 51.2455 517.207 50.0296ZM543.417 37.2033C542.702 38.1808 541.725 39.0509 541.307 40.1357C538.506 47.3594 536.897 54.8335 537.791 62.6175C537.887 63.4161 539.46 64.6082 540.413 64.6797C548.804 65.2638 557.04 56.4427 555.133 48.2415C553.56 41.4827 550.938 36.1781 543.417 37.2033ZM595.861 51.3647C596.492 52.2468 597.112 53.1289 597.744 54.011C598.137 53.0454 598.602 52.1156 598.912 51.1262C600.223 46.8349 601.498 42.5436 602.738 38.2284C602.976 37.4059 603 36.5238 603.131 35.6656C602.237 36.2735 601.2 36.7265 600.485 37.5013C596.957 41.3158 596.838 46.2389 595.861 51.3647Z" fill="black"/>
<path d="M671.642 300.547C667.577 302.443 664.073 305.018 660.164 306.019C656.755 306.901 651.475 307.485 649.52 305.602C644.979 301.203 645.48 304.91 644.252 307.545C641.916 312.551 637.351 314.363 632.19 315.09C621.618 316.58 614.919 311.466 610.438 302.479C609.913 301.418 609.258 300.404 608.9 299.296C608.197 297.138 607.291 297.162 605.336 298.163C598.709 301.573 591.963 304.445 584.192 304.493C579.877 304.517 581.451 309.047 580.7 311.514C579.996 313.851 580.867 316.628 580.426 319.095C580.187 320.431 578.84 322.219 577.636 322.564C575.825 323.089 573.119 323.542 572.607 320.466C572.225 318.225 572.285 315.913 572.13 313.636C571.617 305.935 570.795 298.247 570.688 290.546C570.568 282.107 570.759 273.631 571.629 265.251C571.832 263.308 575.086 261.079 577.422 260.078C583.489 257.479 589.71 255.155 596.063 253.414C599.639 252.437 603.584 252.425 607.124 254.702C610.152 256.657 611.141 263.666 608.852 268.041C608.388 268.923 608.28 269.984 608.006 270.961C608.888 270.651 609.782 270.329 610.664 270.019C615.241 268.446 619.782 266.765 624.431 265.394C625.575 265.061 627.017 265.776 628.328 266.014C627.72 267.17 627.375 268.625 626.469 269.423C624.097 271.521 621.427 273.262 618.984 275.276C616.945 276.945 614.871 278.638 614.979 281.725C615.062 283.954 615.682 285.218 618.125 283.99C621.82 282.119 625.444 280.116 629.198 278.388C630.223 277.911 631.606 278.209 632.81 278.149C632.822 279.532 633.418 281.463 632.738 282.202C629.937 285.194 627.041 288.258 623.644 290.475C618.495 293.836 617.577 293.193 620.628 299.582C624.585 307.855 633.513 310.417 639.544 303.992C640.39 303.086 641.928 302.848 642.881 302.002C643.525 301.43 644.276 300.011 644.002 299.534C639.782 292.191 642.607 284.92 644.109 277.672C645.48 271.021 649.02 265.955 655.325 263.01C658.948 261.318 662.893 262.367 664.681 266.038C665.849 268.458 666.588 271.188 666.958 273.858C667.279 276.206 667.458 277.35 670.247 276.123C671.761 275.455 673.716 275.765 675.468 275.646C675.468 277.35 675.754 279.103 675.408 280.736C674.705 284.121 673.728 287.423 676.457 290.427C678.746 292.942 683.573 293.86 687.089 292.346C688.173 291.881 689.21 291.285 690.247 290.737C694.348 288.544 695.122 286.005 692.011 282.369C688.185 277.899 683.644 274.263 677.601 272.88C675.992 272.511 674.645 271.033 673.179 270.067C674.049 268.768 674.705 267.254 675.813 266.217C678.161 264.012 683.99 263.69 686.707 265.49C689.425 267.302 692 269.316 694.717 271.128C696.278 272.177 697.59 272.654 699.52 270.925C704.062 266.872 708.913 263.129 713.883 259.601C715.528 258.433 717.864 258.039 719.95 257.718C722.715 257.289 725.647 257.491 727.28 260.161C729.33 263.535 728.186 266.92 726.279 269.972C724.24 273.238 721.833 276.266 719.854 279.568C717.59 283.346 719.139 285.647 723.609 286.005C735.218 286.934 738.174 280.009 738.913 271.104C739.616 262.605 745.242 255.834 753.68 255.417C760.224 255.095 765.182 258.683 768.806 263.666C773.931 270.711 772.417 282.178 766.517 288.818C760.522 295.565 753.132 298.938 744.3 299.796C740.701 300.142 738.758 298.354 737.351 295.422C735.945 292.477 734.205 291.488 730.641 292.728C725.146 294.647 719.354 295.922 713.692 292.585C713.168 292.275 711.463 293.157 710.879 293.932C707.232 298.783 705.659 299.069 700.986 295.934C700.176 295.386 698.329 295.446 697.482 296.006C691.618 299.904 685.182 301.537 678.221 301.263C676.135 301.215 674.085 300.81 671.642 300.547ZM748.949 269.543C748.186 276.611 747.518 283.692 746.589 290.737C746.314 292.775 746.076 293.419 748.448 292.322C754.837 289.354 759.318 284.765 761.178 277.899C762.322 273.667 760.951 269.984 757.411 268.124C754.61 266.646 751.618 265.716 748.949 269.543ZM591.641 286.768C590.02 288.639 588.256 290.427 586.814 292.43C585.241 294.599 586.468 296.757 589.21 296.685C590.89 296.649 592.619 296.399 594.228 295.922C597.958 294.802 601.892 293.932 605.146 291.965C606.135 291.369 604.824 287.459 605.11 285.123C605.444 282.297 606.457 279.568 606.957 276.754C607.148 275.694 606.719 274.513 606.564 273.393C605.849 273.858 605.038 274.227 604.419 274.799C600.271 278.626 596.159 282.512 591.641 286.768ZM661.308 286.005C658.602 286.362 657.303 284.765 656.302 282.572C655.861 281.606 655.074 280.795 654.443 279.913C653.99 280.855 653.334 281.749 653.143 282.738C652.571 285.575 651.892 288.436 651.809 291.309C651.618 297.317 656.409 300.524 661.797 298.259C666.111 296.447 667.84 290.689 665.027 286.803C664.443 286.017 662.822 285.993 661.308 286.005ZM582.082 271.843C581.832 273.774 581.474 275.694 581.343 277.625C581.236 279.293 581.379 280.986 581.415 282.667C582.654 281.606 583.965 280.629 585.134 279.484C589.555 275.133 593.954 270.758 598.268 266.3C598.972 265.585 599.222 264.429 599.687 263.475C598.614 263.332 597.458 262.855 596.48 263.094C592.929 263.964 589.412 265.025 585.92 266.121C583.56 266.861 582.011 268.386 582.082 271.843Z" fill="black"/>
<path d="M590.192 412.213C591.813 416.266 592.79 420.426 595.198 423.478C599.668 429.14 606.08 431.334 613.315 432.275C621.468 433.336 628.857 431.727 635.961 428.246C645.02 423.788 650.419 416.779 649.883 406.182C649.704 402.713 649.263 399.256 649.167 395.787C649.072 392.64 647.38 392.497 645.246 393.582C641.229 395.62 637.415 398.052 633.351 399.995C629.215 401.974 625.008 404.024 620.609 405.216C615.532 406.587 611.336 403.547 610.133 398.171C609.358 394.738 608.643 391.198 608.738 387.729C608.786 386.167 610.574 383.915 612.099 383.307C614.316 382.436 615.472 383.962 616.343 386.537C619.263 395.12 618.059 393.725 626.223 390.256C630.562 388.408 634.698 386.072 638.881 383.879C639.811 383.39 640.598 382.603 641.444 381.96C640.657 381.435 639.799 380.994 639.096 380.374C633.625 375.654 627.058 373.246 620.204 371.494C617.761 370.862 615.234 370.456 612.731 370.147C607.975 369.551 603.196 369.229 598.452 368.549C595.46 368.12 594.328 365.533 596.533 363.638C598.571 361.886 601.587 360.431 604.233 360.324C621.062 359.573 635.806 365.021 648.619 375.976C649.573 376.786 652.04 376.917 653.16 376.262C661.73 371.315 670.133 366.082 678.596 360.944C689.346 354.424 698.727 345.769 710.372 340.668C711.123 340.334 711.957 340.215 712.755 340C712.982 340.93 713.673 342.11 713.34 342.742C712.052 345.161 710.92 348.046 708.87 349.632C696.152 359.394 683.22 368.883 670.3 378.383C667.904 380.148 665.234 381.542 662.719 383.152C657.022 386.799 656.653 387.896 658.321 394.273C661.42 406.17 658.738 416.791 651.372 426.494C644.698 435.291 635.616 439.463 625.055 441.371C613.446 443.48 602.981 441.323 593.303 434.481C586.164 429.438 582.54 422.405 581.074 414.168C579.787 406.968 579.239 399.602 581.861 392.593C583.708 387.634 586.14 382.854 588.75 378.24C589.918 376.166 592.29 374.176 594.9 376.131C597.189 377.847 597.808 380.47 595.973 383.116C591.026 390.256 588.547 398.076 589.453 406.813C589.62 408.482 589.942 410.151 590.192 412.213Z" fill="#25A78B"/>
<path d="M163.558 305.339C166.919 303.253 170.137 301.442 173.212 299.391C173.748 299.034 173.939 297.651 173.76 296.864C173.498 295.744 172.342 294.754 172.306 293.693C172.247 291.905 172.139 289.247 173.176 288.496C174.928 287.221 177.598 285.742 179.791 288.293C180.816 289.474 181.841 290.749 182.473 292.144C185.441 298.688 188.099 305.387 191.257 311.836C192.521 314.411 194.714 316.568 196.621 318.786C197.098 319.334 198.123 319.394 198.898 319.68C199.041 318.988 199.41 318.261 199.303 317.605C198.421 312.122 197.169 306.675 196.585 301.155C195.906 294.766 194.416 288.019 199.97 282.798C201.091 281.737 202.89 281.392 204.38 280.712C204.738 282.095 205.334 283.466 205.417 284.86C205.775 290.368 205.882 295.875 206.299 301.37C206.383 302.407 207.479 303.373 208.099 304.374C208.492 303.42 209.065 302.49 209.243 301.501C209.827 298.283 209.958 294.945 210.829 291.81C212.378 286.291 214.929 285.254 220.245 287.352C220.817 287.578 221.639 287.328 222.295 287.125C228.528 285.242 234.738 283.263 240.996 281.463C242.033 281.165 243.272 281.618 244.428 281.725C243.725 282.643 243.213 283.931 242.283 284.407C236.621 287.34 230.829 290.022 225.155 292.918C223.344 293.836 221.687 295.088 220.078 296.328C219.672 296.65 219.684 297.52 219.506 298.128C220.209 298.259 221.019 298.688 221.603 298.485C228.159 296.161 234.69 293.753 241.222 291.345C241.663 291.178 242.056 290.725 242.474 290.713C244.13 290.689 245.775 290.797 247.432 290.856C246.49 292.299 245.787 294.003 244.571 295.136C237.861 301.394 229.553 304.672 220.995 307.461C218.91 308.141 218.04 309.178 219.124 311.884C222.688 320.788 236.407 322.684 243.153 317.558C244.726 316.366 246.145 314.971 247.73 313.791C249.935 312.158 251.842 313.159 252.164 315.949C252.64 320.025 249.804 322.529 247.122 324.102C238.898 328.882 230.03 330.873 220.674 327.321C217.026 325.938 214.094 323.792 213.057 319.68C212.783 318.571 211.842 317.641 211.21 316.628C210.829 317.868 210.423 319.096 210.054 320.347C209.255 323.077 209.1 326.26 207.563 328.465C203.808 333.853 198.457 332.84 192.795 328.787C184.666 322.97 179.911 314.935 177.861 305.196C177.729 304.6 176.979 304.136 176.526 303.599C176.216 303.885 175.763 304.1 175.632 304.445C173.033 311.264 167.038 313.278 160.816 315.114C157.086 316.211 153.474 317.749 149.755 318.881C146.168 319.966 144.297 322.731 144.988 326.427C145.596 329.621 149.171 331.993 152.592 331.123C160.197 329.204 167.729 326.999 175.346 325.115C176.585 324.805 178.063 325.509 179.434 325.747C178.695 327.297 178.361 329.645 177.157 330.253C172.437 332.637 167.515 334.687 162.521 336.452C158.719 337.799 154.702 338.526 150.78 339.539C143.081 341.518 135.322 335.474 135.024 327.356C134.892 323.887 134.523 320.419 134.285 316.95C134.237 316.199 133.987 315.209 134.356 314.697C139.338 307.771 137.884 299.808 138.063 292.12C138.111 290.189 137.622 288.246 137.336 286.315C136.835 282.905 139.445 281.427 141.758 280.784C144.297 280.08 145.941 282.19 146.502 284.658C147.062 287.101 148.194 287.519 150.614 286.839C154.416 285.766 158.361 285.146 162.282 284.527C163.069 284.407 163.999 285.194 164.869 285.576C164.344 286.374 163.999 287.423 163.284 287.924C160.721 289.676 157.896 291.059 155.429 292.93C150.709 296.507 147.67 301.108 148.075 307.354C148.182 308.999 148.158 310.179 150.709 309.166C154.773 307.545 159.136 306.698 163.558 305.339Z" fill="black"/>
<path d="M60.7918 77.7802C60.5415 77.1246 60.2197 76.8743 60.0409 76.5644C59.0993 74.967 58.1934 73.3459 57.2757 71.7247C56.9181 73.62 56.0599 75.575 56.2864 77.3869C57.0611 83.3709 58.2173 89.3072 59.2661 95.2555C59.4926 96.5429 59.8502 97.8064 60.2554 99.0461C61.4235 102.682 59.9574 106.246 56.4413 106.651C55.1898 106.794 52.8656 104.756 52.4008 103.278C50.5652 97.3773 48.8966 91.3575 47.8835 85.2662C47.061 80.367 47.1683 75.3008 47.0491 70.2943C46.9895 67.8268 45.9287 67.7791 44.2124 68.6969C38.1933 71.9393 32.3291 75.3842 27.7046 80.5815C26.2862 82.1788 24.6414 84.1099 23.9858 79.9736C23.9024 79.4252 23.0204 79.008 22.5198 78.5193C22.0073 79.1272 21.1848 79.6637 21.0299 80.3431C19.1705 88.5085 17.4065 96.7097 15.6187 104.887C14.9989 107.855 12.9488 109.667 10.2074 109.751C8.88441 109.786 6.84626 108.201 6.32182 106.89C5.70203 105.304 6.09536 103.159 6.48869 101.359C8.69371 91.2025 11.2444 81.106 13.2468 70.9022C14.2599 65.7288 14.4864 60.3885 14.8201 55.0958C15.0823 50.876 15.9047 47.3476 20.4697 45.6072C21.9715 45.0351 23.3184 43.4139 24.1884 41.9358C27.3231 36.6312 30.0288 31.0525 33.3184 25.8553C34.701 23.6738 36.9418 21.8381 39.1707 20.4434C41.7452 18.8223 45.2732 20.1216 46.9299 23.0063C50.2911 28.8473 52.365 35.1412 53.1278 41.8643C53.6404 46.3701 54.0814 50.888 54.7131 55.3819C54.8561 56.3713 55.452 57.4799 56.1791 58.1832C59.0516 60.9726 62.0552 63.6427 65.0349 66.3248C65.2972 66.5632 66.0361 66.7539 66.06 66.6943C66.3937 66.0745 66.787 65.4308 66.8824 64.7513C67.4426 60.8891 67.4664 56.8839 68.5391 53.1767C70.6965 45.6788 76.3699 40.9941 83.0446 37.6445C87.1209 35.5942 92.1746 38.4908 94.2723 43.5212C98.4678 53.6416 93.6287 70.8068 84.2127 76.0279C82.8062 76.8147 80.2555 76.9101 78.9087 76.1352C76.8705 74.9551 76.6917 75.5154 76.8944 77.2557C77.4307 81.9881 78.0386 86.7086 78.6703 91.4409C79.0517 94.3257 79.6 97.1985 79.9099 100.095C80.2555 103.29 78.7895 105.722 75.8693 106.794C74.0219 107.474 70.8991 103.767 69.9217 101.168C67.0254 93.4436 63.855 85.8265 60.7918 77.7802ZM29.8023 50.9833C27.3827 58.2547 24.9274 65.5142 22.5675 72.8095C22.341 73.5247 22.5913 74.3949 22.6151 75.1816C23.4137 74.8478 24.546 74.7286 24.9513 74.1326C29.4566 67.3857 36.1909 63.4997 43.2589 60.305C46.2982 58.9223 46.5724 56.9912 46.2386 54.4879C45.297 47.3834 44.2482 40.3027 43.1635 33.222C43.0443 32.471 42.4007 31.7916 41.9955 31.0764C41.3876 31.4459 40.6129 31.6962 40.1957 32.2207C35.7261 37.7398 32.0431 43.6762 29.8023 50.9833ZM84.1411 63.2374C86.8468 59.566 87.9195 55.3938 87.5142 50.9118C87.4308 49.9582 86.6203 48.8615 85.8217 48.2655C85.4999 48.0271 84.1769 48.7781 83.5452 49.3383C82.0195 50.6853 80.1006 51.9489 79.302 53.6773C77.6453 57.313 76.2984 61.1633 75.4998 65.0493C75.2019 66.4678 76.1435 69.5671 78.8729 68.2917C80.8157 67.3857 82.1507 65.2162 84.1411 63.2374ZM78.0148 73.1909C78.6345 73.0836 79.2663 72.9644 79.886 72.8571C79.457 72.2015 79.016 71.5578 78.5869 70.9022C78.277 71.5221 77.9552 72.1658 78.0148 73.1909Z" fill="black"/>
<path d="M298.85 67.0638C300.173 71.4862 299.017 76.314 303.141 79.4728C305.609 81.3682 307.909 81.0106 307.921 77.8994C307.957 69.4598 308.982 60.9248 306.336 52.6044C305.954 51.4243 306.407 49.1833 307.253 48.623C308.231 47.9793 310.817 48.0866 311.413 48.8614C313.177 51.1859 314.679 53.868 315.585 56.6335C316.371 59.0295 316.05 61.7711 316.526 64.2983C316.8 65.7645 317.694 67.1115 318.314 68.5181C318.97 67.3022 319.745 66.1459 320.269 64.8704C321.568 61.7115 322.355 58.2666 324.059 55.358C329.041 46.9184 338.076 46.3224 345.227 53.3554C352.128 60.1381 353.857 68.3035 351.699 77.6014C349.304 87.8886 342.975 93.2051 332.879 92.1442C329.542 91.7866 328.04 92.168 326.646 95.2435C326.157 96.3163 323.094 97.2222 321.854 96.6858C320.448 96.0779 319.065 93.8488 318.898 92.2038C318.481 88.1628 318.827 84.0503 318.708 79.9735C318.684 78.9722 318.04 77.9947 317.683 77.0053C317.027 78.102 315.835 79.1748 315.799 80.2834C315.68 84.0383 314.631 87.1972 311.783 89.7601C309.935 91.429 308.529 92.5018 305.454 91.727C298.171 89.8793 295.084 87.4356 293.499 80.1523C293.368 79.5682 293.296 78.9364 292.998 78.4596C292.676 77.9351 292.128 77.5418 291.675 77.0888C291.52 77.7325 291.234 78.3762 291.234 79.0199C291.198 83.4781 291.187 87.9482 291.222 92.4064C291.258 97.4964 288.648 97.9494 285.406 97.7467C283.606 97.6395 281.687 98.0686 279.947 98.6646C275.263 100.262 270.71 103.314 266.002 103.54C256.359 104.005 246.514 101.001 245.31 87.9363C244.678 81.1417 244.261 74.3352 243.773 67.5287C243.725 66.9327 243.665 66.0982 243.999 65.7287C249.243 59.9712 254.547 54.2494 262.915 53.2958C266.24 52.9143 269.589 52.8309 272.927 52.4971C277.134 52.068 280.328 53.8203 282.974 56.8957C284.571 58.7553 286.026 59.4348 288.302 57.4798C291.21 54.9766 293.415 57.0984 295.001 59.4944C296.479 61.7592 297.575 64.2744 298.85 67.0638ZM259.053 65.1446C257.408 65.7883 255.739 66.3843 254.118 67.0757C253.189 67.4691 252.056 67.8028 251.496 68.5419C251.151 68.9949 251.46 70.6518 251.901 70.8544C252.867 71.3074 254.178 71.4743 255.215 71.2121C258.075 70.4849 260.96 69.6982 263.665 68.5419C266.848 67.183 267.587 69.0664 267.372 71.3313C267.194 73.1193 266.431 75.253 265.179 76.4451C263.034 78.4835 260.161 79.7589 257.849 81.6662C256.478 82.7986 254.714 84.4675 254.643 85.9694C254.488 89.1999 258.695 92.9309 262.116 93.0501C268.266 93.2766 274.297 92.6329 279.625 89.2118C280.877 88.4012 282.545 87.0542 282.652 85.8383C283.284 78.6861 282.092 71.7365 278.898 65.2757C277.503 62.4625 274.548 60.7222 271.663 61.1394C267.503 61.7592 263.499 63.4996 259.053 65.1446ZM345.168 69.3525C344.274 67.5525 343.69 65.4903 342.414 64.036C340.424 61.7592 339.006 57.5513 335.12 59.0175C332.832 59.8877 330.162 62.5937 329.709 64.8824C328.696 69.9723 329.089 75.3246 328.66 80.5576C328.398 83.7403 330.221 84.6344 332.498 83.7999C336.348 82.3814 340.221 80.7006 343.594 78.3881C346.443 76.4332 345.502 72.7855 345.168 69.3525Z" fill="black"/>
<path d="M220.018 186.482C219.768 182.596 219.112 179.043 219.446 175.586C219.577 174.251 221.818 172.404 223.332 172.129C225.084 171.808 226.49 172.988 227.05 175.539C228.552 182.357 231.389 188.913 232.521 195.768C233.403 201.144 235.215 207.39 229.529 211.741C225.096 215.138 219.827 214.304 214.881 213.731C211.925 213.386 209.041 211.884 206.287 210.573C202.7 208.88 200.793 205.626 199.315 202.085C199.064 201.477 198.397 201.036 197.932 200.512C197.634 201.156 197.11 201.799 197.086 202.443C197.002 206.055 196.943 209.679 197.074 213.29C197.181 216.187 195.703 217.105 193.403 216.032C190.22 214.53 188.194 214.983 185.358 217.403C179.946 222.028 169.541 221.933 163.796 217.677C160.03 214.888 159.052 210 158.79 205.316C158.659 202.896 158.659 200.464 158.79 198.044C158.945 195.291 158.123 195.136 155.858 196.375C151.507 198.76 146.871 200.631 142.64 203.182C141.209 204.04 139.91 206.234 139.767 207.914C139.374 212.468 139.827 217.093 139.577 221.67C139.302 226.57 138.683 231.457 138.063 236.344C137.813 238.275 137.276 240.564 134.594 239.992C132.032 239.456 129.135 238.74 128.969 235.283C128.897 233.877 129.636 232.434 129.648 231.016C129.708 221.241 130.161 211.419 129.505 201.692C129.112 195.815 126.847 190.082 125.607 184.252C125.274 182.691 125.56 180.986 125.739 179.365C125.882 178.066 126.764 176.719 126.537 175.551C125.512 170.067 129.302 168.017 133.176 166.67C145.298 162.438 157.813 160.173 170.709 161.318C172.843 161.508 175.119 162.546 176.895 163.797C179.565 165.693 178.921 168.768 175.691 169.579C172.413 170.401 168.981 170.616 165.632 171.188C156.954 172.69 148.242 174.049 139.624 175.849C135.619 176.683 134.13 180.211 135.405 184.157C135.691 185.051 136.168 185.886 136.466 186.78C138.838 193.646 138.766 193.515 145.56 190.356C150.041 188.27 154.678 186.505 159.326 184.813C164.595 182.905 167.908 185.242 167.944 190.701C167.98 195.291 167.825 199.892 168.015 204.469C168.087 206.21 168.361 208.403 169.446 209.524C170.745 210.871 173.272 212.289 174.809 211.896C178.23 211.026 180.352 207.795 180.042 204.446C179.636 199.987 177.98 195.648 176.967 191.238C176.406 188.77 176.001 186.267 175.632 183.752C175.322 181.654 175.977 180.009 178.29 179.58C180.804 179.115 182.557 179.89 183.296 182.584C184.201 185.886 185.25 189.164 186.371 192.406C186.681 193.312 187.443 194.051 187.992 194.874C188.456 193.968 189.41 193.002 189.303 192.168C188.886 188.794 190.745 186.553 193.391 185.838C196.597 184.98 200.244 185.313 202.342 188.568C203.927 191.035 205.215 193.765 206.18 196.53C207.956 201.608 212.128 203.706 216.681 204.696C221.317 205.709 223.939 203.659 222.974 197.055C222.485 193.61 221.031 190.272 220.018 186.482Z" fill="black"/>
<path d="M231.496 98.45C228.957 95.2553 227.539 91.9773 229.124 87.9839C229.494 87.078 228.969 85.8144 228.85 84.7058C228.051 85.2184 227.205 85.6595 226.466 86.2555C219.363 92.0369 214.44 92.8236 206.132 89.5932C203.248 88.4727 202.533 86.1363 202.426 83.5377C202.116 76.2067 203.88 69.4121 208.051 63.3088C208.385 62.8201 208.766 62.2837 208.838 61.7354C208.969 60.7221 208.886 59.6731 208.886 58.648C208.182 59.101 207.384 59.4586 206.788 60.0308C200.03 66.5154 198.361 74.4067 199.923 83.4542C200.805 88.58 200.268 93.8487 197.634 98.4262C196.979 99.5586 194.19 100.023 192.509 99.797C191.579 99.6778 190.256 97.4964 190.256 96.2447C190.256 89.3071 190.209 82.3814 187.777 75.8014C186.728 72.9405 184.976 70.318 183.391 67.6836C183.009 67.0518 181.496 66.3128 181.4 66.4081C180.626 67.2902 179.636 68.3154 179.505 69.3882C179.231 71.7842 179.553 74.2279 179.398 76.6477C178.969 82.9416 178.349 89.2356 177.92 95.5295C177.765 97.854 178.182 100.262 177.765 102.527C177.574 103.552 175.739 105.245 175.107 105.066C172.64 104.339 169.076 104.839 168.707 100.858C167.932 92.5017 167.086 84.1575 166.454 75.7894C166.204 72.4517 166.43 69.2094 162.664 67.3498C161.925 66.9922 161.376 64.2148 161.937 63.5711C165.596 59.3036 166.263 54.1302 167.455 48.9568C169.493 40.1238 174.928 33.4246 182.664 28.9187C187.014 26.3916 191.83 24.6035 196.585 22.8751C199.684 21.7546 206.192 26.8088 206.097 30.1226C206.085 30.7306 204.297 31.9107 203.498 31.7915C197.753 30.8617 193.105 33.3173 188.838 36.5238C183.51 40.5291 178.599 44.9634 176.716 51.7938C175.727 55.3818 176.311 56.407 179.958 56.3593C183.915 56.3116 187.133 57.754 189.589 60.8175C191.651 63.3804 193.01 64.1075 194.845 60.3168C197.312 55.2269 200.96 50.9117 206.228 48.325C211.782 45.5952 215.93 47.1925 217.777 53.7607C219.363 59.3751 217.837 64.2029 215.382 69.0306C214.035 71.665 212.64 74.2756 211.341 76.9219C210.078 79.4967 210.674 80.5933 213.784 80.9748C219.935 81.7377 228.719 75.5749 230.018 68.1604C230.626 64.7035 230.447 60.8533 233.749 58.2069C235.87 56.5023 237.205 56.5858 237.527 59.2917C237.849 61.9738 237.658 64.7274 237.587 67.4452C237.36 76.1351 237.027 84.837 236.86 93.5269C236.812 96.9123 235.787 99.0579 231.496 98.45Z" fill="black"/>
<path d="M145 416.151C144.487 409.344 143.879 402.931 143.522 396.506C143.403 394.337 143.295 391.666 144.392 390.057C145.882 387.876 148.301 385.968 150.745 384.86C158.54 381.308 166.68 382.619 174.642 384.276C178.897 385.158 183.105 386.588 187.098 388.317C192.592 390.713 193.653 395.707 191.389 401.608C187.968 410.489 180.089 414.696 173.188 419.977C172.902 420.192 172.533 420.347 172.318 420.609C170.912 422.361 168.742 424.006 168.409 425.961C168.111 427.666 174.416 429.275 177.324 428.679C179.148 428.309 181.079 428.417 182.962 428.417C185.393 428.417 185.977 427.737 184.929 425.258C184.249 423.672 184.094 421.3 184.833 419.846C185.524 418.475 188.063 416.806 189.136 417.164C190.793 417.736 192.175 419.763 193.165 421.467C194.583 423.899 195.274 426.76 196.74 429.144C199.529 433.638 202.032 434.401 206.18 431.361C209.756 428.739 213.88 426.08 213.892 420.68C213.904 414.232 209.398 409.499 202.747 409.308C200.316 409.237 197.849 410.012 195.417 409.928C193.975 409.881 192.569 408.891 191.138 408.331C191.627 407.187 191.877 405.863 192.628 404.934C200.483 395.111 217.92 398.294 222.199 411.549C223.415 415.316 223.594 419.5 223.701 423.506C223.749 425.079 222.545 426.879 221.496 428.262C215.727 435.855 208.659 441.493 198.564 441.279C196.24 441.231 193.081 440.254 191.818 438.561C188.695 434.401 185.06 435.438 181.198 436.189C175.167 437.357 169.076 437.619 163.379 435.188C157.455 432.648 155.941 423.47 160.101 419.846C164.642 415.9 169.541 412.372 174.082 408.426C176.681 406.161 179.076 403.587 181.186 400.857C182.485 399.164 182.294 397.412 179.458 396.959C172.068 395.767 164.714 394.348 157.312 393.204C154.046 392.703 153.057 394.837 153.438 397.638C154.106 402.562 155.286 407.449 155.596 412.384C155.846 416.306 155.155 420.299 154.821 424.257C154.714 425.58 154.297 426.867 154.189 428.19C153.391 437.309 152.795 446.44 151.806 455.536C151.376 459.481 146.549 461.794 143.796 459.541C142.747 458.683 141.96 456.787 142.02 455.404C142.306 449.48 142.985 443.579 143.438 437.667C144.01 430.658 144.487 423.589 145 416.151Z" fill="black"/>
<path d="M286.8 309.547C287.563 309.035 288.731 308.188 288.612 307.64C287.229 301.489 285.656 295.374 284.107 289.247C282.188 281.654 284.393 275.789 293.666 275.109C300.042 274.644 306.252 272.284 312.605 271.164C319.196 269.995 325.859 269.137 332.522 268.529C333.892 268.41 335.406 270.007 336.86 270.818C336.217 271.879 335.823 273.321 334.894 273.941C332.736 275.372 330.424 276.754 327.981 277.505C323.69 278.817 321.783 282.011 322.522 286.41C323.761 293.729 325.036 301.084 325.489 308.474C325.799 313.636 324.405 318.63 319.017 321.372C316.431 322.683 314.893 322.075 314.953 319.155C315.013 316.068 315.775 312.968 315.597 309.917C315.311 305.041 314.584 300.19 313.892 295.35C313.332 291.404 312.307 287.518 311.949 283.573C311.783 281.677 311.365 281.189 309.578 281.391C306.502 281.737 303.415 281.963 300.34 282.166C298.088 282.321 296.014 282.19 295.692 279.126C295.632 278.554 294.56 278.089 293.964 277.577C293.546 278.28 292.676 279.055 292.784 279.663C293.499 283.549 294.44 287.375 295.263 291.238C296.467 296.864 298.266 302.443 298.684 308.129C299.268 316.139 292.068 321.05 284.309 318.535C278.445 316.628 274.107 313.087 271.997 307.08C271.663 306.126 270.614 305.435 269.887 304.624C269.589 305.649 269.112 306.651 269.017 307.699C268.683 311.156 268.612 314.637 268.183 318.082C267.813 321.086 265.37 322.91 262.879 322.505C261.151 322.23 258.719 319.763 258.469 318.011C257.67 312.456 257.849 306.77 257.468 301.143C257.277 298.366 256.693 295.612 256.311 292.835C256.216 292.155 255.918 291.237 256.24 290.796C258.493 287.626 260.388 283.942 263.332 281.57C268.123 277.696 273.809 280.175 275.823 286.708C277.158 291.035 277.98 295.517 278.934 299.963C279.899 304.433 283.07 307.032 286.8 309.547Z" fill="black"/>
<path d="M396.074 186.482C395.311 181.439 394.596 176.779 393.762 172.13C393.201 169.006 394.966 167.266 397.48 166.682C399.912 166.122 402.498 167.302 402.88 169.912C404.143 178.769 405.514 187.662 405.824 196.566C405.967 200.786 404.834 205.793 402.486 209.178C397.957 215.687 385.049 215.388 378.505 209.762C373.988 205.876 369.983 201.561 369.983 194.921C369.983 193.908 368.827 192.883 368.195 191.87C367.802 192.954 367.266 194.015 367.027 195.124C366.205 198.998 365.776 203.003 364.548 206.746C364.071 208.189 361.854 209.989 360.412 209.989C358.136 210.001 355.99 208.582 356.252 205.495C356.336 204.541 356.05 203.552 355.931 202.586C355.132 203.087 354.298 203.54 353.523 204.088C348.314 207.795 342.689 209.917 336.169 210.299C325.43 210.918 321.199 200.989 324.655 192.561C326.312 188.532 328.624 184.849 328.147 180.14C328.064 179.318 330.317 177.518 331.592 177.422C338.374 176.922 345.132 177.243 350.698 181.928C352.736 183.645 354.465 185.719 356.276 187.674C356.753 188.186 357.027 188.89 357.397 189.498C357.79 188.806 358.314 188.151 358.577 187.411C360.698 181.368 366.121 178.745 372.105 181.165C375.74 182.631 376.837 186.184 377.671 189.545C379.006 194.886 381.128 199.63 385.549 203.134C389.983 206.651 394.179 205.018 395.204 199.928C396.038 195.684 395.812 191.226 396.074 186.482ZM345.168 191.083C339.876 186.553 336.968 187.125 334.095 193.336C333.654 194.29 333.547 195.386 333.308 196.423C332.45 200.13 334.226 202.467 337.885 201.68C340.329 201.156 342.629 199.654 344.798 198.271C348.755 195.768 348.791 194.719 345.168 191.083Z" fill="black"/>
<path d="M248.338 386.29C250.125 387.041 252.187 387.459 252.795 388.627C254.047 391.035 254.881 391.833 257.956 391.059C263.475 389.676 269.303 389.545 274.941 388.543C282.271 387.244 289.518 385.539 296.836 384.192C298.123 383.954 299.589 384.669 300.972 384.955C300.555 386.267 300.543 388.078 299.661 388.782C296.848 390.987 293.773 392.906 290.65 394.67C288.66 395.791 287.635 396.876 288.493 399.307C291.496 407.878 292.235 416.818 291.89 425.794C291.759 429.204 291.103 432.935 289.47 435.819C288.35 437.798 285.036 439.753 282.843 439.622C279.518 439.419 280.078 435.641 280.626 433.471C282.581 425.663 282.402 417.987 280.364 410.286C279.732 407.866 279.196 405.423 278.445 403.038C276.991 398.413 275.31 397.865 270.65 398.711C267.17 399.343 263.499 398.95 259.911 399.021C259.041 399.045 257.825 398.807 257.396 399.272C256.967 399.725 257.134 400.976 257.36 401.787C259.601 409.797 260.173 417.987 258.195 425.985C255.537 436.761 239.231 440.361 232.08 432.899C229.458 430.157 228.194 425.878 227.026 422.075C225.787 418.07 225.453 413.803 224.607 409.666C224.011 406.793 225.644 403.563 228.099 403.146C231.234 402.621 233.236 404.385 233.844 407.795C234.738 412.885 235.787 417.939 236.907 422.981C237.36 425.043 242.521 428.858 244.309 428.345C247.181 427.535 247.813 424.912 248.361 422.385C250.233 413.624 247.634 405.327 245.644 396.971C245.262 395.338 244.798 393.717 244.559 392.072C244.118 389.27 245.548 387.47 248.338 386.29Z" fill="black"/>
<path d="M250.638 171.939C255.882 169.042 259.399 169.781 262.509 174.227C265.31 178.233 264.476 178.221 272.116 176.027C280.638 173.596 289.137 170.997 297.468 167.969C299.971 167.063 300.948 167.838 301.878 169.507C302.939 171.39 303.427 173.298 301.437 175.169C298.684 177.756 295.358 180.152 295.072 184.36C294.691 190.081 294.464 195.827 294.488 201.573C294.5 203.933 295.275 206.305 295.799 208.653C296.61 212.229 293.976 213.278 291.556 213.958C288.958 214.697 287.206 212.909 286.657 210.561C285.68 206.341 284.643 202.049 284.417 197.746C284.166 193.157 284.798 188.532 285.072 183.919C285.179 182.011 284.905 181.141 282.51 181.809C277.909 183.096 273.153 183.847 268.529 185.027C267.778 185.218 267.027 186.41 266.776 187.28C266.478 188.341 267.146 189.855 266.61 190.642C265.501 192.251 263.904 194.599 262.438 194.647C260.185 194.73 257.122 193.956 257.503 190.225C257.563 189.593 257.647 188.913 257.48 188.317C257.217 187.423 256.753 186.577 256.383 185.719C255.739 186.315 254.786 186.791 254.5 187.519C252.617 192.477 250.412 197.401 249.327 202.538C248.922 204.457 250.781 207.378 252.402 209.094C254.726 211.55 257.813 209.988 259.971 208.57C264.047 205.888 267.682 202.55 271.592 199.618C272.831 198.688 274.393 198.199 275.799 197.496C276.073 199.296 277.134 201.442 276.514 202.836C271.437 214.077 261.949 221.611 248.576 217.844C242.617 216.163 240.34 211.252 240.018 205.888C239.303 193.991 242.319 182.917 249.148 173.012C249.458 172.618 249.887 172.296 250.638 171.939Z" fill="black"/>
<path d="M654.216 195.481C652.917 192.382 651.856 189.593 654.705 186.875C656.481 185.182 657.196 185.54 658.531 187.399C659.699 189.033 661.511 190.332 663.275 191.369C663.906 191.738 665.253 190.88 666.278 190.594C665.754 189.748 665.432 188.425 664.693 188.115C660.557 186.422 656.29 185.027 652.118 183.406C650.807 182.894 649.651 181.988 648.423 181.26C647.911 180.962 647.398 180.664 646.874 180.378C646.707 180.927 646.373 181.487 646.409 182.023C646.6 184.729 646.683 187.459 647.196 190.105C648.078 194.766 646.171 197.711 642.059 197.103C640.843 196.924 639.162 195.553 638.853 194.409C637.768 190.475 637.124 186.422 636.457 182.393C635.611 177.243 635.026 172.046 634.097 166.92C633.453 163.344 635.432 159.196 638.888 157.408C644.335 154.595 649.925 152.532 656.159 151.984C667.482 150.995 669.842 161.032 666.385 168.351C665.575 170.067 664.526 171.867 663.12 173.071C660.772 175.086 662.059 176.206 663.763 177.291C664.848 177.97 666.099 178.4 667.315 178.841C674.181 181.356 677.375 189.187 673.942 195.291C671.713 199.248 667.613 199.367 663.918 199.391C660.462 199.403 656.791 198.914 654.216 195.481ZM644.848 170.794C645.658 171.772 646.469 172.749 647.279 173.727C650.557 170.389 653.906 167.135 657.053 163.666C658.149 162.462 657.756 161.032 655.789 161.282C653.179 161.604 650.545 162.069 648.018 162.808C643.966 163.976 643.203 165.931 644.848 170.794Z" fill="black"/>
<path d="M608.292 152.998C604.395 154.082 600.7 155.024 596.981 155.858C593.799 156.562 594.168 159.029 594.371 161.211C594.74 165.347 595.92 169.483 595.73 173.572C595.42 180.533 594.323 187.471 593.56 194.409C593.322 196.602 592.821 198.784 592.845 200.977C592.881 204.267 590.712 205.077 588.232 205.614C585.229 206.258 584.311 204.505 583.536 201.895C581.677 195.553 583.965 189.557 584.8 183.49C585.622 177.518 585.42 171.653 584.657 165.752C584.633 165.526 584.418 165.335 584.371 165.109C583.107 158.803 583.155 159.005 576.266 160.388C572.642 161.115 568.852 161.08 565.133 161.211C561.689 161.33 558.399 158.135 558.34 154.869C558.28 152.163 561.057 149.91 564.8 149.779C567.47 149.684 570.187 150.065 572.821 149.707C580.008 148.718 587.196 147.633 594.323 146.263C604.8 144.26 615.205 141.912 625.67 139.897C626.826 139.671 629.27 140.636 629.317 141.208C629.448 142.591 628.876 144.415 627.947 145.476C624.049 149.874 618.376 150.542 613.119 152.032C611.63 152.437 610.032 152.545 608.292 152.998Z" fill="black"/>
<path d="M330.817 392.227C334.929 391.655 338.839 391.202 342.772 390.939C343.63 390.88 344.524 391.547 345.406 391.893C344.965 392.692 344.691 393.693 344.036 394.241C341.89 396.017 339.757 397.937 337.313 399.212C335.287 400.273 334.631 401.584 334.834 403.634C335.239 407.675 333.38 409.928 329.768 411.812C323.523 415.066 317.087 416.842 310.078 416.985C309.137 417.009 308.207 418.034 307.277 418.606C307.933 419.584 308.362 420.955 309.268 421.491C316.371 425.627 323.821 425.318 331.437 423.065C332.617 422.719 334.035 423.112 335.335 423.172C334.882 424.316 334.703 425.711 333.916 426.557C325.752 435.378 305.621 436.63 297.253 423.935C295.704 421.598 295.287 418.249 295.132 415.328C294.929 411.633 295.299 407.854 295.906 404.195C296.157 402.717 297.396 400.666 298.66 400.201C308.29 396.673 318.135 393.86 328.326 392.441C329.077 392.322 329.864 392.417 330.817 392.227ZM312.247 403.897C311.211 404.147 310.174 404.552 309.125 404.624C307.504 404.755 305.323 404.385 305.918 406.865C306.109 407.675 308.541 408.569 309.78 408.379C314.619 407.628 319.411 406.519 324.178 405.375C325.263 405.113 326.169 404.159 327.158 403.527C325.788 403.146 324.393 402.347 323.07 402.454C319.709 402.717 316.371 403.396 312.247 403.897Z" fill="black"/>
<path d="M126.048 38.5384C132.091 44.582 132.652 54.0706 127.205 61.3897C124.666 64.787 121.71 67.9578 118.516 70.7471C116.942 72.1299 114.439 72.9286 112.294 73.0478C109.576 73.2027 108.897 74.1206 108.957 76.6835C109.112 83.3112 108.933 89.9508 109.04 96.5785C109.088 99.2487 107.8 101.359 105.488 101.287C103.819 101.239 101.173 99.4036 100.78 97.9017C99.2902 92.1918 98.1937 86.3389 97.6216 80.4622C96.7396 71.4743 96.6681 62.3671 99.8981 53.7726C103.283 44.7727 109.934 39.0867 119.469 37.3106C121.472 36.9411 123.724 37.9662 126.048 38.5384ZM121.269 52.9024C121.543 52.1276 121.936 51.3647 122.044 50.5541C122.199 49.3501 122.139 48.1343 122.175 46.9184C121.209 47.0018 120.172 46.8826 119.278 47.1926C114.427 48.8972 111.138 52.5567 108.42 56.6573C106.573 59.4347 105.929 62.6175 107.455 65.9552C108.039 67.2306 108.218 68.6968 108.587 70.0677C109.505 68.9591 110.446 67.8624 111.317 66.73C114.642 62.3791 117.955 58.0162 121.269 52.9024Z" fill="black"/>
<path d="M708.567 191.655C702.619 182.655 703.74 173.393 707.303 164.37C709.604 158.541 714.705 155.596 720.867 154.285C728.197 152.723 735.432 150.697 742.763 149.064C743.656 148.861 745.48 149.672 745.706 150.387C745.993 151.269 745.301 152.735 744.598 153.617C740.641 158.6 734.681 159.601 729.044 161.211C726.076 162.057 723.025 162.665 720.128 163.702C718.817 164.167 717.292 165.204 716.767 166.384C716.147 167.767 716.517 169.603 716.469 171.236C717.542 171.212 718.698 171.438 719.675 171.128C725.051 169.364 730.379 167.433 735.754 165.645C736.362 165.442 737.578 165.526 737.768 165.872C738.078 166.468 738.126 167.767 737.733 168.101C734.562 170.747 731.487 173.632 727.923 175.634C725.003 177.279 721.439 177.768 718.186 178.829C716.135 179.496 714.467 180.736 715.325 183.12C716.326 185.91 718.65 187.769 721.57 187.114C724.264 186.506 726.803 184.968 729.223 183.526C730.605 182.703 731.451 181.01 732.822 180.152C733.895 179.485 736.183 178.865 736.541 179.318C737.482 180.522 738.555 182.763 738.031 183.812C733.919 191.858 719.759 198.009 713.263 194.874C711.642 194.099 710.247 192.871 708.567 191.655Z" fill="black"/>
<path d="M630.497 182.465C631.332 187.495 632.118 192.323 632.5 197.174C632.595 198.402 631.511 200.774 630.807 200.846C628.424 201.06 625.205 202.193 624.228 198.509C623.286 194.921 622.738 191.226 621.868 187.614C621.403 185.671 620.628 183.8 619.985 181.892C617.565 183.347 614.085 184.253 612.953 186.386C611.058 189.962 610.497 194.313 609.711 198.39C609.043 201.871 606.91 204.386 604.168 204.076C600.402 203.635 599.377 201.072 599.746 197.794C600.187 193.813 600.891 189.855 601.439 185.886C601.63 184.503 601.975 183.049 601.761 181.702C600.938 176.421 606.981 174.573 607.446 169.853C607.804 166.134 610.235 163.273 613.227 161.27C618.471 157.754 623 159.339 626.457 165.895C629.115 170.985 630.474 176.469 630.497 182.465ZM618.435 174.24C618.257 173.298 618.078 172.344 617.887 171.403C617.446 171.701 616.588 172.189 616.624 172.261C617.029 173.071 617.553 173.846 618.435 174.24Z" fill="black"/>
<path d="M405.061 51.174C406.014 54.1064 407.266 56.8242 407.457 59.6016C407.981 67.2545 408.231 74.9431 408.255 82.6079C408.279 88.6277 407.028 94.7309 407.778 100.62C408.446 105.864 407.802 110.406 405.264 114.733C404.501 116.021 402.367 117.63 401.271 117.368C399.078 116.843 400.424 114.852 400.484 113.184C400.627 109.286 399.733 105.364 399.495 101.442C399.28 97.9613 399.185 94.4448 399.376 90.9641C399.614 86.6727 400.246 82.4053 400.615 78.1139C400.663 77.6133 400.103 77.0769 399.828 76.5524C399.376 76.7908 398.768 76.9219 398.494 77.2914C394.906 82.143 390.079 81.0583 385.478 79.7232C381.807 78.6503 380.877 75.1338 380.841 71.8677C380.782 66.1102 380.913 60.3049 381.7 54.6189C381.986 52.4971 384.322 50.6614 385.728 48.6826C386.622 49.5409 388.243 50.3634 388.291 51.2693C388.541 56.2282 388.553 61.2109 388.362 66.1817C388.255 68.9591 389.304 71.522 391.771 71.367C393.547 71.2597 395.824 68.8637 396.682 66.9565C398.029 63.9645 398.494 60.5434 399.101 57.2653C399.721 53.8799 401.7 51.9249 405.061 51.174Z" fill="black"/>
<path d="M679.103 172.511C679.806 168.577 680.474 164.858 680.772 161.103C681.01 158.147 681.606 154.869 680.617 152.27C679.461 149.207 681.01 147.514 682.75 146.918C684.979 146.155 688.34 145.964 689.151 149.278C690.259 153.832 691.689 158.636 691.26 163.165C690.652 169.507 688.376 175.67 686.97 181.94C685.956 186.493 689.329 189.271 694.204 187.995C696.147 187.495 697.995 186.66 699.937 186.184C700.736 185.981 702.011 185.993 702.44 186.482C702.858 186.946 702.691 188.222 702.393 188.985C700.569 193.503 696.35 194.695 692.25 195.577C689.651 196.137 686.731 196.137 684.157 195.529C682.357 195.1 680.08 193.538 679.461 191.929C677.708 187.387 675.706 182.691 677.732 177.577C678.328 176.027 678.531 174.335 679.103 172.511Z" fill="black"/>
<path d="M367.742 46.3939C366.395 52.7236 364.846 58.6242 363.773 64.6082C363.154 68.0651 362.903 71.7127 363.261 75.1935C363.69 79.4133 367.635 80.9271 371.127 78.555C372.653 77.5298 373.988 76.2305 375.43 75.0743C375.847 74.7405 376.324 74.4782 376.777 74.1802C377.087 74.6928 377.552 75.1696 377.671 75.718C378.66 80.6291 373.63 88.437 368.696 89.2118C360.782 90.4515 353.892 86.0052 354.786 76.4093C355.299 70.9617 356.05 65.5261 357.099 60.1619C358.064 55.2746 359.578 50.4945 360.865 45.6787C360.96 45.3449 361.115 44.9754 361.366 44.7489C362.724 43.4854 364.155 41.1967 365.478 41.2563C367.909 41.3636 367.921 43.9264 367.742 46.3939Z" fill="black"/>
<path d="M111.126 309.929C111.722 315.257 110.673 319.87 107.574 324.221C104.809 328.095 96.3105 331.814 91.3045 328.036C89.9815 327.046 88.7062 325.282 88.4559 323.709C87.3951 316.962 92.9255 307.473 98.9684 304.326C105.083 301.155 109.827 304.457 111.126 309.929Z" fill="black"/>
<path d="M310.15 215.77C308.255 210.179 307.635 204.839 308.612 199.058C309.292 195.052 308.064 190.725 307.73 186.541C307.551 184.312 306.908 181.928 307.468 179.89C307.837 178.531 309.792 177.136 311.33 176.647C313.857 175.849 315.954 177.458 316.383 179.818C317.623 186.577 319.768 193.229 318.136 200.369C317.361 203.766 318.004 207.473 318.004 211.049C317.992 216.545 315.323 218.249 310.15 215.77Z" fill="black"/>
<path d="M101.936 192.037C104.356 201.06 102.342 208.284 95.1186 212.218C90.2675 214.864 83.426 210.549 82.9374 204.958C82.3056 197.782 86.1078 192.859 95.0828 191.083C97.3594 190.642 99.8266 188.997 101.936 192.037Z" fill="black"/>
<path d="M103.855 417.867C107.24 413.826 112.091 414.017 116.275 413.29C120.149 412.622 123.307 418.499 121.638 422.278C119.302 427.535 116.537 432.339 110.494 434.246C105.691 435.76 100.899 433.316 100.816 428.214C100.744 424.853 102.64 421.455 103.855 417.867Z" fill="black"/>
<path d="M546.862 286.768C545.908 293.157 543.453 298.128 538.006 301.441C532.809 304.588 527.553 302.3 527.064 296.173C526.921 294.397 527.636 292.311 528.566 290.737C530.592 287.292 531.808 283.239 536.719 282.071C542.797 280.629 544.454 280.998 546.862 286.768Z" fill="black"/>
<path d="M526.778 167.922C533.036 166.015 533.095 166.003 535.36 171.927C536.29 174.347 537.446 176.85 537.577 179.365C537.887 185.397 530.878 189.39 525.503 186.494C519.424 183.216 517.66 176.731 521.701 171.26C522.773 169.805 524.919 169.138 526.778 167.922Z" fill="black"/>
<path d="M145.572 79.8781C143.069 80.3192 140.733 80.8675 138.456 80.7125C137.276 80.6291 135.524 79.4847 135.226 78.4715C134.904 77.3629 135.548 75.1457 136.466 74.6212C141.281 71.8915 146.287 69.5074 151.269 67.0876C152.211 66.6346 153.343 66.3008 154.368 66.3485C155.774 66.4201 158.277 66.7538 158.361 67.2664C158.599 68.9114 158.504 71.1763 157.515 72.2968C155.798 74.2279 153.367 75.5749 151.126 76.9815C149.434 78.0424 147.562 78.7934 145.572 79.8781Z" fill="black"/>
<path d="M232.449 41.2204C232.771 40.5767 232.771 40.0164 233.045 39.6946C234.476 38.0615 235.989 36.4999 237.467 34.9026C238.54 36.631 239.625 38.3476 240.662 40.0879C240.769 40.2787 240.638 40.5886 240.685 40.8389C241.079 42.8773 243.224 45.4998 239.434 46.3342C234.988 47.3117 232.521 45.4402 232.449 41.2204Z" fill="black"/>
<path d="M317.42 158.731C317.742 161.318 318.457 163.905 317.778 166.038C317.361 167.338 314.834 168.601 313.177 168.709C311.342 168.816 309.852 163.511 310.734 161.199C311.961 157.956 314.286 157.527 317.42 158.731Z" fill="black"/>
<path d="M769.425 27.0591C767.34 29.8842 765.492 28.7041 763.764 27.1068C761.964 25.4499 760.14 23.6976 761.964 20.9321C763.585 18.4646 766.374 18.1427 768.436 19.0725C770.188 19.8592 771.416 22.2195 769.676 24.6393C769.306 25.1399 769.616 26.1174 769.425 27.0591Z" fill="black"/>
<path d="M768.853 35.6775C771.809 36.202 772.334 38.1212 771.845 40.2072C771.464 41.8403 770.808 44.0098 769.592 44.6416C768.639 45.1422 766.326 43.9979 765.218 42.9489C764.217 42.0072 763.18 39.5397 763.668 38.896C764.765 37.4417 766.803 36.7026 768.853 35.6775Z" fill="black"/>
</g>
<defs>
<filter id="filter0_d" x="0" y="0" width="778" height="504" filterUnits="userSpaceOnUse" color-interpolation-filters="sRGB">
<feFlood flood-opacity="0" result="BackgroundImageFix"/>
<feColorMatrix in="SourceAlpha" type="matrix" values="0 0 0 0 0 0 0 0 0 0 0 0 0 0 0 0 0 0 127 0"/>
<feOffset dy="6"/>
<feGaussianBlur stdDeviation="3"/>
<feColorMatrix type="matrix" values="0 0 0 0 0 0 0 0 0 0 0 0 0 0 0 0 0 0 0.4 0"/>
<feBlend mode="normal" in2="BackgroundImageFix" result="effect1_dropShadow"/>
<feBlend mode="normal" in="SourceGraphic" in2="effect1_dropShadow" result="shape"/>
</filter>
<clipPath id="clip0">
<rect width="766" height="492" fill="white" transform="translate(6)"/>
</clipPath>
</defs>
</svg>
