<svg width="1105" height="906" viewBox="0 0 1105 906" fill="none" xmlns="http://www.w3.org/2000/svg">
<g filter="url(#filter0_d)">
<path d="M286.17 860.89C288.62 862.67 290.91 864.09 292.97 865.79C293.82 866.49 294.14 867.81 294.71 868.85C293.22 869.55 291.57 871.07 290.26 870.81C282.52 869.28 280.5 870.41 279.98 878.03C279.64 883.01 279.72 888.03 279.97 893.02C280.24 898.57 284.67 895.62 287.2 895.99C289.46 896.32 291.89 895.33 294.27 895.2C295.13 895.15 296.04 895.89 296.92 896.27C296.25 897.22 295.76 898.75 294.87 899.03C291.9 899.97 288.8 900.52 285.73 901.12C283.55 901.54 281.33 901.74 279.15 902.15C275.82 902.77 272.75 898.9 273.04 895.41C273.62 888.49 273.74 881.53 273.8 874.58C273.81 873.77 271.69 872.16 271.56 872.26C269.58 873.75 266.29 875.37 266.18 877.14C265.81 882.95 265.77 889.06 267.28 894.6C268.14 897.76 266.3 898.59 265.24 898.99C259.49 901.21 253.56 902.97 247.67 904.85C246.92 905.09 246.03 905.28 245.3 905.09C244.12 904.78 243.03 904.14 241.91 903.65C242.7 902.82 243.34 901.67 244.3 901.2C248.59 899.11 252.98 897.24 257.31 895.21C258.25 894.77 259.77 894.04 259.79 893.39C259.99 888.23 260.01 883.06 259.77 877.91C259.74 877.28 257.69 876.09 256.8 876.27C253.32 876.96 249.94 878.19 246.48 879.03C244.95 879.4 243.31 879.34 241.72 879.47C241.76 877.88 241.23 875.94 241.95 874.76C245.63 868.74 249.17 862.55 253.62 857.13C259.83 849.56 259.17 841.64 256.5 833.27C255.76 830.94 254.57 829.34 251.98 831.55C247.56 835.34 243.04 839.02 238.73 842.92C237.78 843.78 237.4 845.34 236.96 846.64C236.83 847.02 237.42 847.63 237.68 848.14C238.09 847.78 238.5 847.43 238.9 847.07C239.86 846.22 240.82 845.37 241.78 844.51C243.49 846.8 245.21 849.08 246.86 851.42C246.94 851.53 246.37 852.2 246.02 852.51C243.75 854.5 236.84 854.1 234.44 852.29C232.63 850.92 230.33 850.19 228.28 849.12C227.45 848.69 226.21 848.25 226.04 847.59C225.88 846.95 226.67 845.81 227.35 845.25C234.77 839.07 242.04 832.7 249.77 826.94C254.53 823.39 254.01 818.81 253.85 814.09C253.8 812.39 253.51 810.57 252.8 809.05C252.26 807.88 251.04 806.61 249.85 806.23C245.14 804.69 240.16 803.87 235.61 801.99C233.18 800.98 232.74 801.39 231.84 803.44C230.02 807.52 228.08 811.58 225.8 815.42C224.89 816.95 223.07 818.09 221.43 818.95C220.75 819.31 219.09 818.77 218.53 818.1C218.03 817.5 218.07 815.97 218.49 815.16C219.42 813.36 220.72 811.74 221.9 810.07C226.02 804.25 226.23 797.84 224.91 791.14C223.13 782.14 224.78 777.98 232.41 773.21C236.74 770.5 241.1 767.59 245.85 765.88C256.13 762.17 266.18 764.02 275.47 769.33C281.36 772.69 285.41 783.92 283.9 790.95C282.72 796.42 287.66 801.02 293.06 799.52C293.97 799.27 294.97 799.12 295.91 799.2C296.92 799.28 297.91 799.69 298.9 799.96C298.36 801.07 298.06 802.44 297.23 803.24C294.29 806.07 285.13 806.34 282.52 803.05C278.91 798.5 275.88 799.04 271.71 802.05C269.43 803.7 266.09 803.82 263.61 805.29C262.01 806.24 261 808.32 259.96 810.03C259.59 810.64 259.9 811.66 259.9 812.49C259.9 821.62 263.75 824.95 272.76 823.11C279.83 821.66 286.62 819.59 289.01 811.36C289.38 810.09 291.11 809.22 292.21 808.17C292.44 809.42 292.63 810.69 292.93 811.93C293.15 812.83 293.51 813.69 293.81 814.56C294.63 814.14 295.44 813.68 296.29 813.32C297.07 812.98 297.89 812.74 298.7 812.45C298.61 813.35 298.87 814.71 298.38 815.08C296.1 816.8 298.09 817.55 298.91 818.72C299.48 819.53 300.18 821.29 300 821.41C298.9 822.15 297.29 823.29 296.36 822.94C292.75 821.58 289.82 822.36 286.43 824C279.43 827.39 272.1 829.96 264.05 827.31C263.66 827.18 261.84 829.31 262.05 829.75C263.88 833.65 263.84 838.14 268.12 841.32C272.17 844.33 274.47 849.6 277.92 853.55C280.25 856.18 283.23 858.28 286.17 860.89ZM232.42 793.14C243.66 803.29 256.43 805.04 269.38 796.94C274.32 793.85 278.01 788.91 276.89 782.24C276.08 777.43 273.21 773.8 268.63 772.47C257.53 769.25 246.65 767.44 236.79 776.57C230.88 782.03 229.23 785.44 232.42 793.14Z" fill="black"/>
<path d="M973.17 288.89C969.03 285.81 966.81 282.14 968.01 277.24C968.38 275.74 969.84 274.5 970.8 273.14C971.84 274.42 973.77 275.72 973.76 276.99C973.68 282.18 977.1 283.59 981.05 284.79C986.19 286.34 988.43 284.65 988.98 279.21C989.36 275.46 990.34 271.77 990.89 268.03C991.26 265.53 990.36 264.43 987.46 264.01C980.77 263.05 975.64 258.92 972.07 253.5C969.68 249.86 971.5 245.89 974.59 243.06C976.93 240.92 978.2 238.76 978.09 235.41C978.03 233.68 979.71 231.89 980.6 230.13C981.71 231.34 982.7 232.7 983.95 233.73C985.13 234.7 986.71 236.16 987.92 235.99C995.57 234.92 1003.18 233.56 1010.76 232.04C1012.31 231.73 1013.68 230.39 1015.08 229.45C1017.17 228.04 1019.93 224.93 1021.14 225.46C1023.87 226.65 1026.29 229.04 1026.1 233.13C1025.98 235.74 1027.2 238.63 1028.47 241.06C1031.21 246.3 1029.89 252.78 1024.95 256.12C1023.66 256.99 1022.15 257.59 1021.01 258.61C1019.02 260.39 1017.3 261.8 1018.74 265.47C1021.71 273 1020.16 280.95 1018.82 288.69C1018.4 291.13 1017.46 293.47 1016.95 295.9C1015.41 303.13 1010.34 306.8 1003.06 305.02C997.38 303.63 991.19 302.42 989.74 294.88C989.52 293.71 986.86 292.72 985.16 292.19C981.3 291 977.34 290.14 973.17 288.89Z" fill="black"/>
<path d="M6.67 65.39C10.19 72.19 14.51 76.55 22.83 75.3C26.72 74.71 30.86 75.98 34.89 76.08C37.25 76.13 38.87 75.54 38.06 72.1C36.86 67.01 36.45 61.7 35.97 56.46C35.63 52.72 33.46 51.93 30.28 52.14C23.73 52.57 17.71 51.65 12.28 47.24C7.49 43.34 5.18 36.73 8.19 31.48C9.84 28.61 12.17 26.13 14.11 23.42C14.83 22.42 15.94 21.19 15.83 20.19C14.72 10.58 22.51 7.49002 28.58 4.41002C35.59 0.86002 43.64 -0.33998 51.78 0.0800203C60.76 0.54002 69.79 5.95002 71.92 12.64C75.06 22.49 71.28 33.25 62.16 39.08C56.42 42.75 50.32 45.85 44.37 49.19C40.41 51.41 41.39 54.85 41.87 58.35C42.43 62.35 42.53 66.4 42.97 70.42C43.06 71.28 43.77 72.08 44.19 72.9C44.66 72.59 45.25 72.37 45.59 71.94C51.69 64.18 60.41 60.19 68.84 55.82C71.17 54.61 72.09 53.35 72.02 50.64C71.88 44.9 75.11 40.94 80.72 39.12C82.18 38.65 83.59 37.99 85.05 37.52C89.79 36.01 93.34 37.64 94.52 42.3C95.6 46.57 96.13 50.97 96.94 55.31C97.52 58.4 96.1 60.18 93.3 61.14C91.4 61.79 89.21 62.06 87.69 63.21C82.69 66.96 78.62 66.54 74.68 61.59C74.04 60.78 71.35 60.58 70.35 61.24C61.92 66.75 53.63 72.45 45.43 78.3C44.5 78.96 44.05 80.81 44.01 82.12C43.85 87.45 43.75 92.79 44.06 98.11C44.16 99.81 45.14 102.14 46.48 102.98C54.86 108.29 63.92 111.62 74.07 111.14C75.23 111.08 76.44 110.96 77.56 111.17C79.38 111.52 81.15 112.13 82.95 112.62C81.11 113.79 79.27 115.92 77.41 115.94C72.28 115.99 66.94 115.89 62.07 114.5C55.9 112.74 50.01 109.85 44.21 107.02C41.87 105.88 40.74 106.57 39.42 108.16C36.01 112.25 32.57 116.31 29.18 120.42C26.34 123.87 23.66 127.45 20.72 130.81C18.4 133.47 4.11 135.61 1.25 133.85C0.649999 133.48 -0.110001 132.35 0.069999 131.96C0.409999 131.2 1.3 130.31 2.07 130.19C22.64 126.99 31.26 111.65 37.79 94.55C39.01 91.35 38.19 87.26 37.81 83.64C37.71 82.7 35.77 81.36 34.57 81.24C28.9 80.67 23.19 80.18 17.5 80.27C14.99 80.31 12.51 81.78 10.01 82.59C8.97 82.93 7.93 83.25 6.89 83.57C6.74 82.43 6.74 81.24 6.39 80.17C6.14 79.41 5.54 78.62 4.87 78.18C3.65 77.39 2.27 76.85 0.959999 76.2C2.23 75.51 3.48 74.78 4.78 74.16C5.45 73.84 6.23 73.73 6.96 73.53C6.58 72.85 6.2 72.18 5.83 71.5C4.87 69.73 3.69 68.04 3.08 66.15C2.84 65.4 3.88 64.23 4.34 63.26C5 63.89 5.71 64.51 6.67 65.39ZM53.42 39.14C56.46 36.43 59.76 33.95 62.49 30.96C67.07 25.94 69.9 20.22 66.56 13.31C63.6 7.18002 57.79 7.66002 52.23 7.05002C43.97 6.15002 36.62 9.55002 28.9 11.2C28.14 11.36 27.57 12.41 26.92 13.04C27.47 13.45 28.03 13.85 28.56 14.28C31.83 16.92 31.76 21.68 28.28 21.93C22.02 22.38 19.32 27.16 15.97 30.82C10 37.35 12.37 42.55 17.99 44.92C22.8 46.95 28.48 48.25 33.63 47.86C40.63 47.34 46.93 43.72 53.42 39.14Z" fill="black"/>
<path d="M154.17 575.89C157.31 581.15 159.62 586.07 156.11 591.97C155.45 593.07 156.89 595.88 157.98 597.49C168.99 613.75 159.52 624.97 146.54 630.71C140.76 633.27 134.34 635.63 127.31 633.42C125.6 632.88 122.65 635.53 120.55 637.09C111.39 643.9 101.71 649.37 89.97 650.17C83.96 650.58 79.14 648.65 76.55 643.12C74.98 639.76 72.9 639.75 69.98 640.57C57.95 643.96 45.96 647.59 33.22 647.17C23.12 646.83 17.44 642.7 14.39 633.1C14.3 632.81 13.9 632.48 13.97 632.3C16.68 625.38 12.87 620.06 10.07 614.22C6.88997 607.57 9.60997 601.5 14.24 596.43C17.19 593.21 19.75 590.95 17.23 585.55C14.3 579.26 22.16 564.17 28.91 561.9C31.66 560.97 35.08 562.1 38.19 562.1C39.82 562.1 42.03 562.31 43 561.39C51.17 553.57 60.84 552.74 71.09 555.25C74.23 556.02 76.36 556.09 79.51 554.41C86.18 550.86 93.09 547.67 101.42 549.97C108.17 551.83 112.16 555.76 113.83 562.07C114.96 566.32 117.18 568.13 121.29 567.1C133.77 563.94 144.62 566.73 154.17 575.89ZM121.42 573.14C120.59 573.14 119.7 572.96 118.93 573.17C110.28 575.48 109.68 574.04 108.73 567.12C108.01 561.92 106.13 556.99 99.21 555.71C91.36 554.26 83.28 558.04 79.73 565.37C78.68 567.54 75.23 569.89 72.98 569.79C70.46 569.68 68.04 567.04 69.13 563.24C69.35 562.49 67.71 560.32 66.86 560.28C60.57 559.96 54.07 559.4 49.44 565.13C46.93 568.24 44.57 571.48 41.98 574.52C39.87 577.01 37.9 577.21 36.83 573.55C36.48 572.36 36.32 571.1 35.88 569.94C35.5 568.95 35.04 567.55 34.28 567.28C33.5 567.01 31.94 567.59 31.36 568.31C29.08 571.13 26.5 573.92 25.07 577.18C23.55 580.64 20.93 584.99 26.24 587.86C27.83 588.72 29.9 588.67 31.59 589.41C32.49 589.8 33.04 590.98 33.76 591.81C32.75 592.59 31.75 594.02 30.72 594.04C22.02 594.21 18.91 600.38 16.49 607.14C14.34 613.16 16.43 616.61 22.74 618.15C27.03 619.2 27.54 620.79 24.62 623.96C20.23 628.72 19.59 631.38 22.98 636.56C26.88 642.51 33.59 642.83 39.49 641.93C49.17 640.46 58.7 637.84 68.19 635.31C76.67 633.05 76.73 633.25 82.13 640.48C83.94 642.9 88.28 645.29 91 644.86C103.08 642.93 113.9 638.19 121.23 627.53C122.03 626.37 125.05 625.26 125.83 625.82C131.24 629.7 137.13 628.64 142.4 626.87C148.24 624.91 154.18 621.38 155.72 614.87C157.24 608.44 155.39 602.29 150.63 597.04C149.3 595.58 148.81 591.91 149.7 590.16C151.98 585.7 151.37 582.26 148.12 578.81C140.73 570.98 131.76 570.01 121.42 573.14Z" fill="black"/>
<path d="M667.17 73.89C655.64 66.82 648.83 56.77 646 44.04C645.32 40.97 647.1 39.19 650.46 39.12C663.64 38.84 676.85 37.79 689.99 38.38C698.5 38.76 704.5 35.79 711.1 30.97C716.9 26.73 724.46 24.86 731.37 22.26C732.52 21.83 735.49 22.91 735.55 23.49C735.75 25.57 735.62 28.1 734.55 29.78C733.33 31.71 730.96 32.92 729.11 34.47C726.84 36.38 725.75 38.28 728.24 41.04C731.26 44.39 730.18 47.45 725.8 48.08C723.37 48.43 720.73 48.54 718.37 47.99C709.04 45.78 707.29 47.15 704.82 56.43C702.29 65.92 697.02 73.71 686.93 76.55C680.24 78.42 673.67 77.01 667.17 73.89Z" fill="black"/>
<path d="M297.92 610.14C298.59 607.75 299.72 605.89 299.84 603.97C300.36 595.63 301.04 587.25 300.75 578.91C300.58 574.01 299.39 568.87 297.43 564.36C293.63 555.62 294.15 550.21 301.89 544.9C306.26 541.9 311.62 540.34 316.54 538.14C316.82 538.02 317.34 538.2 317.48 538.03C322.87 531.19 330.86 533.77 337.46 533.53C344.19 533.28 351.55 534.02 357.53 539.03C361.92 542.7 363.52 547.05 363.1 552.96C362.64 559.26 363.35 565.69 363.99 572.01C364.71 579.12 365.85 586.19 366.96 593.25C367.42 596.17 368.57 599.01 368.79 601.93C368.89 603.27 367.48 604.72 366.76 606.12C365.48 605.08 363.33 604.21 363.07 602.96C361.15 593.54 359.61 584.05 357.92 574.58C357.67 573.2 357.17 571.87 356.95 570.49C356.57 568.04 356.32 565.57 356.02 563.11C353.79 564.15 351.54 565.17 349.32 566.23C338.36 571.43 326.75 572.84 314.79 572.07C313.27 571.97 311.35 571.79 310.35 570.87C306.48 567.29 306.99 570.69 306.97 572.89C306.89 580.55 307.27 588.23 306.83 595.87C306.51 601.37 305.38 606.85 304.24 612.26C302.94 618.41 306.99 625.31 315.83 625.98C335.78 627.48 354.34 622.39 371.46 612.1C373.89 610.64 376.06 608.76 378.43 607.19C379.09 606.75 380.02 606.73 380.82 606.51C381.09 607.65 381.98 609.37 381.54 609.83C378.73 612.75 376 616.04 372.57 618.01C361.3 624.49 348.97 628.39 336.12 629.98C328.45 630.93 320.35 631.65 312.88 630.22C301.38 628.04 297.92 622.38 297.92 610.14ZM305.42 563.14C306.67 563.73 307.87 564.57 309.19 564.86C323.9 568.17 337.92 565.89 350.85 558.44C354.42 556.38 358.49 553.04 356.85 547.63C355.55 543.33 351.6 542.73 347.78 542.12C342.03 541.19 336.33 539.71 330.55 539.29C326.73 539.01 321.6 536.96 319.92 543.45C319.62 544.59 317.54 545.39 316.16 546.11C313.16 547.67 309.84 548.72 307.07 550.6C301.6 554.32 301.35 556.65 305.42 563.14Z" fill="black"/>
<path d="M971.92 569.14C972.5 574.71 969.73 577.87 965.68 580.11C961.81 582.25 960.88 585.95 962.22 589.29C962.87 590.91 966.7 591.88 969.15 592.02C975.63 592.39 982.15 592.36 988.63 592.02C990.81 591.91 993.89 590.99 994.87 589.4C998.3 583.83 1003.58 583.34 1008.69 584.37C1012.93 585.22 1015.23 582.74 1018.22 581.29C1020.59 580.15 1022.75 578.56 1025.16 577.51C1026.18 577.07 1027.6 577.51 1028.83 577.56C1028.52 578.58 1028.38 579.69 1027.87 580.58C1027.39 581.42 1026.53 582.04 1025.82 582.74C1022.41 586.09 1016.76 588.14 1019.66 594.99C1020.07 595.97 1017.39 599.33 1015.57 599.97C1010.39 601.8 1004.98 602.43 999.71 599.54C998.13 598.67 996.12 598.24 994.3 598.21C985.8 598.07 977.3 598.33 968.81 598.05C965.93 597.95 963.11 596.54 960.2 596.06C959.56 595.95 958.12 597.17 958.01 597.92C956.69 606.85 958.71 610.8 967.43 611.92C977.33 613.2 987.45 612.84 997.47 613.11C998.14 613.13 999.21 612.6 999.46 612.04C1001.91 606.57 1006.67 606.19 1011.8 605.63C1016.89 605.07 1020.77 606.99 1024.82 609.41C1025.89 610.05 1027.86 609.84 1029.14 609.33C1032.43 608.03 1035.53 606.26 1038.79 604.88C1039.52 604.57 1040.61 605.13 1041.53 605.28C1041.31 606.08 1041.33 607.11 1040.83 607.65C1039.62 608.94 1038.26 610.14 1036.8 611.14C1032.29 614.21 1027.75 616.94 1023.99 621.28C1016.91 629.45 1008.56 629.05 1000.77 621.68C999.31 620.3 996.89 619.39 994.85 619.27C985.34 618.71 975.8 618.6 966.28 618.14C957.48 617.71 950.56 610.66 951.04 601.98C951.34 596.52 953.19 591.16 953.7 585.69C953.86 583.95 952.44 581.23 950.92 580.3C942.36 575.1 943.34 565.38 950.87 559.51C961.31 551.34 970.15 559.06 971.92 569.14ZM952.42 566.14C950.42 570.48 951.32 574.01 954.72 575.14C958.73 576.47 963.01 574.58 963.87 570.53C964.26 568.66 963.53 564.93 962.65 564.72C959.5 563.94 955.66 560.99 952.42 566.14ZM1011.42 622.14C1012.43 621.8 1013.44 621.45 1014.45 621.11C1013.94 620.29 1013.38 619.51 1012.95 618.66C1011.91 616.62 1010.94 614.55 1009.91 612.5C1009.57 611.81 1009.15 611.17 1008.77 610.5C1008.07 610.96 1007.19 611.29 1006.7 611.91C1003.78 615.65 1004.92 618.72 1011.42 622.14ZM1004.42 590.14C1003.4 590.16 1002.38 590.18 1001.36 590.2C1001.75 591.55 1001.87 593.08 1002.62 594.19C1003.21 595.06 1004.57 595.39 1005.6 595.96C1005.38 595 1005.08 594.05 1004.95 593.08C1004.83 592.28 1004.92 591.45 1004.42 590.14ZM1016.92 614.64C1018.15 614.41 1019.38 614.18 1020.6 613.96C1020.24 613.39 1019.96 612.41 1019.49 612.31C1018.19 612.04 1016.82 612.13 1015.48 612.07C1015.8 612.76 1016.11 613.45 1016.92 614.64Z" fill="black"/>
<path d="M971.92 39.1401C970.59 39.7701 969.05 40.3701 969.03 41.0201C968.76 50.1101 968.35 59.2301 968.74 68.3101C968.95 73.2801 975.08 77.8201 980.35 78.1401C996.69 79.1501 1011.32 73.7701 1025.42 66.2501C1026.7 65.5701 1028.56 65.9701 1030.15 65.8601C1029.96 67.5701 1030.39 70.1401 1029.46 70.8201C1026.49 72.9701 1023.16 74.9001 1019.68 76.0401C1010.7 78.9701 1001.7 82.1 992.46 83.84C985.44 85.16 978.04 84.6401 971.26 81.1801C968.4 79.7201 966.49 77.9701 966.87 74.4501C966.96 73.6101 966.6 72.1201 966.05 71.8901C961.03 69.8501 961.84 65.5401 961.96 61.6101C962.17 54.7501 962.72 47.8901 962.86 41.0301C962.91 38.5301 962.18 36.0101 961.79 33.5001C961.18 29.5901 959.39 25.3901 960.27 21.8601C961.07 18.6501 964.43 15.7301 967.29 13.5001C969.89 11.4701 973.33 10.5101 976.45 9.17005C977.01 8.93005 977.99 8.85005 978.4 9.18005C984.62 14.0701 990.06 8.60005 995.71 7.68005C1008.04 5.67005 1020.02 5.13005 1031.9 10.0601C1039.7 13.3001 1043.06 23.1201 1035.15 28.3701C1031.36 30.8801 1032.33 34.4701 1033.04 37.6201C1034.6 44.5801 1036.75 51.4001 1038.54 58.3101C1038.72 59.0101 1038.14 60.5901 1037.87 60.6001C1036.41 60.6601 1034.14 60.8701 1033.61 60.0601C1032.02 57.6501 1030.82 54.8801 1030.01 52.1001C1028.75 47.7601 1027.45 43.3301 1027.07 38.8601C1026.65 33.9201 1023.78 34.5701 1021 35.6701C1008.18 40.7401 994.84 42.5401 981.2 42.0201C978.23 41.8901 975.34 40.1401 971.92 39.1401ZM970.92 19.6401C967.31 22.2401 969.21 25.2001 969.66 28.5801C970.27 33.1801 972.58 34.3801 976.35 35.1801C987.01 37.4301 997.38 35.6601 1007.89 33.8101C1016.67 32.2701 1023.41 27.0601 1030.7 22.7901C1033.87 20.9301 1033.89 17.8001 1030.47 16.3901C1026.49 14.7501 1022.03 13.1701 1017.85 13.3301C1005.77 13.7901 993.7 14.9801 981.67 16.2401C978.19 16.6001 974.83 18.1401 970.92 19.6401Z" fill="black"/>
<path d="M38.67 188.39C37.6 186.98 36.85 185.76 35.93 184.68C34.86 183.43 33.65 182.31 32.5 181.14C31.97 182.91 30.79 184.77 31.03 186.42C32.4 195.79 34.31 205.08 35.54 214.46C35.76 216.14 33.63 218.13 32.59 219.97C31.37 219.12 29.52 218.53 29.02 217.37C24.57 207.04 22.98 196.1 24.19 185.03C24.5 182.21 27.72 178.25 30.37 177.49C34.33 176.35 39.54 175.86 42.01 181.49C42.38 182.34 44.09 182.6 45.18 183.14C45.41 182.29 46.1 181.17 45.79 180.64C43.28 176.38 46.24 173.52 48.72 171.26C51.97 168.31 55.89 170.62 57.89 172.98C60.61 176.18 61.99 180.53 63.9 184.4C64.67 185.95 65.33 187.56 66.04 189.15C66.66 187.48 67.49 185.86 67.85 184.14C68.15 182.7 68.18 181.1 67.87 179.66C66.11 171.53 69.63 166.93 77.19 164.29C86.49 161.04 95.61 157.29 104.81 153.75C104.95 153.7 105.07 153.41 105.16 153.42C107.75 153.82 110.33 154.24 112.92 154.66C111.07 156.16 109.43 158.17 107.32 159.06C98.1 162.94 88.72 166.44 79.44 170.17C75.63 171.7 73.95 174.77 73.93 178.77C73.9 184.6 73.86 190.43 73.94 196.26C74.01 201.09 76.21 203.07 81.08 203.16C90.65 203.35 98.7 199.39 106.4 194.26C107.9 193.26 109.86 192.95 111.6 192.33C112.16 195.11 112.67 197.92 109.76 199.78C107.4 201.28 105.1 203.07 102.5 203.95C95.77 206.24 88.91 208.19 82.05 210.08C80.5 210.51 78.32 210.79 77.14 210.03C72.35 206.93 69.94 207.02 70.81 213.64C70.86 214.04 69.07 215.24 68.61 215.03C67.25 214.41 65.49 213.5 65.04 212.28C63.7 208.65 63.1 204.76 61.88 201.09C59.4 193.63 56.73 186.23 54.07 178.84C53.73 177.89 52.93 177.1 52.34 176.23C51.87 177.37 50.97 178.52 50.99 179.64C51.2 188.5 51.61 197.36 51.9 206.22C51.94 207.49 52.11 209.18 51.42 209.96C50.21 211.32 48.46 212.66 46.77 212.9C46.02 213.01 44.41 210.55 44.01 209.05C42.77 204.36 41.99 199.56 40.89 194.83C40.4 192.72 39.59 190.69 38.67 188.39Z" fill="black"/>
<path d="M788.92 195.14C775.57 189.14 762.72 183.16 749.89 177.12C748.49 176.46 746.87 175.75 746.01 174.57C744.98 173.16 744.66 171.23 744.03 169.52C745.95 169.19 748.21 168.04 749.74 168.66C760.44 173 771.21 177.26 781.53 182.41C798.68 190.98 815.63 199.96 832.41 209.22C842.9 215.01 852.91 221.69 863.21 227.85C864.45 228.59 866.12 228.6 867.59 228.95C867.36 227.8 866.92 226.64 866.96 225.5C867.02 223.94 866.99 222 867.87 220.97C868.42 220.32 870.81 220.59 871.96 221.21C875.92 223.38 880.02 225.5 883.47 228.36C889.01 232.96 894.26 237.95 899.22 243.16C900.72 244.74 901.9 247.93 901.31 249.77C900.89 251.08 897.21 252.16 895.1 251.99C887.32 251.34 879.55 250.31 871.86 248.97C870.36 248.71 867.91 246.17 868.12 245.14C869.44 238.7 865.2 236.55 860.76 234.1C842.17 223.85 823.67 213.43 805.08 203.16C799.96 200.33 794.65 197.8 788.92 195.14ZM881.92 235.64C879.53 239.54 884.03 239.91 885.32 241.82C886.1 242.97 888.16 243.25 889.64 243.92C889.67 243.1 890.07 241.9 889.68 241.52C887.36 239.29 884.86 237.24 881.92 235.64Z" fill="black"/>
<path d="M398.92 42.14C399.25 54 399.59 65.35 399.92 76.71C399.93 77.21 399.73 77.83 399.95 78.19C401.82 81.14 403.38 84.68 400.78 87.32C397.65 90.48 393.77 93.38 389.66 95C376.86 100.04 363.5 100.9 350.28 96.98C345.19 95.47 340.52 92.33 335.96 89.45C334.71 88.66 333.96 86.11 334.02 84.41C334.47 71.65 332.63 59.57 327.43 47.61C325.21 42.5 327.99 35.89 332.41 31.1C337.47 25.61 343.51 22.96 350.92 21.33C364.51 18.35 377.87 17.86 391.24 21.3C394.39 22.11 397.7 24.33 399.74 26.86C402.17 29.88 403.32 33.86 400.04 37.64C399.23 38.59 399.27 40.28 398.92 42.14ZM339.92 75.64C339.89 81.07 338.82 86.55 345.98 89.25C361.99 95.28 377.52 95.13 392.73 87.07C393.73 86.54 394.73 85.04 394.82 83.91C395.09 80.55 395.03 77.15 394.9 73.77C394.65 67.25 394.31 60.74 393.9 54.23C393.7 51.03 393.27 47.85 392.94 44.66C390.1 45.49 387.29 46.48 384.41 47.11C376.47 48.87 368.5 50.46 360.54 52.15C352.73 53.81 345.08 54.38 337.9 49.73C336.98 49.13 335.48 49.43 334.24 49.32C334.47 50.3 334.54 51.35 334.94 52.25C338.17 59.37 339.99 66.79 339.92 75.64ZM338.92 45.64C348.73 45.81 358.64 46.91 368.31 45.84C375.99 44.99 383.54 41.85 390.81 38.91C393.07 38 395.67 34.3 395.51 32.06C395.36 29.96 392.09 27.07 389.64 26.31C379.31 23.1 368.62 21.86 357.92 24.21C349.4 26.08 341.41 29.27 335.4 36.12C331.45 40.62 332.41 43.69 338.92 45.64Z" fill="black"/>
<path d="M800.17 130.39C797.19 132.26 794.82 133.28 794.82 128.39C794.82 127.64 793.49 126.23 792.8 126.24C786.05 126.4 779.26 126.44 772.59 127.34C770.42 127.63 768.48 130.26 766.6 132C764.35 134.08 762.94 133.52 761.93 130.89C761.87 130.75 761.97 130.54 761.92 130.4C759.12 122.77 759.14 122.85 751.48 125.1C747.45 126.28 743.3 127.05 739.26 128.2C738.37 128.45 737.02 129.57 737.08 130.18C737.17 131.21 738.16 132.95 738.87 133C743.61 133.35 748.38 133.32 753.14 133.42C755.04 133.46 756.94 133.5 758.84 133.54C757.62 134.81 756.58 136.35 755.16 137.32C749.4 141.23 743.03 141.06 736.8 139.04C731.4 137.29 726.29 134.68 720.92 132.79C719.97 132.46 718.4 133.79 717.15 134.42C715.52 135.25 713.93 136.14 712.32 137.01C712.19 135.18 712.05 133.34 711.93 131.51C711.55 125.17 711.21 118.83 710.78 112.5C710.64 110.45 709.93 108.39 710.05 106.37C710.12 105.25 711.36 104.2 712.07 103.12C713.03 103.96 714.41 104.61 714.85 105.66C715.8 107.93 716.2 110.42 716.97 112.78C717.25 113.62 717.96 114.32 718.47 115.08C718.96 114.45 719.48 113.84 719.93 113.19C721.69 110.59 723.27 107.84 725.28 105.46C725.92 104.7 727.69 104.88 728.95 104.63C728.95 106.02 729.47 107.74 728.85 108.74C726.58 112.35 723.86 115.67 721.42 119.17C718.74 123.03 719.26 124.97 723.37 127.03C724.19 127.44 725.13 127.66 725.91 128.13C728.8 129.91 729.95 129.56 730.07 125.77C730.18 122.2 730.9 118.52 732.1 115.16C732.8 113.2 734.68 110.94 736.55 110.27C741.79 108.39 747.29 107.2 752.72 105.9C753.89 105.62 755.22 106.04 756.47 106.13C755.96 107.29 755.77 109.02 754.89 109.5C750.58 111.88 746.05 113.87 741.67 116.13C740.14 116.92 738.64 117.94 737.5 119.2C737.01 119.74 737.24 121.27 737.63 122.13C737.82 122.55 739.19 122.72 739.93 122.55C744.63 121.47 749.34 120.41 753.95 119.02C756.15 118.36 758.11 117.44 758.06 114.1C757.93 106.02 759.55 103.9 767.6 102.08C771.88 101.11 776.57 100.58 780.84 101.29C786.44 102.22 788.02 107.91 784.18 112.21C782.09 114.54 779.19 116.14 776.69 118.11C776.09 118.58 775.59 119.17 775.05 119.7C775.86 120.17 776.68 121.06 777.46 121.03C780.99 120.87 784.51 120.18 788.04 120.18C791.4 120.17 794.8 120.53 798.1 121.17C802.38 122.02 803.26 125.73 800.17 130.39ZM779.92 108.64C781.23 105.14 778.43 106.18 777 106.21C775.48 106.24 773.98 106.99 772.45 107.11C766.36 107.59 764.55 109.51 764.98 115.56C765.06 116.72 765.53 118.34 766.35 118.83C767.04 119.23 768.77 118.57 769.61 117.87C772.97 115.06 776.16 112.06 779.92 108.64Z" fill="black"/>
<path d="M140.67 649.89C143.41 648.81 145.85 647.75 148.4 647.25C149.41 647.05 150.66 648.06 151.8 648.52C151.1 649.39 150.48 650.34 149.69 651.12C147.01 653.78 144.15 656.27 141.63 659.06C140.93 659.84 141.17 661.46 140.98 662.7C142.12 662.52 143.41 662.62 144.37 662.11C148.34 659.99 152.15 657.58 156.12 655.47C162.73 651.96 167.15 654.45 166.82 661.73C166.67 665.12 165.26 668.43 164.81 671.83C164.55 673.81 165.06 675.9 165.22 677.94C167.04 677.25 168.92 676.65 170.65 675.79C171.02 675.61 171.2 674.33 170.97 673.76C168.53 667.73 172.24 662.62 173.51 657.18C173.71 656.31 175.88 655 176.48 655.29C178.14 656.08 180.36 657.36 180.75 658.87C182.16 664.35 183.25 669.97 183.68 675.59C183.79 676.99 181.25 679.35 179.47 679.98C175.82 681.29 171.89 682.13 168.02 682.4C164.91 682.61 161.04 682.6 158.8 680.95C157.32 679.86 157.61 675.59 158.05 672.89C158.65 669.27 160.21 665.82 161.25 662.26C161.53 661.3 161.42 660.23 161.5 659.21C160.36 659.63 158.77 659.72 158.17 660.53C156.53 662.77 154.9 665.17 154.01 667.77C152.65 671.73 152.16 675.99 150.8 679.95C150.24 681.58 148.38 682.76 147.11 684.14C146.38 682.58 144.96 680.97 145.06 679.46C145.3 675.88 146.26 672.34 146.92 668.79C147.03 668.19 147.15 667.58 147.26 666.98C146.51 667.03 145.7 666.91 145.04 667.17C138.64 669.72 135.7 675.94 138.12 683.6C138.96 686.27 139.17 687.98 136.46 687.91C134.92 687.87 133.37 685.58 131.98 684.15C131.65 683.81 132.09 682.82 131.9 682.21C131.57 681.19 131.02 680.24 130.57 679.27C129.86 679.89 128.97 680.38 128.48 681.14C124.88 686.79 118.9 688.85 113.16 691.04C109.54 692.42 106.76 690.03 106.99 685.94C107.46 677.82 108.21 669.71 108.96 661.61C109.3 657.89 112.68 658.64 114.26 659.3C118.38 661.02 122.4 663.22 126 665.86C130.02 668.81 130.72 668.91 132.94 664.52C135.37 659.7 137.92 654.93 140.67 649.89ZM111.92 668.64C112.59 672.01 113.26 675.38 113.92 678.75C114.31 680.75 114.66 682.75 115.03 684.75C116.77 683.6 118.52 682.48 120.23 681.3C120.77 680.93 121.18 680.38 121.65 679.91C124.91 676.59 124.96 673.57 121.61 670.38C119.88 668.73 117.8 667.43 116.09 665.77C112.94 662.68 112.09 664.28 111.92 668.64Z" fill="black"/>
<path d="M984.67 698.89C983 700.47 981.58 701.81 980.16 703.14C979.38 701.61 978.17 700.15 977.9 698.53C977.05 693.33 976.34 688.08 976 682.83C975.82 680.09 975.02 678.94 972.23 679.11C969.52 679.27 966.73 678.83 964.09 679.32C963.18 679.49 962.05 681.62 962.01 682.88C961.81 689.87 962.03 696.88 961.82 703.87C961.78 705.31 960.51 706.72 959.81 708.14C958.51 706.95 956.27 705.88 956.1 704.54C955.56 700.35 955.91 696.06 955.72 691.82C955.48 686.68 954.98 681.55 954.73 676.4C954.62 674.15 954.56 671.81 955.12 669.68C955.28 669.07 958.7 668.48 958.9 668.84C962.47 675.27 968.46 671.95 973.06 671.89C981.32 671.77 989.57 670.16 997.82 669.13C999.7 668.9 1001.65 667.97 1003.39 668.3C1005.34 668.67 1007.88 669.64 1008.79 671.17C1011.84 676.27 1013.04 682.49 1018.36 686.25C1019.07 686.75 1018.82 688.67 1018.91 689.94C1018.99 691.1 1018.51 692.51 1019.01 693.39C1019.99 695.13 1021.49 696.58 1022.77 698.14C1023.82 696.54 1025.19 695.06 1025.86 693.31C1027.4 689.27 1028.5 685.07 1030 681.02C1030.3 680.21 1031.6 679.77 1032.44 679.16C1032.93 680.29 1033.93 681.47 1033.83 682.54C1033.36 687.45 1032.77 692.36 1031.87 697.21C1030.9 702.46 1022.33 706.46 1017.95 703.44C1015.54 701.77 1014.49 702.17 1012.59 703.8C1011.56 704.68 1009.25 705.35 1008.38 704.79C1007.39 704.14 1007.19 702.05 1006.96 700.53C1006.74 699.06 1007.08 697.51 1006.87 696.04C1006.57 693.9 1008.39 690.64 1004.42 690.19C1000.97 689.8 997.26 693.41 996.85 696.75C996.53 699.36 995.95 702.03 994.92 704.43C994.54 705.32 992.55 705.51 991.29 706.02C990.83 704.88 990 703.74 989.97 702.59C989.83 697.26 989.72 691.92 990.02 686.6C990.11 685.07 991.33 683.34 992.55 682.29C992.98 681.92 994.88 683.64 996.19 683.84C998.53 684.2 1000.94 684.36 1003.3 684.19C1006.89 683.93 1006.14 680.93 1005.76 678.94C1005.49 677.54 1003.78 675.28 1002.81 675.33C996.9 675.63 990.99 676.29 985.15 677.27C983.55 677.54 981.65 678.25 982.57 681.58C984.09 687.06 984.21 692.93 984.67 698.89Z" fill="black"/>
<path d="M1012.92 448.14C1011.63 457.93 1010.34 467.22 1009.05 476.51C1008.68 479.19 1008.07 481.86 1008.04 484.54C1008.03 485.58 1009.29 486.64 1009.97 487.69C1010.68 486.95 1011.44 486.26 1012.07 485.46C1012.95 484.35 1013.5 482.58 1014.61 482.14C1016.2 481.5 1018.16 481.8 1019.97 481.69C1019.95 483.25 1020.44 485.05 1019.84 486.34C1016 494.58 1012.1 502.81 1007.79 510.81C1006.76 512.71 1004.15 514.68 1002.11 514.86C1000.2 515.03 996.91 513.35 996.24 511.68C992.78 503.12 989.82 494.34 986.99 485.54C985.57 481.13 984.68 476.47 987.96 472.34C988.98 471.05 990.29 469.92 991.65 468.97C994.59 466.92 995.88 468.52 995.86 471.39C995.85 473.75 994.72 476.18 995.02 478.46C996.11 486.77 997.51 495.04 998.99 503.28C999.31 505.08 1001.13 505.72 1001.74 503.67C1002.74 500.31 1004.63 495.7 1003.22 493.43C999.08 486.79 1001.15 480.03 1001.32 473.42C1001.49 466.79 1003.44 460.22 1003.85 453.58C1004.79 438.22 1005.2 422.82 1006.04 407.46C1006.12 405.98 1007.7 404.58 1008.58 403.14C1009.7 404.17 1011.49 405.03 1011.82 406.28C1013.11 411.12 1014.77 416.08 1014.76 420.99C1014.71 429.87 1013.59 438.75 1012.92 448.14Z" fill="black"/>
<path d="M832.92 32.1C817.1 34.09 801.78 36.16 786.44 38.01C782.94 38.43 779.3 38.43 775.82 37.94C774.39 37.74 773.21 35.72 771.92 34.53C773.26 33.39 774.5 31.43 775.97 31.24C785.85 29.99 795.78 29.22 805.67 28.09C833.97 24.83 862.38 26.36 890.75 26.22C899.29 26.18 907.84 27.48 916.39 28.09C918.54 28.24 920.77 28.41 922.86 28.01C924.29 27.73 925.53 26.48 926.86 25.67C925.61 25.15 924.39 24.55 923.11 24.13C919.88 23.07 916.48 22.4 913.45 20.94C912.2 20.34 911.73 18.11 910.91 16.62C912.4 16.45 913.98 15.87 915.35 16.19C923.38 18.05 931.39 20 939.32 22.22C941.02 22.7 943.63 24.37 943.65 25.53C943.69 28.02 943.07 31.77 941.37 32.8C935.2 36.54 928.44 39.29 922 42.59C919.03 44.11 916.84 42.71 916.07 40.43C915.11 37.6 917.58 37.45 919.89 36.97C922.02 36.53 923.89 34.77 925.87 33.59C923.74 33.1 921.62 32.27 919.48 32.2C913.77 32 908.05 32.13 902.33 32.13C879.36 32.13 833.06 32.13 833.06 32.13L832.92 32.1ZM928.92 28.64C928.6 31.39 929.79 31.95 931.96 30.55C933.7 29.43 935.27 28.06 936.92 26.8C936.54 26.58 936.12 26.11 935.8 26.17C933.5 26.6 931.21 27.14 928.92 28.64Z" fill="black"/>
<path d="M849.67 581.89C857.62 580.14 865.29 578.45 873.05 577.28C874.87 577 876.96 578.46 878.92 579.12C877.25 580.8 875.79 583.6 873.87 583.96C862.98 586.01 852.02 587.86 841.01 589.05C827.82 590.47 814.56 591.32 801.31 592.09C790.98 592.7 780.62 592.81 770.27 593.14C768.95 593.18 767.52 592.9 766.35 593.33C765.11 593.78 764.1 594.89 763 595.72C764.3 596.2 765.57 596.91 766.91 597.11C772.11 597.88 777.36 598.34 782.54 599.24C784.12 599.52 785.68 600.67 786.92 601.79C787.58 602.38 788.03 604 787.68 604.7C787.3 605.46 785.79 606.2 784.9 606.07C776.28 604.87 767.6 603.88 759.11 602.02C752.92 600.66 752.33 596.57 756.59 591.84C758.18 590.08 759.29 587.59 759.84 585.25C761.32 578.97 770.06 572.02 776.85 572.16C781.08 572.25 783.15 575.05 781.63 578.9C780.95 580.61 779.79 582.13 778.85 583.74C778.38 584.55 777.94 585.39 777.49 586.21C778.52 586.52 779.58 587.16 780.59 587.1C790.81 586.52 801.01 585.83 811.22 585.14C815.58 584.85 819.93 584.49 824.29 584.14C832.66 583.48 841.04 582.8 849.67 581.89Z" fill="black"/>
<path d="M670.17 106.39C676.47 105.28 680.9 107.66 683.38 113.16C686.39 119.82 685.66 126.3 680.68 131.69C678.52 134.03 675.42 135.68 672.47 137.07C667.91 139.22 665.67 136.19 663.88 132.54C663.44 131.64 662.58 130.94 661.92 130.14C661.28 130.94 660.42 131.65 660.04 132.56C657.13 139.7 652.77 145.59 645.72 149.08C644.62 149.62 642.61 150.03 642.02 149.46C641.19 148.67 641.07 146.9 641.04 145.54C640.87 137.17 640.86 128.8 640.69 120.44C640.65 118.38 640.07 116.34 639.94 114.28C639.77 111.64 640.67 108.73 636.98 107.4C636.54 107.24 636.52 103.03 637.5 102.3C647.14 95.13 660.67 100.12 663.93 111.8C664.09 112.38 664.32 113.15 664.77 113.42C670.13 116.64 668.73 121.89 668.98 126.71C669.06 128.19 669.9 129.64 670.39 131.1C671.76 130.41 673.39 130 674.46 129C679.86 123.95 680.56 118.16 676.2 114.06C675.06 112.98 673.16 112.55 671.53 112.18C668.27 111.43 667.61 109.4 670.17 106.39ZM647.92 131.64C647.59 133.5 647.04 135.35 647.01 137.22C646.99 138.17 647.9 139.14 648.39 140.11C649.24 139.51 650.53 139.1 650.85 138.3C653.06 132.72 655.56 127.19 656.96 121.39C657.85 117.71 657.71 113.39 656.61 109.79C656.08 108.06 652.26 107.33 649.93 106.15C649.26 107.6 648.06 109.04 648.01 110.52C647.8 117.21 647.92 123.93 647.92 131.64Z" fill="black"/>
<path d="M492.92 39.1401C502.52 37.8101 511.62 36.4001 520.73 35.1701C524.73 34.6301 528.77 34.3301 532.8 34.1601C543.15 33.7401 553.5 33.5001 563.85 33.1101C566.72 33.0001 568.66 33.8901 568.92 37.0101C569.19 40.2801 566.92 40.0601 564.68 40.1701C560.48 40.3701 556.3 40.7701 552.11 41.1401C537.18 42.4601 522.24 43.6501 507.33 45.1801C496.87 46.2501 486.36 47.2901 476.05 49.2701C464.61 51.4701 453.27 54.3801 442.09 57.6901C437.32 59.1001 435.48 56.2501 433.3 53.6401C433.02 53.3001 435.18 49.7601 436.69 49.3001C442.51 47.5601 448.48 46.2501 454.47 45.1801C466.6 43.0201 478.77 41.1301 490.93 39.1401C491.41 39.0701 491.92 39.1401 492.92 39.1401Z" fill="black"/>
<path d="M636.67 776.89C635.76 781.94 636.68 783.1 640.74 782.1C644.48 781.17 648.12 779.83 651.83 778.78C652.79 778.51 653.86 778.65 654.88 778.6C654.79 779.38 654.96 780.33 654.57 780.92C652.05 784.82 641.61 790.69 634.94 788.18C631.27 786.8 628.68 784.87 628.92 780.55C629.1 777.28 628.32 778.02 626.03 779.33C620.3 782.63 614.32 785.55 608.24 788.17C605.09 789.53 602.08 787.18 601.93 783.81C601.54 774.8 601.16 765.78 600.94 756.77C600.82 751.7 602.38 750.78 607.05 752.73C607.54 752.93 608.19 752.87 608.74 752.78C618.79 751.17 627.94 751.69 632.97 762.59C633.3 763.3 634.56 764.1 635.25 763.99C635.9 763.89 636.86 762.61 636.82 761.89C636.62 758 639.37 757.58 642.09 757.14C646.47 756.43 650.84 755.68 655.25 755.21C656.34 755.09 657.55 755.99 658.7 756.42C657.71 757.32 656.87 758.67 655.71 759.04C651.87 760.26 647.91 761.12 644 762.12C643.84 762.16 643.62 762.06 643.51 762.14C641.97 763.25 640.44 764.37 638.91 765.49C640.92 765.86 643.04 766.86 644.9 766.48C648.34 765.78 651.6 764.23 654.98 763.17C655.75 762.93 656.7 763.23 657.57 763.28C657.33 764.08 657.34 765.32 656.81 765.62C652.25 768.22 647.57 770.62 642.96 773.13C640.92 774.26 638.93 775.47 636.67 776.89ZM621.92 775.64C622.96 774.94 624.09 774.34 625.02 773.51C629.67 769.38 628.73 763.8 624.38 761.39C620.84 759.43 616.4 758.8 612.28 758.35C610.97 758.21 608.23 760.43 608.12 761.72C607.66 767.55 607.81 773.44 607.97 779.31C608.04 782.16 609.57 782.96 612.16 781.43C615.21 779.61 618.33 777.9 621.92 775.64Z" fill="black"/>
<path d="M622.92 684.14C631.78 694.18 628.69 697.88 617.37 702.96C611.65 705.53 605.25 706.79 599.02 707.89C597.63 708.13 595.06 705.5 594.16 703.64C593.1 701.47 593.13 698.71 592.94 696.18C592.21 686.48 591.61 676.78 590.9 667.08C590.53 661.94 592.31 659.82 597.49 659.12C603.87 658.26 610.02 656.19 616.75 657.95C621.16 659.1 625.02 660.44 626.8 664.67C628.48 668.66 626.04 676.17 621.91 678.42C616.68 681.27 619.58 682.48 622.92 684.14ZM603.92 687.64C603.21 683.56 605.54 681.6 608.75 679.65C612.28 677.5 615.53 674.77 618.53 671.91C621.45 669.13 620.35 665.65 616.42 665.23C612.57 664.82 608.65 665.06 604.76 665.16C599.81 665.28 598 667.6 598.9 672.27C599.35 674.61 599.79 676.98 599.88 679.35C600.03 683.84 599.61 688.38 600.03 692.84C600.33 695.97 600.55 700.3 605.18 699.98C608.98 699.72 612.86 698.5 616.37 696.96C618.24 696.14 620.78 693.62 620.64 692.08C620.34 688.9 617.1 688.84 614.39 689.14C612.02 689.4 609.67 690 607.3 690.04C606.18 690.07 605.05 689.14 603.92 687.64Z" fill="black"/>
<path d="M715.92 781.14C712.79 779.85 709.86 777.16 707.62 777.65C705.43 778.13 704.34 782.37 702.09 784.04C695.96 788.58 690.84 788.99 687.24 785.96C683.56 782.86 682.76 778.56 684.81 773.72C685.65 771.74 686.31 769.67 686.92 767.6C687.17 766.74 687.07 765.77 687.13 764.84C686.31 765.2 685.42 765.45 684.67 765.92C680.82 768.3 676.92 770.61 673.22 773.21C672.15 773.96 671.41 775.48 670.99 776.79C670.18 779.3 670.08 782.11 668.94 784.43C668.18 785.99 666.14 786.92 664.67 788.14C663.42 786.04 661.03 783.87 661.16 781.85C661.45 777.06 662.95 772.34 663.93 767.59C666.45 755.43 675.46 750.2 687.32 754.01C687.77 754.15 688.28 754.09 688.77 754.14C694.95 754.81 696.35 757.07 694.45 763.14C693.24 766.97 692.32 770.91 690.87 774.65C689.88 777.2 689.54 779.21 692.14 780.85C694.69 782.46 697.27 781.97 699.26 780.21C702.51 777.31 706.12 774.62 705.11 769.08C704.71 766.89 705.91 764.15 707.01 761.99C709 758.07 711.86 757.75 715.06 760.81C717.93 763.55 721.58 765.95 723.31 769.31C727.3 777.07 725.19 779.84 715.92 781.14ZM682.42 761.14C684.79 759.02 683.48 758.4 681.21 758.14C676.73 757.61 670.54 762.19 670.13 766.57C670.09 767.01 672.23 768.3 672.65 768.04C675.84 766.06 678.85 763.8 682.42 761.14ZM718.42 772.14C716.92 770.27 715.43 768.4 713.92 766.54C713.34 765.83 712.71 765.15 712.1 764.46C711.38 765.49 709.88 766.68 710.06 767.51C710.89 771.44 712.46 775.13 717.13 775.78C719.72 776.14 721.07 775.26 718.42 772.14Z" fill="black"/>
<path d="M421.92 586.14C415.37 585.47 409.2 585.31 403.29 584.02C395.35 582.28 395.11 574.57 399.6 569.98C403.07 566.43 406.46 562.76 410.22 559.54C411.45 558.48 413.82 558.18 415.5 558.49C416.21 558.62 416.97 561.27 416.82 562.68C416.46 566.25 417.38 567.47 421.26 567.24C431.76 566.62 442.31 566.73 452.81 566.07C463.57 565.39 474.31 564.21 485.04 563.11C489.45 562.66 493.88 562.06 498.18 561.03C500.2 560.55 501.86 558.73 503.82 557.81C505.33 557.1 507.05 556.86 508.68 556.41C508.68 558.57 509.56 561.79 508.5 562.67C505.97 564.75 502.64 566.5 499.43 567C490.25 568.42 480.98 569.48 471.71 570.08C452.65 571.31 433.57 572.16 414.5 573.14C412.12 573.26 409.66 572.85 407.4 573.37C406.38 573.6 405.76 575.53 404.95 576.69C406.27 577.51 407.53 578.87 408.94 579.06C413.43 579.66 417.99 579.73 422.5 580.21C424 580.37 425.43 581.14 426.89 581.63C425.93 582.81 425.01 584.02 423.99 585.14C423.58 585.56 422.95 585.8 421.92 586.14Z" fill="black"/>
<path d="M117.92 79.14C115.92 77.99 114.42 76.83 112.92 75.68C114.39 74.5 115.7 72.68 117.37 72.24C131.64 68.44 145.93 64.62 160.33 61.36C168.8 59.44 177.48 58.42 186.09 57.16C209.4 53.76 232.85 52.63 256.38 53.17C261.41 53.29 266.47 53.55 271.44 54.28C273.06 54.52 274.44 56.46 275.93 57.63C273.99 58.36 272.07 59.16 270.09 59.76C269.63 59.9 268.96 59.17 268.39 59.16C253.12 59.12 237.78 58.23 222.59 59.37C204.66 60.71 186.71 62.99 169.05 66.37C151.98 69.63 135.28 74.8 117.92 79.14Z" fill="black"/>
<path d="M1082.17 324.39C1088.84 324.12 1095.24 324.29 1100.32 329.06C1104.1 332.61 1104.29 337.69 1100.14 342.24C1097.45 345.19 1097.44 346.95 1100.07 350C1103.79 354.31 1102.85 361.25 1097.19 363.95C1090.57 367.11 1083.34 369.13 1076.19 370.92C1074.3 371.39 1071.27 369.64 1069.67 368.02C1068.81 367.15 1069.85 364.36 1070.12 362.45C1070.3 361.22 1070.86 360.01 1070.87 358.79C1070.95 352.31 1070.91 345.83 1070.91 339.34C1070.91 338.68 1071.03 337.98 1070.89 337.35C1069.17 329.71 1070.03 328.23 1077.86 325.7C1079.2 325.27 1080.57 324.99 1082.17 324.39ZM1076.92 357.64C1075.86 358.7 1074.78 359.73 1073.76 360.82C1073.17 361.45 1072.69 362.18 1072.15 362.87C1073.19 363.01 1074.34 363.51 1075.25 363.24C1080.26 361.72 1085.26 360.14 1090.17 358.32C1092.21 357.56 1094.01 356.14 1095.92 355.03C1093.93 354.4 1091.81 354.01 1089.97 353.09C1087.83 352.02 1084.86 350.83 1084.26 349.02C1083.77 347.57 1085.93 344.76 1087.54 343.19C1090.27 340.54 1093.52 338.43 1096.49 336.03C1096.99 335.62 1097.22 334.88 1097.57 334.29C1096.9 333.91 1096.23 333.21 1095.55 333.19C1091.73 333.08 1087.77 332.52 1084.12 333.33C1081.24 333.97 1076.57 333.41 1076.85 339.01C1077.15 344.87 1076.92 350.76 1076.92 357.64Z" fill="black"/>
<path d="M681.67 597.39C681.19 596.24 680.74 595.33 680.76 594.44C680.8 592.4 681.06 590.36 681.24 588.33C682.51 589.48 683.67 590.81 685.09 591.73C686.62 592.73 688.35 593.48 690.09 594.09C690.98 594.4 692.29 593.77 693.03 594.21C697.22 596.67 700.01 595.23 703 591.81C704.95 589.57 708.37 591.66 708.87 595.33C709.16 597.45 708.79 599.66 708.99 601.8C709.07 602.62 709.93 603.36 710.44 604.13C710.93 603.5 711.51 602.92 711.9 602.24C713.06 600.23 714.15 598.18 715.27 596.15C716.15 598.42 717.26 600.63 717.86 602.97C718.63 606.01 719.1 609.15 719.48 612.27C719.61 613.36 719.43 615.24 718.82 615.52C717.72 616.03 715.73 616.14 714.92 615.46C712.78 613.65 711.08 611.9 707.77 611.84C706.45 611.82 705.16 608.38 703.93 606.45C703.49 605.75 703.26 604.92 702.94 604.15C702.26 604.57 701.52 604.91 700.93 605.42C697.68 608.27 695.58 607.7 693.87 603.67C693.33 602.39 692.27 601.34 691.45 600.18C690.86 601.41 690.09 602.59 689.74 603.89C689.29 605.56 689.1 607.32 688.94 609.05C688.53 613.37 687.07 614.32 682.98 613.19C680.86 612.61 678.6 612.15 676.42 612.21C670.51 612.36 664.59 612.65 658.7 613.2C654.59 613.59 653.22 611.5 652.93 607.97C652.59 603.95 652.16 599.93 651.98 595.9C651.92 594.54 652.14 592.87 652.9 591.85C653.74 590.72 655.35 590.15 656.62 589.34C657.06 590.66 657.72 591.95 657.88 593.3C658.34 597.14 658.42 601.03 658.97 604.85C659.48 608.36 662.53 607.23 664.47 606.96C665.42 606.83 666.35 604.83 666.84 603.5C667.22 602.48 666.66 601.12 666.99 600.06C667.32 598.99 668.12 597.47 668.93 597.32C669.8 597.16 671.09 598.21 671.86 599.05C672.55 599.8 672.57 601.16 673.26 601.91C674.67 603.44 676.63 606.13 677.82 605.86C680.47 605.28 682.47 602.99 681.93 599.64C681.83 598.98 681.92 598.3 681.67 597.39Z" fill="black"/>
<path d="M276.67 585.89C278.18 585.47 279.53 584.96 280.69 585.24C281.87 585.52 282.85 586.59 283.92 587.31C283.07 588.25 282.37 589.78 281.35 590.05C272.89 592.21 264.42 594.44 255.85 596.07C243.9 598.35 231.9 600.46 219.84 602.01C213.77 602.79 207.52 602.28 201.36 602.03C200.18 601.98 199.16 600.13 197.87 599.71C196.43 599.24 194.74 599.29 193.2 599.46C192.71 599.52 192.34 600.68 191.92 601.34C193.11 601.96 194.23 602.85 195.49 603.15C201.59 604.57 207.73 605.79 213.84 607.17C214.87 607.4 215.81 608.04 216.78 608.5C215.74 609.38 214.59 611.13 213.68 611.01C205.04 609.9 196.28 609.07 187.88 606.91C183.15 605.69 182.68 600.5 186.56 597.13C191.12 593.18 196.06 589.65 201.04 586.23C202.24 585.41 205.25 585.1 205.67 585.72C206.57 587.08 206.45 589.19 206.5 591C206.52 591.68 205.67 592.34 205.53 593.07C205.11 595.39 202.57 598.36 208.52 597.32C223.09 594.77 237.86 593.33 252.48 591.06C260.52 589.82 268.45 587.8 276.67 585.89Z" fill="black"/>
<path d="M634.67 516.39C635.92 519.73 638.16 523.02 637.67 525.85C636.52 532.58 641.2 537.24 642.46 543.03C642.94 545.22 645.18 548.97 646 548.81C649.44 548.15 648.84 544.81 648.96 542.03C649.09 538.83 649.45 535.62 650 532.46C650.15 531.6 651.3 530.91 651.99 530.14C652.63 530.96 653.59 531.68 653.87 532.61C655.75 538.95 655.65 545.31 653.08 551.42C650.69 557.09 644.44 557.76 640.91 552.93C640.46 552.31 639.87 551.78 639.35 551.21C638.87 552.01 638.28 552.77 637.96 553.63C637.74 554.22 637.81 554.97 637.94 555.61C638.28 557.28 640.13 559.73 636.97 559.88C635.69 559.94 633.58 557.4 633.07 555.68C631.94 551.93 631.59 547.94 630.94 544.05C630.86 543.57 630.97 542.65 630.87 542.63C627.75 542.07 624.58 541.1 621.5 541.33C619.89 541.45 617.32 543.61 617.16 545.06C616.79 548.51 617.66 552.09 617.9 555.62C617.98 556.76 617.62 557.93 617.46 559.09C615.95 558.48 613.46 558.22 613.11 557.21C611.69 553.1 610.38 548.81 610.07 544.5C609.58 537.87 609.85 531.17 610.03 524.51C610.06 523.36 611.26 522.24 611.92 521.11C612.93 522.06 614.43 522.84 614.84 524C615.56 526.06 615.76 528.34 615.92 530.55C616.25 535.11 617.96 536.69 622.35 536.1C624.39 535.83 626.6 535.84 628.38 534.99C629.85 534.28 631.63 532.56 631.77 531.15C632.05 528.35 631.17 525.45 630.98 522.58C630.78 519.81 630.48 516.79 634.67 516.39Z" fill="black"/>
<path d="M1034.92 108.14C1033.74 111.15 1032.96 113.97 1031.29 116.09C1029.11 118.87 1029.21 120.29 1032.71 121.14C1039.34 122.76 1041.95 127.89 1042.68 133.84C1042.89 135.6 1040.68 138.52 1038.83 139.5C1032.22 142.98 1025.39 146.33 1017.62 146.02C1016.35 145.97 1015.15 144.36 1013.92 143.46C1014.94 142.35 1015.75 140.75 1017 140.22C1022.25 138.02 1027.67 136.23 1032.93 134.06C1034.12 133.57 1034.93 132.13 1035.91 131.12C1034.78 130.46 1033.73 129.46 1032.51 129.19C1028.66 128.35 1024.75 127.27 1020.86 127.29C1017.52 127.3 1014.94 125.89 1014.2 123.45C1013.72 121.87 1015.67 119.03 1017.24 117.48C1019.94 114.8 1023.21 112.7 1026.21 110.32C1028.23 108.73 1028.14 107.57 1025.43 107.14C1023.08 106.77 1020.64 105.94 1018.36 106.24C1013.23 106.9 1008.21 108.29 1003.09 109.02C1001.8 109.2 999.08 107.87 999.12 107.48C999.32 105.65 999.84 102.76 1001.03 102.32C1010.32 98.8101 1019.93 97.7301 1029.66 100.44C1033.16 101.41 1034.17 104.5 1034.92 108.14Z" fill="black"/>
<path d="M1021.92 344.14C1022.25 342.61 1022.35 341.41 1022.97 340.6C1023.95 339.32 1025.27 338.31 1026.45 337.18C1027.27 338.67 1028.21 340.11 1028.88 341.67C1029.65 343.44 1030.17 345.31 1030.8 347.14C1032.84 345.3 1035.1 343.64 1036.8 341.52C1037.48 340.67 1036.82 338.82 1036.93 337.44C1037.14 334.88 1037.27 332.29 1037.84 329.81C1038.14 328.48 1039.3 327.36 1040.07 326.14C1041.02 327.35 1042.42 328.43 1042.81 329.79C1043.5 332.22 1043.77 334.81 1043.87 337.35C1044.12 343.69 1050.21 346.6 1052.33 351.86C1052.45 352.17 1055.7 351.77 1055.75 351.46C1056.17 348.37 1056.44 345.23 1056.33 342.12C1056.21 338.7 1056.49 335.53 1059.37 333.29C1059.84 332.93 1061.68 333.38 1061.69 333.53C1062.06 339.93 1066.11 346.24 1062.82 352.69C1061.32 355.62 1059.16 358.38 1056.74 360.62C1054.61 362.59 1050.02 360.19 1047.86 356.72C1046.61 354.71 1044.91 352.99 1043.41 351.14C1043.35 353.75 1043.18 356.36 1043.27 358.97C1043.35 361.61 1043.9 364.24 1043.78 366.86C1043.74 367.66 1042.16 369 1041.32 368.97C1040.49 368.94 1039.24 367.61 1039 366.65C1038.12 363.15 1037.53 359.57 1036.93 356C1036.54 353.64 1036.02 351.87 1032.88 352.07C1029.53 352.28 1030.12 354.43 1029.86 356.55C1029.37 360.43 1031.61 364.79 1027.55 368.12C1025.18 370.06 1024.2 368.91 1023.97 366.82C1023.16 359.43 1022.59 352.03 1021.92 344.14Z" fill="black"/>
<path d="M641.67 597.39C640.48 595.2 639.45 593.29 638.64 591.29C638.36 590.61 638.32 589.36 638.74 588.98C639.34 588.42 640.59 587.97 641.33 588.21C648.16 590.44 651.21 606.7 645.89 611.71C642.02 615.36 637.24 614.91 633.12 613.55C629.04 612.2 625.68 608.96 625.94 603.8C626.14 599.92 624.53 599.96 621.84 601.69C620.41 602.61 618.95 603.68 617.35 604.08C612.06 605.39 610.64 607.47 611.94 612.66C612.24 613.86 612.83 615.05 612.86 616.25C612.9 617.88 613.02 620.6 612.26 620.94C609.8 622.03 607.91 620.53 607.28 617.97C606.08 613.12 604.77 608.27 604 603.35C603.3 598.82 603.35 594.18 602.9 589.61C602.46 585.09 605.63 581.37 610.1 581.12C619.1 580.62 624.93 582.52 628.33 593.04C629.47 596.56 630.79 600.03 631.9 603.56C632.95 606.88 636.64 609.22 639.86 608.1C643.78 606.74 643.2 603.47 642.62 600.36C642.45 599.43 642.16 598.54 641.67 597.39ZM620.92 591.64C617.56 589.81 614.23 587.93 610.79 586.26C610.59 586.16 609 587.78 609.02 588.58C609.1 591.43 609.45 594.3 609.99 597.11C610.2 598.19 610.96 599.78 611.8 600.02C614.2 600.71 620.2 595.63 620.92 591.64Z" fill="black"/>
<path d="M595.92 30.14C591.54 29.47 587.68 28.54 583.76 28.2C577.26 27.64 570.73 27.51 564.22 27.1C563.18 27.03 561.88 26.76 561.2 26.08C559.61 24.49 558.33 22.59 556.92 20.82C558.82 20.26 560.8 19.01 562.59 19.25C575.47 20.96 588.32 22.91 601.15 24.92C604.05 25.37 606.86 26.38 609.7 27.14C612.07 27.77 614.91 27.7 614.95 31.37C614.99 34.84 614.15 37.74 610.65 39.12C602.07 42.5 593.42 45.73 584.86 49.16C580.87 50.76 576.53 52.08 573.21 54.63C569.47 57.5 567.33 55.44 565.61 53.13C563.15 49.82 566.93 48.16 568.72 47.29C575.07 44.22 581.71 41.71 588.3 39.16C593.04 37.33 597.91 35.86 602.67 34.07C603.56 33.74 604.18 32.7 604.93 31.99C603.93 31.37 602.98 30.39 601.91 30.21C600.12 29.92 598.25 30.14 595.92 30.14Z" fill="black"/>
<path d="M211.92 676.14C205.49 675.25 202.75 670.53 199.58 666.32C198.82 665.31 197.94 664.4 197.12 663.45C196.72 664.78 196.11 666.1 195.97 667.46C195.77 669.44 196.34 671.58 195.8 673.41C195.28 675.15 193.75 676.58 192.66 678.15C191.41 676.91 189.17 675.73 189.09 674.42C188.7 668.39 188.84 662.32 189 656.27C189.03 655.16 189.89 653.95 190.63 652.99C194.49 647.96 197.29 648.19 199.9 653.8C201.39 657.01 202.42 660.43 204.02 663.58C204.59 664.71 206.22 665.31 207.36 666.15C207.55 664.74 208.16 663.23 207.85 661.94C206.23 655.22 206.04 648.62 208.95 642.19C209.84 640.22 210.79 638.2 212.14 636.54C213.82 634.48 215.9 631.84 217.06 637.18C217.32 638.36 219.18 639.88 220.46 640.04C229.03 641.1 237.37 644.96 246.3 642.25C247.24 641.97 248.58 643.02 249.73 643.45C249.16 644.49 248.81 646.14 247.97 646.46C244.93 647.6 241.72 649.03 238.59 648.99C233.03 648.91 227.44 648.02 221.95 647.02C220.46 646.75 219.29 644.81 217.92 643.7C217.2 643.12 216.37 642.66 215.59 642.15C215.04 643.06 214.2 643.9 213.98 644.88C212.07 653.18 212.87 661.3 215.57 669.34C216.58 672.37 216.28 675.16 211.92 676.14Z" fill="black"/>
<path d="M965.17 103.39C967.36 102.2 969.27 100.59 971.26 100.5C973.38 100.4 975.57 101.74 977.72 102.45C976.58 103.73 975.64 105.31 974.26 106.22C968 110.35 961.6 114.25 955.29 118.31C953.31 119.59 954.16 120.79 955.89 121.09C960.58 121.92 965.42 122.08 970.02 123.25C975.39 124.61 980.79 126.26 985.73 128.7C989.23 130.43 991.93 134.41 990.64 138.32C989.77 140.94 986.48 143.8 983.73 144.55C977.94 146.12 971.79 146.44 965.77 147.08C964.65 147.2 962.9 146.72 962.38 145.91C961.5 144.54 961.37 142.69 960.93 141.04C962.19 140.84 963.59 140.19 964.69 140.51C971.68 142.59 977.56 139.25 983.64 136.88C984.12 136.69 984.79 135.64 984.72 135.55C983.98 134.68 983.21 133.44 982.24 133.22C974.13 131.42 965.98 129.81 957.84 128.14C955.54 127.67 953.14 127.43 950.97 126.61C945.55 124.56 944.05 119.11 948.36 115.42C953.49 111.03 959.37 107.53 965.17 103.39Z" fill="black"/>
<path d="M82.17 683.39C81.6 688.5 78.31 692.82 74.71 693.14C69.09 693.64 65.04 692.07 63.76 685.32C62.75 679.95 62.38 674.95 64.63 669.92C67.94 662.53 72.07 661.1 78.64 665.5C80.31 666.62 80.93 667.54 82.99 665.81C85.18 663.98 86.79 665.29 86.96 668.24C87.15 671.44 87.22 674.74 88.09 677.77C88.49 679.16 90.72 680.94 92.06 680.9C93.71 680.84 96.1 679.42 96.76 677.95C98.27 674.6 99.01 670.88 99.87 667.26C100.17 666 99.61 664.5 100.01 663.3C100.39 662.16 101.5 661.26 102.3 660.26C103.18 661.31 104.86 662.42 104.79 663.41C104.42 668.82 104.49 674.5 102.76 679.53C99.92 687.8 90.62 689.58 84.11 683.86C83.67 683.48 82.99 683.37 82.17 683.39ZM76.42 674.14C76.25 673.55 76.2 672.89 75.9 672.38C75.06 670.94 74.13 669.55 73.23 668.14C72.22 669.22 70.54 670.17 70.32 671.39C69.57 675.45 68.95 679.63 69.13 683.72C69.2 685.25 71.64 686.67 73 688.14C73.97 686.81 75.47 685.59 75.81 684.12C76.51 681.03 76.59 677.8 76.42 674.14Z" fill="black"/>
<path d="M940.67 721.39C942.59 725.94 944.64 730.14 945.82 734.56C947.24 739.85 948.14 745.32 948.78 750.77C948.98 752.46 948.07 755.3 946.82 755.92C944.77 756.94 942.96 755.84 942.8 752.8C942.67 750.39 941.67 747.99 940.86 745.66C940.53 744.72 939.56 743.2 939.05 743.27C935.8 743.69 932.63 744.73 929.38 745.08C925.74 745.46 923.99 747.28 922.77 750.65C921.31 754.68 919.26 758.53 917.15 762.27C916.45 763.52 914.75 764.2 913.5 765.15C912.63 763.53 910.8 761.72 911.09 760.33C911.91 756.29 913.1 752.17 915.01 748.53C919.02 740.84 923.48 733.38 927.95 725.95C930.63 721.49 936.16 719.55 940.67 721.39ZM937.92 728.64C936.77 728.46 935 727.72 934.57 728.19C932.58 730.4 930.61 732.77 929.29 735.41C927.94 738.11 929.64 739.32 932.36 739.13C938.14 738.73 940.08 735.4 937.92 728.64Z" fill="black"/>
<path d="M332.67 885.39C331.92 883.52 331.56 881.83 330.87 880.29C330.36 879.14 329.42 878.18 328.67 877.14C328.09 878.35 327.19 879.5 326.98 880.77C326.46 883.93 326.53 887.21 325.8 890.31C325.46 891.75 323.82 892.87 322.76 894.14C321.81 892.77 320.14 891.44 320.05 890.01C319.72 884.7 319.9 879.36 319.95 874.03C319.95 873.64 320.38 873.2 320.7 872.86C324.14 869.27 324.87 864.6 325.97 860.04C326.23 858.98 327.23 858.09 327.89 857.13C328.77 857.83 330.12 858.36 330.43 859.26C331.76 863.05 332.82 866.94 333.89 870.82C334.35 872.48 334.35 874.29 334.98 875.87C335.59 877.4 336.73 878.72 337.64 880.13C339.07 878.71 341.37 877.48 341.74 875.82C342.62 871.92 342.39 867.78 343 863.8C343.3 861.89 344.49 860.11 345.27 858.27C346.48 860 348.34 861.59 348.79 863.5C350.13 869.17 350.72 875.01 352 880.69C352.56 883.19 354.31 885.4 355.06 887.89C355.49 889.33 354.99 891.04 354.92 892.63C353.43 892.14 351.37 892.09 350.57 891.06C348.99 889.04 348.09 886.47 346.93 884.12C346.61 883.48 346.39 882.79 346.13 882.13C345.71 882.65 345.27 883.16 344.87 883.69C342.56 886.79 337.18 888.93 332.67 885.39Z" fill="black"/>
<path d="M746.17 791.39C742.15 802.74 738.6 813.93 734.43 824.88C733.6 827.07 729.5 830.26 728.53 829.77C724.45 827.7 728.35 824.9 729.1 822.6C732.51 812.04 736.28 801.59 739.92 791.1C740.17 790.37 740.36 789.62 740.67 788.91C743.26 783.03 743.26 783.14 737.15 783.11C733.38 783.09 730.41 782.03 729.82 777.35C729.26 772.88 727.76 768.53 727.02 764.07C726.82 762.89 727.89 761.49 728.38 760.19C729.54 760.99 731.27 761.54 731.74 762.64C733.07 765.75 733.73 769.14 734.97 772.3C735.76 774.3 737.11 776.08 738.21 777.96C739.6 777.03 741.32 776.37 742.32 775.13C744.08 772.96 745.47 770.47 746.88 768.04C747.41 767.13 747.3 765.73 747.97 765.03C749.33 763.62 751.02 762.54 752.58 761.33C752.69 763.17 753.26 765.13 752.84 766.84C750.85 774.96 748.59 783.04 746.17 791.39Z" fill="black"/>
<path d="M361.17 671.39C362.25 669.49 363.09 667.84 363.92 666.19C362.34 665.84 360.78 665.28 359.18 665.19C356.19 665.03 353.15 665.43 350.22 665.02C348.7 664.81 347.35 663.36 345.92 662.47C346.96 661.36 347.84 660 349.08 659.19C351.4 657.68 354.05 656.65 356.34 655.11C357.45 654.36 358.08 652.89 358.92 651.74C357.47 650.87 356.09 649.46 354.55 649.25C350.07 648.62 345.5 648.68 341.02 648.03C339.55 647.82 337.39 646.52 337.09 645.32C336.31 642.26 338.73 641.91 341.06 642.16C346.46 642.73 352 642.83 357.23 644.12C364.16 645.83 366.71 650.05 364.72 656.46C363.94 658.95 364.32 659.19 366.22 660.21C372.84 663.76 372.9 670.96 366.54 675.15C358.15 680.67 349.11 683.97 338.92 683.08C337.46 682.95 335.94 682.16 334.72 681.29C334.13 680.88 334.17 679.58 333.93 678.68C334.68 678.5 335.45 678.1 336.18 678.17C345.24 679.05 353.24 675.98 361.17 671.39Z" fill="black"/>
<path d="M909.67 687.89C912.97 677.53 919 669.97 928.86 665.82C929.86 665.4 931.34 666.12 932.59 666.31C932.22 667.57 932.22 669.16 931.42 670.02C927.81 673.9 923.84 677.45 920.3 681.39C918.79 683.07 917.93 685.37 916.94 687.46C914.78 692.03 915.99 694.79 920.67 696.4C929.29 699.37 936.83 696.82 943.74 691.69C944.85 690.86 945.21 689.02 945.92 687.65C944.49 687.48 943.04 687.07 941.64 687.21C939.79 687.39 938 688.23 936.16 688.34C934.47 688.45 932.75 687.98 931.04 687.76C932.12 686.27 932.9 684.04 934.34 683.44C937.33 682.21 940.65 681.57 943.89 681.21C948.26 680.73 951.23 683.45 951.39 687.37C951.51 690.25 950.24 694.31 948.12 695.95C940.15 702.13 930.73 704.21 920.68 703.13C914.15 702.42 908.5 694.85 909.67 687.89Z" fill="black"/>
<path d="M955.17 351.39C958.66 350.14 962.19 347.79 965.1 348.4C972.42 349.94 975.49 355.8 970.83 363.66C967.62 369.06 953.77 372.98 947.79 370.49C940.84 367.6 937.98 363.27 940.1 355.51C942.93 345.16 949.33 337.17 959.64 333.03C960.77 332.58 962.35 333.26 963.72 333.42C963.39 334.89 963.53 336.79 962.64 337.74C960.22 340.33 957.15 342.33 954.73 344.93C952.04 347.82 949.27 350.85 947.52 354.32C946.47 356.4 946.52 359.8 947.5 361.96C949.25 365.79 953.44 364.37 956.4 363.93C959.47 363.48 962.46 361.71 965.17 360.01C966.2 359.37 966.36 357.33 966.91 355.93C965.63 355.78 964.34 355.46 963.07 355.51C960.99 355.59 958.91 356.18 956.86 356.07C953.67 355.91 952.9 354.3 955.17 351.39Z" fill="black"/>
<path d="M373.92 148.14C377.36 147.2 380.33 146.32 383.23 145.27C383.91 145.02 384.37 144.17 384.92 143.6C384.31 143.11 383.75 142.53 383.08 142.16C382.28 141.72 381.34 141.53 380.52 141.12C378.64 140.2 376.79 139.22 374.93 138.26C376.24 136.55 377.26 134.49 378.9 133.2C382.48 130.4 386.4 128.02 390.11 125.38C390.77 124.91 391.11 124 391.59 123.29C390.75 122.9 389.9 122.14 389.08 122.18C384.72 122.38 380.36 122.8 376 123.11C374.84 123.19 373.43 123.54 372.56 123.03C370.86 122.04 369.45 120.54 367.92 119.24C369.53 118.2 371.08 116.4 372.77 116.26C377.56 115.85 382.42 116.18 387.25 116.1C391.63 116.02 395.12 118.37 396.7 121.76C398.23 125.05 396.55 128.75 393.37 131.17C389.49 134.12 387.48 137.11 391.09 141.96C393.8 145.61 390.81 148.96 387.99 150.28C382.58 152.81 376.72 154.52 370.88 155.9C369.56 156.21 367.6 153.81 365.93 152.66C367.4 151.48 368.8 150.19 370.38 149.16C371.24 148.61 372.39 148.47 373.92 148.14Z" fill="black"/>
<path d="M365.67 139.39C369.28 144.17 364.81 146.72 362.53 147.68C355.07 150.82 347.21 153.63 338.88 151.04C337.35 150.56 336.12 148.89 334.95 147.58C334.47 147.04 334.53 146.02 334.34 145.21C335.26 145.08 336.18 144.9 337.1 144.82C343.76 144.25 350.43 143.74 357.08 143.05C357.75 142.98 358.3 141.82 358.91 141.17C358.16 140.82 357.44 140.27 356.66 140.17C351.12 139.44 345.48 139.22 340.08 137.96C337.46 137.34 334.3 135.26 333.27 132.99C332.59 131.49 334.95 128.22 336.5 126.17C340.38 121.05 346.04 118.44 351.99 116.74C354 116.17 356.46 117.15 358.71 117.43C357.34 119.27 356.34 121.69 354.53 122.83C350.91 125.12 346.82 126.64 342.99 128.63C341.96 129.17 341.21 130.23 340.33 131.05C341.7 131.75 343.01 132.81 344.47 133.07C349.15 133.92 353.96 134.15 358.56 135.27C361.02 135.87 363.15 137.8 365.67 139.39Z" fill="black"/>
<path d="M1095.17 731.89C1096.78 736.17 1094.24 737.01 1091.17 737.08C1089.82 737.11 1088.46 736.24 1087.09 736.22C1086.04 736.21 1084.97 736.88 1083.91 737.25C1084.74 738.21 1085.38 739.59 1086.43 740.07C1090.21 741.78 1094.4 742.73 1097.89 744.87C1100.36 746.38 1102.58 749.05 1103.78 751.72C1106.2 757.1 1102.34 762.78 1094.94 765.09C1090.79 766.39 1086.47 767.18 1082.21 768.11C1081.26 768.32 1079.89 768.55 1079.29 768.06C1077.67 766.74 1075.22 765.08 1075.17 763.48C1075.07 760.54 1078.08 759.26 1080.47 760.27C1084.8 762.08 1088.55 760.74 1092.22 759.04C1094.04 758.19 1096.91 755.75 1096.63 754.95C1095.88 752.75 1094.06 750.38 1092.02 749.29C1088.53 747.42 1084.55 746.49 1080.78 745.14C1079.48 744.67 1077.92 744.44 1076.97 743.56C1075.11 741.83 1072.71 739.9 1072.29 737.72C1072.07 736.56 1075.29 734 1077.37 733.28C1083 731.32 1088.71 728.07 1095.17 731.89Z" fill="black"/>
<path d="M1039.92 713.14C1038.59 713.14 1037.71 713.31 1036.94 713.09C1036.21 712.89 1035.59 712.28 1034.92 711.85C1035.44 711.28 1035.86 710.46 1036.51 710.17C1041.14 708.1 1045.83 706.17 1050.47 704.1C1051.29 703.73 1051.91 702.93 1052.62 702.33C1051.79 701.93 1050.99 701.3 1050.11 701.17C1043.79 700.28 1043.31 699.04 1047.16 693.39C1051.39 687.19 1049.84 685.36 1044.82 683.1C1041.82 681.75 1041.1 683.79 1041.12 685.75C1041.17 691.18 1041.91 696.61 1041.76 702.02C1041.71 703.75 1039.92 706.64 1038.54 706.89C1035.25 707.5 1035.89 704.41 1035.96 702.42C1036.22 695.07 1036.66 687.72 1036.91 680.37C1037.07 675.83 1041.33 674.87 1046.89 676.75C1055.52 679.66 1056.82 682.53 1056.04 691.79C1055.91 693.3 1056.83 695.22 1057.87 696.44C1061.06 700.22 1060.88 704.72 1056.36 707C1051.29 709.56 1045.75 711.14 1039.92 713.14Z" fill="black"/>
<path d="M349.92 798.14C350.66 803.1 349.74 807.91 353.66 811.66C354.7 812.66 354.11 815.36 354.27 817.28C352.66 816.91 351.05 816.55 349.45 816.17C348.09 815.85 346.62 814.97 345.41 815.25C338.54 816.83 336.43 815.33 335.88 808.32C335.67 805.65 335.25 802.96 334.55 800.38C334.24 799.25 332.99 798.38 332.17 797.39C331.75 798.55 330.95 799.72 330.99 800.87C331.17 806.23 331.63 811.58 331.89 816.94C331.94 818.02 331.83 819.29 331.28 820.15C330.74 821.02 329.56 821.49 328.66 822.13C328.08 821.25 327.08 820.42 326.99 819.49C326.51 814.65 326.39 809.77 325.88 804.93C325.45 800.84 324.59 796.8 324.05 792.72C323.83 791.09 323.69 789.36 324.04 787.8C324.19 787.14 326.27 786.17 326.49 786.38C330.45 790.1 334.64 793.69 337.94 797.95C339.5 799.96 339.21 803.35 339.96 806.05C340.27 807.15 341.12 808.1 341.72 809.12C342.12 808.09 342.82 807.06 342.85 806.02C342.98 801.7 342.75 797.36 342.99 793.04C343.06 791.7 344.21 790.43 344.86 789.12C345.87 790.23 347.11 791.21 347.84 792.49C348.77 794.09 349.25 795.92 349.92 798.14Z" fill="black"/>
<path d="M91.9199 749.14C91.5899 745.06 91.0199 741.47 91.0799 737.89C91.0999 736.96 93.0599 736.05 94.1299 735.14C94.7299 736.17 95.6099 737.13 95.8599 738.24C96.5199 741.16 96.7799 744.18 97.4099 747.11C101.01 763.85 112.17 774.95 125.63 784.06C132.51 788.72 139.71 793.2 148.76 792.23C149.74 792.12 150.86 793.28 151.92 793.85C151.07 794.63 150.35 795.74 149.34 796.15C141.93 799.16 135.29 796.09 129.13 792.68C119.67 787.45 111.17 780.8 103.92 772.66C97.9699 765.98 93.6499 758.5 91.9199 749.14Z" fill="black"/>
<path d="M717.92 692.14C713.69 699.96 706.6 703.44 699.11 706C695.85 707.11 693.27 704.56 693.02 701.34C692.38 693.19 691.9 684.98 692.22 676.83C692.28 675.19 696.6 672.02 698.18 672.44C703.31 673.81 708.28 676.17 712.94 678.8C717.79 681.56 718.51 686.48 717.92 692.14ZM707.42 695.14C708.59 693.46 710.4 691.92 710.79 690.08C711.63 686.12 704.97 679.14 700.64 679.26C699.75 679.29 698.15 680.88 698.16 681.74C698.19 686.27 698.73 690.8 698.9 695.33C699.06 699.75 700.01 700.37 703.96 698.1C705.05 697.48 705.94 696.47 707.42 695.14Z" fill="black"/>
<path d="M287.67 64.8901C284.34 66.5501 281.34 68.2001 278.15 69.2601C276.9 69.6701 274.84 69.1601 273.86 68.2801C273.28 67.7501 273.59 64.8801 274.33 64.4401C280.45 60.8201 286.77 57.5501 293.01 54.1201C294.36 53.3801 295.6 52.4501 296.9 51.6001C295.44 51.1101 294 50.3001 292.51 50.1901C286.16 49.7201 279.81 49.3301 273.45 49.2001C270.77 49.1401 268.06 50.0801 265.38 50.0201C263.89 49.9901 262.42 48.8401 260.95 48.1901C261.92 46.8401 262.72 44.4901 263.88 44.3101C268.5 43.5501 273.25 43.0801 277.92 43.2501C282.49 43.4101 287.04 44.4001 291.58 45.1601C294.82 45.7001 298.13 46.1801 301.2 47.2601C302.69 47.7901 304.59 49.5301 304.75 50.9101C305 53.0801 306.3 55.8901 302.42 57.3601C297.37 59.2601 292.73 62.1701 287.67 64.8901Z" fill="black"/>
<path d="M395.92 869.14C398.15 872.12 399.53 871.42 399.87 868.39C400.11 866.26 399.65 864.03 400.02 861.93C400.24 860.65 401.43 859.55 402.19 858.37C402.89 859.25 403.94 860.03 404.25 861.04C406.88 869.43 409.49 877.84 411.79 886.33C412.1 887.48 410.67 889.1 410.05 890.51C408.99 889.87 407.66 889.45 406.94 888.55C406.01 887.38 405.33 885.88 404.96 884.42C403.84 880.07 402.02 877.32 396.66 877.86C395.26 878 393.49 874.66 391.93 872.88C391.17 872.01 390.5 871.06 389.79 870.15C389.5 871.12 389.22 872.1 388.92 873.06C387.89 876.29 387.11 879.64 385.7 882.69C385.16 883.86 383.17 884.35 381.84 885.15C381.2 883.83 380.29 882.57 379.98 881.18C379.03 876.89 378.11 872.57 377.63 868.22C377.46 866.69 378.62 865.02 379.17 863.42C379.76 864.66 380.45 865.87 380.91 867.15C381.62 869.12 382.17 871.15 382.78 873.15C383.55 871.27 384.39 869.41 385.06 867.49C385.77 865.45 386.12 863.27 387 861.32C387.55 860.1 388.8 859.2 389.74 858.15C390.8 859.24 392.16 860.16 392.86 861.45C394.09 863.72 394.92 866.23 395.92 869.14Z" fill="black"/>
<path d="M307.67 651.89C312.52 648.7 317.01 645.54 321.81 642.97C323.25 642.2 325.57 643.09 327.49 643.21C326.6 644.72 326.06 646.74 324.76 647.64C320.81 650.37 316.51 652.6 312.47 655.2C311.68 655.71 311.33 657.02 311.03 658.03C310.98 658.19 312.33 658.83 313.08 659.12C316.67 660.48 320.27 661.85 323.9 663.12C329.83 665.2 332.31 668.04 331.9 672.79C331.44 678.13 326.73 679.12 323.02 679.9C319.56 680.63 315.61 679.81 312.05 678.94C310.75 678.62 309.33 676.3 309.09 674.73C308.83 673.01 309.78 670.93 312.3 673C316.52 676.46 320.81 674.37 325.04 673.07C325.8 672.84 326.3 671.79 326.92 671.13C326.13 670.47 325.44 669.5 324.52 669.19C319.43 667.42 314.15 666.1 309.2 664.02C306.51 662.89 304.33 660.55 301.92 658.75C303.75 656.55 305.59 654.34 307.67 651.89Z" fill="black"/>
<path d="M1023.67 331.39C1024.21 337.92 1018.63 338.68 1014.86 340.51C1006.2 344.72 1006.01 344.77 1008.56 354.36C1009.37 357.41 1009.65 360.64 1009.83 363.8C1009.89 364.88 1008.9 366.03 1008.39 367.14C1007.47 366.55 1006.07 366.16 1005.71 365.32C1003.96 361.22 1001.86 357.11 1001.1 352.79C1000.47 349.16 999.94 346.38 995.87 345.56C994.69 345.32 993.36 344.87 992.53 344.08C991.43 343.03 989.85 341.28 990.13 340.32C990.51 339.02 992.32 337.67 993.78 337.23C1001.81 334.85 1009.89 332.65 1018.02 330.64C1019.69 330.23 1021.62 330.94 1023.67 331.39Z" fill="black"/>
<path d="M1057.17 743.89C1057.92 741.69 1058.97 739.19 1058.79 736.78C1058.53 733.18 1061.03 727.52 1064.24 726.36C1064.71 726.19 1065.7 726.36 1065.87 726.68C1066.35 727.6 1067.09 728.94 1066.76 729.66C1063.86 735.85 1064.57 742.09 1065.87 748.46C1066.57 751.89 1065.9 756.03 1062.45 756.65C1060.18 757.06 1057.24 753.95 1054.66 752.32C1053.73 751.73 1052.99 750.86 1052.16 750.12C1051.75 751.14 1051.32 752.15 1050.92 753.17C1050.19 755.03 1049.77 757.11 1048.65 758.68C1048.08 759.48 1045.75 760.05 1045.12 759.56C1044.02 758.72 1042.83 756.79 1043.08 755.62C1044.07 750.94 1045.57 746.37 1046.93 741.77C1047.28 740.59 1047.49 739.17 1048.29 738.38C1049.6 737.07 1051.33 736.18 1052.89 735.12C1053.57 736.57 1054.24 738.01 1054.92 739.46C1055.58 740.86 1056.25 742.25 1057.17 743.89Z" fill="black"/>
<path d="M1040.92 741.14C1042.13 752.21 1028.09 758.04 1021.15 755.82C1016.03 754.18 1013.63 748.05 1016.1 742.56C1017.87 738.63 1020.06 734.85 1022.42 731.23C1025.06 727.18 1035.84 728.67 1038.73 733.59C1039.94 735.65 1040.22 738.27 1040.92 741.14ZM1025.42 739.14C1024.25 740.98 1022.8 742.7 1021.99 744.68C1020.9 747.36 1023.47 750.5 1026.34 750.1C1030.16 749.57 1033.82 747.71 1034.37 743.9C1034.75 741.26 1033.46 737.43 1031.51 735.67C1029.36 733.72 1026.77 735.61 1025.42 739.14Z" fill="black"/>
<path d="M632.67 692.39C631.59 687.16 630.69 682.19 629.97 677.19C629.82 676.17 630.09 674.88 630.63 674.01C631.71 672.28 633.12 670.75 634.39 669.14C635.23 671.12 636.52 673.03 636.82 675.08C637.46 679.39 637.28 683.83 638.05 688.11C638.38 689.92 640.26 691.46 641.43 693.12C642.26 691.13 643.42 689.21 643.84 687.14C645.03 681.27 645.73 675.3 647.04 669.46C647.32 668.2 649.32 667.32 650.53 666.27C650.74 667.97 651.13 669.68 651.14 671.38C651.16 675.67 651.1 679.97 650.88 684.25C650.73 687.12 650.75 690.16 649.77 692.77C648.87 695.14 647.05 698.31 645.03 698.83C642.48 699.49 639.16 698.22 636.51 697.03C634.97 696.32 634.1 694.15 632.67 692.39Z" fill="black"/>
<path d="M36.9199 668.14C36.1299 669.81 35.3399 670.97 34.5499 672.14C33.3399 671.03 31.86 670.09 31.02 668.75C30.49 667.92 31.17 666.41 30.87 665.33C30.28 663.21 29.05 662.05 27.24 664.35C22.98 669.76 20.31 675.93 20.02 682.79C19.8 688.03 26.04 692.27 31.27 691.2C32.75 690.9 34.3599 691.29 35.9199 691.36C34.3399 692.96 32.9199 695.69 31.1399 695.96C19.9199 697.64 11.09 688.63 14.44 676.17C15.4 672.6 16.71 669.13 17.93 665.64C19.57 660.96 23.08 657.86 27.74 657.34C31.41 656.93 34.8599 658.94 36.1699 662.96C36.6699 664.43 36.6899 666.07 36.9199 668.14Z" fill="black"/>
<path d="M377.92 815.14C377.59 820.67 377.42 825.71 376.82 830.7C376.63 832.25 375.28 833.66 374.47 835.14C373.62 833.7 372.16 832.31 372.04 830.8C371.7 826.66 372.11 822.47 371.8 818.33C371.72 817.21 370.27 815.48 369.2 815.26C363.75 814.15 359.15 810.31 357.96 805.05C357.4 802.57 357 800 357.04 797.48C357.06 796.44 358.41 795.43 359.15 794.4C359.86 795.26 360.79 796.02 361.23 797C362.42 799.67 363.02 802.67 364.58 805.08C365.7 806.81 367.97 807.81 369.72 809.13C371.12 807.18 373.09 805.42 373.79 803.25C374.7 800.41 374.4 797.2 375.02 794.23C375.32 792.79 376.54 791.55 377.35 790.22C378.21 791.64 379.88 793.11 379.79 794.47C379.47 799.88 378.57 805.25 377.95 810.64C377.79 811.96 377.92 813.3 377.92 815.14Z" fill="black"/>
<path d="M289.67 762.89C282.76 762.7 275.97 751.05 279.27 745.42C280.24 743.77 281.68 741.92 284.47 743.95C285.78 744.9 288.5 744.98 290.07 744.29C294 742.59 296.96 743.63 299 746.86C301.08 750.16 300.47 753.84 297.84 756.56C295.56 758.92 292.59 760.63 289.67 762.89Z" fill="black"/>
<path d="M703.92 551.14C701.64 556.82 696.91 558.72 692.02 560.05C689.27 560.8 686.41 560.28 684.68 557.4C682.6 553.95 684.38 550.99 685.96 548.07C686.56 546.96 687.85 546.19 688.37 545.06C688.74 544.26 688.69 542.9 688.22 542.18C687.35 540.85 686.04 539.8 684.92 538.63C687.31 538.02 689.91 536.49 692.06 536.97C699.13 538.55 703.2 543.27 703.92 551.14ZM692.42 554.14C694.04 552.52 695.83 551.02 697.18 549.2C697.58 548.66 696.73 547.21 696.45 546.17C695.18 547.09 692.86 547.99 692.85 548.92C692.83 550.91 688.27 551.57 692.42 554.14Z" fill="black"/>
<path d="M706.92 129.14C700.19 135.93 692.94 135.41 689.33 129.74C687.78 127.31 687.7 123.49 688.04 120.42C688.9 112.56 691.34 105.53 699.52 101.88C702.21 100.68 704.04 101.03 705.19 103.2C705.52 103.83 703.81 106.26 702.55 106.88C696.26 109.97 695.75 116.65 693.17 121.93C692.69 122.91 695.04 125.7 696.56 127.16C699.68 130.18 701.1 125.89 703.34 125.13C704.64 124.69 705.67 123.43 706.83 122.55C706.85 124.57 706.89 126.6 706.92 129.14Z" fill="black"/>
<path d="M970.67 728.39C972.09 730.81 973.51 732.9 974.34 735.2C974.74 736.31 974.02 737.81 973.81 739.14C972.18 738.48 970.31 738.12 968.99 737.07C967.86 736.17 967.35 734.48 966.57 733.14C965.73 734.59 964.57 735.95 964.11 737.51C961.71 745.64 965.39 749.86 973.9 749.24C975.05 749.16 976.31 750.53 977.51 751.23C976.95 752.05 976.58 753.14 975.81 753.66C967.27 759.43 958.37 753.13 957.07 745.7C956.03 739.76 956.99 733.92 962.05 729.34C964.84 726.83 967.16 725.36 970.67 728.39Z" fill="black"/>
<path d="M988.67 755.39C988.25 750.32 987.07 745.25 988.22 740.77C989.25 736.77 989.13 735.93 985.1 736.08C981.91 736.2 978.83 735.64 977.36 732.1C976.59 730.25 976.41 729.25 979.07 729.07C985.8 728.61 992.5 727.73 999.23 727.21C1000.35 727.12 1001.54 727.99 1002.69 728.41C1002.37 729.21 1002.29 730.33 1001.7 730.77C994.5 736.21 993.22 743.83 993.97 752.05C994.4 756.62 992.34 756.89 988.67 755.39Z" fill="black"/>
<path d="M660.92 726.14C661.87 727.47 662.71 728.7 663.81 729.04C665.17 729.46 666.81 728.92 668.25 729.21C669.53 729.46 670.7 730.28 671.92 730.84C671.07 731.62 670.27 732.46 669.36 733.16C668.63 733.72 667.81 734.43 666.96 734.53C662.65 735.07 660.34 736.96 660.64 741.74C660.71 742.8 658.5 744 657.34 745.13C656.53 743.98 655.29 742.94 655 741.68C654.24 738.36 652.69 736.88 649.05 736.97C647.36 737.01 645.63 735.27 643.92 734.34C645.5 733.27 646.95 731.69 648.68 731.25C651.91 730.44 654.61 729.7 653.95 725.47C653.75 724.17 653.49 722.61 654.02 721.54C654.83 719.9 656.31 718.59 657.5 717.13C658.31 718.44 659.3 719.68 659.87 721.09C660.44 722.52 660.59 724.12 660.92 726.14Z" fill="black"/>
<path d="M366.92 864.14C372.63 867.51 376.25 871.77 375.95 878.48C375.76 882.69 372.08 886.57 367.41 887.14C364.17 887.54 359.62 883.28 358.89 879.45C358.19 875.81 358.29 872.16 355.46 868.83C352.98 865.92 356.24 863.74 358.89 863.29C361.28 862.89 363.9 863.8 366.92 864.14ZM370.92 875.64C370.57 874.96 370.35 874.14 369.84 873.61C368.05 871.77 366.15 870.04 364.29 868.27C364.17 870.93 363.68 873.65 364.06 876.23C364.27 877.65 365.95 878.84 366.97 880.14C368.29 878.97 369.61 877.8 370.92 875.64Z" fill="black"/>
<path d="M671.92 676.14C671.92 672.98 671.61 670.27 672.05 667.69C672.27 666.38 673.86 665.31 674.83 664.14C675.59 665.04 676.57 665.83 677.07 666.85C679.4 671.63 679.76 676.52 677.99 681.64C677.28 683.7 677.01 685.98 676.96 688.17C676.8 694.23 678.32 695.36 684.28 694.17C685.29 693.97 686.37 694.15 687.42 694.15C687.16 695.4 687.31 697.03 686.57 697.84C683.39 701.3 678.86 700.9 675.31 699.63C672.99 698.8 670.79 695.35 670.15 692.68C669.44 689.75 670.54 686.37 670.93 683.19C671.2 681 671.59 678.82 671.92 676.14Z" fill="black"/>
<path d="M168.92 809.14C164.7 809.81 160.99 810.59 157.25 811.03C156.56 811.11 155.7 809.78 154.92 809.1C155.56 808.45 156.09 807.42 156.85 807.2C160.73 806.07 164.67 805.18 168.57 804.1C169.42 803.86 170.14 803.17 170.92 802.69C170.17 802.17 169.43 801.65 168.68 801.14C164.26 798.14 159.75 795.27 155.49 792.06C154.43 791.26 154.2 789.36 153.59 787.97C155.5 788.03 157.79 787.43 159.25 788.27C163.07 790.46 166.49 793.32 170.13 795.83C172.31 797.34 174.62 798.67 176.83 800.15C181.01 802.94 181 805.03 176.55 807.08C174.33 808.1 171.81 808.47 168.92 809.14Z" fill="black"/>
<path d="M656.92 552.14C659.15 545.74 661.31 539.82 663.69 533.98C664.03 533.14 665.44 532.74 666.35 532.14C666.87 533.24 667.62 534.3 667.86 535.45C668.12 536.73 668.43 538.42 667.83 539.37C665.41 543.24 667.75 544.46 670.65 546.28C672.53 547.46 674.2 549.91 674.63 552.05C674.84 553.1 672.19 555.12 670.48 556.06C665.37 558.91 659.87 557.39 656.92 552.14ZM661.92 550.64C663.17 551.05 664.43 551.46 665.68 551.88C665.48 551.19 665.45 550.05 665.06 549.91C664.1 549.57 662.98 549.7 661.92 550.64Z" fill="black"/>
<path d="M979.17 339.39C979.92 338.52 980.38 337.85 980.93 337.28C981.64 336.53 982.42 335.85 983.17 335.14C983.75 336.18 984.81 337.2 984.84 338.26C985.01 343.58 984.92 348.9 984.92 354.23C984.92 359.22 985.05 364.22 984.83 369.2C984.77 370.54 983.63 371.83 982.99 373.14C981.78 372.12 979.88 371.3 979.49 370.03C978.58 367.03 977.98 363.81 978 360.68C978.07 353.67 978.59 346.65 979.17 339.39Z" fill="black"/>
<path d="M225.92 666.14C225.59 661.8 225.03 657.96 225.04 654.12C225.05 652.79 226.49 651.46 227.28 650.14C228.54 651.02 230.32 651.64 230.95 652.85C231.99 654.86 232.75 657.24 232.83 659.48C233.06 666.43 233.14 673.41 232.75 680.35C232.66 682.01 230.48 683.54 229.27 685.13C228.49 683.63 227.21 682.2 227.01 680.62C226.42 675.99 226.25 671.31 225.92 666.14Z" fill="black"/>
<path d="M53.17 662.89C53.18 667.71 52.9 672.28 52.73 676.85C52.66 678.76 52.82 680.68 52.88 682.59C54.36 682.14 55.83 681.58 57.34 681.26C58.34 681.05 59.4 681.17 60.44 681.15C60.3 682.28 60.54 683.7 59.95 684.5C55.2 690.94 48.34 690.86 45.71 684.26C45.06 682.64 45.67 680.44 45.95 678.54C46.51 674.82 46.81 670.97 48.09 667.49C48.81 665.55 51.25 664.24 53.17 662.89Z" fill="black"/>
<path d="M104.17 15.8901C105.17 14.8901 106.77 13.2301 107.62 13.5401C114.5 16.1001 115.55 24.1301 112.51 30.0901C111.75 31.5801 111.52 33.3401 110.88 34.9001C110.54 35.7301 109.89 36.9001 109.24 37.0001C108.55 37.1001 107.45 36.2901 106.95 35.5901C104.04 31.5001 101.5 27.1301 98.34 23.2401C96.56 21.0501 96.34 19.5401 98.63 18.1201C99 17.8901 100.56 19.2701 101.34 20.1201C103.3 22.2601 105.07 24.5701 107.04 26.7101C107.64 27.3601 108.61 27.6601 109.42 28.1201C109.58 27.1901 110.18 26.0301 109.83 25.3701C108.18 22.2201 106.25 19.2001 104.17 15.8901Z" fill="black"/>
<path d="M655.92 681.14C655.92 680.31 655.92 679.98 655.92 679.65C655.94 677.29 655.97 674.93 656 672.57C657.64 673.93 659.81 674.97 660.82 676.69C664.92 683.7 663.91 691.57 663.84 699.22C663.83 699.87 662.63 700.5 661.99 701.14C660.64 699.66 658.53 698.37 658.08 696.66C657.21 693.3 657.31 689.69 656.9 686.2C656.71 684.66 656.25 683.15 655.92 681.14Z" fill="black"/>
<path d="M96.92 176.14C91.21 178.81 86.04 181.57 80.74 184.05C79.76 184.51 78.24 183.84 76.98 183.69C77.41 182.22 77.39 180.11 78.37 179.41C81.24 177.35 84.48 175.79 87.64 174.17C89.82 173.05 92.43 172.53 94.29 171.05C96.74 169.1 99.15 167.82 101.3 170.48C101.7 170.98 98.8 174.18 96.92 176.14Z" fill="black"/>
<path d="M1011.92 733.14C1011.25 738.5 1010.91 743.43 1009.78 748.17C1009.26 750.35 1007.23 753.78 1005.85 753.79C1003.15 753.82 1002.47 750.79 1002.94 748.16C1003.78 743.39 1004.49 738.58 1005.74 733.92C1006.77 730.07 1008.97 728.75 1011.92 733.14Z" fill="black"/>
<path d="M583.92 627.14C583.92 624.48 583.6 622.25 584.05 620.18C584.3 619.02 585.83 618.14 586.78 617.14C587.5 618.38 589.12 620.03 588.78 620.8C586.36 626.21 590.29 626.89 593.75 628.17C596.05 629.03 598.31 630.04 600.46 631.23C602.33 632.26 601.98 633.49 600.1 634.11C596.44 635.33 585.98 631.07 583.92 627.14Z" fill="black"/>
<path d="M732.92 615.14C732.59 610.32 731.98 605.99 732.05 601.67C732.08 599.84 733.53 598.04 734.33 596.22C735.36 597.52 737.06 598.72 737.29 600.15C738.1 605.18 738.5 610.28 738.83 615.37C738.89 616.25 737.51 618.05 737.38 618C735.84 617.38 734.39 616.47 732.92 615.14Z" fill="black"/>
<path d="M678.17 18.89C679.34 12.28 685.23 14.72 689.03 13.34C691.86 12.32 695.37 12.97 698.54 13.23C699.71 13.33 700.8 14.45 701.92 15.11C700.95 16.12 700.09 17.8501 699 18.0201C692.86 18.9401 686.67 19.51 680.48 20.09C679.83 20.15 679.11 19.47 678.17 18.89Z" fill="black"/>
<path d="M95.67 27.39C101.68 30.83 103.64 34.56 102.87 41.12C102.79 41.83 102.07 42.47 101.64 43.14C101.06 42.62 100.16 42.2 99.97 41.56C98.6 37.13 97.44 32.63 91.29 32.89C90.87 32.91 89.86 30.31 90 30.21C91.71 29.04 93.59 28.12 95.67 27.39Z" fill="black"/>
<path d="M694.17 637.89C692 634.76 691.87 632.8 696.23 633.14C700.39 633.47 704.55 633.7 708.69 634.23C709.51 634.33 710.19 635.56 710.93 636.26C710.27 636.89 709.63 638.04 708.96 638.06C704.11 638.21 699.26 638.14 694.17 637.89Z" fill="black"/>
<path d="M674.92 632.14C676.92 633.28 678.42 634.41 679.92 635.55C677.82 636.41 675.74 637.92 673.61 637.99C670.71 638.09 667.73 637.26 664.88 636.48C664.05 636.25 663.56 634.8 662.92 633.91C663.95 633.32 664.94 632.32 666 632.23C668.79 631.98 671.61 632.14 674.92 632.14Z" fill="black"/>
<path d="M647.92 635.14C643.29 639.55 637.73 637.87 632.53 637.98C631.68 638 630.79 635.92 629.92 634.81C630.98 634.25 632.08 633.17 633.11 633.23C638.06 633.53 642.99 634.14 647.92 635.14Z" fill="black"/>
<path d="M706.17 510.39C710.14 511.53 713.97 512.69 717.51 514.46C718.44 514.92 718.44 517.23 718.87 518.69C717.41 518.53 715.9 518.53 714.5 518.17C712.43 517.63 710.4 516.92 708.41 516.12C705.91 515.11 703.35 514 706.17 510.39Z" fill="black"/>
<path d="M728.92 576.14C728.92 575.48 728.89 575.3 728.93 575.15C729.52 572.81 730.12 570.48 730.72 568.14C732.07 570.25 733.59 572.27 734.68 574.51C735.2 575.58 735.22 577.18 734.85 578.33C734.3 580.03 733.19 581.55 732.31 583.14C731.52 581.83 730.68 580.54 729.95 579.19C729.51 578.38 729.25 577.49 728.92 576.14Z" fill="black"/>
<path d="M727.67 553.89C729.24 552.47 730.55 551.31 731.87 550.14C732.55 551.75 733.3 553.33 733.88 554.97C734.09 555.56 734.15 556.42 733.87 556.93C732.89 558.72 731.91 561.71 730.61 561.88C727.67 562.27 726.66 559.72 726.92 556.93C727.02 555.99 727.25 555.07 727.67 553.89Z" fill="black"/>
<path d="M654.92 510.14C652.9 509.81 651.2 509.8 649.93 509.05C648.7 508.32 647.92 506.82 646.94 505.66C648.2 505.15 649.45 504.27 650.74 504.22C653.13 504.12 655.58 504.31 657.94 504.75C659.02 504.95 659.93 506.04 660.92 506.73C659.98 507.63 659.14 508.68 658.08 509.4C657.35 509.88 656.32 509.91 654.92 510.14Z" fill="black"/>
<path d="M727.67 522.39C728.59 525.36 729.51 528.05 729.74 530.81C729.8 531.49 727.58 532.35 726.41 533.13C725.25 530.95 723.27 528.79 723.21 526.58C723.17 525.14 725.92 523.62 727.67 522.39Z" fill="black"/>
<path d="M575.92 530.14C575.76 532.46 575.61 534.29 575.45 536.11C573.94 535.15 571.42 534.41 571.14 533.17C570.62 530.9 571.32 528.3 571.76 525.89C571.88 525.24 572.87 524.74 573.45 524.17C573.94 524.97 574.52 525.72 574.9 526.57C575.33 527.55 575.59 528.61 575.92 530.14Z" fill="black"/>
<path d="M603.67 506.89C600.42 507.14 597.4 507.28 594.42 507C593.84 506.95 592.84 505.06 593.06 504.35C593.35 503.44 594.69 502.25 595.57 502.26C598.22 502.3 600.89 502.72 603.46 503.37C603.86 503.46 603.78 505.5 603.67 506.89Z" fill="black"/>
<path d="M627.92 503.14C628.91 503.14 629.46 503 629.89 503.16C631.88 503.9 633.84 504.73 635.8 505.52C633.92 506.73 631.99 508.95 630.16 508.87C628.03 508.78 626 506.67 623.92 505.44C625.09 504.67 626.25 503.9 627.92 503.14Z" fill="black"/>
<path d="M577.92 564.14C577.9 566.33 577.88 568.01 577.86 569.7C576.58 569.51 574.83 569.78 574.14 569.04C573.03 567.86 571.81 565.84 572.11 564.51C572.55 562.59 574.31 560.97 575.5 559.23C576.31 560.69 577.12 562.17 577.92 564.14Z" fill="black"/>
<path d="M726.17 634.39C726.75 634.14 727.18 634 727.4 634.16C728.93 635.27 730.42 636.44 731.92 637.59C730.29 638.44 728.62 640.04 727.03 639.97C724.67 639.85 722.36 638.55 720.03 637.76C720.57 636.89 720.91 635.57 721.68 635.25C722.95 634.7 724.49 634.8 726.17 634.39Z" fill="black"/>
<path d="M617.67 633.39C618.13 634.76 618.83 636.11 618.44 636.96C617.73 638.52 607.33 637.4 607.25 634.82C607.23 633.95 608.97 632.32 609.96 632.28C612.44 632.19 614.93 632.8 617.67 633.39Z" fill="black"/>
<path d="M581.92 595.14C580.81 596.81 579.27 599.16 578.65 598.94C575.38 597.77 575.38 594.58 576.1 591.95C576.43 590.74 578.7 590.06 580.09 589.14C580.7 590.97 581.31 592.8 581.92 595.14Z" fill="black"/>
<path d="M569.92 515.14C570.25 513.62 570.33 512.38 570.98 511.63C572.11 510.31 573.58 509.29 574.91 508.14C575.25 509.55 575.96 511 575.84 512.37C575.67 514.32 574.88 516.22 574.35 518.14C572.87 517.3 571.4 516.47 569.92 515.14Z" fill="black"/>
<path d="M683.92 512.14C681.96 511.68 679.96 511.63 679.2 510.64C678.51 509.74 679.17 507.81 679.23 506.33C681.91 506.89 684.6 507.45 687.28 508.01C686.33 509.38 685.38 510.76 683.92 512.14Z" fill="black"/>
<path d="M969.92 327.14C970.96 322.36 972.03 321.97 975.38 325.24C976.71 326.55 977.26 328.66 978.16 330.4C976.34 330.07 974.47 329.87 972.71 329.35C971.69 329.05 970.84 328.23 969.92 327.14Z" fill="black"/>
<path d="M572.92 549.14C574.18 548.57 576.3 548.03 576.55 548.5C577.59 550.44 578.16 552.67 578.59 554.85C578.63 555.06 576.26 556.33 575.39 556.03C572.32 554.95 571.61 552.59 572.92 549.14Z" fill="black"/>
<path d="M734.92 625.14C735.61 626.95 736.51 629.15 735.78 630.43C735.21 631.43 732.62 631.29 730.94 631.65C731.07 630.17 730.86 628.53 731.45 627.28C731.91 626.31 733.39 625.83 734.92 625.14Z" fill="black"/>
<path d="M689.17 5.89002C690.19 4.14002 691.24 2.24002 692.84 1.33002C693.51 0.950025 695.37 2.65002 696.69 3.41002C695.95 4.32002 695.36 5.76002 694.43 6.02002C692.87 6.45002 691.1 6.14002 689.17 5.89002Z" fill="black"/>
<path d="M578.17 576.89C578.89 577.61 579.73 578.06 579.76 578.55C579.86 580.02 579.83 581.57 579.44 582.98C579.31 583.45 577.3 583.92 577.24 583.8C576.35 582.19 575.38 580.52 575.09 578.76C575 578.23 576.92 577.36 578.17 576.89Z" fill="black"/>
<path d="M586.67 609.89C584.05 611.72 581.82 612.2 581 608.68C580.73 607.53 581.43 606.14 581.69 604.86C582.85 605.2 584.32 605.22 585.07 605.96C586.01 606.87 586.33 608.38 586.67 609.89Z" fill="black"/>
<path d="M716.67 588.89C714.94 589.99 713.53 591.08 711.93 591.52C711.59 591.61 710.33 589.4 710.06 588.14C709.96 587.65 711.64 586.12 712.15 586.27C713.83 586.76 715.35 587.8 716.67 588.89Z" fill="black"/>
<path d="M951.17 658.89C951.06 660.47 950.71 661.81 950.35 663.14C949.01 662.44 947.4 661.99 946.44 660.94C945.97 660.42 946.69 658.81 946.87 657.69C948.22 658 949.57 658.32 951.17 658.89Z" fill="black"/>
<path d="M658.17 665.89C657.8 665.52 657.6 665.42 657.59 665.29C657.38 663.38 657.19 661.47 657 659.57C658.14 660.09 659.82 660.31 660.3 661.18C661.43 663.24 661.78 665.53 658.17 665.89Z" fill="black"/>
<path d="M677.92 28.14C678.5 27.06 679.02 26.09 679.69 25.97C680.88 25.75 682.32 25.73 683.36 26.23C684.07 26.57 684.27 27.95 684.7 28.86C683.56 29.28 682.4 30.07 681.27 30.03C680.13 30 679.03 29.14 677.92 28.14Z" fill="black"/>
<path d="M1008.92 722.14C1009.39 721.17 1009.97 720.23 1010.31 720.31C1011.88 720.68 1013.39 721.34 1014.92 721.89C1014.51 722.88 1014.33 724.5 1013.64 724.76C1011.62 725.52 1009.37 725.81 1008.92 722.14Z" fill="black"/>
<path d="M668.92 27.14C670.49 28.4 671.56 29.66 672.63 30.93C671.15 31.33 669.68 31.97 668.18 32.05C667.45 32.09 666.67 31.09 665.92 30.57C666.75 29.42 667.59 28.28 668.92 27.14Z" fill="black"/>
<path d="M694.67 27.8901C693.06 27.7801 691.66 27.4801 690.36 26.9601C690.19 26.8901 690.34 25.1601 690.55 25.1101C691.96 24.8001 693.42 24.7301 694.86 24.5801C694.88 25.6001 694.9 26.6201 694.67 27.8901Z" fill="black"/>
<path d="M700.17 26.8901C700.14 26.0801 700.23 25.1901 700.62 25.0301C702.02 24.4501 703.52 24.1301 704.98 23.7001C705.15 24.4901 705.74 25.6201 705.42 26.0001C704.13 27.5501 702.71 29.6101 700.17 26.8901Z" fill="black"/>
<path d="M248.17 788.89C251.42 794.56 253.31 795.24 258.7 792.88C259.68 792.45 260.71 792 261.75 791.87C262.64 791.76 263.58 792.1 264.5 792.23C264.19 793.15 264.14 794.33 263.52 794.95C259.02 799.51 249.13 800.02 244.99 795.42C243.55 793.82 243.91 790.59 243.45 788.1C244.95 788.28 246.43 788.46 248.17 788.89Z" fill="black"/>
<path d="M263.17 786.89C263.06 785.17 263.2 783.7 263.33 782.23C265 782.51 266.66 782.78 268.33 783.06C268.19 783.66 268.25 784.57 267.88 784.81C266.47 785.7 264.92 786.38 263.17 786.89Z" fill="black"/>
<path d="M257.92 783.14C257.44 786.14 256.05 786.94 253.88 785.51C253.18 785.05 252.3 783.62 252.54 783.17C253.95 780.46 255.96 781.3 257.92 783.14Z" fill="black"/>
<path d="M45.1701 38.39C41.0501 41.03 37.3601 44.12 32.3701 43.07C30.4701 42.67 28.2201 41.9 27.0801 40.51C26.1101 39.34 26.5101 37.04 26.3101 35.25C27.6801 35.88 29.3501 36.2 30.3601 37.19C33.8701 40.65 36.8301 38.19 39.2301 36.12C41.8501 33.87 43.6801 30.72 45.9401 28.04C46.7501 27.08 47.8501 26.36 48.8101 25.53C49.1801 26.87 50.1901 28.46 49.7901 29.5C48.6501 32.5 46.9201 35.28 45.1701 38.39Z" fill="black"/>
<path d="M35.9199 28.14C34.5899 27.89 33.1899 27.22 31.9699 26.32C31.6999 26.12 32.0399 25.1 32.0999 24.46C32.7899 24.6 33.6899 24.51 34.1099 24.92C34.8699 25.67 35.3299 26.72 35.9199 28.14Z" fill="black"/>
<path d="M40.17 22.39C40.84 23.38 41.27 24.62 41.69 25.87C41.13 25.82 40.1 25.85 40.08 25.72C39.91 24.7 39.95 23.67 40.17 22.39Z" fill="black"/>
<path d="M48.17 620.89C44.6 617.57 42.01 613.91 43.08 609.3C43.68 606.72 45.91 604.52 47.41 602.15C48.25 602.73 49.22 603.2 49.87 603.95C50.2 604.33 49.99 605.24 49.92 605.89C49.61 608.47 48.06 611.98 49.19 613.42C51.41 616.27 55.14 617.91 58.16 620.16C60.1 621.61 61.89 623.26 63.75 624.82C61.15 624.76 58.44 625.14 55.97 624.53C53.33 623.88 50.92 622.31 48.17 620.89Z" fill="black"/>
<path d="M124.17 603.39C119.99 604.96 118.17 602.25 119.28 599.57C121.47 594.32 117.84 592.59 115 590.17C114.34 589.61 113.05 589.7 112.51 589.09C111.55 588.01 110.95 586.62 110.2 585.36C111.67 585.02 113.35 584.02 114.56 584.43C122.45 587.07 129.22 592.96 124.17 603.39Z" fill="black"/>
<path d="M953.92 568.14C954.04 567.52 954.15 567.31 954.27 567.3C955.97 567.21 957.66 567.15 959.36 567.08C959.15 567.67 958.96 568.74 958.71 568.76C957.13 568.85 955.52 568.7 953.92 568.14Z" fill="black"/>
</g>
<defs>
<filter id="filter0_d" x="-5.95691" y="-0.00012207" width="1116.46" height="917.168" filterUnits="userSpaceOnUse" color-interpolation-filters="sRGB">
<feFlood flood-opacity="0" result="BackgroundImageFix"/>
<feColorMatrix in="SourceAlpha" type="matrix" values="0 0 0 0 0 0 0 0 0 0 0 0 0 0 0 0 0 0 127 0"/>
<feOffset dy="6"/>
<feGaussianBlur stdDeviation="3"/>
<feColorMatrix type="matrix" values="0 0 0 0 0 0 0 0 0 0 0 0 0 0 0 0 0 0 0.4 0"/>
<feBlend mode="normal" in2="BackgroundImageFix" result="effect1_dropShadow"/>
<feBlend mode="normal" in="SourceGraphic" in2="effect1_dropShadow" result="shape"/>
</filter>
</defs>
</svg>
