<svg width="936" height="780" viewBox="0 0 936 780" fill="none" xmlns="http://www.w3.org/2000/svg">
<g filter="url(#filter0_d)">
<path d="M665.37 23.98C674.01 22.31 682.13 20.53 690.3 19.01C706.87 15.93 723.44 12.82 740.07 10.04C751.83 8.07999 763.64 6.34999 775.49 5.05999C790.57 3.41999 805.69 2.10999 820.82 1.05999C830.99 0.349991 841.23 -0.320009 851.39 0.189991C859.93 0.619991 868.58 1.39999 876.6 5.55999C886.26 10.57 891.3 19.14 894.16 28.67C898.02 41.5 900.72 54.72 903.25 67.9C904.91 76.53 905.29 85.39 906.39 94.13C907.98 106.78 909.67 119.42 911.38 132.05C915.07 159.39 922.84 185.77 930.11 212.27C932.09 219.48 933.84 226.77 935.33 234.1C937.38 244.18 929.46 253.7 918.72 253.94C907.23 254.19 895.72 254.12 884.23 253.95C875.87 253.83 867.51 253.32 859.15 252.99C842.43 252.32 825.71 251.58 808.99 251.02C795.3 250.56 781.6 249.95 767.91 250.11C755.02 250.26 742.13 251.27 729.24 252.02C719.51 252.59 709.79 253.32 700.07 254C685.82 254.99 671.56 255.83 657.32 257.05C644.35 258.15 631.39 259.37 618.49 261.09C606.43 262.69 594.48 265.03 582.47 267C570.14 269.03 557.74 270.7 545.48 273.11C536.18 274.94 527.11 277.87 517.86 279.97C501.08 283.78 484.2 287.16 467.45 291.08C457.03 293.52 446.66 296.31 436.48 299.6C431.93 301.07 428.05 299.33 423.93 298.82C422.83 298.68 421.2 296.17 421.25 294.8C421.39 290.86 423.63 287.97 427.62 287.04C443.28 283.39 458.94 279.72 474.65 276.28C487.97 273.36 501.37 270.8 514.72 268C525.44 265.75 536.09 263.14 546.85 261.12C555.89 259.43 565.06 258.39 574.16 257C584.81 255.37 595.43 253.55 606.09 252.06C612.61 251.14 619.2 250.7 625.75 250.01C638.36 248.69 650.97 247.33 663.59 246.03C667.61 245.62 671.64 245.25 675.67 245.04C683.53 244.63 691.4 244.46 699.25 243.99C714.67 243.07 730.07 241.74 745.5 241.08C767.21 240.15 788.94 239.24 810.66 239.16C826.88 239.1 843.1 240.47 859.32 240.97C868.37 241.24 877.43 241.02 886.49 241.02H916.66C917.44 241.02 918.72 240.93 919.5 240.82C921.25 240.56 923 240.29 924.75 240.02C924.29 238.07 923.83 236.13 923.38 234.18C919.05 215.48 914.7 196.78 910.38 178.07C908.03 167.88 905.35 157.74 903.49 147.46C901.95 138.97 901.39 130.31 900.38 121.73C899.05 110.45 897.77 99.16 896.37 87.89C895.11 77.77 894.12 67.59 892.28 57.57C890.17 46.12 888.87 34.32 883.31 23.82C879.39 16.42 873.51 11.37 864.5 10.98C851.94 10.44 839.37 8.86999 826.84 9.21999C812.53 9.62999 798.26 11.5 784 13.06C771 14.48 758 16.05 745.09 18.09C732.83 20.03 720.68 22.69 708.48 25C690.87 28.35 673.22 31.52 655.64 35.05C641.84 37.82 628.17 41.25 614.35 43.95C594.42 47.84 574.35 51.05 554.44 55.09C534.99 59.04 515.72 63.82 496.31 67.96C476.68 72.15 456.93 75.79 437.34 80.17C433.12 81.11 427.61 82.1 426.9 88.08C426.57 90.82 426.85 93.74 427.43 96.46C429.96 108.38 432.92 120.22 435.28 132.17C436.46 138.12 436.91 144.25 437.32 150.32C437.86 158.33 438.06 166.37 438.37 174.4C439.05 192.12 439.5 209.85 440.45 227.56C441.05 238.83 442.19 250.09 443.49 261.3C443.87 264.58 446.1 267.63 446.62 270.93C446.99 273.3 445.93 275.89 445.5 278.38C442.89 277.86 438.91 278.19 437.93 276.64C435.1 272.14 432.53 267.06 431.54 261.88C427.44 240.5 428.51 218.79 428.33 197.16C428.24 186.3 428.14 175.4 427.28 164.59C425.54 142.64 423.55 120.76 416.77 99.51C414.86 93.53 412 86.51 415.5 79.97C416.97 77.24 419.54 74 422.25 73.23C433.49 70.02 444.93 67.48 456.38 65.05C469.9 62.18 483.47 59.57 497.05 57.03C510.22 54.57 523.47 52.47 536.63 49.96C546.93 47.99 557.14 45.54 567.42 43.47C578.67 41.21 589.96 39.14 601.24 37C610.05 35.33 618.87 33.72 627.66 31.98C635.65 30.4 643.62 28.69 651.59 26.99C656.04 26.02 660.45 24.98 665.37 23.98Z" fill="black"/>
<path d="M670.37 174.25C671.44 187.15 665.65 188.23 655.88 192.19C647.55 195.56 639.24 193.79 630.96 191.35C629 190.77 626.2 190.76 624.56 191.76C613.36 198.55 601.77 200.18 589.64 194.88C586.87 193.67 585.47 194.57 583.75 196.34C580.07 200.13 576.23 203.22 570.7 204.7C562.27 206.96 552.19 200.91 549.61 195.18C548.23 192.12 547.21 193 546.04 194.2C541.94 198.4 537.84 201.18 531.89 197.34C525.92 193.5 521.77 188.73 521.3 181.27C521.17 179.24 520.13 177.26 519.51 175.26C518.8 177.34 517.57 179.39 517.46 181.51C516.91 192.16 512.27 200.62 504.51 207.68C500.64 211.2 491.51 204.55 491.48 199.66C491.43 190.8 492.11 181.95 492.35 173.09C492.49 167.76 492.11 162.41 492.44 157.1C493 148 494.77 139.23 501.69 132.46C504.25 129.95 507.68 130.72 508.29 134.22C508.77 136.97 509.27 140.25 508.23 142.63C503.77 152.93 504.1 163.82 503.38 174.61C503.07 179.3 502.58 183.99 502.48 188.69C502.45 189.87 503.59 191.07 504.19 192.26C504.73 191.29 505.59 190.36 505.75 189.33C506.72 183.21 507.5 177.05 508.39 170.91C509.47 163.44 509.48 155.68 515.97 150C518.52 147.77 519.91 147.96 521.97 150.28C527.05 156.03 528.37 163.3 530.39 170.3C531.42 173.88 532.06 177.62 533.55 180.98C534.21 182.46 536.56 183.19 538.15 184.26C538.9 182.72 540.16 181.22 540.31 179.62C541.43 167.93 538.63 156.93 533.96 146.31C533 144.13 536.72 137.27 538.84 137.39C539.46 137.42 540.15 138.34 540.59 139C541.61 140.56 542.31 142.36 543.49 143.77C545.03 145.6 546.11 146.99 549.44 145.03C561.58 137.89 574.4 131.27 588.41 129.79C594.53 129.14 600.7 129.18 606.7 127.31C608.64 126.71 610.77 126.19 612.76 126.35C617.15 126.7 621.38 127.28 623.87 132.06C625.56 135.3 628.02 136.58 631.51 132.85C636.81 127.17 644.11 124.9 651.6 123.62C654.75 123.08 662.49 131.97 661.26 134.66C660.84 135.57 658.8 136.26 657.57 136.18C649.16 135.62 642.65 139.68 636.57 144.66C633 147.59 633.35 148.76 637.75 150.26C644.61 152.6 651.48 154.93 658.34 157.26C665.73 159.76 670.37 166.12 670.37 174.25ZM570.37 149.75C566.7 151.75 563.02 153.72 559.4 155.81C559.09 155.99 558.97 157.3 559.19 157.45C559.73 157.81 560.75 158.13 561.16 157.85C562.24 157.1 562.95 155.72 564.08 155.19C564.96 154.78 567.19 155.1 567.23 155.37C567.81 158.76 569.07 162.48 568.21 165.57C567.32 168.76 565.26 172.66 560.2 171.33C559.51 171.15 558.23 171.8 557.76 172.46C555.44 175.71 559.73 187.7 563.61 189.27C570.65 192.12 579.38 187.97 582.4 181.56C586.89 172.03 587.73 161.95 587.39 151.64C587.22 146.54 583.19 143.79 578.42 145.75C575.85 146.79 573.39 148.07 570.37 149.75ZM606.37 182.75C609.88 181.58 613.42 180.52 616.86 179.19C617.85 178.81 618.54 177.66 619.37 176.87C618.48 176.66 617.58 176.51 616.71 176.24C614.35 175.53 611.93 174.94 609.66 173.99C601.65 170.64 600.09 165.42 604.48 157.66C607.34 152.61 611.34 148.21 614.63 143.39C615.54 142.06 615.76 140.26 616.29 138.67C614.82 138.86 613.24 138.76 611.92 139.3C606.66 141.4 600.63 143.43 599.55 149.68C598.13 157.92 597.82 166.37 597.43 174.75C597.12 181.65 598.97 183.25 606.37 182.75ZM633.87 178.25C642.46 180.98 650.22 177.41 658.07 174.85C658.33 174.76 658.29 171.67 657.7 171.38C654.4 169.76 650.93 168.48 647.45 167.26C639.6 164.52 631.58 162.24 623.92 159.06C620.91 157.81 619.08 158.25 617.91 160.54C617.59 161.16 619.8 164.04 621.25 164.44C626.33 165.86 628.96 169.21 630.61 173.9C631.12 175.33 632.43 176.48 633.87 178.25Z" fill="black"/>
<path d="M619.37 459.25C625.84 448.09 636.72 444.33 647.57 440.14C661.06 434.93 675.15 433.75 688.99 435.54C709.5 438.18 729.23 444.26 743.32 460.89C751.42 470.45 756.07 481.24 751.92 494.54C750.55 498.92 751.55 504.34 752.55 509.06C753.49 513.51 764.86 516.5 768.78 513.06C772.86 509.47 774.24 511.95 775.3 514.97C778.26 523.37 776.59 527.41 765.87 529.15C755.09 530.9 743.38 524.29 743.34 512.13C743.34 511.5 742.77 510.88 742.46 510.26C741.93 510.59 741.26 510.82 740.9 511.28C730.78 524.19 716.24 528.72 701.18 532.26C699.82 532.58 698.47 533.03 697.09 533.24C694.55 533.62 694.1 534.71 694.76 537.26C696.22 542.86 697.19 548.59 698.38 554.27C698.97 557.07 699.84 558.62 703.46 557.37C714.27 553.66 725.25 550.44 736.15 546.98C741.36 545.32 743.46 546.38 745.74 552.15C747.53 556.68 743.52 558.02 741 558.95C730.14 562.94 719.09 566.4 708.1 570.03C707.5 570.23 706.82 570.32 706.2 570.25C704.36 570.04 702.53 569.73 700.69 569.46C700.58 571.92 700.18 574.4 700.44 576.82C700.83 580.41 702.62 584.06 702.18 587.47C701.29 594.35 706.24 596.65 710.46 599.17C718.55 604.01 727.16 607.99 735.23 612.86C737.8 614.41 739.65 617.49 741.18 620.23C741.59 620.96 739.85 623.91 738.6 624.31C736.11 625.1 732.85 625.81 730.68 624.83C722.81 621.27 715.16 617.17 707.63 612.91C704.17 610.96 701.28 610.71 698.04 613.08C685.91 621.96 673.8 630.89 661.47 639.49C659.3 641.01 655.76 642.18 653.45 641.5C649.91 640.46 649.73 635.12 653.1 632.17C659.02 627 665.22 622.14 671.41 617.29C677.55 612.48 684.06 608.12 689.89 602.97C691.86 601.23 692.92 597.79 693.22 595C693.58 591.55 692.92 587.93 692.33 584.45C691.77 581.2 690.86 579.03 686.18 579.04C674.46 579.07 662.74 577.96 651.02 577.24C649.64 577.15 647.94 577.01 647.01 576.18C645.52 574.85 644.56 572.94 643.38 571.27C645.92 569.6 648.36 566.72 651.03 566.5C658.7 565.85 666.45 566.27 674.17 566.27C678.5 566.27 682.86 566.53 687.15 566.1C688.33 565.98 690.35 563.68 690.21 562.62C689.19 555.13 687.63 547.72 686.41 540.26C685.83 536.7 684.38 534.98 680.41 535.2C666.83 535.96 654.19 532.28 642.18 526.22C640.22 525.23 638.61 523.57 636.83 522.23C635.97 521.57 635.1 520.93 634.23 520.27C634.05 521.54 633.75 522.81 633.71 524.08C633.55 528.68 634.4 533.54 633.18 537.82C630.79 546.24 622.87 548.25 615.56 549.98C614.3 550.28 611.54 547.03 610.51 544.91C608.73 541.23 610.91 537.48 613.96 536.48C623.36 533.41 625.54 527.23 622.07 519C618.46 510.44 617.28 501.73 616.52 492.85C616.05 487.33 617.12 481.7 617.34 476.11C617.49 472.23 617.18 468.32 617.46 464.45C617.58 462.83 618.71 461.31 619.37 459.25ZM668.87 444.25C657.7 445.46 647.27 448.93 637.98 455.24C632.49 458.97 626.87 462.93 628.27 471.13C628.44 472.11 627.18 473.29 626.71 474.42C623.72 481.66 622.18 488.68 625.9 496.47C631.48 508.14 641.62 513.93 652.73 518.11C668.49 524.04 684.93 523.89 701.11 520.11C714.03 517.09 726.15 511.47 735.29 501.59C744.14 492.01 746.82 482.79 738.37 469.6C731.58 459 721.01 453.53 709.86 449.4C697.06 444.64 683.78 441.5 668.87 444.25Z" fill="black"/>
<path d="M93.62 302C97.13 304.84 100.43 307.38 103.61 310.06C104.4 310.73 105.36 311.95 105.26 312.79C104.98 315.08 104.83 318.14 103.37 319.3C102.05 320.35 98.43 320.15 96.91 319.02C89.77 313.73 81.52 309.57 77.26 301.04C76.94 300.4 74.27 299.98 73.82 300.48C65.9 309.29 58.15 318.26 50.38 327.21C47.41 330.63 44.59 334.18 41.49 337.49C40.8 338.23 38.51 338.72 38.22 338.35C37.39 337.28 36.41 335.25 36.9 334.41C41.04 327.26 45.2 320.09 49.93 313.32C54.5 306.78 59.63 300.61 64.75 294.47C66.71 292.12 69.22 290.17 71.66 288.28C74.12 286.37 75.74 284.42 75.47 280.93C75.1 276.29 75.61 271.59 75.23 266.95C75.12 265.64 73.47 263.69 72.17 263.35C57.58 259.5 42.87 256.07 28.33 252.05C26.01 251.41 22.71 248.38 22.74 246.51C22.79 243.25 26.09 241.65 29.65 242.24C36.19 243.32 42.74 244.37 49.24 245.63C56.62 247.05 63.94 248.82 71.33 250.18C74.72 250.8 76.07 250.31 74.77 245.79C73.02 239.72 73.3 233.09 72.33 226.76C71.23 219.61 69.77 212.52 68.29 205.44C68.17 204.89 66.65 204.27 65.79 204.28C47.81 204.5 33.68 196.28 20.99 184.43C12.09 176.11 4.36003 166.93 1.76003 154.91C-1.92997 137.81 0.0500269 121.31 9.76003 106.15C10.81 104.51 10.86 101.22 9.91003 99.5C6.80003 93.9 7.86003 85.99 13.2 81.97C22.32 75.11 32.64 74.08 43.6 75.91C49.9 76.96 56.36 77.11 62.62 78.32C78.44 81.38 93.11 86.68 105.63 97.7C115.64 106.51 122.9 116.93 124.88 129.64C126.98 143.08 125.89 156.91 118.05 168.96C113.91 175.32 109.74 181.85 104.53 187.28C98.79 193.25 92.03 198.37 83.51 200.26C79.52 201.14 79.04 203.41 79.81 207.36C81.72 217.16 83.09 227.08 84.31 237C85.28 244.85 86.34 252.78 86.19 260.65C86.05 268.08 83.49 275.51 83.69 282.89C83.82 287.69 86.75 292.51 88.89 297.1C89.75 298.94 91.84 300.22 93.62 302ZM75.37 93.75C60.57 89.69 45.51 87.62 30.18 88.37C27.38 88.51 24.25 89.67 22.01 91.36C19.22 93.47 17.17 96.58 14.87 99.31C14.56 99.68 14.45 100.78 14.66 100.92C15.14 101.23 16.09 101.47 16.47 101.2C19.6 99.01 21.55 100.76 22.23 103.46C22.76 105.58 22.85 108.74 21.64 110.23C11.43 122.85 9.50003 136.98 12.96 152.35C15.46 163.45 22.96 171.05 30.95 178.29C43.69 189.85 59.43 194.29 75.47 190.85C102.33 185.08 112.68 167.01 115.18 142.88C116.13 133.68 112.59 125.06 107.42 117.2C99.75 105.53 89.62 97.46 75.37 93.75Z" fill="black"/>
<path d="M875.12 689.5C874.37 687.96 873.89 686.66 873.37 685.37C872.25 682.65 870.42 682.15 868.69 684.53C866.22 687.93 863.98 691.54 861.96 695.23C859.59 699.55 857.69 704.14 855.33 708.47C853.11 712.54 848.89 714.78 844.84 714.82C842.7 714.84 839.39 711.07 838.62 708.42C837.12 703.27 837.04 697.71 836.38 692.32C836.26 691.36 836.4 690.3 836.01 689.47C835.62 688.61 834.74 687.98 834.07 687.24C833.51 687.97 832.46 688.7 832.46 689.42C832.46 693.69 832.67 697.95 832.87 702.22C832.99 704.82 833.98 707.69 833.17 709.93C832.3 712.33 829.76 714.12 827.95 716.17C826.43 713.85 824.3 711.71 823.53 709.17C822.57 706 822.84 702.47 822.3 699.15C822.13 698.11 821.05 697.21 820.39 696.25C819.72 697.21 818.62 698.09 818.45 699.13C817.09 707.6 811.02 711.54 803.84 714.18C799.94 715.61 793.43 710.72 792.41 705.93C791.91 703.6 791.95 701.14 791.28 698.88C790.97 697.83 789.53 697.11 788.61 696.25C788.2 697.11 787.41 697.98 787.45 698.81C787.66 703.68 788.05 708.53 788.39 713.39C788.58 716.2 787.97 719.72 784.86 718.92C782.32 718.26 779.26 715.04 778.67 712.44C777.65 708.01 778.51 703.17 778.32 698.51C778.26 697.07 777.32 695.67 776.78 694.25C775.99 695.58 774.7 696.84 774.49 698.26C773.89 702.25 773.74 706.3 773.39 710.33C773.34 710.95 773.34 711.81 772.96 712.12C770.4 714.23 767.71 717.82 765.11 717.77C762.84 717.73 759.69 713.93 758.63 711.15C757.31 707.66 757.76 703.51 757.36 699.66C757.27 698.84 756.8 698.05 756.5 697.25C755.8 697.84 754.68 698.31 754.47 699.04C753.9 701 753.74 703.08 753.39 705.1C752.74 708.83 752.55 712.74 751.19 716.19C750.49 717.97 747.71 719.88 745.82 719.94C744.39 719.98 741.82 717.33 741.57 715.61C739.91 704.21 738.69 692.75 737.46 681.3C737.32 679.99 737.78 678.42 738.46 677.26C739.56 675.4 740.92 672.23 742.72 676.99C743.1 677.98 744.19 678.88 745.18 679.39C745.65 679.63 747.06 679.04 747.3 678.49C747.67 677.65 747.07 676.37 747.46 675.57C748.36 673.76 749.29 671.62 750.85 670.61C751.75 670.03 754.31 670.92 755.42 671.93C759.32 675.47 763.5 678.9 764.48 684.64C764.65 685.61 765.92 686.39 766.68 687.25C766.92 686.23 767.18 685.21 767.39 684.18C768.36 679.41 768.75 674.44 770.41 669.93C772.51 664.22 775.7 663.6 779.51 668.1C782.37 671.48 784.09 675.83 786.42 679.68C787.21 680.98 788.32 682.07 789.29 683.26C789.66 682.2 790.01 681.13 790.4 680.07C794.26 669.38 803.02 668.67 811 674.52C813.55 676.39 815.19 679.45 817.46 681.76C820.12 684.47 823.67 683.54 824.33 679.85C825.07 675.69 827.28 671.42 830.97 671.69C834.25 671.92 837.98 675.32 840.23 678.29C843.85 683.07 846.04 688.72 845.51 695.1C845.43 696.09 846.87 697.2 847.61 698.25C848.21 697.42 848.89 696.63 849.39 695.74C853.18 688.98 856.33 681.76 860.85 675.54C868.19 665.44 876.51 670.47 881.42 678.79C885.51 685.72 887.8 693.09 887.49 701.31C887.31 705.98 888.58 710.74 888.17 715.37C887.98 717.49 885.55 719.65 883.71 721.32C880.99 723.79 878.75 721.54 876.59 719.94C874.25 718.21 872.81 715.51 874.52 713.27C879.81 706.31 876.56 699.31 875.42 692.26C875.26 691.44 875.37 690.58 875.12 689.5ZM799.37 697.75C802.83 700 806.24 699.12 808.37 695.44C810.76 691.32 809.49 685.9 805.72 684.1C801.74 682.2 797.34 684.64 797.45 688.96C797.53 691.73 798.37 694.49 799.37 697.75Z" fill="black"/>
<path d="M101.62 446C100.19 444.24 99.08 442.66 97.81 441.24C97.1 440.45 96.1 439.9 95.24 439.25C94.62 440.25 93.64 441.2 93.46 442.28C93.16 444.06 93.39 445.93 93.38 447.77C93.34 451.61 90.72 454.66 87.82 454.26C85.4 453.92 81.81 449.11 82.58 446.64C84.81 439.48 82.06 432.82 80.59 426.12C79.44 420.88 77.25 415.87 75.37 410.81C74.89 409.52 73.84 408.44 73.05 407.26C72.16 408.69 70.42 410.2 70.53 411.55C71.11 418.21 72.42 424.8 72.97 431.45C73.28 435.22 73.03 439.16 72.27 442.87C71.38 447.21 67.87 447.22 65.54 444.64C62.9 441.71 61.17 437.87 59.42 434.24C55.74 426.61 52.44 418.79 48.64 411.23C48.07 410.09 44.58 409.01 44.25 409.41C42.63 411.37 40.95 413.72 40.54 416.15C39.93 419.71 40.38 423.46 40.38 427.12C40.38 435.62 40.47 444.12 40.33 452.61C40.28 455.64 40.17 458.82 39.21 461.64C38.59 463.46 35.62 466.29 35.02 465.99C32.53 464.76 29.4 462.9 28.6 460.56C26.85 455.4 25.63 449.82 25.51 444.38C25.17 429.66 23.55 414.6 32.37 401.29C36.17 395.56 41.62 392.15 50.21 397.68C52.64 399.24 54.57 401.55 56.93 403.24C58.73 404.52 60.35 406.14 61.56 401.9C63.53 394.99 70.01 390.44 74.02 392.61C79.29 395.46 83.45 399.73 85.38 405.72C86.37 408.8 87.4 411.88 88.58 414.89C88.82 415.5 89.81 415.81 90.46 416.26C90.76 415.47 91.43 414.61 91.3 413.89C90.92 411.59 90.2 409.36 89.7 407.07C89.09 404.3 88.82 401.74 91.5 399.56C99.91 392.73 109.57 388.63 120.01 386.32C124.29 385.37 127.93 387.69 128.37 390.93C128.9 394.86 125.28 398.94 120.49 400.29C113.94 402.14 107.39 404.04 101.06 406.5C100.17 406.85 100.07 410.64 100.61 412.55C100.83 413.33 104.31 414.23 105.29 413.57C109.25 410.9 112.75 407.55 116.58 404.67C117.35 404.09 119.42 403.93 119.91 404.46C124.01 408.99 122.94 415.65 117.74 419.39C114.01 422.07 110.31 424.79 106.61 427.52C103.61 429.73 104.45 432.29 107.23 433.1C113.28 434.88 119.85 435.8 125.46 432.37C129.07 430.17 129.75 432.64 130.27 434.39C132.34 441.34 128.38 447.74 121.04 448.05C114.69 448.33 108.27 446.91 101.62 446Z" fill="black"/>
<path d="M298.12 199C285.27 200.58 272.67 201.96 260.05 203.23C255.37 203.7 250.64 203.69 245.98 204.3C237.65 205.39 229.37 206.82 221.06 208.03C215.55 208.84 210.02 209.56 204.49 210.24C196.08 211.28 187.68 212.68 179.24 212.99C176.67 213.08 173.99 210.09 171.36 208.51C173.51 205.76 175.12 201.9 177.94 200.52C181.61 198.73 186.23 198.8 190.47 198.27C204.1 196.55 217.73 194.86 231.37 193.27C238.24 192.47 245.15 191.99 252.02 191.23C263.47 189.96 274.89 188.52 286.34 187.27C293.55 186.48 300.8 186.1 307.99 185.2C316.96 184.08 325.87 182.48 334.84 181.32C341.69 180.44 348.62 180.12 355.47 179.18C360.1 178.54 364.61 177.02 369.24 176.34C371.84 175.96 374.61 176.24 377.23 176.69C380.2 177.19 384.08 175.29 384.23 172.6C384.25 172.21 382.41 171.33 381.43 171.32C371.11 171.22 360.78 171.21 350.45 171.3C347.65 171.32 344.25 171.08 344.67 167.93C344.99 165.52 347.65 162.3 349.96 161.53C353.83 160.23 358.25 160.41 362.45 160.31C369.11 160.15 375.77 160.27 382.43 160.27C390.87 160.27 393.56 163.02 394.44 171.53C394.99 176.84 391.97 180.47 389.63 184.57C386.72 189.67 384.32 195.06 381.26 200.06C380.15 201.87 377.77 202.89 375.97 204.27C374.74 201.83 370.36 201.58 371.97 196.99C374.42 190.04 373.99 189.51 366.81 190.35C348.93 192.44 331.1 194.97 313.24 197.25C308.3 197.86 303.33 198.25 298.12 199Z" fill="black"/>
<path d="M220.12 153C220.24 158.96 220.82 164.66 220.86 170.37C220.87 171.99 219.63 174.03 218.32 175.09C217.58 175.7 214.69 175.21 214.23 174.4C210.46 167.67 206.51 160.95 203.62 153.82C199.92 144.7 198.86 135.23 202.47 125.55C205.52 117.37 212.05 113.3 219.46 110.35C222.76 109.04 226.53 108.93 230.08 108.24C235.55 107.16 238.18 111.4 240.07 114.84C241.85 118.09 238.65 119.14 235.53 119.29C228.36 119.63 222.01 122.36 216.96 127.36C215.12 129.18 214.54 132.27 213.39 134.78C215.22 135.6 217.02 137.05 218.87 137.11C222.53 137.24 226.5 135.84 227.16 132.06C228.22 125.96 232.18 124.58 237.17 123.1C242 121.67 246.49 119.08 251.11 116.97C255.46 114.99 259.81 111.3 264.11 111.36C270.47 111.46 274.98 108.04 280.38 106.42C289.22 103.77 294.97 107.15 298.68 116.13C301.82 123.71 301.08 132.92 292.92 138.36C288.98 140.99 285.41 143.46 280.41 143.42C279.4 143.41 277.55 145.75 277.5 147.05C277.37 150.56 278.49 154.15 278.15 157.61C277.96 159.48 275.8 161.16 274.53 162.92C273.13 161.19 271.42 159.63 270.44 157.69C269.62 156.07 270.24 153.6 269.24 152.23C264.23 145.33 265.44 137.49 265.31 129.82C265.29 128.62 264.87 127.43 264.64 126.23C263.62 126.98 262.44 127.6 261.6 128.52C255.27 135.48 255.48 142.68 262.04 149.47C263.25 150.72 264.88 152.15 265.06 153.65C265.29 155.48 264.73 158.07 263.49 159.19C262.62 159.98 259.5 159.49 258.29 158.48C251.51 152.84 246.28 146.18 247.39 136.59C247.8 133.02 246.46 132.75 243.85 134.24C240.64 136.08 237.91 137.66 236.59 142.08C234.79 148.11 227.71 148.6 222.74 151.22C221.93 151.69 221.17 152.25 220.12 153ZM285.87 118.25C279.55 117.77 272.94 125.73 274.46 132.93C274.72 134.16 276.12 135.15 277 136.25C277.79 135.43 278.55 134.57 279.38 133.79C280.31 132.91 281.37 132.16 282.26 131.24C284.8 128.63 287.69 126.23 289.68 123.24C291.31 120.8 290.36 118.49 285.87 118.25Z" fill="black"/>
<path d="M708.12 780C702.98 779.06 701.1 775.82 702.42 770.72C702.65 769.83 703.31 768.99 703.33 768.12C703.72 753.09 704.02 738.07 704.39 723.04C704.46 720.39 704.18 719.55 701.1 720.83C696.91 722.58 692.23 719.46 691.37 715.02C691.01 713.16 690.88 711.24 690.3 709.46C689.91 708.28 688.9 707.31 688.17 706.25C687.9 707.58 687.41 708.91 687.43 710.23C687.44 711.42 688.62 712.95 688.19 713.73C687.24 715.44 685.67 717.86 684.23 717.95C682.69 718.05 680.91 715.89 679.42 714.53C678.95 714.1 679.21 712.97 678.86 712.3C678.3 711.22 677.51 710.26 676.82 709.25C676 710.56 674.75 711.77 674.45 713.19C673.82 716.16 674.17 719.39 673.2 722.2C672.52 724.16 670.63 726.24 668.74 727.12C664.4 729.14 658.36 723.46 657.3 717.23C656.23 710.91 654.76 704.64 653.28 698.4C653.08 697.56 651.85 696.97 651.1 696.26C650.52 697.14 649.5 697.98 649.42 698.9C648.64 707.61 647.7 716.33 647.48 725.07C647.37 729.56 645.48 731.57 641.5 732.25C636.87 733.04 636.46 729.15 635.45 726.33C634.92 724.86 635.14 723 635.39 721.37C636.64 713.22 632.87 706.23 630.37 698.93C628.41 693.19 630.71 690.41 636.41 691.16C637.3 691.28 638.59 690.23 639.31 689.39C641.39 686.97 643 684.06 645.38 682.02C646.39 681.16 649.25 681.36 650.59 682.18C655.71 685.3 659.89 689.39 661.98 695.29C662.39 696.44 663.71 697.28 664.61 698.26C664.86 697.08 664.97 695.85 665.38 694.72C666.74 690.95 667.94 687.09 669.71 683.52C671.32 680.29 674.04 680.93 675.8 683.33C678.57 687.09 680.82 691.23 683.39 695.15C683.94 695.99 684.89 696.56 685.65 697.25C685.86 696.06 686.48 694.78 686.22 693.71C685.5 690.71 684.1 687.86 683.59 684.84C683.31 683.15 683.9 681.06 684.74 679.49C686.11 676.94 688.27 676.36 689.84 679.32C691.27 682.03 692.48 684.92 693.29 687.87C694.53 692.39 695.35 697.02 696.36 701.61C696.49 702.21 696.63 702.87 696.99 703.34C698.02 704.69 699.17 705.95 700.27 707.24C701.03 706 702.11 704.86 702.5 703.51C703.6 699.78 704.34 695.94 705.38 692.19C705.91 690.27 706.38 688.04 707.66 686.73C708.42 685.95 711.69 686.07 712.16 686.83C713.93 689.68 716.19 692.96 716.15 696.06C715.94 710.46 715.04 724.84 714.34 739.23C714.06 744.93 713.69 750.62 713.35 756.31C713.02 761.84 713.04 767.42 712.19 772.87C711.83 775.31 709.71 777.47 708.12 780Z" fill="black"/>
<path d="M701.37 172.25C700.37 162.84 699.41 153.92 698.29 145.03C698.21 144.37 697.11 143.65 696.33 143.3C695.22 142.79 693.96 142.29 692.77 142.31C689.09 142.37 685.84 140.37 686.72 137.21C687.49 134.46 690.92 131.33 693.79 130.48C703.64 127.57 713.88 125.97 723.74 123.06C727.46 121.96 729.07 122.5 730.38 125.72C731.76 129.13 733.89 129.77 737.57 128.73C743.29 127.11 749.22 125.86 755.14 125.39C761.36 124.9 763.96 129.7 761.52 135.68C760.82 137.39 760.19 139.45 760.48 141.19C761.57 147.71 758.18 151.06 752.78 153.39C747.83 155.52 743.06 158.07 738.04 160.02C731.55 162.54 729.32 164.76 730.38 168.63C731.55 172.85 737.81 176.05 742.82 174.14C747.93 172.19 753.64 170.41 754.74 163.52C754.96 162.13 756.46 160.9 757.53 159.74C757.69 159.56 759.19 160.07 759.31 160.49C762.54 171.43 758.09 180.82 747.92 186.35C740.27 190.51 733.24 189.95 726.31 185.25C720.18 181.09 719.21 174.44 718.4 167.82C718.18 165.99 719.16 163.78 715.63 164.17C713.04 164.45 711.13 164.5 711.34 167.88C711.79 175.06 712.31 182.26 712.22 189.44C712.19 191.73 710.29 193.99 709.25 196.27C707.63 194.02 705.24 191.98 704.54 189.47C703.02 184.01 702.37 178.33 701.37 172.25ZM716.37 143.75C716.04 142.9 715.72 142.03 715.36 141.19C714.94 140.2 714.48 139.23 714.04 138.25C712.87 139.03 710.88 139.64 710.68 140.61C709.93 144.35 709.58 148.2 709.55 152.01C709.55 152.61 712.02 153.77 713.28 153.67C714.49 153.58 715.54 152.09 716.75 151.39C720.36 149.33 720.43 146.71 716.37 143.75ZM728.87 146.25C728.77 146.48 728.64 146.71 728.59 146.96C728.58 147.04 728.81 147.23 728.94 147.24C735.68 147.93 741.28 144.45 747.23 142.24C747.98 141.96 748.66 141.49 749.37 141.11C748.57 140.82 747.64 140.12 746.98 140.31C741.09 142.03 735.24 143.91 728.87 146.25Z" fill="black"/>
<path d="M876.37 191.25C877.8 193.09 878.64 194.54 881.49 193.45C885.46 191.93 888.07 196.24 887.11 201.11C885.84 207.55 881.43 211.05 876.37 214.27C868.42 219.34 859.77 222.87 850.51 224.01C846.56 224.5 842.1 222.94 838.22 221.42C833.22 219.46 828.34 216.96 823.82 214.05C818.22 210.44 815.83 204.58 815.45 198.14C815.11 192.47 814.09 187.59 809.41 183.56C805.73 180.39 806.89 176.11 811.41 172.69C819.9 166.26 829.18 161.23 839.4 158.35C847.39 156.1 855.6 156.31 863.36 159.8C868.89 162.29 869.67 167.96 871.29 172.87C873.25 178.75 874.71 184.78 876.37 191.25ZM864.87 188.25C864.52 187.23 864.24 186.18 863.81 185.2C860.79 178.3 860.91 178.65 853.58 181.42C845.66 184.41 837.42 186.51 829.45 189.38C827.79 189.97 825.69 192.19 825.67 193.68C825.65 195.19 827.9 196.78 829.27 198.23C830.21 199.24 832.27 200.1 832.24 200.97C832.01 207.59 836.2 210.19 841.53 211.87C848.76 214.15 868.51 208.72 872.9 203.05C873.48 202.3 873.19 200.27 872.57 199.28C870.33 195.68 867.8 192.25 864.87 188.25ZM833.87 171.25C829.77 173.35 825.64 175.41 821.59 177.6C821 177.92 820.77 178.88 820.37 179.54C821.06 179.78 821.85 180.36 822.43 180.19C831.73 177.46 841.01 174.66 850.27 171.8C851.05 171.56 851.68 170.82 852.37 170.3C851.47 169.95 850.53 169.23 849.66 169.3C844.56 169.69 839.47 170.25 833.87 171.25Z" fill="black"/>
<path d="M660.37 298.25C662.02 296.58 664.36 294.07 665.21 294.5C667.9 295.86 671.47 297.94 672.12 300.41C674.86 310.86 676.71 321.56 678.77 332.18C679.47 335.76 680 339.39 680.34 343.02C681.11 351.4 681.69 359.8 682.39 368.18C682.48 369.21 682.86 371.1 683.1 371.1C684.65 371.09 686.45 371.07 687.68 370.28C689.98 368.82 692.14 367.02 694 365.03C697.59 361.18 700.7 362.93 703.34 365.84C705.95 368.72 706.86 372.07 703.1 375.02C693.92 382.21 684.83 389.53 675.49 396.51C672.3 398.89 669.21 396.44 667.79 393.94C664.31 387.78 661.44 381.26 658.54 374.79C657.98 373.54 658.13 371.78 658.46 370.38C658.76 369.07 659.74 367.92 660.41 366.7C661.35 367.33 662.56 367.77 663.19 368.63C665.21 371.42 666.96 374.4 668.92 377.23C669.67 378.32 670.68 379.23 671.57 380.23C671.84 379.07 672.46 377.86 672.32 376.75C670.74 363.93 669.38 351.07 667.27 338.34C665.43 327.23 662.64 316.27 660.43 305.22C660.02 303.15 660.37 300.91 660.37 298.25Z" fill="black"/>
<path d="M95.12 245C91.52 245.81 88.71 243.69 88.66 241.21C88.61 238.25 89.93 234.21 92.11 232.47C96.41 229.06 101.74 226.97 106.59 224.24C112.4 220.97 118.05 217.39 123.99 214.38C125.59 213.57 129.01 213.57 129.78 214.59C130.98 216.16 131.55 219.36 130.73 221.07C129.38 223.89 127.12 226.74 124.51 228.4C115.87 233.9 106.91 238.89 98.05 244.02C97.28 244.47 96.28 244.51 95.12 245Z" fill="black"/>
<path d="M684.37 177.25C683.37 181.5 682.33 185.23 681.38 189C680.62 192.02 679.13 194.03 675.67 193.23C671.99 192.38 671.66 189.26 672.46 186.63C675.94 175.22 675.36 163.54 675.32 151.88C675.31 149.69 674.71 147.49 674.37 145.3C673.77 141.42 675.84 138.72 678.68 136.7C679.17 136.35 681.74 137.72 682.27 138.82C687.37 149.35 687.4 160.44 685.42 171.68C685.12 173.39 684.73 175.06 684.37 177.25Z" fill="black"/>
<path d="M676.62 130.5C674.76 130.58 672.94 130.83 671.62 130.13C670.28 129.42 668.79 127.87 668.57 126.5C668.38 125.32 669.66 123.62 670.74 122.66C671.06 122.37 673.28 123.52 673.97 124.48C675.2 126.21 675.93 128.31 676.62 130.5Z" fill="black"/>
<path d="M674.12 497.5C682.61 505.58 693.53 503.27 697.37 492.89C699.2 487.94 701.45 487.49 704.97 491.36C709.52 496.36 709.3 504.44 703.6 509.36C695.95 515.95 685.62 520.19 675.57 513.6C670.54 510.3 666.79 504.9 662.9 500.1C661.29 498.11 664.11 492.28 666.54 491.68C667.01 491.56 667.74 492.27 668.28 492.69C670.17 494.18 672.01 495.72 674.12 497.5Z" fill="black"/>
<path d="M693.12 472.5C693.59 475.94 692.68 477.83 688.98 478.36C684.29 479.03 681.91 476.46 681.73 472.81C681.61 470.48 684.15 468.02 685.5 465.62C686.09 465.95 686.77 466.19 687.24 466.64C689.15 468.48 691 470.37 693.12 472.5Z" fill="black"/>
<path d="M664.37 469.25C667.84 470.95 669.98 472.95 670.51 476.81C671.07 480.92 667.83 482.09 665.9 481.92C663.93 481.74 661.45 479.25 660.54 477.17C659.13 473.95 661.21 471.26 664.37 469.25Z" fill="black"/>
<path d="M56.62 168.5C60.42 167.58 64.03 167.15 67.49 166.2C74.54 164.26 79.1 159.56 82.31 153.01C83.62 150.35 86.52 148.48 88.69 146.25C89.2 149.46 91.14 153.35 89.99 155.76C84.6 167.03 76.55 175.72 63.9 179.35C59.34 180.66 56.76 178.49 54.26 175.6C51.47 172.36 55.85 171.1 56.62 168.5Z" fill="black"/>
<path d="M66.12 145.5C61.31 141.08 65.69 138.98 67.84 136.2C69.7 133.79 72.17 133.97 73.2 135.88C74.49 138.27 75.53 141.82 74.66 144.11C73.28 147.78 69.78 148.27 66.12 145.5Z" fill="black"/>
<path d="M51.62 154.5C50.11 154.49 48.51 154.63 47.68 153.9C46.02 152.44 43.26 149.51 43.64 148.91C45.37 146.19 47.94 143.94 50.52 141.9C50.84 141.64 53.67 143.44 54.12 144.71C54.85 146.76 54.87 149.21 54.56 151.4C54.42 152.46 52.82 153.31 51.62 154.5Z" fill="black"/>
</g>
<defs>
<filter id="filter0_d" x="-5.97571" y="0.0108643" width="947.63" height="791.989" filterUnits="userSpaceOnUse" color-interpolation-filters="sRGB">
<feFlood flood-opacity="0" result="BackgroundImageFix"/>
<feColorMatrix in="SourceAlpha" type="matrix" values="0 0 0 0 0 0 0 0 0 0 0 0 0 0 0 0 0 0 127 0"/>
<feOffset dy="6"/>
<feGaussianBlur stdDeviation="3"/>
<feColorMatrix type="matrix" values="0 0 0 0 0 0 0 0 0 0 0 0 0 0 0 0 0 0 0.4 0"/>
<feBlend mode="normal" in2="BackgroundImageFix" result="effect1_dropShadow"/>
<feBlend mode="normal" in="SourceGraphic" in2="effect1_dropShadow" result="shape"/>
</filter>
</defs>
</svg>
