<svg width="1078" height="669" viewBox="0 0 1078 669" fill="none" xmlns="http://www.w3.org/2000/svg">
<g filter="url(#filter0_d)">
<path d="M704.44 326.98C705.11 332.03 706.1 336.57 706.38 341.15C707.35 356.79 707.51 372.5 712.32 387.67C712.93 389.61 711.98 392.08 711.6 394.29C711.34 395.82 710.65 397.28 710.47 398.8C709.42 407.95 708.3 408.83 699 409C666.96 409.6 634.92 410.47 602.88 410.89C590.2 411.06 577.5 409.89 564.82 410.07C547.88 410.32 530.95 411.66 514 411.86C498.93 412.04 483.85 411.3 468.77 410.97C453.08 410.63 437.38 409.66 421.72 410.18C410.14 410.56 401.86 399.38 401.3 389.52C400.62 377.71 398.5 365.99 397.53 354.18C396.51 341.82 395.83 329.42 395.6 317.03C395.51 312.28 399.4 309.17 403.72 308.1C409.84 306.58 416.15 305.46 422.44 305.08C434.27 304.37 446.15 304.46 458 303.9C464.24 303.61 470.43 302.32 476.67 302.05C484.38 301.71 492.11 301.97 499.83 301.97C509.72 301.97 519.6 301.85 529.49 302C545.68 302.24 561.86 302.94 578.05 302.9C602.73 302.84 627.41 302.16 652.1 302.04C663.45 301.99 674.82 302.45 686.16 303.04C693.51 303.42 697.9 308.2 700.53 314.61C702.08 318.46 703.14 322.52 704.44 326.98ZM575.94 402.98C585.63 403.31 595.33 403.74 605.02 403.96C623.05 404.36 641.07 404.67 659.1 404.96C662.79 405.02 666.5 405.02 670.17 404.69C673.95 404.35 677.67 403.29 681.45 403.05C686.1 402.75 690.78 403.05 695.44 402.96C701.69 402.85 703.67 401.03 703.35 394.93C703.16 391.35 701.77 387.84 701.5 384.25C700.66 373.04 700.29 361.79 699.38 350.59C698.67 341.81 697.89 333 696.32 324.35C694.43 313.9 689.39 309.25 680.81 309C665.9 308.56 650.98 308.03 636.06 308.04C619.03 308.06 602.01 308.91 584.98 308.89C565.45 308.87 545.93 308.09 526.4 308.03C513.04 307.99 499.68 308.59 486.32 308.97C476.29 309.25 466.27 309.66 456.24 309.95C443.21 310.32 430.18 310.57 417.16 310.98C408.36 311.26 402.02 315.29 401.63 322.14C401.19 329.93 401.83 337.85 402.71 345.63C403.94 356.51 405.77 367.32 407.46 378.14C408.43 384.37 409.06 390.75 411.01 396.68C411.86 399.27 415.38 402.09 418.15 402.71C423.54 403.91 429.26 403.78 434.85 403.92C441.4 404.09 447.97 403.78 454.52 403.99C471.41 404.55 488.3 405.71 505.19 405.81C517.24 405.88 529.3 404.51 541.36 403.99C552.54 403.53 563.74 403.32 575.94 402.98Z" fill="black"/>
<path d="M883.44 98.98C881.44 87.65 879.04 76.87 877.59 65.97C876.73 59.51 877.44 53.02 874.91 46.56C873.43 42.79 876.38 38.46 879.95 36.09C886.92 31.47 894.71 29.15 903.03 27.83C911.16 26.54 919.36 26.71 927.54 25.49C940.38 23.57 953.54 26.11 963.16 36.39C969.64 43.32 971.01 46.22 963.9 54.34C962.34 56.12 962.4 59.85 962.67 62.59C963.28 68.89 964.21 75.19 965.52 81.38C966.84 87.59 968.49 93.77 970.55 99.77C971.73 103.19 971 104.13 967.65 103.99C957.97 103.61 956.68 102.47 953.39 92.91C950.88 85.6 948.02 78.4 948.49 70.48C948.56 69.32 949.37 68.2 949.84 67.06C950.37 68.11 951.11 69.11 951.4 70.23C952.81 75.65 954.05 81.12 955.49 86.54C955.7 87.34 956.65 87.95 957.26 88.65C957.65 87.81 958.4 86.97 958.38 86.14C958.14 77.61 957.87 69.08 957.28 60.58C957.22 59.7 954.62 58.01 953.79 58.32C943.41 62.13 932.71 63.29 921.75 63C916.53 62.86 911.31 63.01 906.09 62.96C902.79 62.93 901.02 64.6 901.49 67.77C902.81 76.51 904.29 85.23 905.93 93.91C906.71 98.02 908.01 102.03 909.04 106.1C909.18 106.64 909.09 107.23 909.1 107.8C908.53 107.68 907.97 107.54 907.39 107.44C902.26 106.53 902.11 102.94 902.34 98.75C902.49 96.08 901.85 93.35 901.37 90.69C901.26 90.08 900.35 89.62 899.81 89.1C899.35 89.74 898.56 90.35 898.48 91.03C897.73 97.41 896.99 103.79 896.52 110.19C896.43 111.41 897.49 112.71 898.02 113.97C898.83 113.18 899.61 112.36 900.45 111.61C900.77 111.32 901.47 110.93 901.56 111.02C901.94 111.4 902.52 112.18 902.38 112.4C899.34 117.07 904.21 118.59 906.25 119.72C909.25 121.39 913.2 121.41 916.78 121.91C917.6 122.02 918.54 121.23 919.43 120.85C918.59 120.23 917.79 119.55 916.92 118.99C915.22 117.89 913.34 117.01 911.84 115.7C911.41 115.33 911.82 113.64 912.28 112.8C912.48 112.44 914.18 112.31 914.53 112.7C920.2 118.77 926.91 117.38 933.57 115.29C939.59 113.4 945.48 111.07 951.46 109.03C952.36 108.72 953.44 108.92 954.43 108.88C953.67 109.92 953.14 111.41 952.12 111.91C947.16 114.38 942.06 116.57 937.04 118.9C936.44 119.18 935.96 119.71 935.43 120.13C936.08 120.41 936.81 121.06 937.36 120.93C946.38 118.66 955.7 117.4 963.32 111.01C964.84 109.74 968.78 111.36 971.6 111.65C970.78 112.76 970.2 114.41 969.11 114.89C963.33 117.42 957.56 120.13 951.53 121.88C939.69 125.31 927.54 128.08 915.17 126.82C903.86 125.67 893.58 121.34 886.72 111.58C885.21 109.43 885.14 106.27 884.43 103.57C884.08 102.21 883.77 100.85 883.44 98.98ZM953.94 34.98C946.29 30.95 938.17 29.32 929.52 29.92C926.14 30.15 922.59 29.39 923.31 34.79C923.4 35.44 921.82 36.61 920.8 37.05C915.3 39.44 909.72 41.66 904.19 44C903.25 44.4 902.42 45.05 901.54 45.58C902.51 46.05 903.52 46.98 904.45 46.91C911.35 46.38 918.22 45.49 925.12 45.08C927.19 44.96 929.33 46.02 931.43 46.54C929.76 47.69 928.16 48.99 926.38 49.92C925.59 50.33 924.37 49.8 923.43 50.04C922.41 50.3 920.64 50.93 920.64 51.42C920.6 56.6 916.78 55.56 913.68 56.07C911.87 56.37 910.18 57.42 908.43 58.14C910.27 58.76 912.09 59.45 913.96 59.96C914.74 60.17 915.63 60.09 916.45 59.98C923.87 59 931.29 58.04 938.7 56.98C946.11 55.92 953.33 54.58 958.66 48.38C962.27 44.19 962.47 42.13 958.25 38.34C957.07 37.27 955.71 36.43 953.94 34.98ZM884.94 83.98C885.77 87.63 886.39 91.35 887.56 94.9C887.97 96.15 889.72 96.97 890.86 97.98C891.32 96.41 892.49 94.66 892.13 93.31C890.13 85.74 887.58 78.29 889.46 70.29C889.88 68.5 890.49 66.75 891.01 64.98C892.15 66.49 893.39 67.94 894.4 69.53C894.88 70.28 894.78 71.38 895.22 72.17C895.46 72.61 896.27 72.78 896.85 72.92C896.95 72.94 897.31 72.21 897.43 71.79C899.03 66.03 897.14 62.51 891.43 60.46C890.27 60.05 889.09 59.64 888.03 59.04C884.2 56.83 882.24 57.81 882.51 62.33C882.92 69.39 883.77 76.43 884.94 83.98ZM884.94 37.98C883.88 39.04 882.56 39.95 881.84 41.2C881.1 42.48 880.41 44.23 880.73 45.51C880.92 46.26 883.19 47.02 884.42 46.88C887.83 46.5 891.44 46.21 894.53 44.86C901.19 41.95 908.8 40.59 913.59 34.29C914 33.76 914.03 32.94 914.24 32.25C913.55 32.41 912.73 32.39 912.21 32.78C910.91 33.74 909.92 35.41 908.5 35.88C902.64 37.83 896.68 39.49 890.73 41.16C889.71 41.45 888.55 41.26 887.46 41.29C888.09 40.39 888.64 39.41 889.38 38.61C889.76 38.2 890.47 38.05 891.05 37.88C894.47 36.89 897.93 36.03 901.3 34.9C902.16 34.61 902.74 33.48 903.46 32.73C902.95 32.48 902.33 31.9 901.96 32.04C896.58 33.97 891.26 35.99 884.94 37.98ZM901.44 56.48C902.95 55.31 904.52 54.21 905.93 52.93C906.59 52.33 906.94 51.38 907.44 50.58C906.55 50.38 905.64 49.97 904.76 50.02C900.08 50.28 895.4 50.62 890.72 51.02C890 51.08 889.26 51.55 888.66 52.01C888.15 52.4 887.51 53.05 887.53 53.56C887.55 54.05 888.29 54.83 888.82 54.93C892.84 55.69 896.89 56.32 901.44 56.48ZM889.44 107.48C890.56 107.98 891.68 108.48 892.8 108.98C892.68 107.91 892.58 106.83 892.44 105.76C892.27 104.5 892.11 102.15 891.87 102.14C888.46 102 887.36 103.43 889.44 107.48Z" fill="black"/>
<path d="M182.19 64.23C183.29 78.72 183.5 93.02 187.4 106.92C188.45 110.67 185.22 115.02 179.17 117.9C176.69 119.08 173.77 119.87 171.04 119.89C153.88 120.07 136.71 119.88 119.54 120.02C111.84 120.09 104.14 121.05 96.46 120.9C73.9 120.45 51.34 119.86 28.79 118.86C21.06 118.52 11.83 113.64 12.41 103.25C12.63 99.37 12.53 95.47 12.43 91.58C12.14 80.55 12.02 69.51 11.38 58.5C10.66 46.24 9.44 34 8.43 21.75C8.12 18.05 7.49 14.36 7.5 10.66C7.52 4.88998 10.22 2.29998 15.9 1.98998C16.07 1.97998 16.23 1.98998 16.4 1.98998C47.26 1.64998 78.12 1.29998 108.98 0.999985C117.04 0.919985 125.1 1.11998 133.15 0.949985C141.68 0.769985 150.2 0.169985 158.74 0.019985C172.69 -0.230015 175.28 2.32998 178.47 14.73C180.63 23.14 181.68 31.93 182.28 40.62C182.75 47.43 181.75 54.33 181.47 61.2C181.43 62.11 181.77 63.05 182.19 64.23ZM49.94 112.98C63.63 113.31 77.32 113.62 91.01 113.99C102.09 114.29 113.17 114.85 124.26 114.91C131.62 114.95 138.98 114.19 146.34 114.02C153.33 113.85 160.34 114.1 167.33 113.92C169.99 113.85 173.01 113.73 175.16 112.45C177.08 111.3 179.34 108.43 179.21 106.48C178.29 93.34 176.5 80.26 175.54 67.12C174.98 59.5 175.69 51.79 175.37 44.14C174.98 34.91 174.54 25.64 173.29 16.49C172.41 10.08 168.98 5.60998 162.12 5.91998C155.91 6.19999 149.68 5.97998 143.46 5.97998C130.07 5.97998 116.69 5.85998 103.3 6.00998C82.28 6.23998 61.26 6.67998 40.23 6.96998C33.34 7.06998 26.45 7.01998 19.56 6.96998C14.85 6.92998 12.14 9.22998 12.5 13.9C13.28 23.83 14.5 33.73 15.41 43.66C15.9 49.01 15.82 54.41 16.49 59.73C18.26 73.8 17.19 88.07 20.18 102.12C21.67 109.13 23.09 111.9 30.65 112C36.91 112.08 43.17 112.32 49.94 112.98Z" fill="black"/>
<path d="M476.44 18.98C477.61 18.98 478.66 19.25 478.88 18.94C483.01 13.15 489.85 12.49 495.54 12.29C510.73 11.77 525.67 14.16 538.34 23.59C541.04 25.6 543.02 28.86 544.63 31.92C545.39 33.36 544.81 35.79 544.23 37.58C542.81 41.97 539.91 46.19 539.67 50.59C539.18 59.24 540.17 67.96 540.35 76.66C540.38 78.09 539.39 79.54 538.87 80.97C537.72 79.63 536.42 78.39 535.48 76.91C534.84 75.9 534.71 74.58 534.35 73.39C533.29 74.17 532.1 74.82 531.2 75.76C530.11 76.9 528.76 78.16 528.43 79.58C526.86 86.3 521.37 87.06 516.08 87.93C504.42 89.86 492.76 91.64 480.83 91.05C473.91 90.71 468.94 87.85 465.4 82C461.37 75.32 456.83 68.92 453.18 62.05C450.67 57.33 449.06 52.08 447.51 46.93C446.65 44.06 446.54 40.91 446.47 37.87C446.37 33.51 448.03 30.24 452.02 27.71C459.43 23.04 467.4 20.34 476.44 18.98ZM468.94 75.98C469.53 76.9 470.25 77.77 470.68 78.76C472.48 82.9 474.97 86.31 480.02 85.94C491.94 85.07 503.88 84.28 515.74 82.86C521.75 82.14 522.88 79.78 523.5 73.55C524.25 65.95 525.38 58.38 526.46 50.81C527.05 46.66 525.64 45.18 521.47 45.99C514.69 47.31 507.97 49.18 501.13 49.87C490.13 50.98 479.05 51.51 467.99 51.87C464.97 51.97 461.87 50.74 458.88 49.86C457.28 49.39 455.84 48.37 454.33 47.6C454.56 49.76 454.59 51.96 455.09 54.05C455.44 55.51 456.33 56.88 457.16 58.17C460.88 63.96 464.67 69.72 468.94 75.98ZM517.94 20.98C516.69 21.98 515.59 23.35 514.17 23.92C506.32 27.05 498.46 30.2 490.45 32.89C486.18 34.32 481.59 34.8 477.17 35.79C476.54 35.93 476.01 36.55 475.44 36.95C476.03 37.29 476.65 37.98 477.2 37.92C484.54 37.24 491.87 36.42 499.22 35.72C502.83 35.38 506.47 34.89 510.06 35.08C512.97 35.24 515.86 36.23 518.71 37.01C520.48 37.49 522.3 38.06 523.87 38.98C525.81 40.12 527.07 41.43 527.61 37.71C527.89 35.73 530 34.63 532.18 36.22C535.28 38.47 537.17 36.2 538.55 34.12C539.02 33.41 537.74 31.36 536.98 30.08C536.4 29.11 535.5 28.23 534.54 27.61C529.54 24.41 525.13 19.84 517.94 20.98ZM472.94 42.98C468.1 41.8 463.23 40.71 458.44 39.35C457.85 39.18 457.17 36.87 457.36 36.73C460.95 34.23 464.37 30.84 468.4 29.76C481.06 26.36 493.97 23.88 506.75 20.92C508.35 20.55 509.78 19.41 511.28 18.62C509.75 17.74 508.19 16.07 506.68 16.11C501.22 16.28 495.76 16.84 490.35 17.62C487.47 18.04 484.65 19.07 481.88 20.06C479.72 20.84 477.73 22.09 475.58 22.95C469.58 25.34 463.3 27.19 457.61 30.17C454.97 31.55 451.96 35.01 451.88 37.61C451.81 39.72 455.5 42.96 458.17 43.94C463.55 45.92 469.33 46.84 475 47.93C479.81 48.85 483.1 45.79 486.42 42.99C487.24 42.3 488.23 41.8 489.14 41.21C487.98 40.8 486.71 39.87 485.67 40.07C481.74 40.85 477.85 41.98 472.94 42.98ZM499.44 46.48C504.16 45.42 508.9 44.42 513.6 43.26C514.3 43.09 514.83 42.21 515.44 41.66C514.74 41.43 514 40.95 513.33 41.02C508.1 41.61 502.85 42.08 497.69 43.09C495.49 43.52 493.51 45.13 491.43 46.2C493.6 46.46 495.76 46.73 497.93 46.98C498.27 47.02 498.6 46.98 499.44 46.48ZM531.94 43.98C532.63 44.62 533.33 45.26 534.02 45.9C534.49 45.11 534.96 44.32 535.44 43.53C534.44 43.51 533.44 43.5 531.94 43.98Z" fill="black"/>
<path d="M613.19 550.73C605.42 560.19 595 562.81 583.85 564.03C577.24 564.75 570.67 565.91 564.12 567.06C563.13 567.23 561.95 568.28 561.5 569.22C559.08 574.38 554.46 575.49 549.95 572.09C548.13 570.72 545.81 570.05 543.77 568.96C541.95 567.99 538.84 567.02 538.72 565.82C538.49 563.38 539.42 560.48 540.77 558.35C542.34 555.88 544.63 553.65 547.09 552.04C548.81 550.91 551.32 550.98 553.48 550.52C553.41 552.56 553.53 554.63 553.2 556.62C553.04 557.61 552.05 558.46 551.44 559.37C552.67 559.57 553.93 560.06 555.12 559.93C563.54 559.02 571.97 558.14 580.36 556.92C586.42 556.04 592.77 555.57 598.34 553.31C609 548.98 609.16 542.78 606.52 532.79C602.7 518.33 597.46 504.25 593.01 489.95C592.08 486.96 591.59 483.73 591.51 480.6C591.15 466.96 589.78 453.46 586.46 440.2C586.38 439.89 586.42 439.53 586.46 439.2C586.81 436.08 585.16 432.45 588.76 430.16C589.99 432.85 591.8 435.43 592.35 438.26C594.97 451.76 596.85 465.33 597.83 479.11C598.4 487.15 602.87 494.89 605.43 502.81C609.18 514.42 613.3 525.96 616.15 537.79C617.05 541.6 614.44 546.23 613.19 550.73Z" fill="black"/>
<path d="M637.19 134.23C635.11 139.35 630.45 143.46 631.52 149.47C632.58 155.4 631.26 162.11 636.67 166.87C637.23 167.36 636.85 170.03 636.71 170.05C634.6 170.32 631.88 171.13 630.46 170.14C628.59 168.84 627.09 166.22 626.61 163.92C626.02 161.11 624.66 161.37 623.43 162.61C619.41 166.67 614 166.29 609.19 166.79C600.06 167.74 590.82 167.59 581.63 167.99C575.77 168.24 569.91 168.86 564.05 168.93C551.53 169.08 547.03 162.59 552.09 151.06C553.76 147.26 557.02 143.98 560.09 141.02C562.44 138.75 569.18 140.12 570.68 143.02C571.01 143.66 569 146.56 567.74 146.82C560.84 148.23 558.31 150.04 557.69 156.88C557.52 158.77 560.38 160.94 561.9 162.95C562.02 163.11 562.54 162.99 562.87 162.97C566.44 162.76 570.44 163.47 573.5 162.1C578.18 160 573.55 155.77 574.34 152.48C575.12 149.23 574.86 145.73 575.58 142.45C575.8 141.43 577.73 140.79 578.87 139.98C579.39 140.89 580.29 141.77 580.36 142.71C580.57 145.36 580.32 148.04 580.49 150.7C580.55 151.72 581.25 152.7 581.65 153.7C582.47 153.06 583.27 152.39 584.13 151.8C586.95 149.85 589.6 147.46 592.69 146.14C594.95 145.17 596.78 146.42 594.7 149.16C593.62 150.58 591.8 151.54 591 153.06C589.91 155.14 589.49 157.56 588.78 159.84C591.6 160.45 594.42 161.15 597.27 161.51C597.51 161.54 598.28 159.35 598.38 158.15C598.56 155.94 597.85 153.48 598.61 151.56C599.26 149.93 599.89 145.92 603.88 149.5C605.45 150.91 609.32 149.81 612.15 149.74C612.88 149.72 613.71 148.88 614.3 149.06C616.36 149.68 618.32 150.59 620.33 151.39C618.79 152.33 617.33 153.45 615.7 154.17C613.87 154.97 611.81 155.25 609.99 156.06C609 156.5 608.28 157.57 607.44 158.36C608.35 159.24 609.35 160.95 610.16 160.86C614.54 160.39 618.91 159.61 623.19 158.57C623.84 158.41 624.26 156.41 624.4 155.21C624.85 151.36 624.65 147.38 625.58 143.67C626.34 140.63 625.58 141.12 623.34 141.51C617.54 142.52 611.7 143.32 605.85 143.9C604.45 144.04 602.67 143.32 601.59 142.39C601.1 141.97 601.5 139.37 602.19 138.98C603.34 138.33 605.14 138.29 606.5 138.64C612.98 140.32 618.56 137.66 624.45 135.67C628.37 134.33 632.36 131.22 637.19 134.23Z" fill="black"/>
<path d="M961.44 166.98C963.11 172.95 964.73 178.44 966.48 183.89C966.83 184.99 967.65 185.95 968.25 186.98C968.98 186.09 970.17 185.28 970.37 184.28C971.32 179.54 976.08 175.99 974.65 170.41C974.53 169.95 977.73 167.81 978.3 168.17C979.69 169.04 981.01 170.83 981.31 172.44C981.8 175.01 981.16 177.79 981.55 180.4C981.79 181.98 983.07 183.41 983.88 184.91C984.74 183.31 986.09 181.78 986.35 180.09C986.99 175.94 986.77 171.64 987.64 167.56C987.94 166.13 990.4 165.16 991.87 163.97C992.64 165.89 994.04 167.81 994.07 169.74C994.15 175.47 993.58 181.2 993.57 186.93C993.57 187.92 995.08 188.92 995.9 189.92C996.42 188.84 997.21 187.8 997.4 186.67C997.89 183.67 998 180.61 998.48 177.6C999.65 170.18 1004.51 167.84 1011.32 171.34C1016.53 174.02 1020.67 182.04 1019.15 186.76C1017.15 192.99 1008.93 199.63 1003.54 197.84C999.34 196.45 995.45 194.25 990.8 194.81C989.4 194.98 987.98 194.96 986.57 194.97C984.35 194.99 981.27 195.88 980.07 194.77C975.53 190.58 974.49 194.78 972.42 197.22C971.22 198.64 969.63 199.73 968.22 200.98C966.97 199.41 965.68 197.87 964.48 196.26C964.03 195.65 963.79 194.89 963.46 194.19C959.62 185.89 959.77 184.36 950.38 191.46C949.21 192.34 947.16 193.22 946.12 192.76C945.15 192.33 944.26 189.92 944.57 188.7C946.66 180.6 948.93 172.54 951.49 164.58C952.06 162.82 954 161.5 955.32 159.98C957.01 161.46 958.75 162.89 960.37 164.45C960.88 164.96 961.08 165.8 961.44 166.98ZM1006.94 190.98C1007.76 190.16 1008.58 189.36 1009.38 188.53C1012.44 185.38 1012.23 179.98 1008.57 177.83C1007.35 177.11 1005.17 178.02 1003.44 178.18C1004.27 182.45 1005.1 186.72 1006.94 190.98ZM957.44 174.48C953.02 173.45 955.22 178.01 953.44 179.21C954.5 180.13 955.8 181.99 956.58 181.8C958.66 181.28 959.69 179.59 958.47 177.25C958.12 176.59 958.1 175.74 957.44 174.48Z" fill="black"/>
<path d="M1023.69 167.23C1025.49 166.31 1027.13 164.94 1028.59 165.1C1035.87 165.9 1042.38 168.36 1046.23 175.26C1046.57 175.87 1047.02 176.41 1047.42 176.98C1047.76 176.39 1048.3 175.83 1048.4 175.2C1049.73 167.07 1053.55 162.75 1061.16 161C1063 160.58 1064.94 159.86 1066.72 160.1C1069.29 160.44 1072.77 160.82 1073.98 162.51C1075.27 164.33 1074.74 167.77 1074.29 170.38C1074.02 171.91 1072.46 173.3 1071.3 174.59C1066.98 179.37 1064.8 180.79 1072.51 184.86C1074.79 186.06 1076.46 189.41 1077.29 192.11C1078.44 195.84 1074.67 196.46 1072.36 198.04C1067.56 201.32 1062.09 200.48 1057.23 199.69C1052.99 199 1050.05 195.22 1050.36 190.02C1050.44 188.75 1049.52 187.41 1049.06 186.1C1048.52 187.13 1047.99 188.17 1047.44 189.19C1043.92 195.78 1038.01 199.22 1031.07 200.78C1029.82 201.06 1026.81 198.95 1026.63 197.66C1025.28 187.65 1024.44 177.55 1023.69 167.23ZM1063.44 173.48C1064.85 172.07 1066.49 170.8 1067.56 169.17C1067.95 168.56 1067.28 166.39 1066.6 166.11C1064.21 165.11 1056.36 170.52 1055.37 172.95C1053.26 178.15 1055.69 182.77 1056.51 187.66C1057.51 193.62 1061.07 194.95 1066.19 193.92C1067.95 193.56 1069.56 192.45 1071.24 191.69C1069.75 190.79 1068.21 189.95 1066.78 188.98C1063.97 187.07 1059.8 185.57 1058.88 182.96C1058.12 180.8 1061.2 177.27 1062.59 174.35C1062.66 174.2 1062.82 174.1 1063.44 173.48ZM1031.44 180.48C1032.11 183.35 1032.87 186.2 1033.41 189.09C1033.93 191.86 1034.47 192.9 1037.37 190.7C1042.52 186.81 1043.15 178.94 1037.88 175.11C1036.22 173.9 1033.67 173.94 1031.52 173.4C1031.49 175.43 1031.46 177.46 1031.44 180.48Z" fill="black"/>
<path d="M476.19 596.73C473.44 596.98 470.95 596.99 468.45 596.98C462.33 596.96 459.05 593.41 458.36 587.3C457.5 579.77 456.16 572.29 454.74 564.84C453.68 559.24 455 554.45 458.72 550.28C459.29 549.64 460.31 549.09 461.16 549.04C472.37 548.3 483.59 547.8 494.79 546.93C499.76 546.54 502.42 548.33 504.17 553.08C508.46 564.77 513.31 576.26 517.8 587.89C519.34 591.86 517.73 593.75 513.38 594.02C501.05 594.77 488.74 595.65 476.19 596.73ZM465.44 583.48C465.44 588.5 467.56 590.65 472.9 590.06C484.28 588.8 495.71 588.03 507.1 586.87C507.84 586.79 509.18 584.75 508.94 584.15C505.24 574.87 501.48 565.59 497.29 556.52C496.53 554.87 493.9 553.59 491.91 553.15C490.05 552.74 487.9 553.83 485.86 553.96C479.01 554.38 472.12 554.4 465.32 555.17C463.57 555.37 460.52 557.96 460.69 559.05C461.89 566.91 463.77 574.68 465.44 583.48Z" fill="black"/>
<path d="M524.44 639.98C525.07 641.65 525.69 642.81 526.32 643.98C527.09 643.09 528.25 642.31 528.55 641.28C529.38 638.43 529.81 635.47 530.46 632.57C530.7 631.52 530.89 630.35 531.5 629.52C532.46 628.21 533.76 627.15 534.91 625.98C535.42 627.43 536.05 628.84 536.41 630.33C536.64 631.28 536.52 632.32 536.44 633.32C535.71 643.04 539.34 645.63 548.47 643.2C552.92 642.02 558.27 642.08 562.32 645.51C563.48 646.49 563.77 648.52 564.46 650.07C563.17 650.38 561.88 650.92 560.59 650.95C555.37 651.05 550.15 651.12 544.93 650.95C540.9 650.82 536.87 649.99 532.85 650.07C527.13 650.18 521.42 650.8 515.71 651.26C514.14 651.39 511.81 652.53 511.14 651.87C505.18 645.96 501.73 653.03 497.62 654.67C493.83 656.19 491.36 656.3 489.26 652.33C486.6 647.33 486.23 642 486.41 636.5C486.51 633.59 487.49 629.06 481.84 632.86C481.34 633.2 479.22 631.98 478.58 631C478.02 630.17 478.04 627.91 478.59 627.56C480.92 626.11 483.47 624.84 486.11 624.09C487.96 623.56 490.1 623.79 492.07 624.05C493.9 624.28 495.66 624.99 497.45 625.49C496.75 627.2 496.3 629.07 495.3 630.58C491.89 635.72 493.82 641.32 493.8 646.72C493.8 647.41 495.34 648.1 496.16 648.8C496.59 647.81 497.54 646.74 497.38 645.86C496.1 638.7 503.42 636.21 505.6 630.81C506.68 628.13 509.56 631.07 510.35 633.04C511.16 635.04 510.83 637.49 511.56 639.54C512.03 640.87 513.48 641.86 514.5 643C515.15 641.86 516 640.79 516.42 639.57C517.57 636.21 518.1 632.56 519.71 629.45C521.05 626.86 522.95 627.67 523.42 630.43C523.91 633.41 524.1 636.46 524.44 639.98Z" fill="black"/>
<path d="M45.19 175.73C47.56 172.03 49.52 168.48 51.84 165.17C53.4 162.94 55.28 163.54 56.4 165.74C57.58 168.06 58.24 170.66 59.52 172.92C60.23 174.17 61.73 174.98 62.87 175.99C63.39 174.72 64.06 173.49 64.41 172.18C65.16 169.32 65.46 166.29 66.55 163.58C67.02 162.41 68.91 161.54 70.32 161.17C70.74 161.06 72.2 163.05 72.37 164.19C73.21 170.04 73.67 175.95 74.54 181.8C74.75 183.22 76.02 184.49 76.8 185.83C77.39 184.68 78.04 183.56 78.55 182.37C81.51 175.44 84.34 168.46 87.44 161.6C88.08 160.18 89.65 159.18 90.79 157.98C92.08 159.21 94.04 160.22 94.55 161.72C97.06 169.18 99.14 176.79 101.5 184.3C102 185.89 102.93 187.39 103.85 188.81C104.52 189.84 105.5 190.67 106.35 191.59C104.49 192.72 102.73 194.2 100.71 194.8C99.93 195.03 98.48 193.35 97.49 192.38C96.97 191.87 96.82 191.01 96.45 190.34C95.27 188.21 94.42 184.69 92.79 184.27C89.08 183.31 85.73 185.37 83.46 188.69C80.99 192.3 71.38 194.17 70.3 190.96C68.26 184.94 64.43 184.52 59.33 184.8C58.44 184.85 57.47 182.55 56.45 181.41C55.94 180.84 55.22 180.45 54.6 179.98C54.22 180.53 53.86 181.1 53.47 181.64C51.81 183.92 50.56 186.79 48.38 188.32C45.81 190.12 43.16 189.33 43.52 185.35C43.76 182.21 44.44 179.1 45.19 175.73ZM89.94 171.98C89.44 172.6 88.65 173.15 88.5 173.84C88.26 175 88.42 176.25 88.41 177.46C89.09 177.46 90.13 177.74 90.38 177.41C91.22 176.34 91.94 175.09 92.33 173.8C92.47 173.37 91.44 172.6 89.94 171.98Z" fill="black"/>
<path d="M708.44 69.98C694.42 70.31 680.9 70.68 667.38 70.95C665.44 70.99 662.6 71.88 662.51 68.55C662.42 65.14 665.28 66.04 667.24 66.01C672.07 65.93 676.9 66.07 681.73 65.97C696.08 65.68 710.43 65.37 724.78 64.97C732.7 64.75 740.61 64.31 748.52 63.99C757.21 63.64 765.9 63.34 774.59 62.98C781.95 62.68 789.31 62.39 796.66 61.92C797.95 61.84 799.19 60.92 800.45 60.39C799.46 59.59 798.53 58.7 797.47 58.01C796.58 57.42 795.07 57.3 794.67 56.54C794.01 55.27 794.02 53.65 793.76 52.18C795.02 51.97 796.44 51.27 797.5 51.63C802.45 53.32 807.27 55.38 812.18 57.17C816.72 58.83 817.41 62.69 816.3 66.27C814.58 71.82 811.88 77.08 809.46 82.4C809.01 83.4 807.94 84.12 807.15 84.97C806.59 83.91 805.43 82.77 805.56 81.8C806.04 78.24 806.9 74.73 807.72 71.23C808.05 69.83 808.63 68.48 809.09 67.11C807.55 67.06 806.02 66.99 804.48 66.98C800.76 66.96 797.03 66.86 793.32 66.99C776.44 67.61 759.57 68.34 742.69 68.96C731.43 69.38 720.18 69.65 708.44 69.98Z" fill="black"/>
<path d="M106.44 187.98C101.1 175.78 105.54 164.3 118.17 161.06C119.01 160.84 120.77 161.57 121 162.24C121.32 163.18 120.93 164.74 120.26 165.55C117.6 168.81 114.22 171.58 112.08 175.13C110.81 177.23 110.18 181.38 111.39 182.9C112.93 184.83 116.6 185.19 119.43 185.88C120.24 186.08 121.35 185.05 122.33 184.59C121.48 184 120.51 183.53 119.8 182.8C118.59 181.55 117.55 180.14 116.43 178.8C117.65 177.86 119 176.02 120.05 176.18C122.08 176.5 123.98 177.86 125.85 178.94C127.11 179.67 128.22 180.65 129.4 181.52C129.75 180 130.22 178.49 130.41 176.95C131.13 171.07 131.58 165.15 132.58 159.32C132.8 158.04 134.75 156.31 136.1 156.11C144.48 154.86 152.9 153.87 161.33 153.1C162.62 152.98 164.06 154.49 165.43 155.24C164.36 156.49 163.45 158.59 162.18 158.83C155.49 160.14 148.73 161.08 141.96 161.92C139.62 162.21 136.49 161.93 137.66 165.24C138.37 167.24 141.18 168.79 143.38 169.83C144.5 170.36 146.4 168.94 147.88 169.08C149.44 169.23 150.91 170.2 152.42 170.82C151.12 172.21 150.07 174.11 148.47 174.85C146.53 175.74 144.02 175.32 141.99 176.09C140.29 176.73 138.93 178.27 137.42 179.42C138.88 180.61 140.22 182.58 141.83 182.84C146.45 183.59 151.2 183.57 155.88 184.04C157.39 184.19 158.83 184.92 160.31 185.38C158.89 186.58 157.51 188.76 156.03 188.83C148.33 189.17 140.61 188.94 132.89 188.99C130.73 189 128.34 188.77 126.46 189.59C119.53 192.61 112.92 192.42 106.44 187.98Z" fill="black"/>
<path d="M734.19 242.73C727.22 250.03 720.62 257.19 713.74 264.07C710.81 267 707.25 269.3 704.08 272.01C703.03 272.91 702.31 274.21 701.44 275.33C702.88 275.28 704.33 275.36 705.74 275.13C707.1 274.91 708.65 274.69 709.71 273.92C712.63 271.76 714.94 273.05 716.04 275.52C716.32 276.15 713.04 279.18 710.99 279.84C705.37 281.64 699.52 282.76 693.77 284.16C692.71 284.42 691.63 285.03 690.62 284.92C687.72 284.61 685.62 283.61 686.97 279.91C688.6 275.41 689.66 270.68 691.57 266.32C692.57 264.04 693.51 259.91 698.01 263.8C701.47 266.79 704.45 263.41 706.8 261.03C712.59 255.17 717.81 248.72 723.88 243.18C737.82 230.45 752.1 218.1 766.3 205.67C768.36 203.87 771.09 202.62 772.6 205.93C773.11 207.04 771.6 209.71 770.31 210.9C764.22 216.51 757.87 221.83 751.65 227.28C745.89 232.33 740.17 237.42 734.19 242.73Z" fill="black"/>
<path d="M487.44 501.98C485.92 493.29 484.33 485.12 482.9 476.91C481.95 471.45 481.12 465.96 480.46 460.45C479.36 451.23 478.42 441.99 477.45 432.75C477.33 431.6 477.11 430.3 477.51 429.29C478.11 427.75 479.21 426.4 480.1 424.97C481.21 426.18 483.08 427.26 483.31 428.61C484.57 436.3 485.8 444.04 486.35 451.81C487.17 463.39 488.75 474.76 491.81 485.99C493.3 491.45 493.62 497.24 494.41 502.89C494.57 504.03 494.07 505.37 494.5 506.35C495.7 509.11 494.96 515.75 501.13 510.07C501.66 509.58 503.59 510.3 504.65 510.87C504.96 511.04 504.83 512.8 504.39 513.5C501.3 518.39 498.31 523.4 494.67 527.87C493.91 528.81 489.34 528.43 488.61 527.31C484.84 521.49 481.65 515.28 478.55 509.06C478.11 508.18 479.01 505.64 479.8 505.37C481.01 504.96 482.73 505.7 484.12 506.23C485.37 506.71 486.49 507.55 487.67 508.23C487.6 506.32 487.52 504.4 487.44 501.98Z" fill="black"/>
<path d="M305.44 64.98C323.16 64.31 340.38 63.64 357.61 62.99C358.77 62.95 359.94 63.01 361.11 62.98C362.47 62.93 363.83 62.83 365.18 62.75C364.41 61.47 363.56 60.24 362.9 58.91C362.23 57.57 360.94 55.81 361.35 54.8C362.48 51.95 364.49 53.67 366.4 54.36C370.17 55.73 374.09 56.7 377.89 58.02C380.46 58.91 382.75 59.94 380.51 63.52C377.89 67.72 375.82 72.24 373.31 76.51C372.85 77.29 371.21 78.11 370.53 77.84C369.62 77.48 368.42 75.96 368.56 75.15C369.62 69.22 366.37 68.86 361.72 68.88C353.3 68.91 344.86 67.77 336.47 68.11C323.7 68.63 310.97 70.02 298.21 70.97C292.52 71.39 286.82 71.72 281.13 71.97C272.1 72.36 263.08 72.67 254.05 72.98C252.05 73.05 249.92 73.42 248.09 72.85C246.68 72.42 245.65 70.74 244.45 69.62C245.89 68.74 247.28 67.26 248.8 67.11C252.6 66.75 256.46 67.12 260.29 66.97C275.16 66.35 290.05 65.65 305.44 64.98Z" fill="black"/>
<path d="M679.44 491.98C674.27 494.68 669.19 496.6 664.18 493.85C659.61 491.34 658.25 486.51 658.51 481.43C658.57 480.28 659.41 479.16 659.9 478.03C660.82 478.92 661.9 479.7 662.63 480.73C663.51 481.98 663.81 483.73 664.85 484.76C666.51 486.39 668.68 488.83 670.45 488.69C672.79 488.5 675.48 486.58 677.08 484.63C679.14 482.11 676.74 478.26 673.34 478.01C671.68 477.89 669.99 478.15 668.35 477.93C667.34 477.79 666.42 477.05 665.46 476.59C666.05 475.39 666.56 473.22 667.26 473.16C670.95 472.81 674.69 472.91 678.41 473.04C679.78 473.09 681.25 473.43 682.47 474.04C684.87 475.24 687.2 476.61 689.45 478.09C692.8 480.31 696.03 482.72 699.42 484.88C699.59 484.99 701.48 483.39 701.36 482.84C700.08 476.91 698.9 470.91 696.97 465.18C696.01 462.34 696.69 460.59 698.77 459.51C699.34 459.21 701.33 461.32 702.47 462.52C707.8 468.15 708.14 475.57 709.44 482.6C710.13 486.36 709.35 490.35 705.78 491.87C703.2 492.97 699.55 492.64 696.71 491.83C693 490.77 689.74 487.26 686.18 492.42C685.53 493.29 682.07 492.18 679.44 491.98Z" fill="black"/>
<path d="M646.44 475.98C648.79 480.16 651.32 483.75 653.39 487.59C654.04 488.79 654.12 491.31 653.33 492.11C649.42 496.08 644.69 498.62 638.93 499.01C633.75 499.36 628.59 500 623.42 500.5C621.82 500.66 619.99 501.37 618.69 500.82C617.34 500.25 616.51 498.45 615.45 497.19C616.67 496.45 617.8 495.34 619.12 495.05C621.75 494.46 624.58 494.64 627.15 493.87C629.46 493.18 631.71 491.93 629.67 488.61C626.92 484.13 624.62 479.36 621.75 474.96C621.1 473.96 618.92 473.78 617.4 473.59C616.17 473.43 614.82 474.1 613.61 473.89C612.5 473.69 610.82 472.97 610.64 472.19C610.42 471.25 611.23 469.57 612.11 468.99C613.61 468 615.47 467.19 617.25 467.05C623.59 466.52 629.95 465.97 636.3 466.08C641.25 466.17 646.11 468.77 651.25 466.25C651.67 466.04 654.98 469.64 655.24 471.68C655.59 474.44 653.28 473.42 651.32 473.17C649.78 473 648.06 474.65 646.44 475.98ZM638.44 474.48C637.77 469.82 634.53 473.24 633 473.26C630.5 473.29 628.08 474.97 630.38 478.48C633.11 482.63 635.43 487.05 638.2 491.17C641.17 495.6 643.44 491.25 645.69 490.1C648.75 488.54 647.02 486.83 645.29 485.3C642.12 482.52 639.2 479.56 638.44 474.48Z" fill="black"/>
<path d="M878.19 185.73C872.45 192.81 864.36 195.5 856.8 198.87C852.53 200.78 849.77 198.14 849.38 193.45C848.57 183.69 847.27 173.97 846.51 164.21C846.12 159.21 849.36 155.97 854.33 156.03C861.32 156.12 868.18 155.3 874.86 159.58C883.05 164.84 886.62 177.07 878.19 185.73ZM872.44 166.48C868.92 162.53 864.25 161.87 859.35 162C855.48 162.1 853.09 164.15 853.51 168.08C854.27 175.33 855.37 182.56 856.57 189.75C856.68 190.38 858.83 191.33 859.72 191.07C865.93 189.27 870.75 185.22 874.34 180.09C877.82 175.1 877.41 170.61 872.44 166.48Z" fill="black"/>
<path d="M520.19 164.73C513.03 172.84 503.7 173.3 494.34 172.85C489.75 172.63 488.12 169.55 488.41 164.85C488.86 157.52 489.33 150.17 489.34 142.83C489.34 139.55 490.38 137.5 493.37 136.59C499.72 134.64 506.03 132.26 512.54 131.29C514.91 130.94 519 133.49 520.13 135.79C521.39 138.35 521.02 142.1 516.99 144.23C514.7 145.44 512.93 148.26 516.17 151.33C519.82 154.82 520.95 159.47 520.19 164.73ZM495.44 145.48C495.77 150.5 496.53 155.55 496.33 160.55C496.09 166.49 498.7 167.61 503.46 166.93C507.7 166.32 512.78 165.64 514.06 161.14C514.62 159.16 511.14 155.92 509.27 153.42C508.7 152.66 507.32 152.55 506.43 151.96C505.05 151.05 503.77 149.99 502.45 148.99C503.6 147.65 504.56 146.06 505.94 145.04C508.44 143.2 511.27 141.81 513.81 140.01C514.56 139.48 515.11 138.23 515.13 137.3C515.14 136.88 513.68 136.16 512.81 136.02C506.99 135.11 498.57 139.26 495.44 145.48Z" fill="black"/>
<path d="M912.19 163.23C910.68 171.24 908.79 178.97 907.2 186.76C905.47 195.23 903.85 203.73 902.5 212.26C901.79 216.72 902.21 221.39 901.23 225.77C900.79 227.76 898.18 229.26 896.56 230.98C895.52 229.04 893.47 227.01 893.62 225.17C894.15 218.72 895.38 212.33 896.46 205.93C897.19 201.6 898.01 197.28 898.97 192.99C899.64 189.97 900.34 187.88 895.9 186.65C890.54 185.17 888.82 179.86 887.84 174.8C887.11 171.05 886.51 167.18 886.63 163.39C886.68 161.88 888.8 160.44 889.98 158.97C890.8 160.27 891.99 161.48 892.37 162.9C893.59 167.41 894.31 172.07 895.66 176.54C896.07 177.9 897.87 178.84 899.04 179.98C900.17 178.63 901.57 177.42 902.39 175.9C904.66 171.7 906.62 167.33 908.93 163.15C909.18 162.69 910.9 163.02 912.19 163.23Z" fill="black"/>
<path d="M25.19 160.73C24.62 159.97 23.72 158.94 22.98 159.04C19.73 159.51 16.55 160.5 13.3 160.87C12.08 161.01 10.73 159.97 9.44001 159.47C10.15 158.1 10.53 156 11.63 155.5C14 154.43 16.72 154.02 19.33 153.62C25.62 152.65 31.91 151.51 38.25 151.1C42.55 150.82 44.88 154.03 43.47 156.94C41.89 160.2 39.87 158.91 37.5 158.07C35.9 157.5 33.66 157.16 32.36 157.89C31.47 158.39 31.5 160.9 31.47 162.51C31.38 168.4 31.5 174.29 31.41 180.17C31.34 184.71 32.61 187.95 37.64 189.11C39.35 189.5 40.7 191.45 42.22 192.68C40.37 193.44 38.57 194.7 36.66 194.89C28.13 195.75 19.56 196.35 11 196.94C8.96001 197.08 6.53001 197.58 6.40001 194.18C6.26001 190.48 8.8 191.09 11.09 190.94C14.46 190.72 17.98 190.8 21.1 189.76C22.59 189.26 24.16 186.55 24.28 184.75C24.79 176.85 24.77 168.91 25.19 160.73Z" fill="black"/>
<path d="M476.69 655.23C473.4 657.44 469.55 656.1 469.59 652.57C469.65 647.01 466.94 644.67 461.98 644.05C460.33 643.84 458.44 643.27 460.16 646.42C461.38 648.66 462.61 651.66 459.1 653.94C456.02 655.95 453.06 655.27 452.47 651.68C451.04 642.93 449.6 634.17 448.59 625.37C448.4 623.69 450.14 621.78 450.98 619.98C452.13 621.48 453.91 622.83 454.32 624.51C455.35 628.8 455.73 633.25 456.47 637.62C456.65 638.66 457.21 639.63 457.6 640.64C458.31 640.16 459.03 639.71 459.71 639.2C460.1 638.9 460.45 638.17 460.77 638.2C468.65 638.94 466.71 633.61 466.47 629.19C466.3 626.04 466.44 622.87 466.44 619.71C466.44 619.04 466.22 618.28 466.48 617.73C467.51 615.49 468.66 613.3 469.87 611.16C469.95 611.03 471.36 611.29 471.44 611.58C472.14 613.92 473.53 616.48 473.09 618.64C471.71 625.49 472.76 631.78 475.84 637.89C475.98 638.17 476.4 638.39 476.41 638.64C476.61 644.08 476.77 649.53 476.69 655.23Z" fill="black"/>
<path d="M431.69 129.73C433.11 131.46 434.94 132.81 435.29 134.46C435.88 137.27 434.8 138.83 431.51 137.01C425.92 133.92 421.29 137.62 416.49 139.62C416.35 139.68 416.71 142.42 417.47 142.87C421.17 145.09 425.16 146.81 428.89 148.98C434.14 152.03 438.48 155.87 437.37 162.78C437.09 164.53 436.35 166.82 435.03 167.7C426.39 173.54 416.92 175.69 406.63 172.95C405.6 172.68 404.19 172.38 403.76 171.63C403.04 170.38 402.97 168.75 402.62 167.28C403.8 167.17 405.02 166.82 406.15 167.01C413.61 168.27 420.99 169.38 427.98 165C431.69 162.67 432.59 160.14 429.24 157.5C425 154.16 419.98 151.83 415.37 148.94C413.36 147.68 410.6 146.47 409.88 144.59C408.94 142.14 408.53 137.49 409.89 136.48C416.14 131.87 423.61 129.86 431.69 129.73Z" fill="black"/>
<path d="M912.44 188.98C913.26 183.99 913.91 179.46 915.02 175.05C915.32 173.85 917.2 172.02 918.01 172.19C919.61 172.52 921.44 173.73 922.35 175.11C924.63 178.6 926.38 182.42 928.49 186.02C928.98 186.85 930.07 187.34 930.88 187.98C931.4 187.04 932.39 186.09 932.36 185.17C932.17 178.48 931.57 171.79 931.56 165.11C931.56 163.11 933.02 161.11 933.82 159.1C935.21 160.41 937.71 161.64 937.81 163.05C938.44 171.39 938.77 179.77 938.64 188.13C938.6 190.93 938.86 194.12 935.08 196.18C931.54 198.12 929.27 197.81 927.05 195.04C923.97 191.21 920.96 190.16 916.89 193.88C914.61 195.98 912.74 194.1 912.44 188.98Z" fill="black"/>
<path d="M463.69 167.23C458.15 172.29 451.62 170.81 445.44 170.85C444.78 170.85 443.51 168.99 443.62 168.13C443.72 167.32 445.19 166.24 446.2 166.06C449.35 165.5 452.57 165.38 455.74 164.93C456.6 164.81 457.39 164.13 458.21 163.71C457.66 163 457.26 162.02 456.54 161.64C453.41 159.99 450.18 158.54 447.01 156.97C442.34 154.66 441.81 151.7 445.89 148.15C449.21 145.26 453.03 142.95 456.57 140.31C457.25 139.8 457.66 138.93 458.2 138.22C457.21 137.81 456.1 136.87 455.24 137.07C451.78 137.85 448.43 139.09 444.98 139.92C443.69 140.23 442.24 139.92 440.87 139.89C441.3 138.52 441.35 136.82 442.22 135.84C445.25 132.41 455.42 130.82 459.72 132.72C465.84 135.43 463.46 141.59 459.44 145.35C457.69 146.98 455.12 147.7 453.02 149C450.94 150.29 450.95 151.72 453.16 152.98C456.12 154.67 459.35 156.02 461.96 158.14C464.61 160.33 467.6 163.08 463.69 167.23Z" fill="black"/>
<path d="M539.44 144.98C539.91 143.34 540.38 142.21 540.85 141.07C541.77 141.59 542.76 142.03 543.6 142.66C547 145.19 546.65 148.91 546.4 152.44C545.96 158.78 545.65 165.34 540.11 169.74C533.6 174.92 527.78 171.55 525.55 164.88C524.02 160.31 523.29 155.42 522.76 150.62C522.6 149.18 524.31 147.53 525.16 145.98C526.06 146.95 527.38 147.78 527.77 148.92C528.87 152.14 529.56 155.5 530.45 158.79C530.73 159.83 530.88 161.02 531.5 161.83C532.4 163.02 533.67 163.94 534.79 164.98C535.68 163.91 536.77 162.95 537.41 161.75C540.16 156.62 541.52 151.25 539.44 144.98Z" fill="black"/>
<path d="M640.19 354.73C641.11 351.59 641.55 348.62 642.53 345.84C643.05 344.38 644.53 343.25 645.57 341.98C646.88 343.17 648.74 344.12 649.39 345.6C650.74 348.7 651.41 352.09 652.46 355.32C652.87 356.59 653.59 357.76 654.16 358.98C654.92 357.94 655.69 356.92 656.43 355.87C657.11 354.92 657.76 353.94 658.42 352.98C659.43 354.13 660.83 355.13 661.34 356.46C662.05 358.34 661.67 360.7 662.55 362.45C663.59 364.52 665.49 366.15 667.02 367.98C668.49 366.1 670.28 364.39 671.36 362.31C672.7 359.73 673.2 356.72 674.55 354.16C675.11 353.09 677.11 351.96 678.15 352.2C679.12 352.42 680.16 354.34 680.36 355.64C681.21 361.4 678.42 366.27 676.74 371.56C674.24 379.47 673.44 387.99 672.6 396.32C672.27 399.6 671.18 401.41 668.39 402.54C664.95 403.93 662.95 402.48 663.47 398.76C664.36 392.33 665.34 385.9 666.48 379.51C667.3 374.91 664.65 372.26 660.17 373.85C656.41 375.18 654.29 374.28 652.34 370.71C649.86 366.18 644.01 365.66 641.59 369.42C640.12 371.71 638.62 375.4 635.91 373.37C634.38 372.22 634.81 367.47 635.51 364.63C636.34 361.25 638.41 358.18 640.19 354.73ZM645.94 356.98C645.93 358.3 645.91 359.62 645.9 360.94C646.45 360.74 647.49 360.52 647.48 360.36C647.42 359.23 647.14 358.11 645.94 356.98Z" fill="black"/>
<path d="M580.44 348.98C585.95 342.85 593.08 342.88 600.16 343.08C601.2 343.11 602.2 344.5 603.22 345.26C602.33 345.97 601.54 346.98 600.53 347.33C596.73 348.64 592.74 349.46 589.07 351.05C587.53 351.72 586.63 353.87 585.44 355.35C587.22 356.23 588.97 357.17 590.79 357.94C591.35 358.18 592.17 357.8 592.76 358.01C594.02 358.46 595.22 359.11 596.44 359.69C595.38 360.79 594.4 361.97 593.25 362.96C591.72 364.26 590.05 365.41 588.44 366.62C590.14 367.74 591.77 369.01 593.58 369.91C594.38 370.31 595.55 369.97 596.55 369.98C603.76 370.01 603.64 370.03 602.51 362.9C602.1 360.3 602.04 357.49 602.6 354.95C602.93 353.45 604.8 352.29 605.98 350.98C606.8 352.28 608.06 353.49 608.36 354.91C608.99 357.88 609.03 360.96 609.5 363.97C609.66 364.99 610.39 365.92 610.86 366.89C611.72 365.97 612.82 365.19 613.4 364.12C614.66 361.82 615.65 359.37 616.75 356.98C618.28 359.11 619.83 361.23 621.34 363.38C621.97 364.27 622.41 365.34 623.16 366.1C623.6 366.55 624.49 366.56 625.18 366.76C625.32 366.05 625.64 365.33 625.59 364.64C625.26 360.46 624.64 356.29 624.58 352.12C624.56 350.75 625.95 349.36 626.7 347.98C627.65 349.17 629.26 350.28 629.43 351.58C630.31 358.12 631.06 364.69 631.35 371.27C631.49 374.44 625.57 376.36 621.46 374.36C618.8 373.07 616.89 373.3 614.15 374.48C611.14 375.77 607.46 375.67 604.05 375.82C599.18 376.04 594.3 375.88 589.43 375.98C583.51 376.11 580.73 373.14 580.3 367.36C579.84 361.39 577.32 355.43 580.44 348.98Z" fill="black"/>
<path d="M537.44 372.98C531.7 373.98 526.49 375.4 521.2 375.88C512.34 376.69 506.45 367.41 511.03 359.62C514.87 353.07 519.41 347.48 525.68 343.43C527.51 342.25 530.23 342.14 532.54 342.12C533.5 342.11 535.3 343.68 535.25 344.44C535.17 345.66 534.07 347.61 533.07 347.85C525.02 349.81 520.59 355.45 517.42 362.5C515.31 367.18 516.61 369.76 521.51 369.9C524.52 369.98 527.57 369.42 530.56 368.9C531.28 368.77 531.82 367.64 532.44 366.98C531.68 366.65 530.89 365.99 530.15 366.05C527.95 366.21 525.77 366.68 523.57 366.98C522.53 367.12 521.48 367.16 520.44 367.25C520.85 365.92 520.85 364.15 521.73 363.34C525.41 359.97 530.08 359.77 534.78 359.99C536.72 360.08 539.61 361.06 540.39 360.17C542 358.31 542.49 355.48 543.44 353.04C544.84 349.46 545.96 345.74 547.72 342.35C548.95 339.97 550.6 340.77 551.42 343.01C552.8 346.76 553.95 350.62 555.47 354.31C557.76 359.85 560.37 365.26 562.64 370.8C563.06 371.84 562.5 373.28 562.39 374.53C561.14 374.25 559.53 374.34 558.71 373.59C557.35 372.35 556.3 370.67 555.48 368.99C553.81 365.55 551.1 364.97 548.23 367.7C545.31 370.47 543.01 374.41 537.44 372.98ZM551.44 359.48C550.87 358.72 550.3 357.96 549.73 357.19C549.33 357.98 548.93 358.77 548.52 359.56C549.32 359.7 550.13 359.84 551.44 359.48Z" fill="black"/>
<path d="M452.44 362.98C453.77 366.42 455.4 369.28 456.26 372.35C456.51 373.24 454.54 374.75 453.59 375.98C451.88 374.52 449.02 373.29 448.65 371.55C447.04 363.94 443.63 364.01 437.35 365.77C434.47 366.58 432.08 369.02 429.35 370.52C428.02 371.25 426.35 372.02 425.01 371.78C424.3 371.66 423.31 369.27 423.57 368.16C424.67 363.51 426.05 358.91 427.61 354.38C429.41 349.15 431.34 343.95 433.54 338.88C434.47 336.73 436.24 334.94 437.63 332.98C439.41 334.65 441.93 335.98 442.83 338.03C446.29 346.06 449.27 354.32 452.44 362.98ZM435.94 358.98C438.09 358.98 440.25 359.12 442.38 358.89C442.95 358.83 443.93 357.45 443.79 356.95C442.82 353.57 441.68 350.23 440.36 346.97C440.13 346.41 438.42 345.77 438.02 346.06C435.72 347.67 434.23 355.48 435.94 358.98Z" fill="black"/>
<path d="M460.44 369.98C456.77 361 455.1 352.27 457.47 343.13C458.29 339.96 460.33 337.9 463.83 338C469.25 338.16 473.29 340.99 476.41 345.16C478.3 347.68 478.12 350.26 475.53 352.41C474.53 353.24 473.68 354.29 472.58 354.95C469.93 356.54 465.79 357.39 464.87 359.61C463.97 361.8 466.53 365.28 467.12 368.28C467.39 369.63 466.58 371.2 466.26 372.67C464.31 371.94 462.38 371.21 460.44 369.98ZM462.44 352.48C464.81 351.77 467.26 351.24 469.52 350.27C470.37 349.91 470.81 348.57 471.44 347.67C470.39 347.1 469.4 346.24 468.29 346.03C464.01 345.23 462.62 347.76 462.44 352.48Z" fill="black"/>
<path d="M577.44 373.98C577.83 375.75 578.23 377.02 578.62 378.3C577.03 378.17 574.47 378.59 574.03 377.82C571.86 373.96 569.96 369.87 568.54 365.67C567.64 363.01 567.72 360.01 567.45 357.15C567.24 354.98 567.18 353.03 564.03 354.72C563.3 355.11 561.1 354.37 560.85 353.68C560.43 352.55 560.66 350.1 561.3 349.84C566.55 347.68 571.85 345.31 577.37 344.25C579.96 343.75 579.8 346.3 577.88 348.1C571.24 354.29 573.17 367.82 577.44 373.98Z" fill="black"/>
<path d="M486.44 355.98C486.77 363 487.16 369.51 487.35 376.03C487.37 376.66 486.23 377.72 485.49 377.87C484.73 378.02 483.51 377.54 483 376.92C482.24 376.01 481.57 374.75 481.5 373.6C481.05 366.7 480.57 359.79 480.59 352.88C480.59 351.24 482.47 349.61 483.49 347.98C484.47 349.81 485.52 351.62 486.4 353.5C486.65 354.05 486.44 354.82 486.44 355.98Z" fill="black"/>
<path d="M480.19 339.23C480.98 337.65 481.84 335.5 483.11 335.22C484.32 334.95 486.11 336.47 487.32 337.57C487.64 337.86 486.75 340.34 486.46 340.33C484.44 340.26 482.44 339.81 480.19 339.23Z" fill="black"/>
<path d="M158.44 99.98C153.66 105.8 147.7 106.59 141.07 105.16C139.65 104.85 138.12 104.99 136.64 104.99C107.82 104.98 79 105.03 50.17 104.94C45.48 104.93 40.6 104.97 36.16 103.72C33.85 103.07 31.22 99.91 30.68 97.45C29.57 92.43 28.99 87 29.73 81.97C30.16 79.08 33.17 76.03 35.79 74.1C42.72 68.98 49.94 64.2 57.35 59.81C59.39 58.6 62.9 58.28 65.08 59.17C71.21 61.66 77.03 64.92 82.9 68.01C84.97 69.1 87.14 70.28 88.74 71.93C91.74 75 94.32 75.35 98.24 73.11C107.09 68.06 116.32 63.7 125.35 58.97C128.92 57.1 132.32 54.91 135.9 53.04C137.1 52.41 139.2 51.59 139.86 52.13C145.5 56.73 153.25 58.91 156.42 66.34C156.84 67.33 157.35 68.38 157.39 69.42C157.8 79.43 158.1 89.46 158.44 99.98ZM38.44 80.48C37.77 83.7 36.69 86.9 36.53 90.14C36.25 95.92 38.43 97.96 44.12 97.97C55.82 98 67.53 97.85 79.23 98.02C88.8 98.16 98.37 98.82 107.94 98.94C120.92 99.11 133.9 99.06 146.87 98.86C148.07 98.84 150.16 97.21 150.28 96.15C150.93 90.11 150.97 84.01 151.46 77.94C152.09 70.08 148.26 65.13 142.08 60.79C139.23 58.79 137.22 58.81 134.79 60.17C123.17 66.68 111.58 73.26 100.03 79.91C94.55 83.07 89.89 82.4 84.97 78.15C82.16 75.72 78.82 73.86 75.55 72.03C72.88 70.53 69.73 69.82 67.21 68.12C63.63 65.7 60.49 65.46 56.9 67.95C50.99 72.07 44.93 75.98 38.44 80.48Z" fill="black"/>
<path d="M30.19 30.73C33.23 27.65 35.64 24.21 38.9 22.12C44.21 18.71 50.64 21.02 55.02 27.07C58.56 31.95 58.35 39.9 54.16 43.66C48.71 48.55 41.82 49.87 34.95 48.8C28.81 47.84 26.37 39.94 29.23 32.69C29.46 32.12 29.7 31.55 30.19 30.73Z" fill="black"/>
</g>
<defs>
<filter id="filter0_d" x="0.39447" y="0.00387573" width="1083.11" height="668.303" filterUnits="userSpaceOnUse" color-interpolation-filters="sRGB">
<feFlood flood-opacity="0" result="BackgroundImageFix"/>
<feColorMatrix in="SourceAlpha" type="matrix" values="0 0 0 0 0 0 0 0 0 0 0 0 0 0 0 0 0 0 127 0"/>
<feOffset dy="6"/>
<feGaussianBlur stdDeviation="3"/>
<feColorMatrix type="matrix" values="0 0 0 0 0 0 0 0 0 0 0 0 0 0 0 0 0 0 0.4 0"/>
<feBlend mode="normal" in2="BackgroundImageFix" result="effect1_dropShadow"/>
<feBlend mode="normal" in="SourceGraphic" in2="effect1_dropShadow" result="shape"/>
</filter>
</defs>
</svg>
