<svg width="910" height="544" viewBox="0 0 910 544" fill="none" xmlns="http://www.w3.org/2000/svg">
<g filter="url(#filter0_d)">
<path d="M306.799 383.775C323.842 384.045 340.48 384.527 357.13 384.449C362.923 384.415 368.919 383.685 374.431 381.99C380.92 380.004 382.054 377.355 381.369 370.407C380.314 359.699 378.372 348.699 381.74 337.913C382.301 336.117 382.369 334.175 382.604 332.29C383.132 327.923 386.074 324.522 389.195 324.736C391.395 324.881 395.201 329.708 395.37 332.75C395.695 338.755 395.74 344.771 396.234 350.753C396.807 357.623 398.491 364.492 398.322 371.327C398.12 379.544 398.154 388.22 393.394 395.426C391.788 397.85 388.095 400.163 385.254 400.297C371.355 400.948 357.95 405.999 343.826 404.596C338.65 404.08 333.374 404.405 328.142 404.54C323.73 404.652 319.317 405.303 314.905 405.258C304.464 405.157 294.023 404.697 283.581 404.54C275.296 404.417 266.999 404.596 258.713 404.473C254.964 404.417 251.214 404.001 247.475 403.676C247.004 403.631 246.577 403.115 246.139 402.823C246.644 402.587 247.138 402.273 247.666 402.149C248.171 402.037 248.766 402.25 249.249 402.093C249.844 401.902 250.372 401.487 250.922 401.162C250.394 400.948 249.866 400.578 249.328 400.544C244.388 400.241 239.448 399.949 234.497 399.758C233.598 399.725 232.678 400.185 231.768 400.41C232.498 400.982 233.228 401.543 233.958 402.116C234.295 402.385 234.631 402.666 234.957 402.946C234.474 403.204 233.969 403.709 233.497 403.676C224.673 403.193 215.848 402.654 207.035 402.116C205.519 402.026 203.442 402.856 203.577 399.961C203.588 399.77 202.174 399.265 201.466 399.332C195.494 399.938 189.532 401.049 183.548 401.229C172.523 401.543 161.476 401.229 150.439 401.341C130.163 401.543 109.876 401.813 89.5997 402.138C82.3919 402.261 75.1841 402.553 67.9875 402.935C60.0948 403.361 52.2134 404.057 44.3095 404.484C36.9783 404.877 29.6357 405.202 22.3044 405.27C13.8729 405.348 5.37397 397.121 6.03637 388.77C6.83349 378.657 8.62983 368.622 9.98831 358.543C10.4935 354.76 11.2682 350.989 11.4254 347.195C11.6836 341.224 15.7254 337.374 21.4849 338.396C22.5402 338.586 23.6292 340.001 24.213 341.112C26.3574 345.209 27.1658 349.328 26.0655 354.166C25.2459 357.802 26.7616 361.888 26.5595 365.749C26.2676 371.215 25.3694 376.648 24.7183 382.103C24.5948 383.102 24.606 384.19 24.2243 385.088C22.9332 388.108 25.0326 387.883 26.7616 387.726C31.3422 387.288 35.9229 386.11 40.4587 386.301C47.4644 386.581 54.4139 388.007 61.4196 388.467C65.394 388.725 69.447 388.13 73.4439 387.737C77.6204 387.322 81.7632 386.458 85.9509 386.222C93.8098 385.773 101.68 385.638 109.55 385.369C117.555 385.1 125.549 384.673 133.554 384.628C139.156 384.595 144.77 385.425 150.372 385.313C166.775 384.954 183.178 384.381 199.569 383.753C209.73 383.36 219.868 382.585 230.028 382.226C236.63 381.99 243.243 382.181 249.844 382.181C258.264 382.181 266.696 381.979 275.105 382.237C285.569 382.54 295.987 383.236 306.799 383.775ZM299.221 398.928C303.397 399.725 307.551 400.656 311.761 401.251C313.243 401.453 314.838 400.802 316.376 400.544C315.04 400.129 313.726 399.534 312.357 399.332C307.069 398.591 301.769 397.951 296.47 397.379C295.965 397.323 295.381 397.974 294.831 398.299C295.37 398.501 295.886 398.804 296.436 398.894C297.076 399.006 297.761 398.928 299.221 398.928ZM117.667 396.941C118.139 397.345 118.599 398.075 119.082 398.086C123.303 398.176 127.514 398.165 131.735 398.109C132.375 398.097 133.004 397.671 133.632 397.435C132.925 397.143 132.229 396.604 131.51 396.593C127.031 396.503 122.54 396.537 117.667 396.941ZM263.305 402.924C264.507 402.733 265.697 402.531 266.898 402.34C265.697 401.734 264.529 400.993 263.26 400.578C262.43 400.308 261.363 400.297 260.543 400.578C259.398 400.971 258.388 401.745 257.321 402.351C258.399 402.542 259.466 402.767 260.543 402.901C261.183 402.991 261.857 402.924 263.305 402.924ZM136.417 396.537C136.338 396.986 136.259 397.435 136.17 397.895C138.909 397.974 141.648 398.075 144.388 398.097C144.523 398.097 144.848 397.255 144.758 397.154C144.444 396.863 143.973 396.582 143.546 396.571C141.446 396.503 139.324 396.537 136.417 396.537ZM388.196 394.539C387.208 394.461 386.175 394.169 385.265 394.393C384.816 394.506 384.603 395.572 384.277 396.2C385.265 395.965 386.265 395.751 387.241 395.471C387.466 395.415 387.612 395.123 388.196 394.539ZM109.281 396.537C108.877 396.739 108.484 396.941 108.079 397.154C109.27 397.48 110.46 397.906 111.672 398.075C112.02 398.12 112.469 397.469 112.862 397.132C111.942 396.93 111.01 396.739 109.281 396.537Z" fill="black"/>
<path d="M178.316 280.849C178.047 277.235 177.654 274.025 177.541 270.803C177.205 261.206 177.25 251.598 176.655 242.024C175.846 228.892 174.476 215.782 173.556 202.65C172.849 192.514 171.816 182.334 172.096 172.209C172.399 161.322 174.218 150.49 175.027 139.614C175.319 135.641 174.51 131.6 174.331 127.582C174.005 120.118 173.982 112.631 173.466 105.178C172.68 93.5498 181.83 81.4276 193.888 77.2522C209.595 71.8197 225.661 71.4493 241.895 71.8758C244.219 71.9319 246.577 72.6727 248.822 73.4135C249.664 73.6941 250.226 74.8502 250.922 75.6022C250.091 76.1971 249.283 77.2859 248.429 77.3308C240.57 77.7236 232.678 77.6787 224.83 78.2624C212.918 79.1603 201.062 80.7991 190.935 87.8479C186.007 91.2825 182.47 96.21 182.38 102.439C182.268 111.273 183.144 120.129 182.998 128.974C182.829 139.131 182.044 149.278 181.471 159.425C181.269 163.039 180.797 166.642 180.719 170.268C180.584 175.891 180.584 181.525 180.708 187.16C180.887 195.432 180.977 203.705 181.538 211.954C182.38 224.29 183.671 236.603 184.648 248.927C185.075 254.259 185.266 259.601 185.457 264.944C185.771 273.744 186.063 282.544 186.231 291.344C186.287 294.52 187.949 295.53 190.733 295.193C194.382 294.756 197.997 293.992 201.646 293.656C208.73 293.005 215.826 292.466 222.933 292.107C224.246 292.039 226.638 292.803 226.772 293.521C227.255 296.002 228.052 299.605 226.772 301.041C220.654 307.877 214.894 315.218 206.193 319.269C203.948 320.313 202.106 322.536 200.501 324.556C197.436 328.406 194.786 329.023 190.048 328.249C180.505 326.7 173.039 320.953 164.99 316.486C158.444 312.849 152.415 308.303 146.128 304.184C143.018 302.152 144.332 299.885 145.376 297.292C146.588 294.262 149.058 294.531 151.36 294.486C153.111 294.453 154.863 295.16 156.614 295.193C162.643 295.283 168.672 295.227 174.701 295.227C179.102 295.227 179.596 294.599 179.08 290.109C178.788 287.157 178.586 284.205 178.316 280.849ZM221.013 299.997C223.269 301.917 223.741 300.121 223.707 298.471C223.685 297.64 222.775 296.462 221.967 296.091C220.541 295.429 218.891 295.092 217.319 295.014C216.848 294.991 216.32 296.327 215.815 297.045C216.488 297.248 217.24 297.326 217.836 297.663C218.812 298.224 219.688 298.954 221.013 299.997Z" fill="black"/>
<path d="M351.494 106.918C339.694 107.984 328.31 109.062 316.915 110.105C310.628 110.678 304.329 111.217 298.031 111.699C293.495 112.036 288.937 112.53 284.401 112.429C279.764 112.339 275.206 111.755 270.917 109.387C264.922 106.065 262.362 100.251 263.777 93.5497C264.495 90.1263 263.979 86.4448 263.99 82.8755C263.99 82.3816 263.743 81.899 263.721 81.4051C263.44 75.1307 263.002 68.8676 262.968 62.5933C262.946 57.6546 263.855 52.6822 263.597 47.7772C263.305 42.3559 261.992 37.002 261.43 31.5807C261.082 28.2246 262.34 25.6318 265.697 23.8584C274.667 19.1217 284.39 16.7646 294.101 14.43C305.149 11.7811 316.263 9.32297 327.434 7.28015C334.597 5.97814 341.895 5.29346 349.17 4.85571C362.104 4.09246 375.06 3.66594 388.005 3.2282C393.102 3.04861 398.199 3.25065 403.296 3.16085C404.52 3.1384 405.732 2.66699 406.956 2.3976C408.18 2.12822 409.392 1.67925 410.616 1.63435C417.015 1.38742 423.426 1.35375 429.826 1.05069C436.663 0.736414 443.467 -1.41864 450.293 1.54456C454.132 3.20575 457.455 7.28015 457.658 11.2984C458.062 19.5707 455.895 27.4726 454.649 35.5316C453.099 45.5997 451.393 55.8475 454.379 66.1064C455.839 71.1349 456.658 76.3542 457.624 81.5173C458.758 87.6233 453.403 93.2579 446.363 94.212C438.762 95.2334 431.251 96.9058 423.662 98.0956C417.498 99.0608 411.278 99.6445 405.115 100.542C396.616 101.788 388.151 103.315 379.629 104.46C373.903 105.234 368.11 105.593 362.34 106.098C358.859 106.424 355.368 106.66 351.494 106.918ZM430.095 6.39344C426.087 6.66282 422.068 6.8873 418.06 7.20158C407.877 7.97605 397.716 8.95256 387.522 9.53623C378.731 10.0413 369.918 9.9852 361.127 10.4342C355.48 10.7148 349.81 11.1301 344.241 12.0505C334.463 13.6667 324.729 15.5861 315.029 17.5952C300.579 20.5809 286.141 23.7125 272.545 29.6276C270.378 30.5705 268.133 32.1306 269.166 35.7112C270.053 38.7417 270.008 42.0978 270.053 45.3191C270.165 53.1649 270.019 61.0106 270.12 68.8564C270.154 71.8196 270.749 74.7716 270.783 77.7348C270.85 84.2112 270.996 90.71 270.558 97.1527C270.333 100.419 271.321 103.842 274.566 104.426C279.641 105.335 284.861 106.177 289.981 105.986C298.85 105.661 307.675 104.471 316.533 103.741C321.203 103.36 325.896 103.337 330.567 102.888C340.772 101.923 350.966 100.767 361.172 99.7343C369.345 98.9037 377.575 98.3986 385.703 97.265C395.055 95.9629 404.329 94.0773 413.659 92.562C424.021 90.8896 434.429 89.4304 444.78 87.7019C447.564 87.2417 450.618 85.7938 450.293 82.5612C449.72 76.8368 448.272 71.191 447.273 65.5116C445.027 52.8282 447.059 40.3692 449.237 27.9103C450.091 23.0278 450.82 18.1116 451.168 13.1729C451.393 10.0974 449.967 6.9322 446.745 6.52813C441.39 5.87712 435.922 6.12405 430.095 6.39344Z" fill="black"/>
<path d="M723.179 333.704C725.143 338.485 722.247 341.897 720.45 345.579C720.013 346.466 719.137 347.173 718.834 348.093C718.441 349.294 717.879 350.933 718.385 351.775C718.822 352.504 720.664 352.437 721.887 352.628C722.831 352.774 723.785 352.751 724.739 352.807C724.335 353.907 724.2 355.254 723.471 356.051C719.238 360.698 717.599 360.855 711.458 358.004C711.008 357.791 709.852 358.633 709.268 359.228C707.348 361.169 705.878 362.909 702.364 361.663C700.298 360.934 697.345 362.528 694.83 363.246C683.513 366.501 673.678 357.207 676.238 345.702C676.474 344.636 676.036 343.424 675.901 342.279C675.07 342.829 674.217 343.357 673.42 343.94C671.377 345.422 669.547 347.588 667.268 348.295C663.529 349.463 662.384 351.629 662.709 355.176C662.99 358.229 661.688 360.305 658.544 360.563C655.03 360.866 654.974 358.15 654.705 355.681C654.626 354.918 654.21 354.177 653.952 353.425C653.436 354.064 652.785 354.626 652.448 355.344C648.608 363.437 641.075 366.579 633.294 368.398C625.581 370.205 621.955 368.51 619.799 362.774C618.385 358.992 618.104 354.525 618.385 350.439C618.688 346.017 619.889 341.572 621.36 337.363C622.09 335.264 623.976 333.131 625.907 331.964C636.056 325.835 648.081 330.898 651.595 342.436C651.853 343.3 652.942 343.907 653.649 344.636C654.008 343.727 654.648 342.818 654.682 341.897C654.806 338.407 654.66 334.893 654.749 331.403C654.895 325.386 659.97 321.177 666.437 320.033C671.04 319.224 675.879 322.098 678.012 328.249C679.763 333.3 681.369 335.702 688.038 333.333C688.678 333.109 689.497 333.412 690.227 333.468C689.935 334.029 689.677 334.613 689.351 335.152C687.768 337.823 686.118 340.449 684.602 343.154C684.209 343.862 684.221 344.793 684.041 345.624C685.04 345.568 686.152 345.759 687.016 345.388C688.487 344.748 689.744 343.648 691.204 342.964C691.788 342.683 692.652 342.975 693.382 343.009C693.303 343.648 693.438 344.445 693.112 344.905C691.496 347.184 690.047 349.687 688.004 351.517C685.658 353.616 687.207 355.389 688.633 355.602C692.035 356.13 695.594 355.86 699.063 355.647C699.501 355.625 700.208 353.93 700.152 353.054C699.793 347.543 701.6 341.976 699.557 336.454C699.153 335.342 700.264 333.131 701.353 332.245C701.948 331.751 704.373 332.548 705.226 333.457C708.763 337.273 711.413 333.344 714.365 332.637C717.408 331.953 720.349 330.729 723.179 333.704ZM631.206 337.497C630.847 337.587 630.274 337.576 630.162 337.801C626.816 344.288 624.47 351.135 625.413 358.464C625.716 360.799 627.602 363.223 631.161 363.134C634.844 363.044 637.561 361.439 640.469 359.486C646.206 355.625 647.822 351.023 645.173 344.03C643.331 339.192 637.594 336.285 631.206 337.497ZM668.716 328.72C665.572 328.204 662.777 329.09 662.092 332.301C661.474 335.196 661.834 338.328 662.025 341.336C662.058 341.931 663.417 342.997 664.001 342.896C669.075 342.077 672.376 333.008 668.716 328.72ZM711.008 341.482C708.168 343.783 708.089 346.982 708.258 350.203C708.291 350.731 708.931 351.225 709.291 351.73C709.729 351.326 710.346 351.011 710.571 350.518C711.592 348.306 712.502 346.05 713.456 343.805C713.838 342.908 714.208 342.01 714.59 341.112C713.535 341.112 712.468 341.1 711.008 341.482Z" fill="black"/>
<path d="M769.064 6.19151C769.928 8.24555 770.86 10.0414 771.186 11.9496C771.578 14.2505 772.14 14.5199 774.419 13.6556C780.122 11.4894 786.174 10.6139 791.664 13.8352C794.493 15.4964 795.324 14.8342 796.806 12.4883C798.232 10.2322 799.972 7.78536 802.195 6.50579C807.157 3.65483 811.367 6.49457 811.94 12.6679C812.097 14.3852 811.951 16.125 811.962 17.8423C812.007 22.8034 815.196 25.5197 819.945 24.7452C820.877 24.5993 821.865 24.7789 822.83 24.8125C822.471 25.9125 822.201 27.0462 821.707 28.0788C821.438 28.64 820.843 29.089 820.326 29.4931C819.428 30.1777 818.474 30.7726 817.542 31.4012C818.654 31.5695 819.765 31.8726 820.865 31.8726C827.242 31.895 833.765 32.546 839.469 28.6961C840.726 27.8543 841.86 26.8329 843.05 25.8901C841.725 25.2278 840.445 24.4534 839.076 23.937C835.618 22.6463 831.98 21.7708 828.691 20.1545C826.232 18.9535 823.908 17.1239 822.112 15.0587C821.303 14.1383 821.371 11.6465 822.033 10.3894C825.199 4.36196 831.037 1.8814 837.145 0.0855221C837.998 -0.161411 840.12 0.983462 840.232 1.70181C840.524 3.59871 840.423 5.78744 839.693 7.5272C839.3 8.45881 837.324 8.85166 835.988 9.22206C834.776 9.55879 833.35 9.26696 832.238 9.7496C831.419 10.1088 830.936 11.2649 830.307 12.073C831.239 12.5669 832.149 13.1281 833.114 13.5546C837.83 15.6423 842.747 17.3596 847.238 19.8514C851.964 22.4779 852.47 27.1023 848.63 30.6604C840.782 37.9337 831.531 40.6387 820.978 38.2592C820.035 38.0459 818.575 37.6419 818.395 37.0245C817.239 33.0287 813.5 32.5909 810.615 30.9185C806.573 28.5839 804.328 25.138 804.766 20.2779C804.811 19.7504 804.934 19.1443 804.743 18.6953C804.328 17.7413 803.744 16.8545 803.216 15.9454C802.666 16.8321 801.588 17.7637 801.667 18.5943C802.116 23.533 802.296 28.6063 803.632 33.3205C804.552 36.5868 802.846 38.0235 801.016 38.9214C799.208 39.8081 796.828 39.1908 796.009 36.6317C795.178 34.0501 794.111 31.5022 793.662 28.842C792.236 20.3453 785.814 17.3821 778.629 18.3698C776.26 18.6953 774.924 22.8595 776.518 24.6891C776.743 24.9472 777.731 24.8462 778.135 24.5656C779.505 23.634 780.706 22.4554 782.098 21.5687C782.648 21.2208 783.535 21.4116 784.265 21.3555C784.186 22.0963 784.344 22.9942 783.984 23.5554C782.772 25.4635 781.447 27.338 780.01 29.089C778.73 30.6491 776.125 32.2767 778.225 34.1511C779.673 35.4419 782.603 35.498 784.815 35.3409C786.084 35.2511 787.195 33.5562 788.464 32.7032C789.059 32.2991 789.834 32.1644 790.519 31.9063C790.754 32.546 791.147 33.1858 791.181 33.8368C791.316 36.5868 790.429 38.6408 787.678 39.9428C784.198 41.5928 780.953 44.2193 776.81 42.5918C770.95 40.2908 768.547 36.4296 768.132 30.4247C767.986 28.3033 768.626 26.137 768.85 23.9819C768.895 23.4993 768.85 22.6687 768.603 22.5565C768.076 22.3208 766.998 22.2197 766.818 22.4891C765.549 24.4646 763.933 26.4176 763.428 28.6176C762.844 31.143 763.304 33.9042 763.293 36.5643C763.282 39.3479 762.518 41.7836 759.397 42.2326C756.006 42.7152 754.715 40.1673 754.603 37.5521C754.334 31.0083 754.277 24.4309 754.626 17.8872C754.794 14.8566 755.715 11.7138 757.006 8.95268C759.049 4.55277 765.123 3.25076 769.064 6.19151ZM761.687 15.575C762.215 15.4403 762.754 15.2944 763.282 15.1597C763.079 14.6321 762.877 14.1046 762.675 13.5771C762.339 13.9699 762.013 14.374 761.687 15.575Z" fill="black"/>
<path d="M340.312 519.409C340.346 514.134 340.974 509.33 339.616 504.413C337.876 498.105 332.756 494.671 326.312 496.298C325.223 496.568 324.145 496.938 323.033 497.039C319.037 497.409 317.173 499.329 317.173 503.201C317.173 505.199 317.207 507.186 317.162 509.184C317.106 511.877 318.823 511.215 320.013 510.474C321.742 509.397 323.168 507.848 324.852 506.681C325.369 506.321 326.278 506.546 327.008 506.501C326.985 507.141 327.232 508.005 326.907 508.387C324.751 510.957 322.73 513.763 320.137 515.828C318.206 517.366 316.219 518.152 317.936 521.07C319.62 523.932 321.888 523.944 324.538 522.787C324.65 522.743 324.706 522.563 324.83 522.518C326.525 521.912 328.232 521.328 329.938 520.733C328.95 522.945 328.523 525.874 326.828 527.21C323.92 529.5 320.552 531.823 316.219 529.803C311.155 527.457 309.729 522.967 309.28 518.141C309 515.11 309.774 511.99 309.954 508.903C310.055 507.197 310.223 505.401 309.842 503.762C308.663 498.622 309.348 496.938 313.85 494.637C318.891 492.055 324.01 489.721 329.826 489.878C334.249 490.001 338.381 491.056 341.412 494.592C342.737 496.13 343.635 496.657 345.387 494.85C349.507 490.607 351.382 490.955 353.818 496.287C355.143 499.183 355.817 502.371 357.108 505.289C358.253 507.882 359.746 510.328 361.284 512.719C361.666 513.325 362.8 513.438 363.597 513.786C363.81 512.989 364.214 512.203 364.214 511.406C364.271 506.31 364.057 501.203 364.293 496.119C364.596 489.44 367.762 484.356 374.588 483.199C376.991 482.795 379.551 483.514 382.043 483.435C385.265 483.334 388.476 482.762 391.687 482.75C393.225 482.75 395.459 483.121 396.133 484.142C396.885 485.276 396.582 487.453 396.099 488.98C394.404 494.379 391.945 499.587 390.755 505.076C389.958 508.746 391.036 512.686 394.258 515.492C395.909 516.928 397.424 518.455 395.257 520.7C393.225 522.799 391.429 522.698 389.15 520.812C382.492 515.29 383.009 507.859 383.626 500.496C383.851 497.836 385.142 495.277 385.726 492.628C385.849 492.078 385.052 490.765 384.625 490.742C381.392 490.585 378.147 490.506 374.925 490.742C373.982 490.809 372.399 491.943 372.354 492.662C371.995 498.341 371.411 504.088 371.95 509.722C372.377 514.178 371.703 518.646 368.155 520.576C364.978 522.305 361.632 522.451 357.31 518.354C354.817 515.997 351.91 513.887 351.427 510.014C351.348 509.352 350.371 508.802 349.81 508.196C349.305 508.858 348.429 509.487 348.373 510.183C348.193 512.562 348.407 514.964 348.261 517.355C348.148 519.241 348.003 521.205 347.385 522.967C346.745 524.785 345.409 526.783 343.141 525.627C341.873 524.976 341.143 523.135 340.357 521.732C340.076 521.272 340.312 520.475 340.312 519.409Z" fill="black"/>
<path d="M259.118 522.395C253.796 520.935 249.552 518.634 247.688 513.224C247.43 512.472 246.341 512.012 245.634 511.428C245.275 512.214 244.579 513 244.612 513.774C244.758 518.051 244.971 522.338 245.398 526.604C245.645 529.051 244.702 531.239 242.58 531.127C241.042 531.048 238.684 528.882 238.381 527.322C237.853 524.583 237.831 524.651 235.597 526.233C228.546 531.228 226.66 530.992 219.228 525.694C218.599 525.246 217.386 525.302 216.556 525.526C214.793 526.02 213.131 527.187 211.369 527.344C209.325 527.524 206.418 527.648 205.34 526.469C204.139 525.156 203.903 522.17 204.408 520.217C205.598 515.593 207.563 511.159 209 506.591C209.325 505.558 208.809 504.267 208.674 503.089C207.754 503.459 206.799 503.774 205.901 504.2C201.399 506.321 201.264 510.721 200.714 514.728C200.164 518.702 200.389 522.787 199.693 526.727C199.479 527.917 197.436 529.455 196.111 529.578C195.056 529.679 192.855 527.894 192.822 526.896C192.586 519.117 192.17 511.238 196.392 504.11C199.053 499.621 203.162 497.095 207.933 495.535C209.011 495.187 210.583 495.03 211.459 495.557C218.565 499.823 227.951 499.789 233.396 507.118C234.283 508.308 234.901 509.7 235.776 510.901C236.192 511.473 236.933 511.799 237.528 512.237C237.73 511.563 237.977 510.901 238.123 510.216C238.707 507.534 238.505 504.279 239.987 502.258C243.692 497.241 248.126 499.059 250.843 505.446C252.438 509.195 254.211 512.674 257.984 514.582C258.893 515.043 260.061 514.987 261.116 515.166C261.161 514.212 261.397 513.224 261.228 512.304C260.465 508.117 259.342 503.976 258.882 499.755C258.669 497.825 259.219 495.434 260.296 493.829C261.958 491.36 263.631 491.82 264.406 494.895C266.135 501.652 267.706 508.443 269.211 515.245C270.109 519.297 266.685 521.53 260.858 522.585C260.398 522.675 259.847 522.597 259.118 522.395ZM215.826 509.431C215.029 511.226 214.119 512.977 213.468 514.829C212.862 516.513 212.525 518.298 212.076 520.037C213.334 518.825 214.714 517.736 215.803 516.39C217.735 514.01 219.486 510.115 222.832 511.743C224.751 512.674 225.088 516.771 226.233 519.398C226.727 520.52 227.468 521.542 228.097 522.597C229.063 521.44 230.949 520.161 230.814 519.173C230.477 516.816 229.736 514.033 228.142 512.439C225.919 510.216 222.686 509.038 220.036 507.197C217.779 505.648 216.533 506.153 215.826 509.431Z" fill="black"/>
<path d="M673.105 396.537C679.696 396.313 687.386 403.923 688.228 409.939C689.396 418.278 685.119 425.529 676.99 427.101C674.531 427.572 671.59 425.507 668.862 424.62C667.964 424.328 666.931 423.677 666.156 423.902C659.588 425.832 654.671 423.273 652.358 416.539C652.234 416.18 652.504 415.63 652.313 415.371C651.651 414.44 650.865 413.598 650.135 412.711C649.955 413.98 649.529 415.259 649.63 416.505C649.877 419.547 650.82 422.6 650.562 425.574C650.427 427.146 648.597 429.48 647.137 429.817C645.341 430.232 643.41 428.964 643.488 426.135C643.567 423.195 643.174 420.22 642.691 417.313C642.5 416.168 641.513 415.158 640.884 414.092C640.446 415.057 639.626 416.034 639.638 416.988C639.682 419.536 640.008 422.095 640.39 424.62C640.783 427.269 639.896 429.402 637.65 430.569C636.988 430.917 634.922 430.03 634.552 429.233C633.743 427.46 633.407 425.406 633.227 423.43C633.014 421.062 633.305 418.649 633.126 416.269C633.025 414.855 632.879 413.755 630.487 414.597C625.11 416.494 620.507 418.458 620.215 425.316C620.159 426.674 617.879 428.425 616.252 429.11C614.466 429.862 612.94 428.84 613.22 426.45C614.545 415.27 616.701 404.383 624.784 395.796C628.882 391.441 632.744 391.744 636.011 396.683C637.28 398.591 638.043 400.892 638.717 403.115C639.604 406.089 641.849 407.043 644.106 405.157C650.281 399.994 654.435 401.341 657.129 409.344C657.635 410.859 658.14 412.375 658.746 413.856C659.016 414.507 659.554 415.046 659.97 415.63C660.352 414.855 661.003 414.103 661.059 413.306C661.216 411.196 661.025 409.052 661.137 406.942C661.306 403.765 662.619 401.577 665.943 400.432C668.368 399.601 670.467 397.873 673.105 396.537ZM673.105 407.312C673.633 410.545 674.116 413.789 674.733 417.01C674.958 418.2 675.519 419.322 675.924 420.478C677.293 419.625 679.213 419.075 679.909 417.841C680.729 416.382 681.167 414.047 680.572 412.588C679.505 409.973 677.574 407.705 675.89 405.371C675.463 404.776 674.61 404.495 673.948 404.08C673.667 404.888 673.386 405.696 673.105 407.312ZM630.802 402.52C628.904 400.791 627.849 401.274 625.918 405.056C625.289 406.302 625.031 407.739 624.593 409.086C625.357 409.153 626.322 409.557 626.827 409.243C628.253 408.345 629.645 407.29 630.723 406.022C631.184 405.483 630.802 404.237 630.802 402.52Z" fill="black"/>
<path d="M795.997 339.091C795.47 341.134 794.336 342.874 794.583 344.378C794.796 345.68 796.828 347.835 797.659 347.667C801.746 346.836 805.72 345.399 809.706 344.086C810.267 343.895 810.682 343.233 811.165 342.795C810.548 342.403 809.941 342.01 809.324 341.639C807.303 340.416 804.979 339.484 803.385 337.846C802.565 337.004 802.329 334.344 803.037 333.457C806.663 328.922 811.289 325.499 816.812 323.602C817.744 323.276 819.574 324.006 820.214 324.837C820.742 325.521 820.551 327.542 819.9 328.17C818.104 329.91 815.926 331.268 813.837 332.682C813.04 333.221 812.052 333.502 811.154 333.906C812.209 334.568 813.209 335.343 814.32 335.881C818.53 337.902 823.201 339.26 826.928 341.942C831.947 345.568 830.218 353.021 823.818 354.906C818.272 356.545 812.49 357.488 806.663 354.435C804.564 353.335 801.375 354.334 798.681 354.345C796.884 354.356 795.066 354.177 793.28 354.379C791.192 354.615 788.543 354.502 787.218 355.726C785.006 357.746 783.502 357.522 781.851 355.625C780.235 353.784 779.179 354.109 777.349 355.613C771.927 360.058 766.605 359.722 763.338 355.232C761.867 353.223 761.631 349.878 761.811 347.207C762.047 343.772 763.091 340.36 764.101 337.037C765.943 330.954 771.578 329.405 776.417 333.524C777.428 334.388 778.304 335.387 779.247 336.33C782.559 339.641 782.637 339.664 783.996 335.062C785.534 329.809 789.048 326.363 793.752 323.939C796.997 322.266 798.445 324.365 798.254 326.913C797.962 330.875 796.795 334.77 795.997 339.091ZM772.858 339.495C771.062 337.509 770.029 338.092 769.681 340.494C769.344 342.762 768.772 345.096 769.007 347.319C769.142 348.632 770.624 349.811 771.5 351.056C772.757 350.058 775.115 348.969 775.048 348.082C774.834 345.444 773.656 342.885 772.858 339.495ZM821.135 347.869C819.428 344.636 816.094 344.95 813.343 344.894C812.176 344.872 810.952 347.207 809.762 348.464C811.075 348.8 812.411 349.474 813.703 349.395C816.06 349.249 818.395 348.666 821.135 347.869Z" fill="black"/>
<path d="M142.401 425.26C145.904 425.799 149.35 426.248 150.282 429.783C151.337 433.745 151.023 437.64 147.419 440.66C145.084 442.613 143.086 444.97 140.885 447.102C139.145 448.786 140.167 449.931 141.839 449.908C146.229 449.83 150.653 449.594 154.975 448.898C158.343 448.348 158.231 444.857 159.129 442.399C161.083 437.09 162.228 431.366 164.922 426.472C167.763 421.298 172.781 421.028 175.835 427.157C177.025 429.548 177.564 432.342 178.002 435.014C178.395 437.449 179.439 438.415 181.864 438.056C183.952 437.741 184.884 439.133 183.413 440.357C177.8 445.026 180.348 449.987 182.167 455.184C182.695 456.688 182.066 458.596 181.976 460.313C179.955 459.572 177.429 459.348 176.071 457.967C174.645 456.531 174.42 453.938 173.511 451.929C172.837 450.436 171.995 447.933 171.064 447.854C169.29 447.697 166.651 448.416 165.686 449.74C163.44 452.782 162.127 456.497 160.095 459.73C159.275 461.032 157.692 462.435 156.277 462.648C152.752 463.175 151.933 461.638 153.594 458.338C153.931 457.676 154.47 457.103 154.717 456.407C154.964 455.734 154.941 454.982 155.042 454.263C154.391 454.443 153.751 454.656 153.089 454.791C148.901 455.599 144.511 457.563 140.571 456.901C135.519 456.048 133.599 456.811 133.475 461.986C133.453 462.805 131.286 464.141 130.062 464.186C129.164 464.219 127.469 462.614 127.368 461.615C126.38 452.131 125.661 442.613 124.864 433.094C124.617 430.109 125.65 428.739 128.962 428.335C133.352 427.785 137.652 426.326 142.401 425.26ZM142.805 433.24C139.426 431.478 137.18 434.509 134.407 435.272C130.635 436.305 132.364 439.369 132.105 441.692C133.026 441.793 134.34 442.332 134.789 441.917C137.697 439.268 140.414 436.417 142.805 433.24ZM169.93 433.24C169.267 435.351 168.403 437.416 167.987 439.571C167.561 441.816 169.043 441.535 170.311 440.794C172.444 439.56 172.579 436.103 169.93 433.24Z" fill="black"/>
<path d="M561.576 309.37C550.876 305.318 540.278 301.703 529.915 297.539C518.756 293.05 507.787 288.077 496.784 283.206C494.864 282.364 493.191 280.983 491.373 279.895C490.755 279.524 490.059 279.3 489.408 279.008C489.262 279.816 488.847 280.692 489.004 281.444C489.621 284.351 490.845 287.202 490.991 290.12C491.07 291.714 489.43 293.386 488.566 295.014C487.454 294.307 485.984 293.846 485.288 292.847C480.943 286.573 476.542 280.321 472.635 273.777C470.266 269.804 472.287 265.696 476.845 265.909C483.536 266.224 488.835 262.239 495.033 261.476C498.042 261.105 501.095 261.173 504.115 260.892C507.102 260.611 507.708 262.542 506.99 264.54C506.473 265.965 504.879 267.57 503.453 267.963C500.062 268.895 496.47 269.063 493.001 269.748C492.102 269.928 491.361 270.893 490.553 271.499C491.193 272.229 491.698 273.216 492.507 273.632C511.334 283.363 531.049 290.928 551.123 297.685C561.587 301.21 571.792 305.531 582.065 309.594C585.377 310.907 588.633 312.389 591.743 314.106C592.81 314.701 594.224 316.912 593.966 317.26C592.922 318.663 591.328 320.47 589.857 320.538C587.802 320.628 585.467 319.651 583.615 318.529C576.777 314.376 569.513 311.435 561.576 309.37Z" fill="black"/>
<path d="M646.767 48.6751C651.897 50.8414 655.647 48.4506 659.363 46.015C660.239 45.4425 660.823 44.4548 661.654 43.8038C662.821 42.8946 664.079 42.1089 665.303 41.2671C665.437 43.1416 666.1 45.1956 665.55 46.8456C664.988 48.5516 663.506 50.2465 661.979 51.2904C656.534 55.028 650.573 57.7555 643.836 55.7352C640.446 54.7138 637.269 52.6597 637.066 48.2598C637.066 48.1588 634.911 47.7098 634.226 48.1588C628.747 51.6832 623.527 55.6454 617.902 58.9229C615.443 60.3483 612.131 62.4024 609.459 58.7769C608.898 58.0249 608.471 56.9249 608.516 56.0158C608.965 47.9904 609.549 39.9651 610.054 31.951C610.189 29.7847 610.402 27.5511 606.989 27.8429C606.473 27.8878 605.339 26.7093 605.384 26.1705C605.485 24.8573 605.709 23.0165 606.596 22.3879C614.983 16.3942 627.467 14.9462 636.022 22.4777C637.56 23.8358 638.526 25.9123 639.57 27.7531C640.704 29.751 641.22 31.0081 644.027 28.9541C648.17 25.9236 653.031 23.8583 657.657 21.5237C658.454 21.1196 659.633 21.4563 660.632 21.4563C660.307 22.3767 660.25 23.6114 659.61 24.1726C656.523 26.8552 653.222 29.2908 650.101 31.951C648.585 33.2418 647.249 34.7683 646.014 36.3284C645.633 36.8111 645.835 37.7651 645.767 38.5059C646.508 38.4386 647.418 38.6182 647.946 38.2478C651.156 35.9805 654.233 33.5224 657.444 31.2775C658.465 30.5592 659.801 30.2786 660.991 29.7959C660.868 31.0755 661.036 32.501 660.554 33.6234C658.027 39.4825 652.739 42.2436 647.328 44.6119C644.678 45.768 644.375 46.767 646.767 48.6751ZM627.613 44.2864C628.264 43.6354 628.961 43.0069 629.578 42.311C633.811 37.5519 635.843 30.402 627.849 26.3501C624.84 24.8236 621.146 24.5766 617.733 23.9818C615.297 23.5552 615.207 24.5879 616.229 26.6195C617.15 28.4602 618.025 30.6265 617.947 32.602C617.722 38.2141 616.959 43.815 616.498 49.4159C616.442 50.0781 616.824 50.9873 617.318 51.3914C617.644 51.6608 618.699 51.4475 619.148 51.0995C621.876 49.0231 624.526 46.8456 627.613 44.2864Z" fill="black"/>
<path d="M751.313 35.1162C749.876 41.2895 745.015 44.6007 740.333 43.5007C734.271 42.0752 729.802 44.1629 725.053 46.3741C721.629 47.968 719.372 46.1272 716.678 44.8813C715.712 44.4435 713.882 44.4211 713.22 45.0384C708.92 49.0118 703.744 49.7638 698.277 49.4383C695.515 49.2812 690.081 43.9834 689.991 40.7395C689.834 35.2846 690.126 29.7622 690.844 24.3521C691.069 22.6461 693.067 20.9175 694.628 19.6941C697.985 17.0676 701.566 14.7105 705.125 12.3422C705.788 11.9044 706.764 11.9269 707.595 11.7361C707.55 12.735 707.561 13.7452 707.449 14.7442C707.213 16.8094 707.303 19.0318 706.506 20.8614C705.945 22.1634 704.059 23.9032 702.936 23.7797C697.828 23.2409 697.873 26.9898 697.098 30.099C696.963 30.6377 697.322 31.3112 697.457 31.9173C698.176 31.7265 699.051 31.7489 699.59 31.3224C701.622 29.7173 703.497 27.9327 705.518 26.3164C705.967 25.9572 706.776 26.0358 707.415 25.9123C707.494 26.6531 707.898 27.6072 707.584 28.0786C705.552 31.0979 703.273 33.9489 701.241 36.9682C700.432 38.1692 700.039 39.6508 699.456 40.9977C700.589 41.4242 701.712 42.1762 702.869 42.2211C708.527 42.4569 713.343 37.0019 713.95 30.9295C714.354 26.9225 715.611 22.8818 717.206 19.1665C717.756 17.887 720.484 17.539 722.224 16.7645C722.449 18.3921 722.999 20.0533 722.83 21.6359C722.392 25.7776 721.55 29.8857 721.068 34.0274C720.944 35.0713 721.326 36.3172 721.865 37.2488C722.46 38.2702 723.504 39.0222 724.357 39.8865C725.109 39.0447 726.187 38.3263 726.535 37.3498C728.253 32.6132 730.15 27.8766 731.262 22.9828C732.138 19.1665 736.494 16.5513 740.12 15.9901C744.263 15.3503 746.665 18.0104 748.046 21.3104C749.27 24.2623 749.753 27.5174 750.516 30.6489C750.831 31.9959 751.044 33.3652 751.313 35.1162ZM738.941 35.1162C740.041 35.8794 741.142 36.6427 742.242 37.3947C742.601 35.9692 743.365 34.4989 743.241 33.1183C742.961 29.8969 742.287 26.7092 741.692 23.5215C741.613 23.0838 741.029 22.7358 740.681 22.3542C740.232 22.7695 739.435 23.1511 739.39 23.6113C739.031 27.3041 738.806 31.0081 738.941 35.1162Z" fill="black"/>
<path d="M531.049 346.275C539.189 346.005 546.913 345.669 554.66 345.489C569.446 345.164 584.221 344.894 599.007 344.76C600.028 344.748 601.05 346.017 602.083 346.69C601.286 347.88 600.736 349.665 599.635 350.125C597.828 350.888 595.661 351 593.64 351.023C584.861 351.113 576.081 350.955 567.313 351.09C559.038 351.214 550.764 351.404 542.512 351.909C532.587 352.504 522.696 353.492 512.783 354.244C505.025 354.828 497.267 355.322 489.509 355.849C489.239 355.872 488.925 355.748 488.723 355.872C487.129 356.781 485.557 357.724 483.985 358.655C485.781 358.981 487.6 359.216 489.385 359.632C493.057 360.485 497.244 358.352 500.511 361.45C501.241 362.146 501.735 363.089 502.341 363.919C501.41 364.424 500.5 365.322 499.557 365.356C495.313 365.513 491.047 365.423 486.792 365.423C483.817 365.423 480.797 365.749 477.9 365.289C476.362 365.042 474.072 363.628 473.847 362.427C473.533 360.72 474.262 358.116 475.52 356.938C481.931 350.91 488.689 345.253 495.235 339.372C496.649 338.104 497.469 336.061 498.996 335.039C500.612 333.962 502.746 333.67 504.654 333.03C504.688 334.927 505.418 337.251 504.587 338.62C503.015 341.202 500.545 343.244 498.412 345.467C497.895 346.005 497.053 346.286 496.638 346.87C496.234 347.442 496.167 348.262 495.964 348.969C496.582 348.913 497.199 348.856 497.817 348.812C501.937 348.497 506.069 348.194 510.189 347.869C516.993 347.341 523.819 346.802 531.049 346.275Z" fill="black"/>
<path d="M816.745 415.686C813.714 417.01 811.165 419.21 808.415 419.513C801.016 420.321 794.066 416.73 797.558 406.762C799.512 401.173 801.263 394.865 808.213 394.562C813.119 394.348 817.699 394.012 822.572 392.945C826.748 392.036 831.531 394.82 833.866 399.601C834.349 400.6 835.472 401.285 836.303 402.104C836.707 400.937 837.19 399.803 837.47 398.614C837.65 397.862 837.571 397.02 837.493 396.234C837.246 393.866 838.054 392.182 840.479 391.576C841.097 391.419 842.276 391.329 842.32 391.475C842.871 393.327 843.758 395.291 843.578 397.11C843.275 400.039 842.096 402.856 841.523 405.775C840.614 410.455 844.813 412.756 848.641 411.364C849.753 410.96 851.01 410.983 852.2 410.803C852.043 412.071 852.189 413.463 851.695 414.586C849.27 420.074 841.445 421.545 837.526 416.887C837.1 416.382 836.539 415.989 836.134 415.461C834.765 413.699 833.788 413.25 831.823 415.225C827.108 419.94 822.089 419.906 816.745 415.686ZM811.558 405.314C810.436 401.42 807.168 399.994 804.844 402.598C803.969 403.575 803.587 405.449 803.778 406.796C804.036 408.671 804.597 411.016 805.911 412.049C806.731 412.689 809.65 411.757 810.727 410.646C811.749 409.602 811.603 407.402 811.558 405.314ZM820.742 401.723C821.539 404.046 822.157 406.448 823.223 408.648C823.695 409.625 825.233 410.904 825.963 410.725C827.04 410.466 828.376 409.142 828.623 408.053C829.578 403.934 825.39 400.286 820.742 401.723Z" fill="black"/>
<path d="M28.4793 426.652C35.0359 426.932 41.1996 427.707 47.3072 429.918C53.9311 432.32 55.8622 437.685 56.9176 443.454C58.7139 453.298 53.8862 460.246 45.7803 465.084C41.1884 467.822 36.4057 470.112 30.6798 470.011C20.8674 469.831 11.0773 459.539 13.6483 449.201C15.3661 442.287 16.1632 435.272 20.2948 429.222C22.529 425.956 25.7062 424.789 28.4793 426.652ZM23.4945 460.762C26.1104 462.94 28.8274 463.636 32.3751 462.872C38.3143 461.604 48.239 454.668 49.822 446.743C50.8437 441.602 49.2158 438.538 44.0962 437.326C39.9197 436.327 35.5524 435.878 31.2524 435.71C24.707 435.452 23.2812 436.776 21.889 443.107C21.7094 443.948 21.2491 444.745 21.1705 445.576C20.6989 450.638 18.2065 455.992 23.4945 460.762Z" fill="black"/>
<path d="M529.455 47.0812C520.17 48.4057 511.289 49.7302 502.409 51.0883C501.308 51.2567 500.017 51.324 499.198 51.9413C497.94 52.8842 496.997 54.276 495.931 55.477C497.098 56.1392 498.221 57.2616 499.434 57.3739C503.082 57.6994 506.765 57.5984 510.425 57.7443C511.334 57.778 512.625 57.8453 513.03 58.4065C513.411 58.9341 513.142 60.6401 512.625 60.9544C510.964 61.9534 509.123 62.8401 507.236 63.2442C501.241 64.5237 495.414 63.9737 489.711 61.5044C486.579 60.1463 486.298 57.3065 487.443 55.4545C489.441 52.1995 492.473 49.5618 495.122 46.7221C499.142 42.4007 503.071 37.9784 507.293 33.8703C508.932 32.2652 511.222 31.2663 513.31 30.2C514.04 29.8296 515.803 29.8632 515.881 30.1102C516.241 31.1877 516.678 32.8938 516.128 33.5111C513.602 36.3396 510.739 38.8651 508.022 41.5252C507.158 42.3783 506.338 43.2762 505.507 44.1629C506.731 44.3425 508.011 44.8476 509.167 44.6568C516.6 43.4334 523.998 41.9293 531.442 40.762C537.729 39.7743 544.039 38.8988 550.371 38.3712C562.114 37.4059 573.88 36.7437 585.646 35.9131C587.409 35.7897 589.262 35.6886 590.867 35.0488C592.394 34.4315 593.809 33.9825 593.954 35.9019C594.056 37.1927 592.978 38.6518 592.181 39.8753C591.855 40.3804 590.878 40.6385 590.182 40.6834C585.119 41.0089 580.022 41.0314 574.981 41.5589C563.563 42.7487 552.167 44.1517 540.761 45.5211C537.112 45.9364 533.485 46.5537 529.455 47.0812Z" fill="black"/>
<path d="M273.084 525.986C272.22 523.674 271.03 521.564 270.996 519.443C270.928 514.515 271.355 509.565 271.703 504.638C271.961 501.001 272.714 497.578 276.138 495.378C280 492.908 282.706 493.571 284.626 497.668C284.94 498.33 284.951 499.127 285.265 499.789C285.838 501.012 286.534 502.191 287.174 503.381C287.859 501.978 288.656 500.62 289.206 499.172C289.779 497.679 289.7 495.748 290.632 494.615C292.754 492.078 295.246 488.509 298.895 490.069C303.038 491.842 303.846 496.646 304.262 500.664C304.812 506.052 304.419 511.541 304.385 516.984C304.374 519.398 305.014 522.642 301.264 522.473C298.008 522.327 296.515 519.6 296.481 516.558C296.448 513.483 297.144 510.407 297.144 507.32C297.144 505.491 296.414 503.661 296.021 501.843C295.359 503.695 294.663 505.536 294.034 507.399C293.203 509.846 292.956 512.708 291.485 514.661C290.116 516.479 287.32 518.556 285.423 518.32C282.627 517.972 281.156 515.088 281.201 511.866C281.224 510.25 280.831 508.6 280.404 507.029C280.202 506.299 279.484 505.704 279.001 505.042C278.686 505.738 278.08 506.434 278.103 507.118C278.282 512.057 278.507 516.996 278.888 521.934C279.113 524.752 276.733 526.66 273.084 525.986Z" fill="black"/>
<path d="M738.537 325.532C740.592 327.194 742.68 328.597 743.825 330.55C746.441 335.028 746.239 335.107 750.528 332.312C752.504 331.021 754.502 329.753 756.59 328.664C759.655 327.07 761.238 327.856 760.789 331.178C760.003 336.992 758.555 342.717 757.511 348.497C757.286 349.71 757.646 351.034 757.69 352.302C757.769 354.525 758.128 356.927 755.67 358.195C755.007 358.543 753.974 358.397 753.177 358.218C750.516 357.623 750.258 355.569 750.528 353.357C751.067 348.946 751.695 344.546 752.245 340.135C752.335 339.417 752.189 338.665 752.156 337.935C751.426 338.115 750.516 338.081 749.977 338.497C747.126 340.719 745.576 343.256 746.935 347.218C747.867 349.923 748.046 352.998 747.979 355.894C747.957 356.96 746.43 358.509 745.273 358.913C743.78 359.43 741.726 359.441 741.703 356.736C741.703 356.175 740.962 355.613 740.985 355.075C741.142 351.606 739.132 350.922 736.224 351.034C732.912 351.157 733.743 354.008 733.013 355.759C732.351 357.342 732.43 359.329 731.52 360.687C730.903 361.607 729.129 361.742 727.871 362.236C727.445 361.102 726.513 359.89 726.67 358.846C727.68 352.269 728.725 345.691 730.173 339.204C730.936 335.758 732.25 332.357 733.867 329.214C734.641 327.654 736.673 326.733 738.537 325.532ZM736.146 337.902C735.876 339.518 735.483 341.134 735.416 342.762C735.393 343.379 736.134 344.03 736.527 344.67C737.201 342.975 738.245 341.314 738.458 339.563C738.773 336.97 738.515 336.936 736.146 337.902Z" fill="black"/>
<path d="M72.1753 415.686C75.9027 413.665 79.2708 412.217 83.2227 414.081C90.1611 417.347 92.1034 429.492 86.1642 435.418C83.088 438.482 79.0912 440.648 75.4199 443.073C74.6564 443.578 73.2531 443.892 72.5008 443.533C69.0092 441.917 68.9194 443.971 68.9643 446.474C69.0204 449.931 69.0878 453.388 68.9194 456.845C68.852 458.293 68.1896 459.707 67.7967 461.144C66.0789 460.493 64.1816 460.1 62.6884 459.112C61.8014 458.529 61.0829 457.002 61.0604 455.891C60.9033 446.047 60.6675 436.204 63.3395 426.562C64.7092 421.713 68.7061 419.109 72.1753 415.686ZM74.5666 426.461C72.9724 429.492 71.1985 432.444 69.8625 435.586C69.3011 436.9 69.8513 437.82 71.6588 436.619C76.3405 433.51 79.9107 429.593 81.5274 424.138C81.6285 423.801 79.7423 422.353 79.4617 422.521C77.8562 423.52 76.4416 424.845 74.5666 426.461Z" fill="black"/>
<path d="M118.262 461.761C111.717 466.296 104.745 466.229 98.2109 463.31C95.4266 462.064 93.6864 458.282 91.6992 455.487C89.6895 452.658 88.1177 450.133 90.2846 446.002C92.2381 442.287 92.0921 437.483 92.9342 433.162C93.7762 428.807 96.0328 427.931 100.411 428.145C103.431 428.291 106.541 426.607 109.606 425.731C111.987 425.047 114.344 424.306 116.736 423.689C117.398 423.52 118.15 423.666 118.858 423.655C118.846 424.474 119.003 425.339 118.779 426.091C117.42 430.749 113.457 432.421 109.46 434.037C106.845 435.092 104.15 436.013 101.646 437.304C100.647 437.809 99.5918 439.043 99.4122 440.098C99.0754 441.995 99.4234 443.814 102.152 442.04C103.701 441.041 105.351 440.11 107.08 439.504C108.888 438.875 110.853 438.673 112.739 438.28C112.267 440.435 112.436 443.14 111.167 444.633C109.27 446.867 106.339 448.202 103.914 449.998C102.32 451.188 100.838 452.524 99.2999 453.803C101.276 455.195 103.095 457.406 105.25 457.788C109.887 458.619 114.03 456.43 117.993 454.095C119.419 453.253 122.125 451.929 122.495 452.355C124.314 454.421 123.101 456.609 121.541 458.439C120.598 459.55 119.497 460.527 118.262 461.761Z" fill="black"/>
<path d="M105.093 525.189C98.7722 530.027 91.7104 531.206 84.3229 530.51C80.0005 530.095 77.9459 524.561 80.1577 519.824C83.2788 513.146 86.5796 506.546 89.667 499.845C90.2733 498.521 90.4192 496.904 90.4866 495.412C90.6325 492.19 93.2821 488.621 96.3359 488.329C103.409 487.667 110.505 487.218 117.6 486.702C118.262 486.657 119.06 486.466 119.565 486.746C120.339 487.184 120.923 487.981 121.586 488.621C120.878 489.047 120.216 489.642 119.441 489.856C113.468 491.506 107.473 493.043 101.5 494.693C99.6367 495.21 95.4153 502.55 96.2349 504.144C96.5043 504.683 98.4354 504.907 99.2886 504.537C101.77 503.448 104.049 501.91 106.474 500.709C107.451 500.227 108.641 500.171 109.741 499.924C109.719 501.046 109.977 502.258 109.629 503.257C107.821 508.353 103.117 509.947 98.6712 511.316C93.574 512.899 89.5997 515.009 87.9268 520.621C87.096 523.405 87.4665 524.213 90.1947 524.179C96.0328 524.112 100.95 521.452 105.913 518.803C107.585 517.905 109.382 517.22 111.111 516.435C110.381 518.343 109.898 520.408 108.82 522.103C108.057 523.337 106.496 524.056 105.093 525.189Z" fill="black"/>
<path d="M142.996 519.207C141.693 515.121 140.29 511.182 138.662 507.354C137.854 505.435 136.585 503.706 135.62 501.843C134.104 498.947 135.799 496.837 137.977 495.681C140.357 494.413 141.446 496.512 142.434 498.476C144.916 503.426 148.329 508.05 149.979 513.247C152.617 521.609 151.809 523.248 147.172 525.302C143.714 526.828 139.976 526.727 136.417 524.999C132.678 523.18 128.704 521.665 127.985 516.738C127.918 516.289 127.154 515.941 126.705 515.548C126.088 516.48 125.111 517.355 124.909 518.376C124.426 520.879 124.561 523.517 123.943 525.975C123.539 527.592 122.596 529.5 121.294 530.353C118.622 532.115 115.781 530.229 116.118 526.884C116.96 518.691 117.555 510.362 121.81 502.999C122.652 501.54 124.437 500.631 125.796 499.464C126.829 500.687 128.12 501.787 128.861 503.168C130.354 505.985 131.342 509.06 132.891 511.833C135.081 515.705 138.314 518.433 142.996 519.207Z" fill="black"/>
<path d="M234.373 448.202C235.979 449.807 237.348 451.266 238.83 452.591C239.178 452.905 239.897 452.804 240.447 452.905C240.492 452.344 240.66 451.76 240.559 451.222C239.515 445.553 238.246 439.919 237.449 434.206C237.023 431.197 236.922 428.032 239.74 425.608C241.873 423.767 243.198 423.969 243.871 426.618C244.758 430.12 245.454 433.678 246.139 437.236C247.251 443.028 248.272 448.842 249.35 454.634C249.833 457.215 247.857 460.167 245.072 460.302C240.054 460.549 234.8 461.099 231.701 455.577C231.589 455.375 229.669 455.666 229.478 456.115C228.254 458.921 227.48 461.941 226.121 464.668C225.616 465.667 223.629 466.846 222.809 466.554C221.585 466.116 219.924 464.41 219.98 463.321C220.171 459.707 221.024 456.115 221.675 452.524C222.36 448.696 223.056 444.869 223.842 441.064C224.067 439.997 224.358 438.707 225.099 438.044C226.267 437 228.075 435.541 229.186 435.833C230.545 436.192 231.982 438.022 232.487 439.515C233.385 442.242 233.643 445.16 234.373 448.202Z" fill="black"/>
<path d="M903.733 405.315C904.294 416.617 900.174 425.698 892.719 433.364C891.596 434.52 889.598 435.609 888.138 435.452C886.342 435.261 884.691 433.723 882.985 432.769C884.085 431.602 884.972 429.974 886.319 429.334C893.213 426.057 894.515 419.603 895.717 413.183C897.58 403.238 892.539 395.538 886.937 388.198C883.198 383.304 878.999 378.769 875.238 373.887C874.553 373 874.452 370.553 875.081 370.037C876.024 369.251 878.539 368.813 879.201 369.453C883.625 373.707 888.048 378.028 891.843 382.821C895.93 387.973 900.746 392.777 902.341 399.534C902.767 401.33 903.272 403.115 903.733 405.315Z" fill="black"/>
<path d="M781.638 398.928C778.955 399.197 776.676 399.478 774.397 399.714C772.14 399.949 769.67 399.556 769.872 396.919C769.984 395.381 771.848 393.181 773.375 392.687C778.449 391.06 783.715 389.96 788.947 388.871C795.088 387.591 801.252 386.402 807.438 385.47C808.572 385.302 809.919 386.514 811.177 387.097C810.346 388.377 809.807 390.252 808.628 390.835C805.35 392.485 801.869 393.787 798.366 394.876C795.593 395.74 794.605 397.312 794.325 400.174C793.965 403.878 792.843 407.514 792.147 411.196C791.507 414.53 791.147 417.931 790.373 421.242C789.957 423.004 789.149 424.777 788.06 426.203C787.757 426.596 785.354 426.124 784.703 425.372C781.885 422.084 783.592 418.447 784.411 414.934C785.343 410.938 786.847 406.976 787.094 402.946C787.341 398.513 785.669 397.581 781.638 398.928Z" fill="black"/>
<path d="M277.867 459.37C273.589 464.444 263.339 466.408 259.589 464.399C255.772 462.356 253.493 458.046 255.435 454.028C258.5 447.708 262.239 441.715 265.742 435.609C266.853 433.667 267.864 431.579 269.368 429.985C270.435 428.863 272.253 428.448 273.747 427.729C274.117 429.604 275.262 431.759 274.712 433.308C273.657 436.282 271.973 439.212 269.929 441.625C267.044 445.026 268.953 445.172 271.815 445.217C274.802 445.262 277.822 446.272 278.709 449.067C279.731 452.277 281.381 456.026 277.867 459.37ZM270.491 456.374C271.074 455.621 271.658 454.881 272.242 454.129C271.321 453.814 270.412 453.309 269.458 453.219C267.886 453.062 266.112 452.748 264.765 453.309C263.631 453.769 262.98 455.397 262.115 456.497C263.418 457.148 264.709 458.259 266.034 458.304C267.37 458.36 268.739 457.328 270.491 456.374Z" fill="black"/>
<path d="M731.958 405.517C733.092 410.635 733.687 415.652 735.079 420.445C735.944 423.419 734.226 424.688 732.531 425.776C732.059 426.079 729.511 424.328 728.927 423.06C727.557 420.063 726.636 416.819 725.828 413.609C725.379 411.836 724.503 411.42 723.392 412.554C721.865 414.114 720.675 416.022 719.395 417.818C718.295 419.345 717.441 421.107 716.117 422.375C715.555 422.914 713.804 422.824 713.029 422.33C712.221 421.814 711.469 420.467 711.48 419.502C711.558 415.495 711.895 411.488 712.21 407.492C712.614 402.228 713.366 397.188 717.935 393.507C720.731 391.25 723.661 391.004 726.412 393.608C729.769 396.773 731.195 400.858 731.958 405.517ZM722.179 406.111C722.527 404.596 723.134 403.07 723.089 401.566C723.066 400.937 721.663 400.342 720.899 399.736C720.394 401.307 719.608 402.856 719.53 404.45C719.496 405.09 720.989 405.82 722.179 406.111Z" fill="black"/>
<path d="M603.666 383.775C605.081 383.988 606.911 384.078 606.967 384.449C607.214 385.919 607.472 387.928 606.697 388.95C602.566 394.348 599.388 400.196 597.839 406.807C596.413 412.891 594.976 418.997 594.201 425.181C593.562 430.255 597.143 435.193 601.836 437.27C602.554 437.584 603.06 438.347 603.666 438.909C603.138 439.414 602.689 440.042 602.083 440.413C598.187 442.803 592.102 440.514 589.295 435.654C586.152 430.232 586.342 424.351 587.802 418.694C590.104 409.748 592.641 400.825 595.919 392.216C597.177 388.927 600.758 386.559 603.666 383.775Z" fill="black"/>
<path d="M684.276 28.7297C684.546 33.803 685.309 38.506 684.95 43.1304C684.434 49.8537 681.885 52.4128 676.081 51.8628C671.915 51.47 670.299 48.1925 669.198 45.0048C667.357 39.6396 666.111 34.0612 664.562 28.5838C663.708 25.5644 665.101 23.3757 667.728 22.8145C668.682 22.6125 670.916 24.9359 671.376 26.4736C672.791 31.2439 673.599 36.1938 674.733 41.0427C674.891 41.7274 675.609 42.2886 676.069 42.9059C676.406 42.2437 677.057 41.5814 677.035 40.9417C676.878 37.1928 676.765 33.4214 676.227 29.7174C675.676 25.9461 678.203 20.1319 681.739 18.0891C683.794 16.8993 685.074 17.584 685.017 19.885C684.961 22.7135 684.535 25.5195 684.276 28.7297Z" fill="black"/>
<path d="M158.961 526.783C157.299 523.338 155.424 520.206 154.492 516.816C153.65 513.763 153.886 510.43 153.56 507.22C153.269 504.458 154.548 502.326 157.03 502C159.354 501.697 159.949 503.83 160.005 506.052C160.072 508.87 160.51 511.676 160.746 514.493C160.824 515.413 160.488 516.468 160.824 517.254C161.274 518.298 162.194 519.128 162.913 520.049C163.261 518.994 163.766 517.972 163.923 516.884C164.754 510.968 165.192 504.986 166.427 499.161C166.932 496.77 168.987 494.637 170.57 492.561C171.052 491.932 172.579 491.405 173.152 491.708C173.814 492.067 174.331 493.436 174.263 494.3C173.814 499.654 173.242 504.997 172.602 510.329C172.209 513.584 171.569 516.816 171.142 520.071C170.289 526.615 164.136 530.184 158.961 526.783Z" fill="black"/>
<path d="M867.828 390.15C870.804 392.766 869.254 394.988 867.11 396.447C864.595 398.153 861.62 399.163 858.88 400.544C858.072 400.959 857.387 401.633 856.646 402.183C857.432 402.688 858.162 403.361 859.015 403.687C863.382 405.326 867.806 406.818 872.162 408.48C875.687 409.827 876.788 413.082 875.598 415.955C874.497 418.626 872.083 421.522 869.524 422.6C867.009 423.655 863.506 422.847 860.587 422.207C859.588 421.994 859.015 419.827 858.252 418.548C859.543 417.863 860.767 416.954 862.147 416.539C863.248 416.213 864.539 416.606 865.707 416.426C866.661 416.28 867.548 415.775 868.468 415.427C867.682 414.709 867.009 413.643 866.077 413.34C863.843 412.599 861.44 412.386 859.217 411.634C856.904 410.848 854.749 409.602 852.47 408.715C848.933 407.346 848.417 404.641 850.168 401.947C854.221 395.718 859.767 391.318 867.828 390.15Z" fill="black"/>
<path d="M200.456 426.652C202.993 426.315 205.34 426.023 207.664 426.136C208.551 426.18 210.066 427.191 210.078 427.785C210.089 428.796 209.292 430.592 208.573 430.726C201.399 432.096 200.636 436.271 202.073 442.658C203.207 447.675 202.982 453.04 202.892 458.237C202.87 459.494 201.085 461.559 199.906 461.716C198.682 461.874 196.448 460.437 196.021 459.213C195.19 456.868 195.258 454.174 195.078 451.626C194.764 447.349 194.607 443.062 194.236 438.796C194.023 436.316 192.53 435.575 190.116 436.125C188.746 436.439 187.129 436.731 185.872 436.305C184.278 435.766 182.942 434.486 181.505 433.521C182.549 432.511 183.424 430.94 184.648 430.592C189.801 429.166 195.045 428.077 200.456 426.652Z" fill="black"/>
<path d="M743.331 410.107C743.713 416.404 748.035 418.963 753.435 416.483C754.435 416.022 755.366 415.338 756.41 415.046C757.039 414.866 758.117 414.99 758.476 415.416C758.847 415.854 758.701 416.831 758.611 417.549C757.791 423.475 752.256 426.641 744.173 424.239C739.11 422.735 735.842 418.346 736.83 410.489C737.448 405.595 739.02 401.352 741.725 397.368C743.387 394.91 745.352 392.811 748.54 393.45C751.661 394.079 755.142 398.962 754.356 401.947C753.929 403.552 752.144 405.517 750.595 405.943C747.799 406.718 748.215 404.147 748.091 402.362C748.046 401.734 747.597 401.139 747.339 400.533C746.542 401.027 745.239 401.364 745.026 402.048C744.252 404.529 743.859 407.144 743.331 410.107Z" fill="black"/>
<path d="M185.502 509.038C185.502 514.47 185.367 519.51 185.558 524.538C185.67 527.378 184.267 529.533 181.943 529.567C179.585 529.601 178.282 527.412 178.26 524.617C178.193 518.758 177.71 512.91 177.586 507.051C177.553 505.626 177.957 503.976 178.732 502.808C179.327 501.91 180.809 501.226 181.909 501.192C182.627 501.17 183.683 502.393 184.042 503.268C184.727 504.975 185.03 506.838 185.502 509.038Z" fill="black"/>
<path d="M209.438 456.374C209.55 451.345 209.528 446.71 209.819 442.085C209.954 440.009 210.426 437.854 211.268 435.957C211.672 435.036 213.581 433.925 214.277 434.195C215.31 434.61 216.522 436.193 216.522 437.27C216.488 442.893 216.185 448.517 215.804 454.14C215.579 457.44 213.637 458.731 210.583 457.844C210.123 457.732 209.808 457.148 209.438 456.374Z" fill="black"/>
<path d="M708.213 413.295C707.685 415.865 707.517 418.234 706.495 420.142C705.709 421.612 703.61 423.644 702.509 423.419C700.488 423.015 699.781 421.208 700.713 418.559C701.589 416.079 700.792 413.059 701.084 410.309C701.375 407.582 701.701 404.72 702.779 402.262C703.408 400.814 705.529 400.028 706.989 398.939C707.663 400.78 708.808 402.598 708.909 404.462C709.055 407.245 708.482 410.085 708.213 413.295Z" fill="black"/>
<path d="M215.22 419.075C216.286 418.076 217.106 416.696 218.026 416.617C219.385 416.505 221.372 416.92 222.079 417.863C223.348 419.558 221.765 424.923 220.148 425.181C218.33 425.473 216.073 425.866 215.59 423.026C215.377 421.78 215.208 420.523 215.22 419.075Z" fill="black"/>
<path d="M189.487 489.889C189.016 491.023 188.713 492.01 188.039 492.437C186.781 493.234 184.929 494.57 184.02 494.154C181.572 493.054 181.55 490.215 182.796 488.475C183.795 487.083 186.209 486.713 187.994 485.893C188.488 487.094 188.993 488.295 189.487 489.889Z" fill="black"/>
<path d="M707.213 390.757C705.574 390.319 703.823 389.96 702.835 388.905C702.397 388.433 703.183 386.233 704.002 385.358C704.833 384.471 706.383 384.269 707.618 383.775C707.82 384.83 708.201 385.908 708.157 386.952C708.112 388.164 707.685 389.354 707.213 390.757Z" fill="black"/>
<path d="M241.356 402.127C241.356 402.655 241.042 403.451 240.514 403.631C240.144 403.754 239.493 403.047 238.965 402.711C239.627 402.52 240.301 402.318 241.356 402.127Z" fill="black"/>
<path d="M310.19 56.0607C312.648 50.9536 314.568 45.8466 317.341 41.2447C318.453 39.4039 321.473 37.7315 323.606 37.7651C326.177 37.7988 328.187 40.1559 328.344 43.2426C328.602 48.2262 328.872 53.1985 329.141 58.1821C329.164 58.5749 328.973 59.1024 329.164 59.3606C332.678 64.1421 329.343 70.1359 331.97 75.0746C332.195 75.5011 332.397 76.0735 332.296 76.5113C331.914 78.1612 331.398 79.7663 330.926 81.3938C329.265 80.2489 327.457 79.2724 325.997 77.9143C325.167 77.1398 324.673 75.8041 324.414 74.6368C323.92 72.4144 323.045 72.6726 321.181 73.2899C319.531 73.8287 316.309 73.8287 315.871 72.9868C314.557 70.4389 316.219 67.9584 318.711 67.1502C321.945 66.1064 322.82 64.2319 322.809 61.1116C322.798 57.3739 323.359 53.6362 323.494 49.8873C323.539 48.821 322.989 47.7323 322.708 46.6548C321.922 47.418 320.799 48.0466 320.406 48.9669C318.419 53.726 316.657 58.5637 314.759 63.3564C312.132 69.9675 309.516 76.5898 306.687 83.1111C306.384 83.807 304.587 84.3907 303.689 84.1662C301.096 83.5264 300.063 81.3938 300.456 78.9245C301.051 75.1082 301.893 71.3144 302.858 67.5768C303.15 66.4319 304.004 65.0289 305.003 64.5574C308.584 62.8289 309.404 59.6524 310.19 56.0607Z" fill="black"/>
<path d="M406.552 45.4875C405.699 45.6783 405.182 45.7793 404.8 46.0599C402.757 47.6201 400.748 49.2364 398.727 50.8302C400.995 51.4363 403.319 51.9078 405.53 52.6935C408.999 53.9281 412.457 55.2077 415.781 56.7791C418.834 58.2158 418.846 64.5014 415.579 67.7339C410.841 72.4257 395.931 75.546 389.678 68.0819C389.094 67.386 388.824 66.4432 388.409 65.6126C389.341 65.2871 390.25 64.7371 391.193 64.6697C396.122 64.3218 401.062 64.1197 406.002 63.8055C406.574 63.7718 407.192 63.4238 407.675 63.0759C408.606 62.3912 409.46 61.5943 410.335 60.8423C409.28 60.5055 408.236 60.0678 407.158 59.8657C403.566 59.2035 399.849 59.0127 396.38 57.9576C390.699 56.2179 388.611 50.3588 392.428 45.8467C396.369 41.1774 401.556 37.8774 408.023 37.5519C408.966 37.507 410.201 37.7315 410.841 38.3264C412.222 39.606 413.311 41.1998 414.523 42.6702C412.951 43.3437 411.391 44.062 409.797 44.6793C408.887 45.0273 407.91 45.2181 406.552 45.4875Z" fill="black"/>
<path d="M340.514 50.471C343.59 46.2844 347.812 44.6793 352.404 43.9161C358.253 42.9396 362.059 47.4293 361.161 53.3781C360.487 57.879 359.903 61.9534 355.345 64.5238C352.695 66.0166 351.741 64.4228 350.304 63.0646C349.743 62.5371 349.002 62.2004 348.351 61.7851C348.07 62.5932 347.598 63.3901 347.542 64.2207C347.205 68.6094 347.149 73.0318 346.61 77.398C346.442 78.7898 345.33 80.8888 344.275 81.1469C343.197 81.4163 341.233 80.1367 340.402 78.9919C336.618 73.795 336.652 67.689 337.359 61.729C337.797 57.9913 339.29 54.3546 340.514 50.471ZM351.494 52.2669C350.327 52.9291 349.024 53.4455 348.036 54.3097C347.374 54.8934 346.678 56.0832 346.846 56.7903C347.003 57.4188 348.541 58.3392 349.103 58.1372C350.798 57.4974 352.505 56.5995 353.818 55.376C354.627 54.624 354.728 53.0975 355.143 51.919C354.054 51.9077 352.976 51.8965 351.494 52.2669Z" fill="black"/>
<path d="M364.259 72.6165C364.563 66.0616 363.709 59.5291 365.517 53.8496C367.324 48.1701 371.939 43.2202 378.54 42.1876C380.999 41.806 384.086 42.8835 386.309 44.2416C388.375 45.4987 387.993 47.9905 387.713 50.6394C387.208 55.3761 386.803 59.8433 382.93 63.0422C381.033 64.6136 378.843 65.9493 376.576 66.8922C375.835 67.1952 374.454 65.8708 373.342 65.3657C372.68 65.0626 371.95 64.883 371.254 64.6473C371.052 65.3208 370.681 65.9942 370.67 66.6677C370.614 70.2482 370.726 73.84 370.591 77.4205C370.547 78.4756 369.884 79.497 369.514 80.5408C368.514 80.1143 367.01 79.9572 366.606 79.2164C365.562 77.2746 365.012 75.0971 364.259 72.6165ZM382.616 49.8762C381.965 49.7303 381.044 49.2364 380.696 49.4946C378.338 51.3017 375.992 53.1425 373.903 55.2414C373.196 55.9597 373.252 57.4413 372.96 58.5638C374.409 58.227 376.306 58.3617 377.215 57.475C379.27 55.4771 380.842 52.9741 382.616 49.8762Z" fill="black"/>
</g>
<defs>
<filter id="filter0_d" x="0" y="0" width="909.783" height="543.131" filterUnits="userSpaceOnUse" color-interpolation-filters="sRGB">
<feFlood flood-opacity="0" result="BackgroundImageFix"/>
<feColorMatrix in="SourceAlpha" type="matrix" values="0 0 0 0 0 0 0 0 0 0 0 0 0 0 0 0 0 0 127 0"/>
<feOffset dy="6"/>
<feGaussianBlur stdDeviation="3"/>
<feColorMatrix type="matrix" values="0 0 0 0 0 0 0 0 0 0 0 0 0 0 0 0 0 0 0.4 0"/>
<feBlend mode="normal" in2="BackgroundImageFix" result="effect1_dropShadow"/>
<feBlend mode="normal" in="SourceGraphic" in2="effect1_dropShadow" result="shape"/>
</filter>
</defs>
</svg>
