<svg width="744" height="569" viewBox="0 0 744 569" fill="none" xmlns="http://www.w3.org/2000/svg">
<g filter="url(#filter0_d)">
<path d="M55.21 116.2C45.71 123.85 35.04 128.41 23.44 130.63C10.42 133.13 0.799991 121.99 0.0899912 111.83C-0.740009 100.04 4.16999 89.7202 8.07999 79.1702C11.32 70.4402 16.12 62.4702 21.81 55.1202C27.09 48.3002 32.14 41.2402 40.16 37.1102C42.99 35.6602 45.14 36.6202 46.05 38.8702C46.84 40.8202 47.1 44.0802 45.99 45.4802C43.64 48.4302 40.05 50.3702 37.29 53.0402C30.53 59.5902 25.55 67.4502 20.98 75.6302C15.31 85.7802 12.18 96.7802 9.42999 107.95C7.66999 115.07 12.75 121.51 20.21 121.4C30.65 121.24 39.81 117.29 47.96 111.03C53.05 107.12 57.14 102.28 59.7 96.2802C61.24 92.6602 60.88 91.6102 57.41 92.1802C53.43 92.8302 49.35 93.9002 45.77 95.7102C41.47 97.8902 37.73 101.15 33.62 103.74C30.99 105.4 27.91 107.94 25.06 104.8C22.69 102.18 23.98 99.3502 26.4 96.9102C36.34 86.8502 46.86 77.9202 62.27 79.0402C64.37 79.1902 66.36 80.8902 68.41 81.8602C69.02 82.1502 69.65 82.3702 70.27 82.6202C70.34 81.9602 70.42 81.3002 70.49 80.6502C71.27 73.4502 73.08 66.6502 78.91 61.7902C79.73 61.1002 81.62 61.6702 83.02 61.7102C84.45 61.7502 86.01 62.2602 87.29 61.8502C92.4 60.2402 97.4 58.2702 102.51 56.6302C105.01 55.8302 107.57 58.0902 106.69 60.5802C105.92 62.7702 104.41 65.2102 102.51 66.4102C98.19 69.1502 93.41 71.1402 88.89 73.5702C88.11 73.9902 87.69 75.0602 87.1 75.8302C88.17 75.8302 89.36 76.1302 90.3 75.7802C94.2 74.3302 98.03 72.6702 101.89 71.1002C104.46 70.0602 105.57 71.8502 105.15 73.6602C104.2 77.7402 102.86 81.5402 98.19 83.4802C93.13 85.5802 88.55 88.7902 83.63 91.2502C79.31 93.4102 79.99 97.4402 80.81 100.51C81.39 102.69 84.24 104.97 86.58 105.82C92.67 108.04 98.06 104.94 103.23 102.15C106.63 100.32 109.9 98.1902 112.96 95.8402C114.13 94.9502 114.9 93.1802 115.26 91.6702C116.46 86.6002 116.93 81.3102 118.58 76.4002C119.64 73.2502 121.59 69.6902 125.87 69.7002C130.23 69.7202 131.85 73.4202 132.97 76.6102C134.52 81.0202 135.15 85.7602 136.2 90.3502C136.41 91.2802 136.52 92.3202 137 93.1002C138.17 94.9702 139.62 94.9802 140.79 93.0902C141.28 92.3102 141.52 91.2802 141.57 90.3402C142.13 80.3802 142.6 70.4102 143.17 60.4502C143.27 58.7402 143.3 56.8702 144.03 55.4202C144.64 54.2302 146.78 52.5302 147.32 52.8202C149.23 53.8402 151.3 55.2902 152.32 57.1302C155.53 62.9202 154.71 69.2402 153.92 75.4802C153.17 81.3502 152.4 87.2202 151.65 93.0902C151.04 97.9002 149.88 102.39 145.23 105.06C142.17 106.82 139.38 107.63 136.21 104.94C133.09 102.3 128.93 100.76 128.09 96.0102C127.99 95.4702 126.89 95.1002 126.25 94.6502C125.96 95.3002 125.43 95.9502 125.41 96.6102C125.33 100.34 125.61 104.1 125.26 107.81C125.1 109.47 124.03 111.28 122.83 112.48C122.39 112.92 120.29 111.97 119.11 111.34C115.45 109.38 115 105.99 115.28 102.29C115.32 101.73 114.78 101.14 114.51 100.56C114.02 100.93 113.22 101.22 113.09 101.69C110.68 110.62 102.94 113.32 95.63 115.9C83.99 120.01 71.63 111.51 70.46 99.2102C70.4 98.6102 69.95 98.0502 69.68 97.4702C69.18 97.8102 68.33 98.0702 68.22 98.5202C66.28 106.07 60.55 110.82 55.21 116.2ZM63.91 90.5002C64.89 91.2302 65.82 92.0502 66.89 92.6202C67.23 92.8002 67.95 92.3702 68.43 92.1202C68.58 92.0402 68.69 91.4502 68.58 91.3602C67.12 90.0702 65.92 87.5702 63.91 90.5002Z" fill="black"/>
<path d="M432.79 54.3701C431.95 56.3601 431.08 58.5001 430.71 60.7201C429.85 65.8501 429.57 70.9901 426.13 75.4801C422.33 80.4401 418.01 82.9801 413 82.0001C408.64 81.1501 403.49 74.8701 402.84 69.6301C402.33 65.5901 401.17 61.5101 401.46 57.5301C401.81 52.6301 403.06 47.7201 404.54 43.0101C405.12 41.1601 407.49 39.1401 409.74 40.4301C411.04 41.1701 411.9 43.5901 412 45.3001C412.17 48.3901 411.28 51.5301 411.42 54.6301C411.66 59.7101 412.2 64.8001 413.03 69.8101C413.21 70.9301 415 72.2101 416.27 72.5401C416.96 72.7201 418.67 71.2001 418.98 70.1601C420.24 66.0201 421.19 61.7801 422.15 57.5601C423.58 51.3201 424.98 45.0701 426.29 38.8001C426.64 37.1001 426.91 35.3101 426.74 33.6001C426.44 30.4501 428.55 28.9801 430.79 28.9001C431.99 28.8601 433.89 31.1501 434.37 32.7301C434.99 34.7701 434.4 37.1601 434.57 39.3801C434.66 40.6701 435.21 41.9301 435.55 43.2101C436.87 42.7501 438.5 42.6401 439.45 41.7801C442.68 38.8601 445.46 35.4301 448.83 32.7001C450.79 31.1101 453.46 30.1601 455.96 29.5301C458.41 28.9201 461.3 31.8501 461.57 34.7201C462.03 39.6201 461.12 44.2501 458.97 48.7101C457.27 52.2401 455.61 55.8401 454.4 59.5601C453.85 61.2701 453.85 64.6601 454.61 64.9901C456.42 65.7801 459.23 65.9401 460.9 65.0201C463.27 63.7201 464.99 61.2301 466.93 59.2101C467.13 59.0101 466.81 58.3001 467.01 58.1101C472.99 52.4501 472.71 43.9001 476.63 37.3701C479.28 32.9501 482.37 28.4101 488.01 27.1401C493.61 25.8901 497.4 28.0901 499.25 33.5101C499.72 34.8701 499.87 37.4301 500.38 37.4901C502.33 37.7001 504.41 37.3001 506.35 36.7901C510.04 35.8201 513.93 34.2801 517.11 37.2701C519.39 39.4201 521.15 42.3001 522.56 45.1501C524.4 48.8701 526.51 52.7901 526.9 56.7901C527.23 60.2501 525.82 64.1601 524.23 67.4101C523.16 69.6001 520.67 71.4001 518.41 72.6401C513.63 75.2801 503.38 69.5301 502.6 64.9401C501.63 59.2401 501.03 53.4801 500.21 47.7501C500.11 47.0301 499.67 46.3601 499.38 45.6701C498.89 46.2901 498.25 46.8401 497.94 47.5301C495.37 53.3701 492.74 59.0201 485.49 60.5401C484.81 60.6801 484.06 63.5201 484.39 64.8501C485.35 68.7801 486.66 72.6401 488.15 76.4101C489.32 79.3801 488.38 81.7901 486.1 83.1801C484.11 84.3901 481.99 83.5101 480.06 81.6701C476.05 77.8601 476.8 72.4201 474.74 67.9901C474.64 67.7801 474.8 67.4501 474.72 67.2301C474.18 65.7801 473.6 64.3501 473.03 62.9101C472.3 64.0001 471.74 65.2601 470.82 66.1501C467.46 69.4001 464.29 72.9501 460.48 75.5801C456.39 78.4001 449.42 75.1001 446.9 72.3001C446.5 71.8601 445.95 71.5501 445.47 71.1801C445.18 71.7301 444.76 72.2601 444.61 72.8501C444.07 74.9501 444.03 77.3201 442.97 79.1001C442.42 80.0301 439.87 80.6501 438.75 80.1701C437.33 79.5701 435.63 77.8101 435.45 76.3801C434.62 69.9401 434.3 63.4301 433.74 56.9501C433.66 56.1401 433.24 55.3601 432.79 54.3701ZM518 61.5201C516.45 56.5401 514.98 51.5301 513.28 46.5901C513.02 45.8401 511.72 45.4501 510.89 44.9001C510.42 45.9401 509.49 47.0201 509.58 48.0101C509.87 51.3901 510.61 54.7401 511.02 58.1201C511.52 62.1701 514.94 64.2701 518 61.5201ZM483.22 50.7001C486.97 51.6201 488.5 48.5301 489.69 46.3001C490.96 43.9201 490.93 40.8501 491.46 38.0801C490.8 38.0401 490.02 37.7501 489.49 37.9901C486.21 39.4801 482.58 46.3201 483.22 50.7001ZM444.19 51.8601C443.8 54.2601 443.37 56.6601 443.08 59.0801C443.03 59.4701 443.55 60.2201 443.91 60.2901C444.33 60.3701 445.15 60.0301 445.31 59.6601C447.16 55.4301 448.98 51.1801 450.64 46.8701C450.87 46.2601 450.24 45.3201 450.01 44.5401C449.38 44.9001 448.52 45.1101 448.15 45.6601C446.86 47.5301 445.75 49.5201 444.19 51.8601Z" fill="black"/>
<path d="M535.768 464.136C539.198 464.866 542.218 465.776 545.298 466.276C552.208 467.386 557.888 471.076 563.198 475.176C565.688 477.096 567.448 480.246 568.908 483.156C570.338 485.996 571.918 486.346 574.488 485.016C584.978 479.576 595.488 474.186 605.978 468.766C606.518 468.486 607.028 468.146 607.488 467.756C610.738 465.066 612.708 464.966 614.408 467.416C616.658 470.656 616.278 475.466 613.518 477.166C611.278 478.546 608.968 479.816 606.608 480.996C596.698 485.966 586.838 491.046 576.798 495.736C573.338 497.346 572.158 499.696 572.078 503.146C571.818 515.046 568.868 526.396 561.878 535.936C554.068 546.606 543.618 553.876 530.028 556.226C521.488 557.706 514.048 555.306 506.338 552.336C495.538 548.186 490.148 539.556 487.268 529.396C485.168 521.976 485.888 514.036 487.888 506.496C490.038 498.386 492.488 490.296 497.928 483.656C500.908 480.026 504.288 476.706 507.638 473.396C508.858 472.186 508.538 471.756 507.288 471.066C506.628 470.696 505.598 469.756 505.718 469.486C506.088 468.626 506.778 467.536 507.578 467.296C511.478 466.106 515.408 464.656 519.418 464.266C524.698 463.756 530.058 464.136 535.768 464.136ZM560.498 485.396C558.588 482.706 557.178 479.356 554.668 477.466C548.118 472.536 540.258 470.726 532.178 470.396C528.178 470.236 524.158 470.936 520.138 471.066C517.048 471.166 516.918 471.086 518.028 473.996C519.348 477.466 518.108 479.216 515.088 481.296C511.028 484.076 507.078 487.486 504.208 491.446C497.098 501.276 493.508 512.216 495.498 524.676C496.798 532.806 500.348 539.176 507.738 542.936C515.198 546.726 523.268 547.316 531.198 545.196C542.198 542.246 551.558 536.376 556.508 525.706C559.558 519.146 561.308 511.986 563.558 505.076C563.768 504.446 563.408 503.626 563.308 502.896C562.428 503.196 561.398 503.296 560.698 503.826C553.118 509.516 545.528 515.176 538.088 521.046C534.728 523.696 526.708 523.676 524.968 520.586C521.138 513.746 520.168 506.216 520.468 498.576C520.528 497.116 522.438 495.356 523.928 494.516C524.448 494.226 526.898 496.056 527.418 497.336C528.718 500.536 529.378 503.986 530.388 507.316C530.648 508.186 531.068 509.236 531.748 509.666C532.158 509.926 533.298 509.266 533.988 508.816C541.808 503.746 549.498 498.456 557.448 493.606C561.848 490.896 562.278 490.716 560.498 485.396Z" fill="#25A78B"/>
<path d="M585.05 353.49C580.44 352.39 579.95 351.65 580.6 347.01C580.91 344.77 580.18 344.03 577.81 344.76C571.95 346.56 566.41 342.47 566.78 336.31C567.08 331.3 568.22 326.35 568.81 321.36C568.94 320.27 568.33 319.09 568.06 317.96C567.26 318.37 566.42 318.72 565.65 319.19C559.41 323.08 561.4 329 562.19 334.41C562.74 338.18 564.15 341.82 565.13 345.53C565.92 348.51 563.73 350.21 561.79 351.34C560.91 351.85 558.06 350.79 557.54 349.73C555.39 345.36 553.14 340.87 552.16 336.16C550.67 329.03 546.42 325.75 539.39 327.86C537.71 328.36 535.9 329.3 536.52 331.91C537.78 337.2 539.03 342.51 539.92 347.87C540.31 350.22 540.35 352.9 539.54 355.06C539.04 356.39 536.13 358.13 535.2 357.71C533.04 356.72 530.49 354.86 529.78 352.77C528.15 347.99 527.64 342.84 526.46 337.89C525.63 334.41 524.31 331.04 523.47 327.55C523.11 326.05 523.09 324.31 523.47 322.81C524.29 319.58 525.54 316.46 526.48 313.25C529.85 301.75 536.68 293.32 548.13 289.19C551.96 287.81 555.99 286.97 559.98 286.09C561.99 285.64 564.1 286.26 564.27 288.58C564.44 291 565.48 294.01 561.89 295.35C558.1 296.77 554.37 298.34 550.67 299.97C544.51 302.68 540.39 307.58 536.95 313.13C535.86 314.89 536.69 316.21 538.64 316.13C542.96 315.96 547.2 315.74 551.34 317.59C551.99 317.88 553.66 316.42 554.58 315.49C556.43 313.62 557.94 311.41 559.84 309.59C563.12 306.45 567.22 306.19 571.3 307.33C575.8 308.58 576.88 312.26 577.66 316.52C578.6 321.68 577.17 326.33 576.15 331.16C575.95 332.12 576.2 333.5 576.8 334.19C577.14 334.58 578.64 334.02 579.59 333.81C580.04 333.71 580.44 333.24 580.88 333.22C588.6 332.97 588.63 326.44 590.7 321.44C593.35 315.07 596 308.65 599.31 302.61C600.75 299.98 603.63 297.94 606.22 296.17C609.18 294.15 612.08 295.18 613.72 299.45C615.78 304.8 617.85 310.42 618.24 316.05C618.7 322.69 620.43 328.67 623.05 334.62C623.72 336.14 623.94 338.01 623.82 339.68C623.57 343.15 621.48 343.97 618.27 342.76C615.36 341.66 612.21 341.19 609.15 340.51C606.68 339.96 603.89 338.96 604.02 336.36C604.12 334.38 605.9 331.85 607.67 330.74C609.85 329.38 610.17 327.92 609.97 325.84C609.46 320.51 608.97 315.19 608.38 309.87C608.32 309.37 607.47 308.48 607.31 308.54C606.59 308.84 605.63 309.28 605.38 309.92C602.46 317.34 599.66 324.81 596.83 332.27C594.68 337.95 592.78 343.74 590.25 349.24C589.4 351.1 586.96 352.22 585.05 353.49Z" fill="black"/>
<path d="M594.71 434.65C585.86 437.22 574.51 427.63 578.08 416.51C580.67 408.45 582.59 400.03 586.26 392.48C589.28 386.26 593.21 379.68 601.12 378.1C603.02 377.72 605.38 377.94 607.11 378.77C615.49 382.77 621.16 395.17 615.44 404.16C612.15 409.33 608.16 410.66 605.03 406.34C603.52 404.26 604.02 400.61 603.94 397.67C603.91 396.45 605.11 395.23 605.14 393.99C605.19 392.35 604.65 390.69 604.36 389.04C602.86 389.65 600.86 389.84 599.95 390.94C597.49 393.93 594.75 397.02 593.46 400.57C591 407.31 589.23 414.33 587.68 421.34C587.04 424.23 589.19 426.05 592.23 425.93C602.78 425.5 611.15 420.78 617.7 412.66C620.8 408.81 623.82 404.91 626.81 400.97C627.52 400.03 628.44 398.88 628.45 397.83C628.5 392.73 631.97 390.3 635.72 388.11C638.43 386.53 643.44 387.28 645.95 389.74C647.8 391.56 649.42 393.65 650.91 395.79C652.39 397.91 652.25 397.83 654.08 395.72C657.56 391.7 660.8 387.41 667.04 387.25C674.72 387.05 679.72 391.18 683.29 397.1C685.71 401.13 687.51 405.72 688.63 410.29C689.28 412.96 688.55 416.29 687.55 418.99C684.31 427.73 673.98 433.2 664.94 431.39C664.44 431.29 663.91 431.36 663.4 431.38C655.92 431.74 654.36 430.45 653.25 423.11C653.09 422.06 652.65 421.04 652.34 420.01C651.7 420.75 651.11 421.53 650.42 422.22C646.2 426.44 642.04 430.53 636.48 433.3C629.34 436.85 622.16 430.66 621.58 424.35C621.53 423.84 621.61 423.32 621.57 422.81C621.49 421.82 621.37 420.84 621.26 419.85C620.36 420.44 619.39 420.94 618.59 421.64C611.63 427.64 604.3 432.95 594.71 434.65ZM662.15 413.58C662.28 414.81 662.49 416.04 662.52 417.27C662.66 422.3 664.82 424.45 669.67 423.57C677.68 422.12 680.64 419.24 677.93 410.49C677.06 407.69 675.37 405.15 674.21 402.42C672.79 399.08 669.75 397.74 666.85 398.32C663.6 398.97 661.15 401.33 661.7 405.51C662.04 408.03 661.76 410.63 662.15 413.58ZM642.83 418.99C645.8 414.95 645.54 402.77 641.83 399.72C640.22 398.4 637.26 398.73 634.91 398.31C634.84 399.74 634.82 401.18 634.7 402.61C634.61 403.71 634.44 404.81 634.26 405.9C633.39 411.2 632.27 416.48 631.71 421.81C631.41 424.67 633.47 425.83 635.98 424.33C638.3 422.96 640.3 421.06 642.83 418.99Z" fill="black"/>
<path d="M218.88 186.34C220.33 180.13 218.39 173.74 221.88 168.26C222.27 167.65 222.47 166.76 223.01 166.45C223.92 165.93 225.04 165.77 226.07 165.47C226.25 166.27 226.4 167.07 226.62 167.86C226.97 169.13 227.38 170.38 227.76 171.64C228.41 170.5 228.92 169.25 229.73 168.25C231.79 165.72 233.64 162.8 236.23 160.96C239.75 158.46 244.25 160.24 246.68 164.57C248.14 167.16 249.58 169.83 250.49 172.64C251.3 175.14 252.3 175.16 254.21 173.99C260.92 169.89 266.73 164.82 271.46 158.51C273.1 156.32 274.8 154.16 276.71 152.21C277.41 151.49 279.08 150.85 279.76 151.21C280.63 151.67 281.32 153.15 281.42 154.25C281.7 157.36 280.87 160.05 279.41 163.06C276.78 168.48 275.42 174.55 273.83 180.43C273.16 182.92 273.09 185.6 273.02 188.21C272.9 193.12 274.27 195.18 279.2 195.51C285.82 195.95 292.12 194.38 297.16 189.58C297.61 189.16 297.84 188.5 298.17 187.96C297.38 187.68 296.48 187.01 295.84 187.2C294.26 187.68 292.88 188.83 291.29 189.24C288.35 190 285.35 190.62 282.34 190.88C281.37 190.96 279.94 189.96 279.39 189.05C279.07 188.52 279.83 186.94 280.52 186.26C282.94 183.87 285.7 181.81 288.04 179.35C291.56 175.67 296 176.06 300.32 176.37C304.09 176.64 305.58 179.82 306.16 182.93C307.45 189.86 305.05 196.12 299.26 199.59C290.63 204.77 281.04 207.52 271.19 202.5C266.44 200.08 263.02 196.23 263.77 190.31C264.38 185.46 265.35 180.66 266.09 175.83C266.21 175.06 265.96 174.23 265.89 173.42C265.17 173.85 264.29 174.14 263.76 174.74C261.6 177.16 259.68 179.8 257.44 182.14C253.47 186.29 253.4 189.24 257.46 193.59C260.69 197.06 260.86 198.65 257.56 201.22C256.58 201.99 254.06 202.2 253.24 201.5C250.8 199.41 248.37 197.01 246.88 194.22C245.61 191.84 244.36 190.97 242.19 192.13C240.01 193.29 237.29 194.33 238.56 197.96C239.45 200.5 239.85 203.29 236.84 204.87C233.34 206.7 229.88 204.97 228.94 198.73C228.67 196.91 228.5 195.06 228.13 193.26C227.97 192.47 227.41 191.76 227.04 191.01C226.64 191.73 226.1 192.4 225.87 193.16C223.54 201.08 218.17 205.47 210.23 207.25C202.82 208.91 195.96 203.78 196.59 196.18C197.09 190.12 198.27 184.08 199.71 178.16C200.28 175.83 202.15 173.68 203.84 171.82C204.57 171.02 206.4 170.83 207.61 171.02C208.16 171.11 208.88 172.88 208.77 173.8C208.36 177.44 207.6 181.03 207.06 184.66C206.57 187.95 205.85 191.27 205.94 194.55C205.97 195.71 208.1 197.73 209.32 197.76C214.01 197.91 218.45 195.09 218.88 186.34ZM241.29 175.14C241.11 174.7 240.94 174.26 240.74 173.83C240.3 172.86 239.84 171.89 239.38 170.92C238.73 171.91 237.84 172.83 237.47 173.92C236.78 175.96 236.21 178.08 236 180.21C235.95 180.72 237.63 182.03 238.27 181.89C242.29 181 242.77 179.86 241.29 175.14Z" fill="black"/>
<path d="M316.46 91.8501C313.69 89.7001 310.9 87.9701 308.58 85.7401C304.1 81.4401 306.94 76.2001 307.25 71.3301C307.38 69.2301 307.88 67.1501 308.21 65.0501C306.24 65.5401 304.18 65.8101 302.33 66.5801C298.38 68.2301 294.44 69.9601 290.71 72.0501C289.59 72.6801 288.68 74.5101 288.52 75.8901C287.61 83.5901 289.22 90.8701 293.47 97.3301C295.48 100.38 293.41 101.61 291.71 102.97C289.82 104.48 287.79 104 286.5 102.03C283.19 96.9701 280.26 91.7301 279.91 85.4501C279.79 83.2301 279.49 81.0201 279.12 78.8201C278.99 78.0301 278.4 77.3301 278.01 76.5801C277.36 77.3301 276.29 78.0201 276.17 78.8501C276.01 79.9701 276.19 81.6201 276.92 82.3001C279.73 84.9301 278.07 86.9401 276.04 88.4401C273.76 90.1201 271.1 90.8401 268.71 88.1901C267.74 87.1101 266.57 86.1901 265.5 85.2001C265.67 86.8601 266 88.5201 265.98 90.1801C265.95 93.6401 265.86 97.1201 265.47 100.55C265.4 101.15 263.19 102.22 262.9 101.97C260.72 100.11 257.29 98.1701 257 95.9001C255.65 85.5201 254.98 74.9701 258.39 64.8001C259.59 61.2201 261.41 57.6601 263.72 54.6901C268.22 48.9001 276.65 47.7901 282.26 56.4301C285.8 61.8801 285.67 61.5201 291.87 58.9901C297.52 56.6801 303.06 53.7001 309.57 54.1001C314.27 54.3901 317.53 57.0801 318.65 61.5801C319.76 66.0601 319.17 70.2701 317.92 74.5801C316.52 79.4001 319.12 81.3201 324.35 80.6101C330.71 79.7501 336.6 78.1701 341.98 74.5601C343.59 73.4801 344.84 74.4901 344.87 76.5401C344.95 81.1801 342.54 85.1901 339.04 87.0801C333.53 90.0701 327.63 92.9801 320.97 92.7701C319.53 92.7401 318.09 92.3101 316.46 91.8501ZM267.96 70.4101C268.07 71.5501 268.17 72.6801 268.28 73.8201C269.1 73.3001 269.95 72.8301 270.73 72.2601C271.93 71.3901 273.08 70.4501 274.24 69.5401C276.47 67.7801 276.48 65.7201 275.51 63.1901C274.74 61.1801 274.02 60.6201 272.74 62.5801C271.17 64.9901 269.8 67.5301 267.96 70.4101Z" fill="black"/>
<path d="M152.22 185.76C151.77 192.87 151.77 199.65 146.88 205.76C142.55 211.17 134.18 212.37 129.1 209.74C127.49 208.91 126.05 207.76 124.53 206.76C124.08 206.47 123.62 206.2 123.17 205.93C122.87 206.45 122.37 206.95 122.32 207.5C122.19 208.78 122.25 210.07 122.29 211.36C122.4 214.79 120.81 216.41 117.33 216.56C115.98 216.62 114.6 217.4 113.34 218.05C110.15 219.71 107.5 219.27 106.16 215.75C103.95 209.95 102.46 203.89 100.63 197.95C100.17 196.47 99.56 195.05 99.02 193.6C97.85 194.31 96.69 195.02 95.51 195.72C94.27 196.46 93.08 197.31 91.77 197.88C88.58 199.26 87.99 201.71 88.22 204.89C88.47 208.26 88.68 211.74 88.13 215.04C87.78 217.15 86.38 219.43 84.76 220.84C83.97 221.53 80.72 220.96 80.15 220.02C79.13 218.33 79.21 215.93 78.99 213.81C78.73 211.32 78.52 208.81 78.52 206.31C78.54 195.8 76.17 184.97 82.1 175.19C83.85 172.3 85.65 169.11 88.26 167.17C91.57 164.7 95.19 166.8 97.72 169.28C100.04 171.55 102.35 174.32 103.38 177.3C104.98 181.93 108.63 183.55 112.41 185.21C113.29 185.6 114.89 185.26 115.74 184.66C119.11 182.3 121.81 182.8 123.82 186.59C125.95 190.59 127.95 194.66 130.02 198.7C131.61 201.8 134.52 202.34 137.37 201.64C138.97 201.25 141.03 199.64 141.44 198.18C142.28 195.23 142.64 191.94 142.28 188.9C141.49 182.12 139.95 175.42 139.14 168.63C138.94 166.96 139.92 164.53 141.2 163.53C141.99 162.91 145.32 163.86 145.87 164.94C147.91 168.95 149.47 173.24 150.81 177.55C151.58 180.12 151.64 182.9 152.22 185.76ZM87.48 188.28C87.75 188.55 88.17 189.1 88.27 189.05C90.6 187.81 93.61 186.98 94.93 185.02C95.74 183.82 94.05 180.83 93.24 178.74C93.15 178.5 90.96 178.55 90.78 178.93C89.54 181.72 88.55 184.63 87.48 188.28Z" fill="black"/>
<path d="M560.51 70.41C557.11 72.14 554.26 74.36 551.03 75.5C544.34 77.85 535.68 70.45 536.62 63.41C536.76 62.33 537.65 60.98 538.58 60.49C539.28 60.12 540.67 60.77 541.63 61.23C544.32 62.51 546.9 64.05 549.64 65.21C550.28 65.48 551.39 64.66 552.29 64.34C551.98 63.7 551.7 63.05 551.36 62.43C547.81 55.97 542.29 52.86 535.04 51.66C532.2 51.19 529.35 48.79 527.2 46.59C523.81 43.13 524.07 39.13 527.76 34.84C533.55 28.11 540.5 22.86 549.11 20.24C551.44 19.53 554.07 19.29 556.47 19.58C557.43 19.7 558.67 21.79 558.84 23.1C559.16 25.57 559.4 28.05 556.11 29.54C550.14 32.25 544.22 35.21 538.68 38.71C535.39 40.79 536.01 41.86 539.75 43.41C544.15 45.23 548.46 47.31 552.62 49.62C554.23 50.52 555.26 52.43 556.66 53.76C557.2 54.26 558.06 54.42 558.77 54.74C559.09 53.97 559.7 53.19 559.67 52.43C559.5 47.12 559.05 41.82 559 36.52C558.97 33.43 562.67 31.25 565.79 31.96C566.93 32.22 568.61 32.26 569.4 31.61C576.73 25.66 585.71 23.64 594.41 21.06C596.74 20.37 597.34 22.68 597.18 24.85C596.76 30.53 592.36 32.13 588.13 34.11C582.3 36.84 576.51 39.69 570.85 42.74C567.85 44.35 569.17 47.46 569.2 50.01C569.2 50.12 570.83 50.54 571.4 50.25C574.6 48.61 577.68 46.76 580.85 45.07C581.64 44.65 582.6 44.55 583.47 44.3C583.54 45.22 583.76 46.15 583.66 47.05C583.09 51.86 580.3 55.08 576.14 57.26C575.41 57.65 574.53 57.8 573.85 58.25C571.77 59.65 568.8 60.56 570.04 64.09C571.02 66.86 575.04 68.94 577.93 67.98C580.98 66.98 583.91 65.62 586.91 64.49C587.66 64.21 588.51 64.19 589.31 64.05C589.31 64.93 589.54 65.89 589.28 66.68C585.16 78.94 569.22 80.63 562.51 72.05C562.06 71.45 561.44 70.95 560.51 70.41Z" fill="black"/>
<path d="M311.63 190.21C311.89 186.2 312.25 182.57 312.35 178.94C312.39 177.38 312.21 175.65 311.57 174.27C309.38 169.57 309.82 167 314.81 164.83C319.49 162.79 324.59 161.7 329.55 160.33C340.3 157.36 351.07 154.44 361.85 151.59C366.15 150.45 368.99 153.7 368.02 158.2C367.22 161.93 364.53 164.21 361.93 166.47C359.65 168.45 356.93 169.93 354.49 171.74C353.72 172.31 352.53 173.66 352.71 173.94C353.29 174.9 354.28 175.77 355.32 176.26C360.5 178.67 365.92 180.61 370.91 183.35C376.23 186.27 379.05 191.19 378 197.34C377 203.19 373.76 207.87 367.47 208.76C364.8 209.14 361.84 207.87 359.12 207.01C358.65 206.86 358.2 204.47 358.64 204.05C360.57 202.21 362.83 200.71 364.96 199.09C366.24 198.12 368.64 197.06 368.57 196.2C368.45 194.66 367.18 192.61 365.8 191.87C361.41 189.5 356.74 187.65 352.2 185.56C350.14 184.61 347.9 183.87 346.14 182.51C340.12 177.87 340.14 172.68 345.37 166.95C347.4 164.73 349.88 162.93 352.09 160.88C352.51 160.49 352.66 159.81 352.94 159.26C352.25 159.27 351.45 159.04 350.89 159.31C346.06 161.65 341.26 164.05 336.48 166.49C332.65 168.45 328.71 170.25 325.13 172.6C323.59 173.61 322.86 175.85 321.76 177.54C323.57 177.63 325.4 177.96 327.18 177.75C328.81 177.56 330.51 177.03 331.93 176.22C334.93 174.51 334.86 176.49 334.79 178.42C334.63 182.83 331.89 185.6 328.48 187.85C327.18 188.7 325.85 189.62 324.39 190.09C322.19 190.79 320.23 191.61 320.94 194.34C321.64 197.04 323.07 199.35 326.31 199.45C330.52 199.58 334.72 199.61 338.52 197.21C339.21 196.78 340.38 197.13 341.33 197.11C341.21 198.1 341.33 199.2 340.94 200.08C335.5 212.35 322.98 211.33 314.74 204.25C312.84 202.62 312.37 199.11 311.69 196.36C311.27 194.55 311.63 192.53 311.63 190.21Z" fill="black"/>
<path d="M716.45 330.3C717.32 335.89 715.96 340.82 712.74 345.08C709.33 349.6 702.4 353.29 696.54 349.47C694.55 348.17 694.21 346.68 695.8 345.28C697.49 343.8 699.54 342.52 701.65 341.76C707.83 339.53 709.06 335.2 704.47 330.71C702.31 328.6 700.06 326.56 697.65 324.75C696.85 324.15 695.25 323.94 694.32 324.31C690.57 325.82 686.83 327.44 683.31 329.4C681.52 330.4 680.09 332.17 681.86 334.53C683.11 336.19 684.18 338.01 685.57 339.54C687.9 342.12 687.9 344.22 685.47 346.99C683.12 349.67 681.09 348.36 679.35 346.45C677.03 343.9 674.84 341.21 672.85 338.4C671.62 336.67 671.28 334.97 668.13 335.99C666.37 336.56 663 334.74 661.64 333C660.83 331.96 662.05 328.69 663.18 326.96C664.25 325.32 666.64 324.6 667.99 323.07C669.09 321.82 670.18 319.97 670.13 318.41C670.03 314.88 669.26 311.36 668.69 307.85C668.55 307 668.16 306.19 667.88 305.36C667.13 305.99 666 306.48 665.68 307.28C663.92 311.7 662.42 316.23 660.72 320.68C658 327.8 656.29 335.06 657.11 342.75C657.2 343.62 657 344.61 657.36 345.35C658.76 348.27 657.58 350.54 655.38 352.13C654.4 352.84 652.54 352.73 651.2 352.44C648.32 351.83 648.06 349.13 647.9 346.92C647.41 339.92 647.95 332.99 650.14 326.25C652.76 318.19 654.99 309.98 658.05 302.09C659.15 299.25 661.87 296.81 664.34 294.77C669.17 290.78 671.99 293.41 674.15 297.2C677.24 302.63 678.55 308.51 678.7 314.61C678.91 323.03 679.84 323.64 687.43 320.07C692.57 317.65 696.76 314.13 700.76 310.18C702.37 308.59 704.87 307.74 707.12 307.05C707.66 306.89 709.05 308.58 709.58 309.65C709.99 310.48 710.07 311.95 709.59 312.65C706.26 317.55 708.51 320.75 712.33 324.03C714.1 325.56 714.98 328.06 716.45 330.3Z" fill="black"/>
<path d="M392.21 2.58005C396.07 1.61005 399.72 0.670048 403.42 0.110048C409.66 -0.849952 414.58 4.72005 415.25 11.43C416.08 19.85 412.53 26.48 407.17 32.43C401.41 38.83 395.49 45.08 389.76 51.51C388.87 52.51 388.28 54.11 388.22 55.46C387.84 64.1 387.55 72.75 387.43 81.4C387.39 84.64 388 87.88 388.12 91.12C388.22 93.73 385.49 96.88 383.21 96.64C380.19 96.33 379.18 94.28 378.81 91.34C377.71 82.58 376.2 73.88 375.05 65.13C374.34 59.71 374.41 54.15 373.36 48.81C372.05 42.14 373.27 35.77 374.21 29.28C375.86 17.86 381.73 9.34005 391.47 3.34005C391.68 3.18005 391.83 2.96005 392.21 2.58005ZM404.38 19.78C405.41 17.5 406.91 15.31 407.33 12.92C407.71 10.79 406.9 8.48005 403.69 10.11C400.29 11.84 396.31 12.92 393.6 15.41C390.65 18.12 387.98 21.84 386.85 25.62C385.71 29.44 386.54 33.88 386.65 38.04C386.67 38.79 387.37 39.52 387.76 40.26C388.38 39.9 389.18 39.67 389.6 39.15C394.56 32.98 399.46 26.76 404.38 19.78Z" fill="black"/>
<path d="M170.38 113.5C164.61 110.01 157.83 107.53 156.15 100.57C154.96 95.6 155.21 90.15 155.64 84.98C155.98 80.84 157.81 76.85 158.53 72.72C159.33 68.11 162.1 65.61 166.24 64.24C173.72 61.77 181.21 59.34 188.7 56.94C191.29 56.11 195.82 57.61 196.47 59.4C197.48 62.17 196.13 65.1 192.74 66.5C187.35 68.73 181.8 70.56 176.42 72.77C173.78 73.86 171.2 75.23 168.9 76.91C168.08 77.51 168.19 79.37 167.87 80.66C168.87 80.75 170.04 81.22 170.85 80.87C178.82 77.42 186.71 73.77 194.68 70.33C196.37 69.6 198.33 69.48 200.16 69.07C200 71.15 200.52 73.64 199.54 75.21C197.79 78.02 195.58 81.04 192.79 82.62C185.65 86.67 178.03 89.86 170.76 93.68C168.98 94.61 167.79 96.66 166.33 98.19C168.03 99.49 169.56 101.58 171.45 101.96C181.37 103.96 190.78 103.08 198.68 95.73C199.42 95.05 200.76 95.02 201.82 94.68C202.02 95.82 202.51 96.99 202.36 98.08C201.08 107.43 194.55 110.9 186.26 113.04C180.94 114.43 175.86 114.93 170.38 113.5Z" fill="black"/>
<path d="M231.05 81.03C234.06 77.24 236.9 73.67 239.68 70.04C240.05 69.56 240.4 68.58 240.17 68.25C239.82 67.75 238.84 67.22 238.32 67.37C232.47 69.07 226.56 70.62 220.88 72.79C217.02 74.27 215.97 77.43 216.52 81.28C217.22 86.19 217.56 91.15 218.12 96.07C218.44 98.87 218.66 101.72 219.38 104.43C220.08 107.06 219.03 108.86 217.21 110.2C215.99 111.09 213.66 112.17 212.88 111.64C211.17 110.46 209.23 108.43 208.99 106.54C208.27 100.79 208.57 94.91 207.98 89.13C207.35 83.06 205.95 77.07 205.27 71C204.95 68.11 205.04 64.96 205.87 62.2C206.77 59.17 209.3 59.12 211.98 60.6C213.5 61.44 215.85 61.45 217.65 61.04C223.49 59.72 229.18 57.53 235.07 56.63C240.5 55.8 245.82 57.45 248.53 62.72C251.41 68.31 249.79 74.05 246.75 79.06C244.33 83.04 241.01 86.47 238.13 90.18C237.58 90.89 237.23 91.77 236.8 92.58C237.69 92.91 238.56 93.45 239.48 93.54C242.3 93.84 245.85 96.69 245.86 99.28C245.88 102.63 243.54 104.7 240.8 105.87C237.64 107.22 234.74 106.69 232.33 103.69C230.71 101.67 228.44 100.16 226.44 98.45C223.64 96.06 223.49 91.42 226.23 87.41C227.69 85.3 229.31 83.29 231.05 81.03Z" fill="black"/>
<path d="M310.66 329.53C297.03 323.15 285.98 314.25 279.56 300.64C276.11 293.32 273.45 285.55 274.67 277.26C274.98 275.16 276.71 272.41 278.52 271.6C280.69 270.64 283.89 270.67 285.61 273.57C286.92 275.78 287.41 277.6 285.59 280.26C283.02 284.03 283.59 288.62 285.48 292.68C289.47 301.29 295.99 307.62 303.63 313.18C314.47 321.06 326.93 324.73 339.68 326.71C347.2 327.88 355.21 326.26 362.95 325.42C366.34 325.06 369.57 323.42 372.93 322.58C374.23 322.25 375.67 322.51 377.05 322.49C376.88 323.76 376.8 325.05 376.53 326.3C375.73 330.05 372.75 331.83 369.65 333.14C359.47 337.44 348.98 338.62 337.91 337.2C328.45 336 319.54 333.43 310.66 329.53Z" fill="black"/>
<path d="M509.5 332.43C510.53 323.97 511.52 315.89 512.64 307.82C512.81 306.57 513.38 305.18 514.21 304.26C515.25 303.12 516.75 302.4 518.05 301.5C518.81 302.67 520.17 303.81 520.22 305C520.42 310.69 520.32 316.39 520.19 322.09C520.12 325.09 519.64 328.09 519.59 331.09C519.51 335.73 518.87 340.23 515.63 343.73C513.82 345.68 510.9 348.74 509.27 348.31C505.37 347.28 500.47 346.81 498.65 341.84C498.24 340.71 497.3 339.78 496.6 338.76C496.27 339.91 495.67 341.05 495.64 342.21C495.49 348.43 494.31 350.31 490.4 350.19C486.68 350.08 485.45 348.23 485.57 342.25C485.73 334.37 485.8 326.47 486.45 318.62C486.7 315.51 488.33 312.49 489.43 309.46C490.37 306.9 492.44 305.27 494.95 306.28C496.75 307 498.7 308.91 499.32 310.72C501.01 315.72 501.99 320.95 503.34 326.07C504.01 328.61 504.75 331.15 505.69 333.6C506.13 334.76 507.12 335.71 507.86 336.75C508.41 335.45 508.95 334.13 509.5 332.43Z" fill="black"/>
<path d="M693.65 433.49C694.23 427.57 695.25 421.85 695.69 416.1C696.03 411.74 696.19 407.21 695.35 402.97C694.76 400 696.06 398.55 697.81 397.47C698.93 396.78 700.88 397.41 702.45 397.47C703.59 397.52 705.11 398.13 705.8 397.61C709.7 394.67 714.13 394.21 718.73 394.27C726.1 394.36 733.54 393.55 740.69 396.26C743.93 397.49 744.93 400.57 742.34 402.8C740.97 403.98 738.92 404.91 737.14 404.98C730.67 405.24 724.18 405.15 717.7 405.05C714.14 405 710.41 407.46 707 404.42C706.91 404.34 705.84 404.98 705.87 405.19C706.04 406.37 706.1 407.81 706.82 408.59C707.37 409.19 708.86 409.14 709.9 409.06C712.1 408.88 714.27 408.38 716.47 408.19C718.75 408 719.37 409.06 718.61 411.24C716.91 416.12 712.87 417.84 708.41 418.97C704.59 419.93 703.26 422.84 702.78 426.22C702.44 428.62 706.85 431.27 709.98 430.55C714.55 429.5 719.06 428.21 723.62 427.13C724.43 426.94 725.37 427.31 726.25 427.43C726.14 428.16 726.14 428.94 725.9 429.62C723.28 437.06 716.75 438.76 710.13 439.74C706.01 440.35 701.61 440.27 697.93 437.67C696.38 436.6 695.19 435.03 693.65 433.49Z" fill="black"/>
<path d="M430.08 200.84C436.19 207.47 443.4 211.43 452.1 212.73C452.53 212.79 453.25 214.53 452.99 215.08C451.67 217.88 445.6 220.68 442.72 219.53C429.83 214.4 418.56 207.18 414.6 192.88C413.25 188.02 412.98 182.42 413.9 177.47C415.41 169.4 417.68 161.33 420.8 153.73C423.37 147.46 427.39 141.72 431.25 136.07C433.31 133.06 436.3 130.65 439.05 128.16C442.04 125.45 445.2 125.21 446.94 127.26C448.52 129.13 447.86 133.95 445.67 136.17C442.79 139.09 439.83 141.92 436.99 144.87C429.78 152.4 427.01 162.01 424.47 171.73C422.79 178.18 421.7 184.79 423.86 191.18C425.03 194.62 427.83 197.51 430.08 200.84Z" fill="black"/>
<path d="M471.63 149.24C478.34 146.78 484.63 144.25 490.99 141.9C494.5 140.6 495.01 141.56 495.71 145.13C497.11 152.26 490.88 151.66 487.47 153.75C485.28 155.09 482.6 155.62 480.16 156.57C477.53 157.59 476.84 158.9 479.23 161.14C483.76 165.37 487.53 170.11 489.68 176.11C492.82 184.85 489.25 195.31 480.66 197.72C474.35 199.49 468.13 198.36 462.18 195.81C460.03 194.89 457.69 193.48 458.62 190.9C459.6 188.2 462.47 187.96 465.17 187.98C470.12 188.02 475.12 188.32 480.01 187.75C483.15 187.38 483.11 184.08 482.15 181.97C480.57 178.49 478.36 175.27 476.21 172.08C475.3 170.72 473.71 169.81 472.74 168.48C469.23 163.64 464.79 162.89 459.41 164.89C456.24 166.07 452.22 164.37 451.01 161.36C450.65 160.47 451.04 158.58 451.75 158.09C454.09 156.46 456.65 155.08 459.27 153.93C463.2 152.21 467.24 150.79 471.63 149.24Z" fill="black"/>
<path d="M392.59 325.28C393.69 324.18 394.67 323.32 395.5 322.35C396.68 320.96 397.76 319.48 398.88 318.04C396.86 317.94 394.78 317.46 392.84 317.81C383.6 319.5 374.63 317.94 365.74 315.75C362.41 314.93 360.17 310.9 361.14 307.83C362.36 304 365.91 304.99 368.25 305.51C377.64 307.6 387.12 307.79 396.64 307.66C401.17 307.6 405.69 306.95 410.21 307.04C411.89 307.07 414.72 308.19 414.98 309.29C415.64 312.12 416.42 316.32 414.92 318.03C407.1 326.96 398.66 335.36 390.23 343.73C388.82 345.13 386.42 345.98 384.4 346.17C383.16 346.28 380.96 344.88 380.62 343.74C380.14 342.1 380.34 339.59 381.34 338.29C384.76 333.82 388.67 329.71 392.59 325.28Z" fill="black"/>
<path d="M69.71 221.9C65.66 226.51 61.35 230.07 55.31 231.41C50.18 232.55 42.43 229 40.25 224.82C37.95 220.39 36.91 215.83 36.41 210.93C34.99 196.97 37.17 183.39 40.41 169.92C40.9 167.9 42.15 165.86 43.59 164.35C44.56 163.33 46.99 162.36 47.89 162.88C49.85 164.02 51.79 165.73 51.18 168.74C49.55 176.84 48.1 184.97 46.5 193.08C44.88 201.3 45.53 209.35 48.06 217.3C49.5 221.85 52.72 223.4 57.26 221.57C62.78 219.34 67.18 215.74 70.55 210.76C71.32 209.62 72.99 209.09 74.25 208.28C74.38 209.77 75.04 211.48 74.52 212.69C73.2 215.75 71.34 218.59 69.71 221.9Z" fill="black"/>
<path d="M557.23 164.9C558.45 170.2 560.59 175.37 560.3 180.4C559.6 192.53 556.14 203.96 547.81 213.36C545.91 215.5 543.66 215.84 541.53 214.03C539.2 212.05 540.73 210.37 541.96 208.19C544.81 203.12 547.58 197.87 549.31 192.35C552.16 183.26 551.89 174.06 546.53 165.77C543.99 161.84 540.73 158.37 537.76 154.72C533.14 149.04 528.45 143.41 523.86 137.69C521.22 134.39 524.22 132.68 526.07 130.76C527.94 128.82 529.53 129.93 530.81 131.56C539.58 142.59 548.3 153.65 557.23 164.9Z" fill="black"/>
<path d="M174.05 166.25C174.96 164.95 175.73 163.77 176.81 163.2C178.24 162.45 180.34 161.39 181.38 161.93C182.49 162.51 183.48 165 183.16 166.32C182.49 169.04 180.93 171.54 179.7 174.11C178.46 176.68 177.12 179.21 175.91 181.8C175.03 183.66 175.86 184.55 177.77 184.81C185.17 185.8 189.8 189.9 192.17 197.02C193.54 201.14 191.99 204.58 189.71 207.15C185.06 212.39 176.97 217.64 168.17 211.91C163.85 209.09 161.74 204.35 162.84 199.41C164 194.18 163.98 188.6 165.73 183.61C167.8 177.71 171.22 172.27 174.05 166.25ZM182.94 198.71C181.14 196.3 178.84 194.8 175.79 195.7C174.57 196.06 172.77 197.19 172.68 198.13C172.46 200.26 172.56 203.99 173.54 204.35C175.73 205.16 178.6 204.61 181.06 204.05C183.5 203.47 183.52 201.2 182.94 198.71Z" fill="black"/>
<path d="M502.54 178.62C499.94 177.44 497.49 176.56 495.56 175.01C491.3 171.58 488.97 167.71 495.19 161.19C498.05 158.19 500.98 154.5 505.93 153.71C508.03 153.38 510.23 152.43 511.07 154.55C511.76 156.3 511.45 158.92 510.59 160.68C509.79 162.31 507.69 163.31 506.15 164.58C503.37 166.88 503.48 167.84 506.89 169.44C510.23 171.01 513.63 172.44 516.97 174C523.33 176.97 523.3 184.67 519.4 189.07C517.4 191.33 514.77 193.11 512.23 194.82C508.74 197.16 506.17 194.59 503.83 192.58C501.37 190.47 503.05 187.81 503.91 185.61C504.15 185 506.41 185.16 507.75 185.01C509.32 184.83 510.9 184.7 512.48 184.54C511.66 183.39 511.09 181.77 509.97 181.18C507.78 180.01 505.29 179.43 502.54 178.62Z" fill="black"/>
<path d="M467.95 309.43C468.27 308.65 468.21 307.89 468.56 307.5C470.13 305.71 471.82 304.01 473.47 302.28C474.73 303.77 476.44 305.08 477.15 306.81C478.05 309.01 478.53 311.54 478.51 313.93C478.4 325.13 478.05 336.33 477.82 347.52C477.78 349.26 478.62 351.48 477.82 352.62C476.68 354.24 474.41 355.07 472.63 356.23C471.27 354.12 468.96 352.11 468.72 349.88C468.14 344.5 468.53 339.02 468.53 333.58C468.53 326.9 468.57 320.22 468.5 313.54C468.48 312.24 468.02 310.93 467.95 309.43Z" fill="black"/>
<path d="M480.71 286.24C480.27 287.84 479.63 289.25 479 290.66C477.85 290.04 476.53 289.61 475.58 288.77C473.45 286.88 471.02 285.11 473.1 281.52C474.24 279.56 475.69 278.46 477.57 279.24C478.71 279.71 479.47 281.45 480.07 282.78C480.5 283.73 480.39 284.95 480.71 286.24Z" fill="black"/>
</g>
<defs>
<filter id="filter0_d" x="-6.00275" y="0.00195312" width="755.815" height="568.674" filterUnits="userSpaceOnUse" color-interpolation-filters="sRGB">
<feFlood flood-opacity="0" result="BackgroundImageFix"/>
<feColorMatrix in="SourceAlpha" type="matrix" values="0 0 0 0 0 0 0 0 0 0 0 0 0 0 0 0 0 0 127 0"/>
<feOffset dy="6"/>
<feGaussianBlur stdDeviation="3"/>
<feColorMatrix type="matrix" values="0 0 0 0 0 0 0 0 0 0 0 0 0 0 0 0 0 0 0.4 0"/>
<feBlend mode="normal" in2="BackgroundImageFix" result="effect1_dropShadow"/>
<feBlend mode="normal" in="SourceGraphic" in2="effect1_dropShadow" result="shape"/>
</filter>
</defs>
</svg>
