<svg width="1110" height="600" viewBox="0 0 1110 600" fill="none" xmlns="http://www.w3.org/2000/svg">
<g filter="url(#filter0_d)">
<path d="M139.15 544.19C141.09 543.63 143.43 542.44 144.35 543.14C150.64 547.88 157.16 544.16 163.37 543.55C165.43 543.35 167.36 538.93 168.85 536.17C175.3 524.19 181.56 512.11 187.9 500.07C188.91 498.15 189.75 496.11 191.02 494.38C194.45 489.7 194.51 485.03 192.33 479.71C190.64 475.58 189.51 471.06 189.04 466.62C188.64 462.8 186.33 462.37 183.62 461.96C178.74 461.23 173.35 461.65 169.09 459.66C164.59 457.55 160.96 453.35 157.42 449.63C156.79 448.97 157.93 445.69 159.11 444.4C164.64 438.37 171 433.36 179 431C182.51 429.96 183.8 427.92 183.97 424.32C184.43 414.59 185.23 404.87 185.89 395.15C185.92 394.65 185.72 394.06 185.92 393.67C186.84 391.89 187.86 390.16 188.84 388.42C186.57 388.27 184.3 387.95 182.03 387.99C165.67 388.27 149.31 388.8 132.94 388.92C110.37 389.08 91.03 381.04 76.47 363.78C66 351.37 55.58 338.53 51.65 322.14C49.96 315.09 48.49 307.88 48.04 300.68C47.43 290.89 47.53 281.01 48.02 271.2C48.32 265.08 49.71 258.98 50.96 252.95C51.65 249.66 52.98 246.05 57.46 247.07C61.22 247.92 62.16 250.91 61.94 254.62C61.15 267.67 60.24 280.72 59.98 293.79C59.68 308.67 62.35 323.24 70.05 336.05C78.89 350.75 87.97 365.83 105.12 372.51C111.88 375.14 119.17 376.89 126.38 377.8C134.98 378.89 143.75 379 152.44 378.86C159.34 378.75 166.21 377.37 173.12 377.07C177.46 376.88 181.84 377.71 186.2 377.96C203.95 378.99 221.75 379.46 239.44 381.15C251.51 382.3 263.18 381.08 274.78 378.46C282.16 376.79 289.44 374.5 296.52 371.83C300.24 370.43 303.95 368.15 306.77 365.36C312.01 360.2 310.98 354.96 305.72 347.47C298.96 337.86 292.35 328.17 289.35 316.74C287.33 309.03 286.48 300.94 290.16 293.27C290.78 291.98 292.14 291.05 293.16 289.96C294.07 291.37 295.36 292.67 295.82 294.21C297.03 298.23 298.12 302.32 298.84 306.46C300.63 316.68 305.43 325.47 311.25 333.83C313.31 336.79 315.25 339.84 317.27 342.83C322.84 351.07 321.71 360.92 315.02 368.42C304.82 379.86 291.69 384.81 277.13 388.19C263.87 391.27 250.63 392.55 237.24 391.81C224.42 391.11 211.67 389.28 198.89 387.95C196.92 387.75 195.34 387.67 196.02 390.67C196.9 394.53 197.78 398.49 197.78 402.41C197.77 411.11 197.01 419.8 196.95 428.5C196.91 434.53 197.25 440.59 197.99 446.57C198.4 449.91 200.33 452.18 204.56 452.03C220.08 451.49 235.61 451.3 251.14 450.94C264.17 450.64 277.2 450.31 290.22 449.91C291.6 449.87 293.38 449.75 294.26 448.92C300.43 443.07 306.79 442.25 313.9 447.27C314.64 447.79 317.67 446.73 317.68 446.35C317.73 444.35 319.09 441.52 315.41 440.92C309.65 439.99 303.94 438.52 298.14 438.03C286.61 437.06 275.04 436.13 263.48 436.05C246.79 435.94 230.09 436.6 213.4 436.93C212.23 436.95 210.72 437.4 209.97 436.84C207.78 435.22 205.89 433.18 203.89 431.31C205.61 429.52 207.07 427.25 209.14 426.07C210.94 425.05 213.45 425 215.64 424.97C225.2 424.86 234.76 425.05 244.31 424.9C258.34 424.68 272.42 423.36 286.38 424.19C299.46 424.97 312.41 427.89 325.4 429.96C328.16 430.4 330.93 431.05 333.56 431.98C336.95 433.17 337.27 431.25 337.96 428.7C339.62 422.59 339.14 415.3 345.2 411.29C349.14 408.69 353.83 407.23 358.13 405.16C371.06 398.94 383.95 392.66 396.88 386.45C398.4 385.72 400.03 385.21 401.64 384.67C407.48 382.71 410.12 384.28 409.79 390.34C409.06 404 407.77 417.62 406.93 431.28C406.6 436.59 406.77 441.95 406.95 447.27C406.99 448.56 407.77 449.97 408.57 451.06C411.99 455.72 411.93 457.52 406.58 459.81C400.07 462.6 393.27 464.75 386.47 466.77C370.13 471.62 353.46 475.5 337.42 481.19C327.39 484.75 318.42 481.88 308.97 480.57C305.7 480.12 302.34 480.32 299.06 479.88C294.69 479.29 290.14 478.96 286.09 477.41C282.56 476.06 283.43 472.61 285.31 470.1C286.89 467.99 289.09 466.34 290.86 464.36C291.43 463.72 291.54 462.66 291.86 461.8C291.05 461.51 290.24 460.96 289.43 460.97C272.9 461.25 256.37 461.54 239.84 461.96C233.31 462.12 226.79 462.7 220.25 462.9C215.03 463.06 209.8 462.8 204.59 463.05C203.64 463.1 201.83 465.02 202 465.53C203.48 469.87 201.72 475.18 207.4 478.4C211.04 480.46 213.08 485.24 216.06 488.59C224.3 497.86 232.29 507.24 237.34 518.78C238.5 521.43 240.88 525.55 242.63 525.52C246.59 525.44 251 523.91 254.31 521.64C258.01 519.11 260.66 515.8 264.69 520.95C264.95 521.28 268.3 520.04 269.31 518.8C274.05 512.96 275.65 513.04 278.92 519.69C279.12 520.11 280.36 520.05 281.12 520.15C282.8 520.37 284.82 520.04 286.11 520.86C289.31 522.89 292.18 525.43 295.19 527.77C301.23 532.47 303 547.79 292.08 554.98C284.82 559.76 276.69 562.19 268.35 562.73C257.35 563.44 245.85 564.84 235.53 559.74C229.65 556.83 224.54 552.19 219.48 547.86C217.34 546.02 219.33 540.13 222.2 538.08C230.37 532.24 230.06 532.38 226.03 523.5C221.74 514.03 215.66 506.04 208.31 498.81C205.51 496.05 203.59 496.12 201.73 499.54C196.78 508.66 191.87 517.8 186.81 526.86C184.53 530.94 181.54 534.67 179.61 538.89C178.6 541.1 178 545.18 179.23 546.47C193.38 561.24 183.17 573.9 169.56 578.8C157.29 583.21 144.53 586.15 131.42 586.88C125.55 587.21 119.38 587.99 113.83 586.62C108.92 585.4 104.62 581.57 100.16 578.72C96.55 576.42 97.52 573.25 99.09 570.23C99.81 568.84 100.73 567.41 101.92 566.43C106.2 562.9 108.24 559.32 105.41 553.5C104.74 552.12 107.95 547.71 110.32 546.29C113.66 544.3 115.2 547.92 116.73 550.34C117.5 551.55 118.29 552.74 119.07 553.94C119.32 552.76 119.27 551.38 119.89 550.45C121.21 548.49 122.61 546.3 124.54 545.17C125.3 544.72 127.48 547.06 129.18 547.7C130.64 548.24 132.57 548.74 133.86 548.21C135.79 547.45 137.26 545.74 139.15 544.19ZM393.9 452.44C394.23 451.25 394.81 450.06 394.86 448.86C395.26 439.52 395.51 430.16 395.92 420.82C396.2 414.31 396.65 407.82 397.04 401.32C397.09 400.52 397.25 399.74 397.35 398.95C396.57 399.08 395.7 399.02 395.03 399.37C390.92 401.51 386.97 404.01 382.75 405.9C373.34 410.1 363.76 413.89 354.38 418.14C352.87 418.82 351.48 420.85 351 422.54C348.55 431.04 346.36 439.61 344.2 448.19C342.67 454.23 341.24 460.3 339.95 466.4C339.4 469.03 340.17 469.08 342.76 468.1C349.96 465.37 357.38 463.17 364.78 460.99C374.28 458.17 383.85 455.6 393.9 452.44ZM249.9 542.44C249.42 535.5 245.06 537.98 241.38 538.99C239.75 539.44 238.1 539.97 236.64 540.79C235.57 541.39 233.91 542.78 234.08 543.38C234.45 544.71 235.57 546.23 236.8 546.87C244.95 551.06 253.82 549.98 262.49 549.9C274.25 549.8 274.17 547.37 275.88 539.14C276.1 538.09 276.12 537.01 276.23 535.94C275.32 536.57 274.48 537.31 273.5 537.8C271.3 538.91 269.08 540.5 266.79 540.63C265.93 540.68 264.9 537.22 263.87 535.41C263.55 534.85 263.03 534.08 262.55 534.04C262.03 534 261.17 534.57 260.94 535.09C260.19 536.77 259.79 538.62 259.01 540.28C256.85 544.94 254.76 545.54 249.9 542.44ZM165.4 559.94C164.13 559.67 162.55 559.79 161.65 559.06C158.74 556.7 152.1 555.53 150.38 558.4C148.52 561.49 148.72 565.85 148.26 569.68C148.22 569.98 150.29 571.1 151.05 570.85C157.02 568.88 162.93 566.75 168.8 564.5C171.49 563.47 173.63 561.83 172.85 558.38C170.7 558.9 168.55 559.42 165.4 559.94ZM121.4 573.94C122.92 573.61 124.44 573.03 125.97 572.99C130.62 572.86 135.28 573.1 139.91 572.82C140.87 572.76 141.73 571.1 142.64 570.18C138.25 569.07 138.91 565.57 138.86 562.35C138.85 561.88 138.31 561.41 138.02 560.94C137.65 561.49 136.83 562.36 136.96 562.55C138.61 564.87 137.6 566.95 135.56 567.53C133.9 568.01 131.63 567.17 129.9 566.34C127.12 565 125.07 563.69 123.66 568.13C123.22 569.52 120 570.06 118.02 570.93C117.01 571.38 115.94 571.71 114.89 572.09C115.89 572.71 116.84 573.48 117.92 573.89C118.65 574.16 119.57 573.94 121.4 573.94ZM318.4 461.94C316.54 462.27 314.66 462.52 312.83 462.99C312.12 463.17 311.54 463.86 310.9 464.32C311.45 464.86 311.95 465.79 312.57 465.88C315.91 466.35 319.27 466.71 322.64 466.91C324.64 467.02 327.42 467.52 328.5 466.47C329.97 465.03 330.37 462.31 330.83 460.06C331.2 458.23 330.9 457.32 328.51 458.65C325.73 460.2 322.46 460.88 318.4 461.94ZM179.4 440.94C179.17 441.17 178.94 441.41 178.7 441.64C176.77 443.42 174.83 445.19 172.9 446.96C175 447.62 177.11 448.27 179.2 448.95C180.07 449.23 180.97 449.99 181.74 449.85C182.85 449.64 184.76 448.81 184.75 448.26C184.72 445.61 184.16 442.97 183.78 440.32C182.65 440.52 181.53 440.73 179.4 440.94ZM288.9 540.44C288.34 539.34 287.77 538.23 287.21 537.13C286.44 538.97 285.55 540.77 284.98 542.66C284.83 543.16 285.69 543.96 286.09 544.63C287.03 543.56 287.96 542.5 288.9 540.44Z" fill="black"/>
<path d="M182.65 59.69C170.9 64.84 168.91 63.79 159.91 52.61C159.03 51.51 158.34 50.26 157.55 49.09C152.39 41.44 144.47 42.46 139.55 50.52C135.92 56.48 130.95 61.66 126.28 66.94C123.93 69.6 120.62 69.7 117.58 67.91C113.43 65.45 111.21 67.28 108.8 70.76C105.96 74.84 102.61 78.63 99.02 82.07C97.89 83.15 94.81 83.47 93.41 82.7C90.17 80.92 89.92 82.02 89.86 84.94C89.69 92.77 87.87 100.01 81.79 105.58C77 109.98 75.7 110.42 71.26 106.52C66.43 102.28 62.65 96.85 58.4 91.95C57.52 90.94 56.62 89.95 55.73 88.95C55.46 90.44 54.78 91.99 54.97 93.41C56.17 102.04 57.8 110.62 58.82 119.27C59.53 125.31 57.23 130.76 53.7 135.59C51.55 138.53 51.17 141.29 53.61 144.14C56.02 146.96 58.69 149.59 60.88 152.57C61.86 153.91 65.74 154.52 62.91 157.36C60.6 159.68 58.13 163.89 54.41 160.69C49.77 156.69 45.11 152.18 42.06 146.96C32.34 130.26 26.01 112.35 25.87 92.7C25.86 91.77 25.84 90.59 25.3 89.98C24.26 88.8 22.85 87.94 21.59 86.95C21.36 88.31 20.74 89.74 20.95 91.03C22.63 101.64 24.48 112.22 26.25 122.81C27.16 128.27 28.69 133.74 28.75 139.22C28.86 150.01 34.16 158.42 40.14 166.53C42.86 170.22 47 172.87 49.69 176.58C50.81 178.12 50.63 181.63 49.63 183.47C47.29 187.81 43.13 186.26 40.68 183.96C36.21 179.78 32.62 174.68 28.48 170.13C27.26 168.79 25.35 168.11 23.94 166.92C21.84 165.16 18.35 163.34 18.16 161.31C17.3 151.81 15.15 142.72 11.9 133.82C9.65002 127.67 8.45002 122.11 13.55 116.02C15.63 113.54 14.32 107.81 13.8 103.65C12.79 95.49 11.24 87.4 9.90002 79.29C9.30002 75.71 8.15002 72.13 8.21002 68.57C8.25002 66.16 9.98002 63.78 10.95 61.39C12.79 62.27 15.14 62.71 16.38 64.12C19.18 67.31 21.38 71.01 23.94 74.42C24.46 75.12 25.49 75.44 26.28 75.94C26.48 75.05 26.86 74.15 26.86 73.26C26.9 62.76 26.89 52.26 26.89 41.76C26.89 40.76 26.54 39.57 26.95 38.79C28.39 36.09 29.74 33.14 31.94 31.2C32.52 30.68 36.94 32.92 37.96 34.79C40.45 39.35 42.08 44.4 43.82 49.33C44.29 50.66 43.68 52.34 43.96 53.79C44.16 54.84 45.01 55.77 45.57 56.75C46.01 55.77 46.72 54.81 46.84 53.79C47.29 49.94 47.25 46.01 47.98 42.23C48.69 38.53 48.76 33.96 53.75 32.98C57.57 32.23 61 35.33 62.92 40.48C63.75 42.69 64.91 44.78 65.92 46.92C67.14 45.19 68.38 43.46 69.59 41.71C73.7 35.75 77.9 29.85 81.86 23.79C86.19 17.17 96.38 13.39 103.05 21.35C108.69 28.08 109.24 27.6 116.26 21.1C121.51 16.25 126.74 11.3 132.5 7.10001C134.79 5.43001 139.04 4.33001 141.35 5.35001C144.44 6.70001 147.28 9.83001 146.94 14.29C146.69 17.6 146.62 20.98 147 24.27C147.22 26.17 148.06 29.01 149.38 29.53C151.09 30.21 154.02 29.65 155.61 28.51C163.11 23.1 170.32 17.29 177.66 11.66C181.7 8.56001 185.56 5.15001 189.9 2.55001C196.83 -1.60999 201.94 3.06001 202.86 9.95001C203.54 15.02 202.93 19.87 199.39 24C198.63 24.89 198.39 26.23 197.9 27.37C198.95 26.67 200.03 26 201.04 25.25C202.58 24.11 204.01 22.82 205.61 21.76C206.35 21.27 207.86 20.67 208.17 20.98C213.23 25.96 216.19 20.6 219.62 18.59C225.95 14.88 232.04 10.76 238.3 6.93001C242.03 4.65001 245.15 6.02001 248.25 8.67001C251.79 11.69 252.7 15.44 251.64 19.59C250.14 25.43 248.11 31.12 246.47 36.93C246.18 37.95 246.68 39.19 246.82 40.33C247.77 40.19 248.87 40.33 249.64 39.88C256.21 36.01 262.92 32.31 269.19 27.99C274.21 24.54 276.82 23.84 279.5 27.11C280.32 28.12 281.14 29.91 280.8 30.97C278.55 37.97 277.34 45.67 270.26 49.95C269.34 50.51 267.29 50.55 266.67 49.92C265.91 49.16 265.99 47.45 265.95 46.14C265.9 44.74 266.14 43.33 266.26 41.92C265.02 42.55 263.56 42.94 262.57 43.84C256.9 48.99 250.13 51.63 242.69 52.59C237.6 53.25 232.71 47.16 234.15 42.21C236.1 35.52 238.23 28.89 240.08 22.18C240.53 20.54 240.19 18.69 240.21 16.93C238.64 17.57 236.87 17.93 235.54 18.89C226.66 25.28 217.88 31.81 209.06 38.28C208.31 38.83 207.51 39.49 206.65 39.66C202.24 40.53 199.4 43.2 196.51 46.59C192.47 51.31 187.47 55.2 182.65 59.69ZM112.4 54.94C113.4 54.94 114.64 54.56 115.36 55C119.91 57.83 122.94 55.27 125.25 51.94C127.43 48.8 128.27 44.62 130.75 41.81C136.99 34.73 135.36 25.94 136.86 17.84C136.96 17.27 136.33 16.57 136.04 15.93C135.63 16.47 135.27 17.07 134.79 17.53C128.23 23.78 122.31 30.97 114.92 36C106.58 41.67 101.29 40.31 96.97 32.51C96.28 31.27 95.42 30.12 94.64 28.93C93.4 30.01 91.88 30.89 90.96 32.19C85.41 40.01 80.14 48.05 74.45 55.77C71.66 59.56 67.59 61.31 62.65 60.99C59.06 60.76 57.52 58.84 56.87 55.64C56.81 55.34 56.19 55.16 55.83 54.93C55.52 55.55 55.08 56.15 54.94 56.81C53.38 64.09 53.26 71.83 47.99 77.93C47.56 78.43 48.12 79.78 48.23 80.74C49.03 80.4 49.92 80.18 50.63 79.7C55.99 76.04 59.79 75.79 64.7 81.21C67.88 84.72 71.04 88.24 74.24 91.73C74.62 92.14 75.17 92.4 75.64 92.73C75.74 92.27 75.89 91.81 75.92 91.35C76.27 86.5 76.69 81.65 76.91 76.79C77.33 67.15 86.55 62.09 94.67 67.34C96.69 68.65 96.86 68.9 98.05 66.54C100.83 60.96 104.5 55.98 112.4 54.94ZM172.4 46.94C174.44 47.57 177.58 49.35 178.33 48.63C182.51 44.64 187.49 40.6 189.56 35.5C192.29 28.79 192.6 21.1 193.86 13.81C194.01 12.92 193.61 11.94 193.47 11C192.67 11.42 191.76 11.72 191.07 12.29C183 18.97 175.13 25.9 166.85 32.3C163.1 35.21 163.31 37.54 166.08 40.64C167.92 42.69 169.63 44.84 172.4 46.94ZM40.9 92.44C41.25 94.45 41.48 96.5 42.02 98.47C42.19 99.08 43.21 99.46 43.84 99.94C44.2 99.2 44.84 98.47 44.86 97.72C44.96 93.51 44.89 89.3 44.92 85.1C44.93 83.48 46.07 81.95 42.75 81.6C40.96 81.42 39.21 77.95 38.02 75.67C37.16 74.02 37.26 71.87 36.93 69.94C36.26 72.05 35.58 74.16 34.93 76.28C34.84 76.58 34.97 76.95 34.91 77.27C33.72 83.3 38.39 87.12 40.9 92.44Z" fill="black"/>
<path d="M156.65 235.19C151.14 232.35 145.4 230.41 140.73 227.01C133.31 221.61 126.86 215.15 122.18 206.91C117.52 198.7 114.9 189.93 114.03 180.81C112.11 160.64 120.19 143.7 132.81 128.69C136.46 124.34 141.08 120.8 145.33 116.98C145.97 116.4 147.28 115.75 147.85 116.03C154.59 119.34 157.65 113.36 161.78 110.49C173.41 102.41 185.95 96.3401 199.96 94.0601C207.92 92.7701 216.12 91.6301 224.1 92.1701C237.39 93.0601 249.46 97.5401 258.19 108.59C259.33 110.03 261.15 112.26 263.66 109.72C269.52 103.79 277.26 101.71 285.03 101.1C303.09 99.6901 318.94 105.16 331.81 118.34C342.8 129.59 349.51 142.81 348.8 158.76C348.01 176.44 339.83 190.23 324.92 199.96C312.75 207.9 298.96 211.5 285.11 214.87C281.54 215.74 277.73 215.54 274.05 216.02C273.28 216.12 271.91 217.28 272.01 217.58C274.39 225.08 276.55 232.69 279.56 239.94C282.15 246.18 288.26 249.04 293.94 251.88C297.39 253.61 301.06 254.74 300.92 259.58C300.83 262.83 296.46 267.98 292.98 268.96C284.33 271.4 275.68 273.87 267.03 276.32C266.13 276.57 265.21 276.82 264.29 276.93C260.79 277.36 256.97 276.38 256.31 273.19C255.96 271.47 259.34 268.26 261.7 266.86C266.32 264.13 271.44 262.25 276.29 259.9C277.29 259.42 278.04 258.42 278.91 257.66C278.27 256.95 277.72 256.15 276.99 255.55C268.9 248.85 264.52 240.3 262.73 229.9C261.7 223.9 258.89 218.2 256.91 212.35C255.6 208.48 253.95 209.76 251.62 211.62C244.28 217.51 237.34 224.25 229.16 228.65C219.8 233.68 209.54 237.08 198.56 238.08C184.46 239.37 170.56 239.94 156.65 235.19ZM130.9 199.44C131.96 201.5 132.83 203.69 134.11 205.6C144.05 220.42 158.61 227.44 175.83 228.78C186.61 229.62 197.4 228.78 208.09 226.03C239.48 217.97 256.84 194.58 261.47 165.08C263.61 151.42 262.43 137.25 255.76 123.67C251.47 114.94 245.1 111.08 237.26 108C225.16 103.23 212.42 104.17 200.44 107.24C181.96 111.97 165.25 120.62 153.05 136.2C151.13 138.66 148.51 140.57 146.5 142.98C144.75 145.08 143.58 144.57 142.18 142.76C140.2 140.19 138.74 140.27 136.96 143.28C126.59 160.78 124.03 179.07 130.9 199.44ZM282.4 113.94C280.68 114.61 278.96 115.29 277.23 115.94C271.12 118.22 268.83 121.48 269.95 126.73C270.33 128.51 271.35 130.15 271.89 131.91C275.4 143.52 275.68 155.26 274 167.24C272.57 177.47 269.13 186.81 263.77 195.51C262.11 198.2 259.98 200.59 258.2 203.22C257.82 203.78 258.05 204.76 258.01 205.54C258.58 205.57 259.16 205.7 259.71 205.61C265.01 204.74 270.27 203.63 275.6 202.97C290.91 201.08 305.36 196.54 318.75 188.89C326.41 184.51 333.72 178.72 335.63 170.03C338.67 156.17 337.23 142.85 327.58 130.83C315.88 116.26 301.68 110.28 282.4 113.94Z" fill="black"/>
<path d="M440.9 398.94C443.02 393.65 444.41 388.34 447.42 384.2C452.73 376.89 458.56 369.81 465.07 363.57C470.63 358.24 477.25 353.93 483.78 349.76C487.31 347.51 491.2 348.6 494.24 351.76C496.53 354.14 499.27 356.18 501.15 358.84C503.71 362.48 506.71 361.72 509.82 360.48C522.12 355.61 534.39 350.63 546.66 345.67C551.23 343.82 555.72 341.8 560.33 340.07C562.85 339.12 572.08 345.11 571.7 347.66C571.49 349.08 569.44 350.68 567.86 351.36C559.39 355.03 550.8 358.43 542.26 361.94C533.86 365.38 525.62 369.33 517 372.09C512.01 373.69 506.41 373.84 501.09 373.81C496.29 373.78 492.9 370.71 490.82 366.36C488.98 362.51 486.25 361.23 482.98 364.45C476.16 371.17 469.34 377.93 463 385.09C459.72 388.8 457.49 393.43 454.73 397.6C450.86 403.44 445.81 404.1 440.9 398.94Z" fill="black"/>
<path d="M45.1501 232.19C42.9601 233.38 40.9 234.14 39.14 235.34C38.41 235.84 38.3 237.26 37.9 238.26C38.8 238.15 39.69 238 40.59 237.95C43.4901 237.8 46.1501 237.48 45.9901 242C45.7601 248.32 43.3 250.83 37.16 249.94C25.99 248.32 16.7701 243.94 9.58005 234.49C3.97005 227.13 5.22005 211.85 11.5101 203.83C16.0601 198.03 20.6301 191.9 28.5201 191.01C33.91 190.4 39.53 190.83 44.93 191.62C49.84 192.34 49.2 196.79 48.76 200.22C48.55 201.84 46.89 202.73 44.5401 202.07C41.5 201.22 38.2001 201.2 35.01 201.01C34.34 200.97 33.6101 201.74 32.91 202.13C33.57 202.74 34.12 203.64 34.9 203.9C40.16 205.69 45.89 206.68 48.78 212.33C51.69 218.04 50.0801 227.26 45.1501 232.19ZM19.9001 210.44C15.3201 218.22 16.2801 225.84 20.8801 230.37C21.4001 230.88 22.26 231.05 22.96 231.38C23 230.46 23.25 229.5 23.05 228.64C22.42 225.94 20.8701 223.22 21.0801 220.61C21.3801 216.83 22.91 213.15 23.91 209.43C24.12 208.64 24.3 207.83 24.49 207.03C23.59 207.2 22.5201 207.13 21.8501 207.61C21.1601 208.1 20.8701 209.14 19.9001 210.44Z" fill="black"/>
<path d="M196.9 342.94C201.68 344.27 205.88 346.38 210.25 346.79C222.9 348 235.46 347.08 247.31 341.91C256.68 337.81 261.97 332.76 261.85 321.8C261.79 316.65 261.99 311.77 266.25 308.11C268.87 305.86 272.61 306.93 272.84 310.27C273.77 323.92 270.71 336.47 260.24 345.94C252.56 352.89 242.84 355.97 232.77 357.96C217.68 360.95 203.29 358.02 189.31 352.64C186.03 351.38 183.12 348.62 180.62 345.99C177.45 342.64 179.08 335.66 183.34 334.23C184.68 333.78 186.95 334.97 188.35 336C191.19 338.1 193.73 340.6 196.9 342.94Z" fill="black"/>
<path d="M67.6501 215.69C68.4901 214.19 69.3701 212.98 69.5901 211.66C69.8401 210.15 69.5101 208.54 69.4301 206.97C68.3901 207.66 67.4201 208.49 66.3001 209C63.9201 210.07 61.2401 212.09 59.0801 211.67C56.1601 211.1 51.3801 208.66 51.3501 206.93C51.2601 202.83 53.0701 198.47 55.0601 194.7C55.6001 193.68 59.4901 194.42 61.8401 194.37C63.9001 194.33 66.1201 194.83 67.9901 194.23C75.6101 191.78 82.2801 196.2 81.7801 204.25C81.3801 210.69 80.2801 217.17 78.7101 223.44C77.7701 227.21 77.3701 230.08 80.3801 233.11C81.7801 234.52 83.0501 237.17 82.7401 238.97C81.4901 246.18 79.7101 253.31 77.8801 260.4C76.9201 264.11 73.7501 265.46 70.4301 264.75C68.5001 264.34 65.8201 262.37 65.4701 260.69C64.9001 257.97 65.7601 254.86 66.4001 251.99C67.2901 248.01 67.9401 244.76 62.7901 242.77C58.5301 241.13 59.3901 237.14 60.7001 233.63C62.9201 227.73 65.1701 221.84 67.6501 215.69Z" fill="black"/>
<path d="M107.15 112.19C117.2 102.09 128.35 94.3399 141.57 89.7799C142.59 89.4299 143.68 88.9399 144.71 89.0199C145.72 89.0899 146.69 89.7899 147.68 90.2199C147.24 91.1399 147.02 92.2899 146.33 92.9399C142.91 96.1899 139.45 99.4199 135.83 102.47C130.57 106.91 124.98 110.98 119.9 115.61C117.24 118.03 115.52 121.46 113.08 124.17C111.16 126.31 109.03 128.5 106.53 129.77C105.06 130.52 101.88 130.22 100.94 129.12C99.7001 127.67 98.9201 124.5 99.6901 122.93C101.56 119.16 104.44 115.9 107.15 112.19Z" fill="black"/>
<path d="M303.9 88.9401C296.87 88.9401 290.29 89.4101 283.83 88.7001C281.37 88.4301 279.2 85.4701 276.9 83.7401C278.64 81.8101 280.05 78.7401 282.17 78.1301C291.17 75.5301 299.94 77.7101 308.38 81.0801C309.55 81.5401 310.82 83.6801 310.68 84.8901C310.56 86.0101 308.7 87.0601 307.44 87.8901C306.58 88.4601 305.42 88.6001 303.9 88.9401Z" fill="black"/>
<path d="M374.9 429.94C376.7 427.11 378.94 427.29 379.92 429.67C380.88 431.99 381.7 435.4 380.67 437.29C378.98 440.37 375.78 442.64 373.14 445.17C371.13 447.1 368.44 447.07 367.45 444.75C366.25 441.93 366.01 438.55 366.13 435.44C366.16 434.56 369.75 432.72 370.23 433.11C374.56 436.66 373.6 431.65 374.9 429.94Z" fill="black"/>
<path d="M225.65 173.69C228.01 171.74 229.48 168.07 233.08 170.7C235.49 172.46 235.41 178.36 233.58 180.84C231.04 184.28 228.76 181.58 227.06 180.37C225.17 179.01 221.6 177.16 225.65 173.69Z" fill="black"/>
<path d="M299.15 176.69C297 174.81 295.73 172.94 297.74 170.65C299.67 168.45 301.77 165.57 305.08 167.12C306.49 167.78 308.02 170.69 307.66 172.1C307.03 174.54 305.13 176.75 303.35 178.69C303.05 179.03 300.77 177.57 299.15 176.69Z" fill="black"/>
<path d="M757.888 129.28C747.724 129.852 737.806 129.995 727.908 130.526C712.582 131.342 697.276 132.424 681.95 133.404C677.379 133.689 672.828 134.2 668.256 134.343C655.91 134.751 643.563 134.873 631.216 135.384C620.461 135.833 609.706 136.506 598.951 137.323C583.605 138.486 568.258 139.956 552.911 141.16C542.809 141.956 532.707 142.487 522.606 143.12C521.483 143.181 519.973 143.528 519.3 142.956C512.994 137.568 514.789 144.099 515.096 146.141C516.402 154.591 518.259 162.96 519.81 171.39C521.83 182.413 523.524 193.476 525.708 204.458C529.605 224.033 528.34 243.832 528.565 263.57C528.585 264.836 528.871 266.367 528.279 267.326C527.32 268.939 525.748 270.163 524.442 271.572C522.891 269.694 520.095 267.857 520.034 265.918C519.626 254.263 520.177 242.567 519.749 230.911C519.075 212.479 517.014 194.17 511.728 176.391C506.708 159.49 505.361 142.201 506.259 124.688C506.626 117.646 507.218 110.583 508.341 103.643C508.647 101.704 510.912 99.0912 512.769 98.5809C518.381 97.0704 524.197 95.9886 529.993 95.5599C542.503 94.621 555.074 94.3352 567.584 93.4779C578.217 92.7431 588.829 91.5388 599.441 90.6202C611.359 89.5997 623.277 88.6403 635.175 87.7013C647.889 86.7012 660.624 85.6193 673.358 84.8233C686.378 84.0068 699.399 82.9045 712.419 83.0066C725.194 83.1087 737.99 84.7824 749.908 89.7425C759.194 93.6004 765.663 100.908 768.642 110.379C771.132 118.34 772.377 126.77 773.622 135.057C775.52 147.794 776.928 160.613 778.561 173.391C780.805 191.088 785.581 208.172 791.193 225.053C795.234 237.219 801.356 248.261 808.866 258.59C810.866 261.346 814.315 264.081 811.764 267.857C808.601 272.531 804.07 270.163 799.948 269.122C790.254 266.673 780.622 264.019 770.867 261.897C761.887 259.937 752.806 258.386 743.704 257.018C737.214 256.038 730.643 255.446 724.092 255.059C714.99 254.528 705.888 254.222 696.786 254.058C672.44 253.65 648.175 254.405 623.992 257.835C605.38 260.468 586.952 263.815 569.033 269.612C565.768 270.674 562.707 272.368 559.421 273.389C557.666 273.94 555.564 274.123 553.789 273.715C552.666 273.45 551.197 271.837 551.115 270.735C551.034 269.714 552.401 268.041 553.503 267.592C561.156 264.55 568.748 261.101 576.666 259.019C588.727 255.855 600.992 253.242 613.298 251.221C623.318 249.568 633.522 248.772 643.685 248.241C661.563 247.302 679.46 246.139 697.337 246.424C712.868 246.669 728.398 248.486 743.847 250.201C757.194 251.67 770.459 253.895 783.724 255.998C787.744 256.63 791.642 258.039 795.622 258.896C796.887 259.161 798.275 258.774 799.622 258.672C798.928 257.773 798.152 256.896 797.52 255.936C794.724 251.589 791.622 247.404 789.275 242.832C781.214 227.176 777.214 210.112 772.928 193.231C770.316 182.964 769.214 172.309 767.867 161.756C766.296 149.366 765.214 136.894 763.908 124.463C762.438 110.359 750.5 96.9888 736.602 94.5189C728.806 93.1309 720.909 91.947 713.031 91.6613C700.358 91.1918 687.623 91.151 674.95 91.6408C662.358 92.1307 649.808 93.4167 637.257 94.4781C626.461 95.3762 615.686 96.2744 604.91 97.4174C590.666 98.9075 576.441 100.704 562.176 102.214C556.83 102.786 551.421 102.847 546.054 103.235C537.891 103.827 529.708 104.337 521.585 105.235C515.973 105.848 516.667 111.093 516.014 114.706C515.116 119.809 515.218 125.116 514.891 130.321C514.687 133.649 516.075 135.486 519.565 135.322C534.361 134.69 549.177 134.118 563.972 133.342C572.462 132.893 580.931 131.954 589.421 131.464C607.482 130.403 625.563 129.505 643.644 128.505C647.889 128.26 652.114 127.75 656.379 127.566C666.134 127.158 675.889 127.096 685.623 126.525C699.011 125.749 712.358 124.484 725.745 123.708C735.643 123.136 745.561 122.932 755.479 122.749C757.234 122.708 759.01 123.545 760.785 123.973C759.969 125.688 759.051 127.362 757.888 129.28Z" fill="#1D8673"/>
<path d="M898.926 374.917C899.906 381.367 895.539 383.858 891.09 386.368C884.253 390.226 877.376 394.023 870.702 398.146C869.376 398.963 868.396 401.065 868.131 402.718C867.11 409.046 865.866 409.271 859.356 408.903C848.315 408.291 837.172 408.23 826.152 408.883C816.601 409.454 806.969 410.638 797.663 412.822C788.948 414.863 780.663 418.701 772.092 421.395C770.255 421.967 767.724 421.436 765.949 420.558C765.316 420.252 765.214 416.619 766.071 415.843C769.03 413.149 772.214 410.087 775.867 408.924C785.5 405.821 795.377 403.453 805.234 401.167C810.193 400.024 815.315 399.371 820.397 399.085C830.131 398.513 839.907 398.309 849.662 398.105C851.621 398.064 853.621 399.003 855.58 398.942C857.621 398.881 858.988 398.616 857.478 395.452C854.907 390.083 852.723 384.286 851.682 378.449C849.56 366.406 848.458 354.179 846.58 342.075C845.805 337.114 840.703 337.992 837.825 337.972C830.172 337.931 822.377 338.441 814.907 339.992C798.561 343.36 782.398 347.525 766.153 351.342C765.99 351.382 765.826 351.321 765.663 351.342C757.173 353.301 756.684 353.321 757.296 362.344C758.092 373.999 760.214 385.572 760.847 397.228C761.133 402.269 759.275 407.474 757.99 412.516C757.765 413.435 755.52 414.618 754.48 414.394C753.276 414.129 752.153 412.598 751.398 411.353C750.969 410.638 751.316 409.454 751.316 408.474C751.316 401.616 751.439 394.737 751.296 387.879C751.092 378.285 750.623 368.692 750.378 359.098C750.255 354.444 749.051 349.3 750.602 345.238C754.582 334.91 762.255 326.888 770.255 319.397C771.663 318.091 774.092 317.682 776.132 317.294C786.806 315.253 797.581 313.6 808.213 311.334C820.519 308.701 832.682 305.415 844.988 302.72C852.315 301.108 859.784 300.067 867.192 298.76C871.539 297.985 876.029 301.251 875.723 305.823C874.661 321.499 879.294 336.053 883.416 350.811C884.947 356.302 884.865 362.221 885.539 367.936C885.845 370.57 886.008 373.223 886.641 375.775C886.784 376.346 888.682 376.918 889.661 376.754C892.722 376.264 895.681 375.407 898.926 374.917ZM869.008 326.521C869.008 323.275 869.09 320.05 868.947 316.825C868.906 316.029 868.11 315.253 867.661 314.478C867.151 315.008 866.58 315.498 866.111 316.049C862.417 320.315 858.539 324.439 855.111 328.909C853.723 330.725 852.356 333.461 852.641 335.522C854.254 347.055 856.111 358.588 858.417 369.998C859.702 376.305 862.049 382.388 863.947 388.552C864.662 390.92 865.437 392.247 868.07 389.859C870.641 387.532 874.049 386.144 876.661 383.837C878.131 382.531 879.804 380.061 879.539 378.387C877.947 368.304 875.927 358.261 873.845 348.259C872.396 341.34 870.641 334.44 869.008 326.521ZM840.315 312.416C838.56 312.865 836.805 313.314 835.05 313.784C823.376 316.886 811.764 320.193 800.03 323.03C793.05 324.724 785.867 325.541 778.826 327.031C772.275 328.439 769.296 334.563 764.643 338.502C764.071 338.992 763.786 339.85 763.377 340.544C764.357 340.891 765.459 341.707 766.337 341.523C774.03 339.829 781.765 338.217 789.336 336.073C803.479 332.093 817.805 328.868 832.519 329.133C839.499 329.256 844.846 327.684 849.172 322.132C852.192 318.254 855.764 314.804 859.049 311.13C859.417 310.701 859.478 310.007 859.682 309.436C859.111 309.395 858.519 309.252 857.968 309.354C852.437 310.354 846.866 311.395 840.315 312.416Z" fill="#1D8673"/>
<path d="M1054.8 512.821C1039.47 513.8 1024.64 514.576 1009.82 515.801C997.537 516.821 985.272 518.23 973.027 519.679C963.66 520.781 954.333 522.271 944.966 523.516C942.252 523.884 938.864 523.312 939.374 520.291C939.783 517.883 942.721 514.413 944.966 514.066C958.313 511.943 971.782 510.494 985.21 508.983C990.068 508.432 994.986 508.289 999.884 507.983C1015.05 507.003 1030.21 506.166 1045.35 505.023C1055.17 504.288 1064.98 503.268 1074.78 502.104C1080.58 501.41 1086.29 500.206 1092.07 499.247C1095.03 498.757 1096.07 496.818 1095.66 494.144C1094.11 484.101 1091.92 474.14 1090.98 464.036C1090.21 455.688 1091.11 447.176 1090.72 438.766C1090.45 432.949 1090.19 426.519 1084.76 422.906C1081.37 420.64 1077.07 419.13 1072.98 418.64C1058.47 416.864 1043.94 417.15 1029.48 419.416C1024.96 420.13 1020.33 419.967 1015.78 420.477C1002.19 422.008 988.598 423.743 975.007 425.294C968.007 426.09 960.966 426.682 953.925 427.254C948.558 427.682 943.17 427.968 937.803 428.213C936.599 428.274 935.293 428.05 934.15 427.662C930.824 426.478 930.048 428.274 930.354 430.948C930.864 435.398 931.824 439.807 932.211 444.257C933.007 453.544 933.66 462.832 934.17 472.14C934.926 485.816 935.558 499.492 936.109 513.168C936.272 517.372 934.517 520.842 931.558 523.945C929.007 526.619 926.599 525.721 924.579 524.027C922.518 522.292 921.701 519.209 923.742 517.229C928.558 512.494 928.109 507.248 926.436 501.574C926.252 500.982 926.436 500.288 926.415 499.634C926.089 487.448 926.048 475.242 925.354 463.077C924.783 452.912 923.15 442.828 922.62 432.663C922.15 423.661 925.415 420.946 934.375 420.416C946.782 419.681 959.19 418.681 971.578 417.517C983.21 416.415 994.802 414.802 1006.43 413.721C1019.15 412.537 1031.88 411.618 1044.62 410.781C1057.64 409.924 1070.54 410.353 1083.19 414.251C1091.58 416.844 1095.31 423.192 1096.45 430.887C1097.8 439.909 1097.62 449.156 1098.64 458.259C1099.74 468.078 1101.62 477.794 1102.86 487.591C1103.37 491.653 1103.78 495.94 1103.09 499.92C1102.09 505.656 1097.02 507.983 1092.07 508.861C1083.64 510.351 1075.07 510.983 1066.56 511.902C1062.8 512.249 1059.05 512.494 1054.8 512.821Z" fill="#1D8673"/>
<path d="M647.971 307.313C645.298 319.662 642.726 331.746 640.502 343.912C639.706 348.219 639.849 352.709 639.441 357.098C638.481 367.712 646.032 372.958 654.991 374.632C660.012 375.571 665.134 375.938 670.216 376.652C673.501 377.101 674.93 374.979 676.501 372.652C677.277 371.488 678.746 370.815 679.909 369.916C680.685 371.202 681.664 372.427 682.215 373.815C682.766 375.203 682.909 376.775 683.236 378.244C684.44 383.817 683.338 386.43 678.113 386.164C666.603 385.593 654.828 386.021 643.991 380.714C634.543 376.081 629.89 368.12 629.93 358.098C629.951 349.423 631.339 340.707 632.747 332.114C634.277 322.806 636.441 313.6 638.563 304.415C639.053 302.271 640.073 300.006 641.522 298.434C642.747 297.107 644.951 296.719 646.726 295.903C647.542 297.822 648.767 299.679 649.073 301.679C649.338 303.374 648.542 305.251 647.971 307.313Z" fill="#1D8673"/>
<path d="M824.274 480.733C821.948 480.08 820.152 479.263 818.275 478.814C809.152 476.671 803.05 469.057 802.846 459.954C802.56 448.115 807.662 437.766 811.764 427.192C812.622 424.988 814.928 423.171 816.928 421.62C817.948 420.824 820.172 420.293 821.03 420.865C821.928 421.477 822.458 423.743 822.07 424.947C819.642 432.5 816.785 439.93 814.356 447.482C813.377 450.523 812.805 453.789 812.703 456.974C812.458 464.403 816.805 469.486 824.234 469.955C834.764 470.629 845.335 470.649 855.886 471.058C857.702 471.119 859.764 471.241 861.253 472.119C862.845 473.058 863.886 474.916 865.172 476.385C863.376 477.834 861.621 480.508 859.764 480.57C848.09 480.917 836.417 480.733 824.274 480.733Z" fill="#1D8673"/>
<path d="M813.336 385.144C809.438 387.573 805.866 388.104 801.785 386.001C800.417 385.287 797.907 385.94 796.295 386.736C787.785 390.839 783.805 388.594 783.418 379.265C783.254 375.04 786.316 370.611 790.397 369.202C790.826 369.059 791.458 368.733 791.683 368.917C796.213 372.346 799.989 369.325 804.356 368.182C809.683 366.794 813.05 369.488 816.335 375.04C816.846 375.918 817.478 376.714 818.05 377.551C818.499 376.449 819.458 375.265 819.335 374.244C818.723 369.529 817.805 364.855 817.009 360.16C816.805 358.935 816.315 357.608 816.601 356.506C816.886 355.404 817.988 354.506 818.744 353.526C819.539 354.199 820.764 354.73 821.07 355.587C822.009 358.119 822.866 360.752 823.233 363.426C823.805 367.467 824.417 371.611 824.131 375.652C823.866 379.204 826.05 379.694 828.254 380.061C829.703 380.306 831.335 379.572 832.866 379.265C831.886 378.408 831.05 377.306 829.927 376.734C826.784 375.122 825.927 369.753 828.723 366.038C829.988 364.344 831.866 362.732 833.805 362.017C835.274 361.487 837.294 362.466 839.07 362.772C838.784 364.222 838.315 365.671 838.233 367.12C838.131 368.998 837.56 371.57 838.539 372.652C841.151 375.591 843.294 378.898 841.213 382.286C838.947 385.981 834.988 387.777 830.233 386.41C826.294 385.287 822.335 384.205 818.315 383.572C816.825 383.327 815.152 384.409 813.336 385.144ZM807.254 374.673C805.009 374.713 802.601 374.836 804.825 377.939C805.458 378.816 807.172 379.367 808.356 379.286C809.397 379.204 810.356 378.061 811.356 377.387C810.315 376.489 809.274 375.591 807.254 374.673ZM790.724 380.51C792.173 379.265 793.642 378.02 795.091 376.775C794.091 376.408 792.642 375.428 792.193 375.755C790.948 376.755 787.601 377.163 790.724 380.51Z" fill="#1D8673"/>
<path d="M596.666 244.322C593.666 244.404 591.155 244.526 588.645 244.546C587.38 244.567 586.033 244.077 584.87 244.383C577.89 246.22 570.972 248.343 563.952 250.058C562.727 250.364 560.727 249.568 559.85 248.608C559.176 247.853 559.278 245.832 559.789 244.71C562.217 239.443 567.258 238.402 572.278 237.525C576.36 236.81 580.462 236.096 584.584 235.606C586.87 235.341 589.258 235.851 591.523 235.504C595.584 234.871 599.543 233.708 603.584 233.075C606.298 232.646 609.216 232.177 611.808 232.769C617.91 234.136 623.604 232.993 629.604 231.891C636.583 230.626 643.849 231.054 651.012 230.687C652.726 230.605 654.399 230.197 656.114 230.156C657.216 230.136 659.012 230.197 659.277 230.789C659.767 231.871 659.91 233.912 659.256 234.565C657.052 236.667 654.644 239.137 651.869 239.954C648.563 240.934 644.644 241.015 641.236 240.301C634.624 238.933 628.706 241.934 622.441 242.362C618.686 242.607 614.563 243.342 611.176 242.158C605.767 240.301 601.747 243.261 596.666 244.322Z" fill="#1D8673"/>
<path d="M635.584 164.552C637.073 164.226 638.053 163.654 639.073 163.613C648.175 163.225 657.277 162.919 666.399 162.613C667.379 162.572 668.522 162.266 669.277 162.674C671.114 163.654 672.767 164.961 674.501 166.144C672.461 168.206 670.644 171.737 668.359 172.064C660.971 173.105 653.42 172.86 645.951 173.35C638.053 173.86 629.971 173.738 622.318 175.473C611.013 178.024 599.727 178.841 588.319 177.983C586.482 177.84 584.829 175.146 583.074 173.636C584.768 172.227 586.299 169.961 588.197 169.614C591.707 168.961 595.421 169.594 599.033 169.39C603.074 169.145 607.115 168.655 611.135 168.104C619.114 166.961 627.094 165.736 635.584 164.552Z" fill="#1D8673"/>
<path d="M587.911 154.816C596.727 153.836 605.054 152.856 613.4 151.897C614.176 151.815 614.992 151.693 615.768 151.774C617.829 151.978 620.564 151.55 621.788 152.693C623.359 154.162 620.4 159.857 617.89 160.592C614.992 161.449 611.992 162.266 608.992 162.531C599.564 163.348 590.033 163.348 580.707 164.736C575.217 165.552 569.34 163.225 564.034 167.083C562.789 167.981 558.483 166.593 557.177 164.981C555.524 162.96 556.871 159.776 559.422 158.633C563.095 157 567.013 155.408 570.952 154.938C576.381 154.346 581.931 154.816 587.911 154.816Z" fill="#1D8673"/>
<path d="M869.253 493.123C868.416 486.611 873.641 482.815 875.559 477.63C876.029 476.385 877.09 475.364 877.743 474.16C879.008 471.833 879.151 470.425 875.641 469.914C869.172 468.996 862.723 467.649 856.396 465.975C854.825 465.567 853.764 463.24 852.458 461.811C854.233 460.341 856.049 457.586 857.784 457.626C863.131 457.769 868.478 458.933 873.804 459.77C876.518 460.198 879.212 460.79 881.926 461.26C889.192 462.546 892.314 467.016 889.028 473.548C885.498 480.569 880.62 486.938 876.131 493.47C874.131 496.368 871.682 496.042 869.253 493.123Z" fill="#1D8673"/>
<path d="M701.97 376.877C705.542 372.121 705.562 372.019 700.46 370.815C694.562 369.427 688.583 368.365 682.726 366.793C681.093 366.365 679.828 364.63 678.399 363.487C679.869 362.037 681.297 359.384 682.828 359.323C692.297 358.935 701.685 359.915 710.521 363.609C714.807 365.405 716.766 371.468 714.766 375.754C711.603 382.511 706.133 386.777 699.215 389.206C698.236 389.553 696.358 389.185 695.807 388.45C695.134 387.552 694.807 385.511 695.379 384.695C697.195 381.98 699.542 379.612 701.97 376.877Z" fill="#1D8673"/>
<path d="M544.157 186.924C543.177 180.678 542.218 174.922 541.238 169.186C541.218 169.043 541.075 168.9 541.075 168.778C541.218 166.144 541.361 163.511 541.503 160.878C542.85 162.736 544.606 164.43 545.503 166.512C549.707 176.167 550.891 186.413 550.952 196.824C550.993 207.724 551.136 218.644 550.871 229.544C550.789 233.34 549.81 237.137 548.912 240.872C548.687 241.771 547.197 242.363 546.299 243.097C545.912 242.118 545.218 241.179 545.177 240.178C544.769 232.218 544.279 224.257 544.218 216.276C544.177 210.581 544.993 204.886 545.054 199.191C545.095 195.252 544.483 191.333 544.157 186.924Z" fill="#1D8673"/>
<path d="M621.237 186.189C625.706 185.617 629.931 185.29 634.155 184.943C635.257 184.841 636.359 184.596 637.461 184.433C637.278 185.964 637.665 188.087 636.808 188.883C634.747 190.822 632.278 192.782 629.625 193.598C625.706 194.802 621.502 195.211 617.38 195.639C612.523 196.15 607.645 196.599 602.768 196.578C597.686 196.578 592.564 196.129 587.503 195.578C586.299 195.456 584.646 194.312 584.279 193.271C583.952 192.353 584.891 190.72 585.687 189.72C589.054 185.413 594.809 185.678 598.38 186.719C606.237 189.005 613.482 186.474 621.237 186.189Z" fill="#1D8673"/>
<path d="M780.745 383.184C781.153 386.103 781.602 388.818 781.316 391.451C781.214 392.431 779.398 393.962 778.418 393.921C777.459 393.88 775.887 392.268 775.724 391.186C774.847 385.185 774.255 379.122 773.704 373.08C773.479 370.672 773.459 368.549 770.173 370.713C769.357 371.243 768.01 370.855 766.99 371.182C764.561 371.978 761.724 373.04 761.908 369.039C762.01 366.977 763.5 363.691 765.031 363.221C772.132 361.078 779.418 359.425 786.744 358.323C789.112 357.976 791.826 359.813 794.316 360.854C794.785 361.058 795.112 362.221 795.01 362.874C794.948 363.303 794.05 363.772 793.438 363.915C790.642 364.63 787.744 364.977 785.051 365.936C777.459 368.631 778.785 366.732 779.54 374.591C779.806 377.408 780.173 380.184 780.745 383.184Z" fill="#1D8673"/>
<path d="M584.033 215.133C579.727 216.358 576.523 215.847 572.809 213.663C570.829 212.5 566.87 214.643 563.829 215.419C561.176 216.092 558.176 217.766 556.87 213.827C555.85 210.744 558.585 208.172 562.442 207.295C569.442 205.723 576.38 205.111 583.523 206.295C586.237 206.744 589.135 206.09 591.89 206.437C595.094 206.825 596.196 209.724 593.645 211.561C591.074 213.418 587.584 213.99 584.033 215.133Z" fill="#1D8673"/>
<path d="M976.006 492.388C983.312 490.633 990.047 490.735 996.598 493.409C997.332 493.715 998.251 494.715 998.23 495.368C998.21 496.021 997.19 497.022 996.455 497.185C993.047 497.981 989.598 498.777 986.108 499.144C980.925 499.675 975.721 500.002 970.517 500.063C969.108 500.083 967.68 498.879 966.251 498.226C967.047 496.613 967.435 494.246 968.741 493.572C970.68 492.572 973.231 492.735 976.006 492.388Z" fill="#1D8673"/>
<path d="M955.823 500.43C954.578 501.349 953.66 502.308 952.537 502.655C951.19 503.064 949.68 502.941 948.231 503.064C948.395 501.308 948.374 499.512 948.803 497.838C949.007 497.022 950.17 496.511 950.762 495.756C952.068 494.103 956.435 492.204 950.17 491.143C948.537 490.878 946.721 488.551 946.027 486.754C945.293 484.856 945.823 482.488 945.782 480.325C947.109 481.488 948.374 482.733 949.762 483.795C952.252 485.734 954.66 487.918 957.415 489.408C963.782 492.837 964.068 494.491 958.415 498.798C957.68 499.349 956.843 499.716 955.823 500.43Z" fill="#1D8673"/>
<path d="M535.402 237.504C535.075 235.218 534.361 233.402 534.544 231.667C534.687 230.319 535.932 229.074 536.708 227.788C537.891 228.85 539.769 229.707 540.116 230.993C540.891 233.789 541.361 236.831 541.075 239.688C540.871 241.648 539.197 243.444 538.197 245.302C537.259 243.506 536.279 241.75 535.442 239.913C535.197 239.382 535.402 238.647 535.402 237.504Z" fill="#1D8673"/>
<path d="M546.83 114.686C551.687 113.869 552.524 117.503 553.891 120.544C551.646 121.442 549.401 122.381 547.136 123.218C546.83 123.32 546.299 122.953 545.952 122.708C544.381 121.585 542.83 120.422 541.259 119.258C543.014 117.809 544.789 116.38 546.83 114.686Z" fill="#1D8673"/>
<path d="M558.972 114.196C560.503 113.951 562.299 113.42 562.972 114.053C564.462 115.482 566.013 117.421 566.238 119.299C566.36 120.258 563.687 122.442 562.238 122.483C560.177 122.544 558.054 121.156 555.952 120.401C556.891 118.421 557.809 116.441 558.972 114.196Z" fill="#1D8673"/>
<path d="M529.565 168.43C528.81 172.186 526.769 172.104 525.646 169.655C523.912 165.879 522.83 161.735 521.912 157.653C521.667 156.571 523.014 155.122 523.646 153.836C524.32 155.06 525.442 156.244 525.585 157.53C525.83 159.878 525.504 162.041 528.463 163.246C529.32 163.572 529.218 166.307 529.565 168.43Z" fill="#1D8673"/>
<path d="M524.687 118.83C525.912 117.768 527.096 116.85 528.34 116.748C529.687 116.646 531.096 117.299 532.463 117.646C531.585 119.667 531.075 122.034 529.647 123.525C529.157 124.055 526.341 122.524 524.728 121.667C524.402 121.463 524.687 120.116 524.687 118.83Z" fill="#1D8673"/>
<path d="M531.503 184.984C534.973 187.475 535.666 190.373 533.075 193.455C532.605 194.006 530.381 194.006 529.932 193.455C527.34 190.373 528.034 187.475 531.503 184.984Z" fill="#1D8673"/>
<path d="M533.442 210.275C529.789 208.458 530.422 205.356 530.626 202.559C530.687 201.845 531.973 200.722 532.769 200.661C533.606 200.6 535.299 201.661 535.259 202.131C535.034 204.866 534.422 207.56 533.442 210.275Z" fill="#1D8673"/>
<path d="M539.034 217.317C539.279 218.195 539.544 219.032 539.238 219.42C538.299 220.665 537.259 221.93 535.993 222.767C535.708 222.951 533.565 221.461 533.606 220.869C533.748 219.154 534.463 217.44 535.299 215.929C535.422 215.745 537.585 216.684 539.034 217.317Z" fill="#1D8673"/>
</g>
<defs>
<filter id="filter0_d" x="0.00341797" y="0.979736" width="1109.45" height="598.422" filterUnits="userSpaceOnUse" color-interpolation-filters="sRGB">
<feFlood flood-opacity="0" result="BackgroundImageFix"/>
<feColorMatrix in="SourceAlpha" type="matrix" values="0 0 0 0 0 0 0 0 0 0 0 0 0 0 0 0 0 0 127 0"/>
<feOffset dy="6"/>
<feGaussianBlur stdDeviation="3"/>
<feColorMatrix type="matrix" values="0 0 0 0 0 0 0 0 0 0 0 0 0 0 0 0 0 0 0.4 0"/>
<feBlend mode="normal" in2="BackgroundImageFix" result="effect1_dropShadow"/>
<feBlend mode="normal" in="SourceGraphic" in2="effect1_dropShadow" result="shape"/>
</filter>
</defs>
</svg>
