<svg width="1134" height="599" viewBox="0 0 1134 599" fill="none" xmlns="http://www.w3.org/2000/svg">
<g filter="url(#filter0_d)">
<path d="M139.15 543.19C141.09 542.63 143.43 541.44 144.35 542.14C150.64 546.88 157.16 543.16 163.37 542.55C165.43 542.35 167.36 537.93 168.85 535.17C175.3 523.19 181.56 511.11 187.9 499.07C188.91 497.15 189.75 495.11 191.02 493.38C194.45 488.7 194.51 484.03 192.33 478.71C190.64 474.58 189.51 470.06 189.04 465.62C188.64 461.8 186.33 461.37 183.62 460.96C178.74 460.23 173.35 460.65 169.09 458.66C164.59 456.55 160.96 452.35 157.42 448.63C156.79 447.97 157.93 444.69 159.11 443.4C164.64 437.37 171 432.36 179 430C182.51 428.96 183.8 426.92 183.97 423.32C184.43 413.59 185.23 403.87 185.89 394.15C185.92 393.65 185.72 393.06 185.92 392.67C186.84 390.89 187.86 389.16 188.84 387.42C186.57 387.27 184.3 386.95 182.03 386.99C165.67 387.27 149.31 387.8 132.94 387.92C110.37 388.08 91.0302 380.04 76.4702 362.78C66.0002 350.37 55.5802 337.53 51.6502 321.14C49.9602 314.09 48.4902 306.88 48.0402 299.68C47.4302 289.89 47.5302 280.01 48.0202 270.2C48.3202 264.08 49.7102 257.98 50.9602 251.95C51.6502 248.66 52.9802 245.05 57.4602 246.07C61.2202 246.92 62.1602 249.91 61.9402 253.62C61.1502 266.67 60.2402 279.72 59.9802 292.79C59.6802 307.67 62.3502 322.24 70.0502 335.05C78.8902 349.75 87.9702 364.83 105.12 371.51C111.88 374.14 119.17 375.89 126.38 376.8C134.98 377.89 143.75 378 152.44 377.86C159.34 377.75 166.21 376.37 173.12 376.07C177.46 375.88 181.84 376.71 186.2 376.96C203.95 377.99 221.75 378.46 239.44 380.15C251.51 381.3 263.18 380.08 274.78 377.46C282.16 375.79 289.44 373.5 296.52 370.83C300.24 369.43 303.95 367.15 306.77 364.36C312.01 359.2 310.98 353.96 305.72 346.47C298.96 336.86 292.35 327.17 289.35 315.74C287.33 308.03 286.48 299.94 290.16 292.27C290.78 290.98 292.14 290.05 293.16 288.96C294.07 290.37 295.36 291.67 295.82 293.21C297.03 297.23 298.12 301.32 298.84 305.46C300.63 315.68 305.43 324.47 311.25 332.83C313.31 335.79 315.25 338.84 317.27 341.83C322.84 350.07 321.71 359.92 315.02 367.42C304.82 378.86 291.69 383.81 277.13 387.19C263.87 390.27 250.63 391.55 237.24 390.81C224.42 390.11 211.67 388.28 198.89 386.95C196.92 386.75 195.34 386.67 196.02 389.67C196.9 393.53 197.78 397.49 197.78 401.41C197.77 410.11 197.01 418.8 196.95 427.5C196.91 433.53 197.25 439.59 197.99 445.57C198.4 448.91 200.33 451.18 204.56 451.03C220.08 450.49 235.61 450.3 251.14 449.94C264.17 449.64 277.2 449.31 290.22 448.91C291.6 448.87 293.38 448.75 294.26 447.92C300.43 442.07 306.79 441.25 313.9 446.27C314.64 446.79 317.67 445.73 317.68 445.35C317.73 443.35 319.09 440.52 315.41 439.92C309.65 438.99 303.94 437.52 298.14 437.03C286.61 436.06 275.04 435.13 263.48 435.05C246.79 434.94 230.09 435.6 213.4 435.93C212.23 435.95 210.72 436.4 209.97 435.84C207.78 434.22 205.89 432.18 203.89 430.31C205.61 428.52 207.07 426.25 209.14 425.07C210.94 424.05 213.45 424 215.64 423.97C225.2 423.86 234.76 424.05 244.31 423.9C258.34 423.68 272.42 422.36 286.38 423.19C299.46 423.97 312.41 426.89 325.4 428.96C328.16 429.4 330.93 430.05 333.56 430.98C336.95 432.17 337.27 430.25 337.96 427.7C339.62 421.59 339.14 414.3 345.2 410.29C349.14 407.69 353.83 406.23 358.13 404.16C371.06 397.94 383.95 391.66 396.88 385.45C398.4 384.72 400.03 384.21 401.64 383.67C407.48 381.71 410.12 383.28 409.79 389.34C409.06 403 407.77 416.62 406.93 430.28C406.6 435.59 406.77 440.95 406.95 446.27C406.99 447.56 407.77 448.97 408.57 450.06C411.99 454.72 411.93 456.52 406.58 458.81C400.07 461.6 393.27 463.75 386.47 465.77C370.13 470.62 353.46 474.5 337.42 480.19C327.39 483.75 318.42 480.88 308.97 479.57C305.7 479.12 302.34 479.32 299.06 478.88C294.69 478.29 290.14 477.96 286.09 476.41C282.56 475.06 283.43 471.61 285.31 469.1C286.89 466.99 289.09 465.34 290.86 463.36C291.43 462.72 291.54 461.66 291.86 460.8C291.05 460.51 290.24 459.96 289.43 459.97C272.9 460.25 256.37 460.54 239.84 460.96C233.31 461.12 226.79 461.7 220.25 461.9C215.03 462.06 209.8 461.8 204.59 462.05C203.64 462.1 201.83 464.02 202 464.53C203.48 468.87 201.72 474.18 207.4 477.4C211.04 479.46 213.08 484.24 216.06 487.59C224.3 496.86 232.29 506.24 237.34 517.78C238.5 520.43 240.88 524.55 242.63 524.52C246.59 524.44 251 522.91 254.31 520.64C258.01 518.11 260.66 514.8 264.69 519.95C264.95 520.28 268.3 519.04 269.31 517.8C274.05 511.96 275.65 512.04 278.92 518.69C279.12 519.11 280.36 519.05 281.12 519.15C282.8 519.37 284.82 519.04 286.11 519.86C289.31 521.89 292.18 524.43 295.19 526.77C301.23 531.47 303 546.79 292.08 553.98C284.82 558.76 276.69 561.19 268.35 561.73C257.35 562.44 245.85 563.84 235.53 558.74C229.65 555.83 224.54 551.19 219.48 546.86C217.34 545.02 219.33 539.13 222.2 537.08C230.37 531.24 230.06 531.38 226.03 522.5C221.74 513.03 215.66 505.04 208.31 497.81C205.51 495.05 203.59 495.12 201.73 498.54C196.78 507.66 191.87 516.8 186.81 525.86C184.53 529.94 181.54 533.67 179.61 537.89C178.6 540.1 178 544.18 179.23 545.47C193.38 560.24 183.17 572.9 169.56 577.8C157.29 582.21 144.53 585.15 131.42 585.88C125.55 586.21 119.38 586.99 113.83 585.62C108.92 584.4 104.62 580.57 100.16 577.72C96.5502 575.42 97.5202 572.25 99.0902 569.23C99.8102 567.84 100.73 566.41 101.92 565.43C106.2 561.9 108.24 558.32 105.41 552.5C104.74 551.12 107.95 546.71 110.32 545.29C113.66 543.3 115.2 546.92 116.73 549.34C117.5 550.55 118.29 551.74 119.07 552.94C119.32 551.76 119.27 550.38 119.89 549.45C121.21 547.49 122.61 545.3 124.54 544.17C125.3 543.72 127.48 546.06 129.18 546.7C130.64 547.24 132.57 547.74 133.86 547.21C135.79 546.45 137.26 544.74 139.15 543.19ZM393.9 451.44C394.23 450.25 394.81 449.06 394.86 447.86C395.26 438.52 395.51 429.16 395.92 419.82C396.2 413.31 396.65 406.82 397.04 400.32C397.09 399.52 397.25 398.74 397.35 397.95C396.57 398.08 395.7 398.02 395.03 398.37C390.92 400.51 386.97 403.01 382.75 404.9C373.34 409.1 363.76 412.89 354.38 417.14C352.87 417.82 351.48 419.85 351 421.54C348.55 430.04 346.36 438.61 344.2 447.19C342.67 453.23 341.24 459.3 339.95 465.4C339.4 468.03 340.17 468.08 342.76 467.1C349.96 464.37 357.38 462.17 364.78 459.99C374.28 457.17 383.85 454.6 393.9 451.44ZM249.9 541.44C249.42 534.5 245.06 536.98 241.38 537.99C239.75 538.44 238.1 538.97 236.64 539.79C235.57 540.39 233.91 541.78 234.08 542.38C234.45 543.71 235.57 545.23 236.8 545.87C244.95 550.06 253.82 548.98 262.49 548.9C274.25 548.8 274.17 546.37 275.88 538.14C276.1 537.09 276.12 536.01 276.23 534.94C275.32 535.57 274.48 536.31 273.5 536.8C271.3 537.91 269.08 539.5 266.79 539.63C265.93 539.68 264.9 536.22 263.87 534.41C263.55 533.85 263.03 533.08 262.55 533.04C262.03 533 261.17 533.57 260.94 534.09C260.19 535.77 259.79 537.62 259.01 539.28C256.85 543.94 254.76 544.54 249.9 541.44ZM165.4 558.94C164.13 558.67 162.55 558.79 161.65 558.06C158.74 555.7 152.1 554.53 150.38 557.4C148.52 560.49 148.72 564.85 148.26 568.68C148.22 568.98 150.29 570.1 151.05 569.85C157.02 567.88 162.93 565.75 168.8 563.5C171.49 562.47 173.63 560.83 172.85 557.38C170.7 557.9 168.55 558.42 165.4 558.94ZM121.4 572.94C122.92 572.61 124.44 572.03 125.97 571.99C130.62 571.86 135.28 572.1 139.91 571.82C140.87 571.76 141.73 570.1 142.64 569.18C138.25 568.07 138.91 564.57 138.86 561.35C138.85 560.88 138.31 560.41 138.02 559.94C137.65 560.49 136.83 561.36 136.96 561.55C138.61 563.87 137.6 565.95 135.56 566.53C133.9 567.01 131.63 566.17 129.9 565.34C127.12 564 125.07 562.69 123.66 567.13C123.22 568.52 120 569.06 118.02 569.93C117.01 570.38 115.94 570.71 114.89 571.09C115.89 571.71 116.84 572.48 117.92 572.89C118.65 573.16 119.57 572.94 121.4 572.94ZM318.4 460.94C316.54 461.27 314.66 461.52 312.83 461.99C312.12 462.17 311.54 462.86 310.9 463.32C311.45 463.86 311.95 464.79 312.57 464.88C315.91 465.35 319.27 465.71 322.64 465.91C324.64 466.02 327.42 466.52 328.5 465.47C329.97 464.03 330.37 461.31 330.83 459.06C331.2 457.23 330.9 456.32 328.51 457.65C325.73 459.2 322.46 459.88 318.4 460.94ZM179.4 439.94C179.17 440.17 178.94 440.41 178.7 440.64C176.77 442.42 174.83 444.19 172.9 445.96C175 446.62 177.11 447.27 179.2 447.95C180.07 448.23 180.97 448.99 181.74 448.85C182.85 448.64 184.76 447.81 184.75 447.26C184.72 444.61 184.16 441.97 183.78 439.32C182.65 439.52 181.53 439.73 179.4 439.94ZM288.9 539.44C288.34 538.34 287.77 537.23 287.21 536.13C286.44 537.97 285.55 539.77 284.98 541.66C284.83 542.16 285.69 542.96 286.09 543.63C287.03 542.56 287.96 541.5 288.9 539.44Z" fill="black"/>
<path d="M622.9 244.94C622.57 232.41 622.28 220.38 621.88 208.36C621.64 201 620.94 193.63 621 186.28C621.04 181.35 622.04 176.02 626.44 173.21C629.56 171.21 633.74 170.51 637.55 170.02C652.33 168.15 667.14 166.45 681.97 164.99C691.66 164.04 701.41 163.58 711.13 162.94C721.68 162.25 732.24 161.56 742.8 160.95C749.82 160.54 756.85 160.11 763.88 159.97C784.91 159.55 805.93 159.1 826.96 158.98C856.51 158.81 886.07 159.15 915.62 158.85C930.35 158.7 945.08 157.77 959.79 156.89C972.72 156.12 985.63 154.88 998.55 153.96C1005.07 153.49 1011.6 153.09 1018.13 152.98C1026.62 152.85 1032.62 156.58 1037.01 164.17C1043.58 175.51 1046.24 188.06 1049.94 200.34C1054.04 213.95 1058.2 227.56 1063.02 240.92C1065.99 249.15 1070.29 256.9 1073.88 264.91C1083.69 286.84 1093.36 308.84 1103.24 330.74C1109.45 344.51 1116.19 358.04 1122.18 371.89C1124.74 377.81 1126.86 384.18 1127.7 390.55C1129.18 401.72 1117.09 414.18 1105.74 416.07C1090.52 418.6 1075.21 419.05 1059.9 420.17C1022.51 422.9 985.11 421.45 947.72 421.93C918.19 422.31 888.67 422.76 859.14 422.87C844.61 422.92 830.08 422.42 815.56 421.89C803.83 421.46 792.1 420.8 780.39 419.89C766.09 418.77 751.83 417.26 737.55 415.94C722.94 414.59 708.34 413.06 693.71 412.01C683.71 411.29 673.66 411.26 663.63 410.94C652.44 410.59 641.23 409.84 630.05 410.16C625.86 410.28 624.02 408.88 622.14 405.78C620.33 402.81 621.08 400.64 623.05 398.15C624.36 396.5 625.72 394.33 625.78 392.35C626.3 372.16 626.83 351.97 626.78 331.77C626.75 321.38 625.39 311 624.93 300.6C624.14 282.22 623.57 263.83 622.9 244.94ZM643.4 398.94C660.26 399.27 677.12 399.61 693.98 399.94C694.48 399.95 694.99 399.89 695.48 399.95C707.09 401.27 718.7 402.68 730.32 403.92C740.73 405.03 751.16 405.9 761.57 406.95C774.35 408.24 787.11 409.82 799.92 410.87C808.75 411.59 817.63 411.68 826.5 411.93C840.19 412.32 853.89 412.93 867.58 412.88C894.27 412.78 920.97 412.42 947.66 411.91C980.05 411.3 1012.48 413.6 1044.84 410.05C1056.66 408.75 1068.62 408.81 1080.49 407.88C1088.93 407.22 1097.42 406.4 1105.73 404.83C1115.2 403.03 1119.31 396.61 1116.7 388.36C1115.03 383.1 1112.62 378.06 1110.41 372.98C1106.29 363.52 1102.06 354.11 1097.91 344.66C1091.58 330.28 1085.4 315.84 1078.93 301.53C1073.21 288.89 1067.41 276.28 1061.24 263.86C1051.24 243.76 1047.23 221.68 1040.15 200.62C1039.18 197.75 1038.24 197.96 1036.36 197.96C1026.47 197.95 1016.58 197.84 1006.69 198C1000.49 198.1 994.29 198.55 988.11 198.98C979.55 199.57 971 200.29 962.44 200.96C945.49 202.29 928.55 203.74 911.6 204.92C899.22 205.78 886.83 206.41 874.43 206.93C855.88 207.71 837.32 208.51 818.76 208.91C793.4 209.45 768.04 209.63 742.68 209.96C739.12 210.01 735.57 209.91 732.01 209.98C715.65 210.29 699.29 210.65 682.93 210.96C679.04 211.03 675.14 210.79 671.26 211.01C661.03 211.57 650.8 212.16 640.59 213.02C633.48 213.62 632.8 214.51 632.95 221.75C633.01 224.95 633.74 228.13 633.87 231.34C634.29 241.7 634.61 252.06 634.89 262.42C635.27 276.28 635.51 290.14 635.92 304C636.11 310.53 636.58 317.06 636.89 323.59C637.57 337.54 638.63 351.48 638.75 365.43C638.83 374.81 637.7 384.22 636.83 393.59C636.42 398.05 638.11 399.65 643.4 398.94ZM922.4 166.94C918.98 167.27 915.57 167.89 912.15 167.9C876.78 167.97 841.4 167.87 806.03 167.99C796.06 168.02 786.09 168.56 776.12 168.96C770.42 169.19 764.74 169.67 759.04 169.93C743.99 170.63 728.94 171.28 713.89 171.93C712.56 171.99 711.22 171.83 709.89 171.95C695.78 173.26 681.66 174.51 667.57 175.97C659.97 176.76 652.41 178.01 644.82 178.9C641.55 179.28 637.57 180.52 635.09 179.19C631.06 177.02 630.8 178.45 630.93 181.65C631.18 187.85 631.38 194.06 632.06 200.21C632.2 201.51 634.42 203.67 635.57 203.59C645.69 202.94 655.77 201.37 665.9 201.04C686.74 200.36 707.6 200.11 728.45 200C739.14 199.95 749.83 200.9 760.52 200.86C775.38 200.81 790.23 200.36 805.08 199.91C823.8 199.34 842.51 198.61 861.23 197.93C869.92 197.62 878.62 197.36 887.3 196.91C898.36 196.34 909.42 195.74 920.45 194.89C931.21 194.07 941.93 192.7 952.7 191.98C970.6 190.79 988.52 189.88 1006.43 188.95C1015.11 188.5 1023.81 188.26 1032.5 187.93C1035.95 187.8 1036.65 186.53 1034.96 183.33C1032.37 178.43 1029.87 173.43 1028.01 168.23C1026.48 163.95 1023.83 162.68 1019.69 162.91C1000.78 163.95 981.88 165.06 962.96 165.88C949.79 166.46 936.59 166.6 922.4 166.94Z" fill="#9B2C2C"/>
<path d="M182.65 58.69C170.9 63.84 168.91 62.79 159.91 51.61C159.03 50.51 158.34 49.26 157.55 48.09C152.39 40.44 144.47 41.46 139.55 49.52C135.92 55.48 130.95 60.66 126.28 65.94C123.93 68.6 120.62 68.7 117.58 66.91C113.43 64.45 111.21 66.28 108.8 69.76C105.96 73.84 102.61 77.63 99.0198 81.07C97.8898 82.15 94.8098 82.47 93.4098 81.7C90.1698 79.92 89.9198 81.02 89.8598 83.94C89.6898 91.77 87.8698 99.01 81.7898 104.58C76.9998 108.98 75.6998 109.42 71.2598 105.52C66.4298 101.28 62.6498 95.85 58.3998 90.95C57.5198 89.94 56.6198 88.95 55.7298 87.95C55.4598 89.44 54.7798 90.99 54.9698 92.41C56.1698 101.04 57.7998 109.62 58.8198 118.27C59.5298 124.31 57.2298 129.76 53.6998 134.59C51.5498 137.53 51.1698 140.29 53.6098 143.14C56.0198 145.96 58.6898 148.59 60.8798 151.57C61.8598 152.91 65.7398 153.52 62.9098 156.36C60.5998 158.68 58.1298 162.89 54.4098 159.69C49.7698 155.69 45.1098 151.18 42.0598 145.96C32.3398 129.26 26.0098 111.35 25.8698 91.7C25.8598 90.77 25.8398 89.59 25.2998 88.98C24.2598 87.8 22.8498 86.94 21.5898 85.95C21.3598 87.31 20.7398 88.74 20.9498 90.03C22.6298 100.64 24.4798 111.22 26.2498 121.81C27.1598 127.27 28.6898 132.74 28.7498 138.22C28.8598 149.01 34.1598 157.42 40.1398 165.53C42.8598 169.22 46.9998 171.87 49.6898 175.58C50.8098 177.12 50.6298 180.63 49.6298 182.47C47.2898 186.81 43.1298 185.26 40.6798 182.96C36.2098 178.78 32.6198 173.68 28.4798 169.13C27.2598 167.79 25.3498 167.11 23.9398 165.92C21.8398 164.16 18.3498 162.34 18.1598 160.31C17.2998 150.81 15.1498 141.72 11.8998 132.82C9.64978 126.67 8.44978 121.11 13.5498 115.02C15.6298 112.54 14.3198 106.81 13.7998 102.65C12.7898 94.49 11.2398 86.4 9.89978 78.29C9.29978 74.71 8.14978 71.13 8.20978 67.57C8.24978 65.16 9.97978 62.78 10.9498 60.39C12.7898 61.27 15.1398 61.71 16.3798 63.12C19.1798 66.31 21.3798 70.01 23.9398 73.42C24.4598 74.12 25.4898 74.44 26.2798 74.94C26.4798 74.05 26.8598 73.15 26.8598 72.26C26.8998 61.76 26.8898 51.26 26.8898 40.76C26.8898 39.76 26.5398 38.57 26.9498 37.79C28.3898 35.09 29.7398 32.14 31.9398 30.2C32.5198 29.68 36.9398 31.92 37.9598 33.79C40.4498 38.35 42.0798 43.4 43.8198 48.33C44.2898 49.66 43.6798 51.34 43.9598 52.79C44.1598 53.84 45.0098 54.77 45.5698 55.75C46.0098 54.77 46.7198 53.81 46.8398 52.79C47.2898 48.94 47.2498 45.01 47.9798 41.23C48.6898 37.53 48.7598 32.96 53.7498 31.98C57.5698 31.23 60.9998 34.33 62.9198 39.48C63.7498 41.69 64.9098 43.78 65.9198 45.92C67.1398 44.19 68.3798 42.46 69.5898 40.71C73.6998 34.75 77.8998 28.85 81.8598 22.79C86.1898 16.17 96.3798 12.39 103.05 20.35C108.69 27.08 109.24 26.6 116.26 20.1C121.51 15.25 126.74 10.3 132.5 6.10001C134.79 4.43001 139.04 3.33001 141.35 4.35001C144.44 5.70001 147.28 8.83001 146.94 13.29C146.69 16.6 146.62 19.98 147 23.27C147.22 25.17 148.06 28.01 149.38 28.53C151.09 29.21 154.02 28.65 155.61 27.51C163.11 22.1 170.32 16.29 177.66 10.66C181.7 7.56001 185.56 4.15001 189.9 1.55001C196.83 -2.60999 201.94 2.06001 202.86 8.95001C203.54 14.02 202.93 18.87 199.39 23C198.63 23.89 198.39 25.23 197.9 26.37C198.95 25.67 200.03 25 201.04 24.25C202.58 23.11 204.01 21.82 205.61 20.76C206.35 20.27 207.86 19.67 208.17 19.98C213.23 24.96 216.19 19.6 219.62 17.59C225.95 13.88 232.04 9.76001 238.3 5.93001C242.03 3.65001 245.15 5.02001 248.25 7.67001C251.79 10.69 252.7 14.44 251.64 18.59C250.14 24.43 248.11 30.12 246.47 35.93C246.18 36.95 246.68 38.19 246.82 39.33C247.77 39.19 248.87 39.33 249.64 38.88C256.21 35.01 262.92 31.31 269.19 26.99C274.21 23.54 276.82 22.84 279.5 26.11C280.32 27.12 281.14 28.91 280.8 29.97C278.55 36.97 277.34 44.67 270.26 48.95C269.34 49.51 267.29 49.55 266.67 48.92C265.91 48.16 265.99 46.45 265.95 45.14C265.9 43.74 266.14 42.33 266.26 40.92C265.02 41.55 263.56 41.94 262.57 42.84C256.9 47.99 250.13 50.63 242.69 51.59C237.6 52.25 232.71 46.16 234.15 41.21C236.1 34.52 238.23 27.89 240.08 21.18C240.53 19.54 240.19 17.69 240.21 15.93C238.64 16.57 236.87 16.93 235.54 17.89C226.66 24.28 217.88 30.81 209.06 37.28C208.31 37.83 207.51 38.49 206.65 38.66C202.24 39.53 199.4 42.2 196.51 45.59C192.47 50.31 187.47 54.2 182.65 58.69ZM112.4 53.94C113.4 53.94 114.64 53.56 115.36 54C119.91 56.83 122.94 54.27 125.25 50.94C127.43 47.8 128.27 43.62 130.75 40.81C136.99 33.73 135.36 24.94 136.86 16.84C136.96 16.27 136.33 15.57 136.04 14.93C135.63 15.47 135.27 16.07 134.79 16.53C128.23 22.78 122.31 29.97 114.92 35C106.58 40.67 101.29 39.31 96.9698 31.51C96.2798 30.27 95.4198 29.12 94.6398 27.93C93.3998 29.01 91.8798 29.89 90.9598 31.19C85.4098 39.01 80.1398 47.05 74.4498 54.77C71.6598 58.56 67.5898 60.31 62.6498 59.99C59.0598 59.76 57.5198 57.84 56.8698 54.64C56.8098 54.34 56.1898 54.16 55.8298 53.93C55.5198 54.55 55.0798 55.15 54.9398 55.81C53.3798 63.09 53.2598 70.83 47.9898 76.93C47.5598 77.43 48.1198 78.78 48.2298 79.74C49.0298 79.4 49.9198 79.18 50.6298 78.7C55.9898 75.04 59.7898 74.79 64.6998 80.21C67.8798 83.72 71.0398 87.24 74.2398 90.73C74.6198 91.14 75.1698 91.4 75.6398 91.73C75.7398 91.27 75.8898 90.81 75.9198 90.35C76.2698 85.5 76.6898 80.65 76.9098 75.79C77.3298 66.15 86.5498 61.09 94.6698 66.34C96.6898 67.65 96.8598 67.9 98.0498 65.54C100.83 59.96 104.5 54.98 112.4 53.94ZM172.4 45.94C174.44 46.57 177.58 48.35 178.33 47.63C182.51 43.64 187.49 39.6 189.56 34.5C192.29 27.79 192.6 20.1 193.86 12.81C194.01 11.92 193.61 10.94 193.47 10C192.67 10.42 191.76 10.72 191.07 11.29C183 17.97 175.13 24.9 166.85 31.3C163.1 34.21 163.31 36.54 166.08 39.64C167.92 41.69 169.63 43.84 172.4 45.94ZM40.8998 91.44C41.2498 93.45 41.4798 95.5 42.0198 97.47C42.1898 98.08 43.2098 98.46 43.8398 98.94C44.1998 98.2 44.8398 97.47 44.8598 96.72C44.9598 92.51 44.8898 88.3 44.9198 84.1C44.9298 82.48 46.0698 80.95 42.7498 80.6C40.9598 80.42 39.2098 76.95 38.0198 74.67C37.1598 73.02 37.2598 70.87 36.9298 68.94C36.2598 71.05 35.5798 73.16 34.9298 75.28C34.8398 75.58 34.9698 75.95 34.9098 76.27C33.7198 82.3 38.3898 86.12 40.8998 91.44Z" fill="black"/>
<path d="M156.65 234.19C151.14 231.35 145.4 229.41 140.73 226.01C133.31 220.61 126.86 214.15 122.18 205.91C117.52 197.7 114.9 188.93 114.03 179.81C112.11 159.64 120.19 142.7 132.81 127.69C136.46 123.34 141.08 119.8 145.33 115.98C145.97 115.4 147.28 114.75 147.85 115.03C154.59 118.34 157.65 112.36 161.78 109.49C173.41 101.41 185.95 95.3401 199.96 93.0601C207.92 91.7701 216.12 90.6301 224.1 91.1701C237.39 92.0601 249.46 96.5401 258.19 107.59C259.33 109.03 261.15 111.26 263.66 108.72C269.52 102.79 277.26 100.71 285.03 100.1C303.09 98.6901 318.94 104.16 331.81 117.34C342.8 128.59 349.51 141.81 348.8 157.76C348.01 175.44 339.83 189.23 324.92 198.96C312.75 206.9 298.96 210.5 285.11 213.87C281.54 214.74 277.73 214.54 274.05 215.02C273.28 215.12 271.91 216.28 272.01 216.58C274.39 224.08 276.55 231.69 279.56 238.94C282.15 245.18 288.26 248.04 293.94 250.88C297.39 252.61 301.06 253.74 300.92 258.58C300.83 261.83 296.46 266.98 292.98 267.96C284.33 270.4 275.68 272.87 267.03 275.32C266.13 275.57 265.21 275.82 264.29 275.93C260.79 276.36 256.97 275.38 256.31 272.19C255.96 270.47 259.34 267.26 261.7 265.86C266.32 263.13 271.44 261.25 276.29 258.9C277.29 258.42 278.04 257.42 278.91 256.66C278.27 255.95 277.72 255.15 276.99 254.55C268.9 247.85 264.52 239.3 262.73 228.9C261.7 222.9 258.89 217.2 256.91 211.35C255.6 207.48 253.95 208.76 251.62 210.62C244.28 216.51 237.34 223.25 229.16 227.65C219.8 232.68 209.54 236.08 198.56 237.08C184.46 238.37 170.56 238.94 156.65 234.19ZM130.9 198.44C131.96 200.5 132.83 202.69 134.11 204.6C144.05 219.42 158.61 226.44 175.83 227.78C186.61 228.62 197.4 227.78 208.09 225.03C239.48 216.97 256.84 193.58 261.47 164.08C263.61 150.42 262.43 136.25 255.76 122.67C251.47 113.94 245.1 110.08 237.26 107C225.16 102.23 212.42 103.17 200.44 106.24C181.96 110.97 165.25 119.62 153.05 135.2C151.13 137.66 148.51 139.57 146.5 141.98C144.75 144.08 143.58 143.57 142.18 141.76C140.2 139.19 138.74 139.27 136.96 142.28C126.59 159.78 124.03 178.07 130.9 198.44ZM282.4 112.94C280.68 113.61 278.96 114.29 277.23 114.94C271.12 117.22 268.83 120.48 269.95 125.73C270.33 127.51 271.35 129.15 271.89 130.91C275.4 142.52 275.68 154.26 274 166.24C272.57 176.47 269.13 185.81 263.77 194.51C262.11 197.2 259.98 199.59 258.2 202.22C257.82 202.78 258.05 203.76 258.01 204.54C258.58 204.57 259.16 204.7 259.71 204.61C265.01 203.74 270.27 202.63 275.6 201.97C290.91 200.08 305.36 195.54 318.75 187.89C326.41 183.51 333.72 177.72 335.63 169.03C338.67 155.17 337.23 141.85 327.58 129.83C315.88 115.26 301.68 109.28 282.4 112.94Z" fill="black"/>
<path d="M440.9 397.94C443.02 392.65 444.41 387.34 447.42 383.2C452.73 375.89 458.56 368.81 465.07 362.57C470.63 357.24 477.25 352.93 483.78 348.76C487.31 346.51 491.2 347.6 494.24 350.76C496.53 353.14 499.27 355.18 501.15 357.84C503.71 361.48 506.71 360.72 509.82 359.48C522.12 354.61 534.39 349.63 546.66 344.67C551.23 342.82 555.72 340.8 560.33 339.07C562.85 338.12 572.08 344.11 571.7 346.66C571.49 348.08 569.44 349.68 567.86 350.36C559.39 354.03 550.8 357.43 542.26 360.94C533.86 364.38 525.62 368.33 517 371.09C512.01 372.69 506.41 372.84 501.09 372.81C496.29 372.78 492.9 369.71 490.82 365.36C488.98 361.51 486.25 360.23 482.98 363.45C476.16 370.17 469.34 376.93 463 384.09C459.72 387.8 457.49 392.43 454.73 396.6C450.86 402.44 445.81 403.1 440.9 397.94Z" fill="black"/>
<path d="M45.1501 231.19C42.9601 232.38 40.9 233.14 39.14 234.34C38.41 234.84 38.3 236.26 37.9 237.26C38.8 237.15 39.69 237 40.59 236.95C43.49 236.8 46.1501 236.48 45.9901 241C45.7601 247.32 43.3 249.83 37.16 248.94C25.99 247.32 16.7701 242.94 9.58005 233.49C3.97005 226.13 5.22005 210.85 11.5101 202.83C16.0601 197.03 20.6301 190.9 28.5201 190.01C33.91 189.4 39.53 189.83 44.93 190.62C49.84 191.34 49.2 195.79 48.76 199.22C48.55 200.84 46.8901 201.73 44.5401 201.07C41.5001 200.22 38.2 200.2 35.01 200.01C34.34 199.97 33.61 200.74 32.91 201.13C33.57 201.74 34.12 202.64 34.9 202.9C40.16 204.69 45.89 205.68 48.78 211.33C51.69 217.04 50.0801 226.26 45.1501 231.19ZM19.9001 209.44C15.3201 217.22 16.2801 224.84 20.8801 229.37C21.4001 229.88 22.26 230.05 22.96 230.38C23 229.46 23.25 228.5 23.05 227.64C22.42 224.94 20.8701 222.22 21.0801 219.61C21.3801 215.83 22.91 212.15 23.91 208.43C24.12 207.64 24.3 206.83 24.49 206.03C23.59 206.2 22.5201 206.13 21.8501 206.61C21.1601 207.1 20.8701 208.14 19.9001 209.44Z" fill="black"/>
<path d="M196.9 341.94C201.68 343.27 205.88 345.38 210.25 345.79C222.9 347 235.46 346.08 247.31 340.91C256.68 336.81 261.97 331.76 261.85 320.8C261.79 315.65 261.99 310.77 266.25 307.11C268.87 304.86 272.61 305.93 272.84 309.27C273.77 322.92 270.71 335.47 260.24 344.94C252.56 351.89 242.84 354.97 232.77 356.96C217.68 359.95 203.29 357.02 189.31 351.64C186.03 350.38 183.12 347.62 180.62 344.99C177.45 341.64 179.08 334.66 183.34 333.23C184.68 332.78 186.95 333.97 188.35 335C191.19 337.1 193.73 339.6 196.9 341.94Z" fill="black"/>
<path d="M67.6499 214.69C68.4899 213.19 69.3699 211.98 69.5899 210.66C69.8399 209.15 69.5099 207.54 69.4299 205.97C68.3899 206.66 67.4199 207.49 66.2999 208C63.9199 209.07 61.2399 211.09 59.0799 210.67C56.1599 210.1 51.3799 207.66 51.3499 205.93C51.2599 201.83 53.0699 197.47 55.0599 193.7C55.5999 192.68 59.4899 193.42 61.8399 193.37C63.8999 193.33 66.1199 193.83 67.9899 193.23C75.6099 190.78 82.2799 195.2 81.7799 203.25C81.3799 209.69 80.2799 216.17 78.7099 222.44C77.7699 226.21 77.3699 229.08 80.3799 232.11C81.7799 233.52 83.0499 236.17 82.7399 237.97C81.4899 245.18 79.7099 252.31 77.8799 259.4C76.9199 263.11 73.7499 264.46 70.4299 263.75C68.4999 263.34 65.8199 261.37 65.4699 259.69C64.8999 256.97 65.7599 253.86 66.3999 250.99C67.2899 247.01 67.9399 243.76 62.7899 241.77C58.5299 240.13 59.3899 236.14 60.6999 232.63C62.9199 226.73 65.1699 220.84 67.6499 214.69Z" fill="black"/>
<path d="M107.15 111.19C117.2 101.09 128.35 93.3399 141.57 88.7799C142.59 88.4299 143.68 87.9399 144.71 88.0199C145.72 88.0899 146.69 88.7899 147.68 89.2199C147.24 90.1399 147.02 91.2899 146.33 91.9399C142.91 95.1899 139.45 98.4199 135.83 101.47C130.57 105.91 124.98 109.98 119.9 114.61C117.24 117.03 115.52 120.46 113.08 123.17C111.16 125.31 109.03 127.5 106.53 128.77C105.06 129.52 101.88 129.22 100.94 128.12C99.7001 126.67 98.9201 123.5 99.6901 121.93C101.56 118.16 104.44 114.9 107.15 111.19Z" fill="black"/>
<path d="M303.9 87.9401C296.87 87.9401 290.29 88.4101 283.83 87.7001C281.37 87.4301 279.2 84.4701 276.9 82.7401C278.64 80.8101 280.05 77.7401 282.17 77.1301C291.17 74.5301 299.94 76.7101 308.38 80.0801C309.55 80.5401 310.82 82.6801 310.68 83.8901C310.56 85.0101 308.7 86.0601 307.44 86.8901C306.58 87.4601 305.42 87.6001 303.9 87.9401Z" fill="black"/>
<path d="M374.9 428.94C376.7 426.11 378.94 426.29 379.92 428.67C380.88 430.99 381.7 434.4 380.67 436.29C378.98 439.37 375.78 441.64 373.14 444.17C371.13 446.1 368.44 446.07 367.45 443.75C366.25 440.93 366.01 437.55 366.13 434.44C366.16 433.56 369.75 431.72 370.23 432.11C374.56 435.66 373.6 430.65 374.9 428.94Z" fill="black"/>
<path d="M863.15 371.69C861.9 370.36 860.07 369.3 860.03 368.18C859.79 360.64 857.23 366.78 855.93 367.51C854.81 368.13 854.17 369.82 853.04 370.19C843.3 373.42 846.69 380.89 846.89 387.62C846.96 389.9 844.87 392.24 843.77 394.56C842.14 393.35 839.51 392.41 839.09 390.87C837.88 386.47 837.56 381.82 836.9 377.26C836.74 376.16 836.58 375.06 836.43 373.96C835.51 374.53 834.65 375.27 833.65 375.65C828.26 377.71 823.59 383.17 817.23 380.81C809.02 377.76 805.56 371.28 812.83 363.58C815.32 360.94 817.51 357.8 821.96 357.72C822.96 357.7 824.78 354.88 824.7 353.44C824.56 350.91 822.93 348.5 822.54 345.94C822.3 344.36 822.78 341.46 823.63 341.17C825.83 340.41 828.45 340.46 829.3 343.8C831.09 350.87 832.99 357.91 834.94 364.94C835.3 366.24 836.09 367.43 836.68 368.67C837.09 367.34 837.82 366.02 837.86 364.68C838.21 351.71 844.31 347.29 856.82 351.48C860.12 352.59 859.87 351.23 859.95 348.94C860.14 343.91 860.29 338.85 861.08 333.89C861.32 332.41 863.61 330.22 864.94 330.23C866.27 330.24 868.68 332.58 868.72 333.94C868.85 339.45 868.36 344.99 867.86 350.5C867.61 353.3 869.04 352.22 870.35 351.95C875.26 350.93 880.14 349.58 885.1 349.05C889.07 348.63 893.51 354.42 893.88 359.91C894.33 366.59 894.71 373.28 894.87 379.98C895.04 387.06 891.67 391.62 884.98 393.93C879.07 395.97 871.43 393.25 868.41 387.83C867.87 386.86 867.76 385.08 868.31 384.25C868.86 383.43 870.73 382.73 871.62 383.06C873.48 383.76 875.12 385.1 876.76 386.31C880.66 389.19 884.54 388.27 885.58 383.6C886.31 380.31 886.03 376.7 885.58 373.31C885.46 372.37 882.71 370.75 881.9 371.1C877.8 372.88 874.15 373.63 869.88 371.13C868.38 370.26 865.59 371.6 863.15 371.69ZM822.4 373.94C823.65 373.36 825.75 373.01 825.99 372.14C826.68 369.67 826.61 366.98 826.84 364.38C824.72 364.56 821.86 363.98 820.65 365.13C819.06 366.64 818.37 369.45 817.99 371.81C817.54 374.72 819.2 375.62 822.4 373.94ZM848.9 365.44C849.57 364.39 850.57 363.41 850.83 362.26C851.35 359.98 851.46 357.61 851.74 355.27C851.17 355.28 850.31 355.06 850.08 355.34C848.61 357.16 847 358.96 846.01 361.04C845.43 362.25 845.79 364 846.05 365.45C846.09 365.74 847.58 365.78 848.9 365.44ZM870.9 362.44C872.05 363.61 873.21 364.77 874.36 365.94C874.54 364.36 874.75 362.78 874.89 361.19C874.96 360.36 874.97 359.52 874.88 358.69C874.78 357.76 874.54 356.85 874.36 355.94C873.54 356.58 872.46 357.06 871.97 357.9C871.36 358.92 871.23 360.24 870.9 362.44ZM883.9 358.44C883.99 359.53 884.09 360.63 884.18 361.72C884.98 361.07 886.16 360.56 886.49 359.72C886.89 358.67 886.59 357.34 886.6 356.13C885.7 356.57 884.8 357 883.9 358.44Z" fill="#9B2C2C"/>
<path d="M702.15 351.19C707.12 350.27 711.83 349.41 716.57 349.06C717.96 348.96 719.45 350.3 720.9 350.98C719.73 351.97 718.72 353.37 717.37 353.86C713.17 355.4 708.83 356.58 704.57 357.96C703.96 358.16 703.45 358.69 702.9 359.06C703.37 359.68 703.71 360.58 704.34 360.89C708.76 363.07 713.22 365.18 717.73 367.17C718.23 367.39 719.64 366.86 719.72 366.49C719.94 365.43 719.98 364.15 719.57 363.18C718.09 359.75 718.55 356.07 721.9 355.2C725.42 354.29 727.64 357.7 728.88 361C728.99 361.29 728.78 361.71 728.91 361.99C729.69 363.65 730.52 365.29 731.33 366.93C731.85 364.82 732.86 362.7 732.76 360.62C732.65 358.2 731.3 355.86 731.06 353.43C730.99 352.69 733.24 350.87 733.68 351.08C736.53 352.46 739.68 353.8 741.75 356.05C743.75 358.23 744.86 359.54 746.82 356.48C749.81 351.8 753.14 354.89 756.43 355.94C758 356.44 759.64 356.7 761.25 357.07C760.85 355.58 760.32 354.11 760.08 352.59C759.29 347.57 758.38 342.55 758.06 337.49C757.99 336.37 760.14 335.12 761.27 333.93C762.81 335.74 765.15 337.32 765.74 339.4C767.78 346.6 769.21 353.97 770.9 361.27C771.02 361.8 771.29 362.3 771.49 362.82C771.96 362.35 772.7 361.94 772.84 361.39C773.31 359.56 773.49 357.67 773.9 355.82C775.1 350.52 777.85 349.31 783.22 350.65C790.78 352.54 795.36 356.53 797.28 364.5C798.38 369.08 796.47 371.35 793.75 373.44C786.8 378.79 779.37 377.99 772.87 371.64C772.5 371.28 771.53 370.87 771.37 371.03C766.2 376.11 759.17 372.67 753.49 374.99C749.62 376.57 746.88 375.58 744.1 372.83C743.49 372.22 741.49 372.43 740.46 372.93C734.59 375.78 728.91 377.3 721.98 376.28C716.9 375.54 711.35 378.36 705.95 379.27C702.76 379.81 699.43 380.01 696.22 379.76C695.04 379.67 693.99 377.82 692.89 376.77C694.06 376.15 695.17 375.22 696.42 374.97C700.44 374.15 704.54 373.67 708.56 372.84C709.44 372.66 710.12 371.54 710.89 370.85C710.08 370.2 709.35 369.4 708.44 368.94C703.77 366.54 698.73 364.72 694.47 361.75C690.52 359 691.41 355.77 695.93 353.91C697.93 353.11 699.91 352.27 702.15 351.19ZM787.9 365.44C787.13 363.27 786.36 361.11 785.59 358.94C784.03 360.18 781.42 361.22 781.14 362.69C780.72 364.95 781.91 367.51 782.41 369.94C783.3 369.71 784.35 369.69 785.06 369.19C786.13 368.45 786.97 367.37 787.9 365.44ZM760.4 365.94C760.69 364.94 760.97 363.94 761.26 362.94C758.42 363.27 755.54 363.44 752.77 364.09C752.25 364.21 752.18 366.23 751.9 367.37C752.86 367.56 753.9 368.09 754.75 367.87C756.36 367.45 757.86 366.6 760.4 365.94Z" fill="#9B2C2C"/>
<path d="M641.9 355.94C644.76 353.91 647.75 352.57 650.45 350.79C652.39 349.5 652.62 345.97 656.33 346.69C656.84 346.79 658.46 343.47 658.82 341.6C659.74 336.76 659.97 331.78 661.06 326.99C661.41 325.44 664.07 322.94 664.76 323.21C666.73 323.98 669.11 325.68 669.68 327.52C670.39 329.79 669.75 332.66 669.14 335.14C667.76 340.76 669.78 345.01 675.09 346.98C676.07 347.34 676.93 347.99 677.85 348.51C677.14 349.22 676.52 350.05 675.71 350.6C674.83 351.19 673.79 351.58 672.78 351.95C669.09 353.32 668.57 355.79 671.69 358.18C674.42 360.27 677.46 361.97 680.26 363.98C682.68 365.71 683.71 368.02 680.5 369.72C677.67 371.21 674.34 371.72 671.4 373.04C669.73 373.79 667.95 375.02 667 376.52C665.01 379.68 662.97 383.14 658.84 381.79C655.37 380.66 655.02 377.36 655.81 373.69C657.18 367.27 653.18 362.49 646.5 360.8C644.7 360.33 643.41 357.94 641.9 355.94Z" fill="#9B2C2C"/>
<path d="M909.9 364.94C916.57 367.25 919.04 366.4 923.39 361.08C924.28 359.99 926.14 358.99 927.42 359.13C928.56 359.26 930.3 360.96 930.4 362.09C930.77 366.29 930.89 370.57 930.41 374.74C930.24 376.25 928.13 377.54 926.91 378.94C925.24 377.4 922.35 376 922.16 374.31C921.82 371.19 920.13 371.99 918.51 371.96C916.18 371.91 913.82 372.2 911.54 371.86C909.76 371.6 907.82 370.93 906.47 369.82C905.43 368.97 905.18 367.15 904.58 365.76C906.19 365.48 907.79 365.21 909.9 364.94Z" fill="#9B2C2C"/>
<path d="M965.15 375.19C959.91 375.94 954.87 377.05 949.95 376.66C947.81 376.49 945.79 373.33 944 371.28C943.66 370.89 944.38 368.78 945.06 368.48C945.94 368.1 947.67 368.34 948.32 369.01C950.3 371.04 951.96 371.42 954.7 370.11C956.34 369.33 958.79 370.33 960.88 370.41C962.89 370.49 964.91 370.36 966.92 370.43C968.39 370.48 969.94 370.47 971.3 370.93C972.88 371.47 974.29 372.5 975.78 373.32C975.04 374.14 974.39 375.5 973.52 375.67C971.78 376 969.9 375.75 968.09 375.6C967.19 375.53 966.3 375.17 965.15 375.19Z" fill="#9B2C2C"/>
<path d="M922.9 343.94C927.25 344.45 930.47 345.79 929.78 350.46C929.59 351.73 928.09 353.17 926.83 353.78C926.18 354.1 924.13 353.02 923.76 352.13C922.67 349.57 919.31 347.21 922.9 343.94Z" fill="#9B2C2C"/>
<path d="M688.15 191.69C686.05 189.25 681.84 187.37 685.62 184.02C687.24 182.58 691.69 181.7 692.61 182.68C694.26 184.44 695.16 187.99 694.63 190.41C694 193.31 690.99 193.37 688.15 191.69Z" fill="#9B2C2C"/>
<path d="M645.15 189.69C642.9 186.16 645.48 184.12 647.53 183.14C649.34 182.28 652.45 182.07 653.15 185.66C653.58 187.84 655.83 190.16 653.16 192.08C649.95 194.39 647.62 192.03 645.15 189.69Z" fill="#9B2C2C"/>
<path d="M674.65 191.69C671.9 192.7 665.73 189.6 666.12 187.34C666.44 185.47 668.51 183.68 670.2 182.37C670.8 181.91 672.97 182.61 673.74 183.42C675.9 185.7 677.11 188.4 674.65 191.69Z" fill="#9B2C2C"/>
<path d="M225.65 172.69C228.01 170.74 229.48 167.07 233.08 169.7C235.49 171.46 235.41 177.36 233.58 179.84C231.04 183.28 228.76 180.58 227.06 179.37C225.17 178.01 221.6 176.16 225.65 172.69Z" fill="black"/>
<path d="M299.15 175.69C297 173.81 295.73 171.94 297.74 169.65C299.67 167.45 301.77 164.57 305.08 166.12C306.49 166.78 308.02 169.69 307.66 171.1C307.03 173.54 305.13 175.75 303.35 177.69C303.05 178.03 300.77 176.57 299.15 175.69Z" fill="black"/>
</g>
<defs>
<filter id="filter0_d" x="0.00341797" y="-0.0202637" width="1133.82" height="598.422" filterUnits="userSpaceOnUse" color-interpolation-filters="sRGB">
<feFlood flood-opacity="0" result="BackgroundImageFix"/>
<feColorMatrix in="SourceAlpha" type="matrix" values="0 0 0 0 0 0 0 0 0 0 0 0 0 0 0 0 0 0 127 0"/>
<feOffset dy="6"/>
<feGaussianBlur stdDeviation="3"/>
<feColorMatrix type="matrix" values="0 0 0 0 0 0 0 0 0 0 0 0 0 0 0 0 0 0 0.4 0"/>
<feBlend mode="normal" in2="BackgroundImageFix" result="effect1_dropShadow"/>
<feBlend mode="normal" in="SourceGraphic" in2="effect1_dropShadow" result="shape"/>
</filter>
</defs>
</svg>
