<svg width="842" height="931" viewBox="0 0 842 931" fill="none" xmlns="http://www.w3.org/2000/svg">
<g filter="url(#filter0_d)">
<path d="M247.86 213.49C261.77 213.38 269.66 221.44 275.89 232.03C276.64 233.31 277.81 234.35 278.79 235.49C279.15 234.08 279.68 232.7 279.83 231.27C280.69 223.11 284.19 216.27 290.68 211.34C293.98 208.83 297.63 210.72 299.35 213.71C302.08 218.46 304.23 217.8 308.68 215.53C316.73 211.43 325.48 208.69 333.99 205.52C339.19 203.58 344.42 201.68 349.77 200.24C351.83 199.69 354.25 200.47 356.5 200.64C356.27 203.11 356.91 206.28 355.61 207.89C353.64 210.33 350.46 211.96 347.55 213.44C341.93 216.31 335.87 218.42 330.58 221.77C329.13 222.69 328.94 227.12 329.61 229.54C331.37 235.91 333.92 242.06 336.16 248.29C337.72 252.65 338.4 257.03 335.82 261.22C335.04 262.48 333.73 263.42 332.66 264.5C331.73 263.44 330.4 262.54 329.93 261.31C325.82 250.52 321.51 239.78 318.05 228.77C316.73 224.58 314.58 224.22 311.28 224.62C309.89 224.79 308.49 225.09 307.17 225.54C306.33 225.83 305.63 226.5 304.87 227C305.5 227.83 305.96 229.04 306.79 229.4C307.78 229.82 309.08 229.49 310.25 229.5C311.63 229.51 313.02 229.52 314.4 229.53C313.89 231.35 313.67 233.34 312.78 234.96C311.79 236.76 309.28 238.11 309.05 239.87C308.55 243.63 308.64 247.61 309.35 251.33C310.06 255.07 311.82 258.61 313.1 262.24C313.95 264.65 314.92 266.52 311.7 268.7C308.62 270.8 307.2 270.61 304.86 268.09C300.06 262.93 299.51 256.26 297.92 249.96C297.34 247.67 298.96 243.84 294.49 244.61C290.96 245.22 288.05 247 287.77 251.51C287.5 255.92 286.87 260.38 285.74 264.64C284.96 267.57 283.08 270.51 279.17 269.39C277.89 269.02 276.13 267.53 275.99 266.38C274.54 254.83 270.55 244.09 265.84 233.58C265.64 233.13 264.87 232.47 264.68 232.57C264 232.9 263.12 233.4 262.91 234.03C260.23 242.09 254.9 248.03 248.07 252.77C246.61 253.79 245.87 257.02 243.09 254.54C242.95 254.41 242.1 254.73 241.89 255.05C239.41 258.79 243.04 266.96 247.44 267.49C255.36 268.44 261.96 265.24 268.13 260.76C269.01 260.12 270.01 259.64 270.95 259.09C271.09 260.56 271.76 262.24 271.28 263.47C268.85 269.75 264.54 274.27 258.14 276.77C250.83 279.62 239.66 279.51 234.33 272.54C229.74 266.53 230.26 259.54 231.13 253.02C232.08 245.88 234.92 239 236.81 231.96C237.08 230.95 236.78 229.7 236.46 228.64C233.61 219.23 236.86 214.47 246.86 213.51C247.02 213.47 247.19 213.49 247.86 213.49ZM258.86 231.99C259.45 231.4 260.04 230.81 260.63 230.22C258.14 228.57 255.75 226.7 253.09 225.38C252.06 224.87 249.48 225.22 249.18 225.89C247.66 229.25 246.62 232.83 245.53 236.36C245.24 237.31 245.36 238.39 245.3 239.41C246.32 239.1 247.44 238.97 248.34 238.46C251.71 236.54 255.02 234.49 258.86 231.99ZM290.86 232.99C295.81 233.33 294.91 229.69 294.76 226.89C294.7 225.73 293.58 224.62 292.94 223.49C291.91 225.41 290.7 227.26 289.94 229.28C289.61 230.17 290.19 231.41 290.86 232.99Z" fill="black"/>
<path d="M129.61 229.24C122.06 240.12 114.56 250.63 107.55 261.45C104.33 266.42 105.22 267.23 110.96 267.57C115.37 267.84 119.8 268.57 124.09 269.63C125.55 269.99 127.88 272.46 127.62 273.13C126.86 275.14 124.97 278.27 123.59 278.24C115.81 278.05 107.58 281.59 100.34 276.39C98.93 275.37 97.77 273.01 97.74 271.25C97.68 266.57 98.27 261.88 98.66 257.2C99.34 249.08 104.89 243.36 108.99 237.02C113.38 230.24 118.77 224.12 123.24 217.38C124.6 215.33 125.64 211.17 124.55 209.84C122.92 207.86 119.2 206.48 116.51 206.69C108.89 207.29 101.43 209.2 94.98 213.59C93.52 214.58 91.9 216.84 92.02 218.38C92.69 227.15 94.08 235.87 94.75 244.64C95.04 248.45 94.1 252.34 93.87 256.21C93.16 268.42 92.73 280.66 91.74 292.84C91.4 297.05 89.57 300.88 84.82 302.57C80.86 303.98 77.71 302.32 79.01 298.44C83.1 286.21 82.69 273.45 83.54 260.97C84.31 249.52 84.23 237.82 78.06 226.89C72.45 216.95 76.46 207.49 86.86 201.99C94.47 197.97 102.48 195.95 111.14 195.3C118.13 194.77 124.39 195.73 130.19 199.38C135.84 202.94 137.71 214.28 134.11 220.76C132.61 223.46 131.27 226.24 129.61 229.24ZM120.86 273.99C120.71 273.18 120.56 272.36 120.42 271.55C119.57 272.12 118.72 272.68 117.86 273.25C118.69 273.66 119.53 274.07 120.86 273.99ZM108.36 274.49C109.19 274.27 110.03 274.05 110.86 273.83C110.57 273.38 110.28 272.94 110 272.49C109.28 272.99 108.57 273.49 108.36 274.49Z" fill="black"/>
<path d="M425.11 200.74C429.63 201.43 434.35 201.51 438.06 203.49C444.25 206.78 444.28 215.15 441.15 222.6C439.78 225.86 437.7 228.82 435.93 231.91C434.78 233.93 434.83 235.58 436.92 237.11C446.38 244.01 446.27 253.29 436.38 259.33C430.87 262.69 424.74 264.46 418.16 262.31C417.49 262.09 416.77 261.71 416.11 261.78C413.94 262.02 410.58 263.45 409.87 262.59C407.66 259.94 405.41 256.56 405.06 253.27C404.13 244.66 404.23 235.94 403.82 227.27C403.75 225.73 403.5 224.06 402.81 222.72C399.25 215.8 400.17 215.5 404.8 210.23C409.98 204.3 417.33 202.26 425.11 200.74ZM415.86 223.99C415.53 229.9 415.75 235.9 414.73 241.69C413.21 250.28 421.61 254.3 428.23 251.43C430.27 250.55 431.99 248.93 433.86 247.65C431.99 247.26 430.01 247.13 428.26 246.44C425.12 245.2 421.49 244.21 419.31 241.93C418.24 240.8 419.38 236.69 420.58 234.52C421.89 232.16 424.13 229.88 426.51 228.63C431.34 226.1 432.61 221.57 433.72 217.1C434.5 213.96 432.23 212.29 429.03 212.54C427.16 212.69 425.29 213.08 423.46 213.52C417.3 214.99 415.86 216.82 415.86 223.99Z" fill="black"/>
<path d="M148.61 227.24C154.65 224.49 160.34 221.7 166.3 219.68C167.93 219.12 171.01 220.31 172.14 221.72C172.84 222.59 171.65 225.89 170.39 227.23C168.38 229.36 165.68 230.9 163.13 232.46C160.5 234.07 157.82 235.74 154.95 236.81C149.23 238.93 148.27 243.69 147.92 248.75C147.74 251.31 148.21 253.91 148.39 256.5C150.81 255.5 153.28 254.61 155.63 253.48C163.13 249.87 170.57 246.14 178.07 242.53C178.9 242.13 179.96 242.2 180.91 242.05C181.07 243.19 181.56 244.39 181.34 245.45C179.49 254.37 172.22 258.45 165.25 262.38C160.06 265.31 154.18 267 148.84 269.7C148.13 270.06 148.11 273.64 148.98 274.91C152.13 279.51 159.44 281.19 165.78 279.03C169.56 277.74 173.18 276 176.9 274.53C177.58 274.26 178.39 274.36 179.15 274.29C179.16 275.09 179.39 275.98 179.13 276.69C175.7 286.2 163.16 291.73 155.11 290.33C143.91 288.39 135.15 281.01 135.92 268.94C136.63 257.85 137.76 246.78 138.9 235.72C139.47 230.21 143.3 228.03 148.61 227.24Z" fill="black"/>
<path d="M515.86 203.49C522.05 203.16 527.73 202.7 533.43 202.56C535.57 202.51 538.66 201.23 538.9 205.43C539.13 209.41 537.84 212.44 533.88 213.45C524.07 215.94 514.2 218.23 504.31 220.42C503.1 220.69 501.45 220.08 500.32 219.37C496.76 217.14 495.34 219.6 494.99 222.18C494.49 225.94 494.71 229.83 494.9 233.65C495.1 237.54 498.04 237.96 500.94 237.45C506.64 236.45 512.27 235.08 517.95 233.96C518.92 233.77 520.13 233.82 520.93 234.27C521.28 234.47 521.26 236.28 520.79 236.83C518.19 239.82 515.82 243.3 512.57 245.33C509.13 247.47 504.75 248.05 500.89 249.59C499.7 250.06 498.07 251.41 498.06 252.38C498.05 253.47 499.42 254.9 500.56 255.62C504.97 258.44 509.45 257.88 513.95 255.57C514.83 255.12 516.09 255.39 517.17 255.32C517.16 256.46 517.56 257.82 517.08 258.7C513.48 265.25 507.88 268.31 500.4 267.49C493.63 266.75 488.9 263.03 486.66 256.68C485.57 253.6 485.06 250.2 484.95 246.93C484.71 239.45 484.86 231.95 484.88 224.46C484.9 217.72 488.26 214.92 494.06 211.26C500.77 206.99 508.13 205.7 515.86 203.49Z" fill="black"/>
<path d="M194.11 272.24C192.86 265.9 191.46 259.85 190.97 253.73C190.44 247.17 191.71 240.92 195.55 235.16C200.36 227.96 205.97 221.96 214.74 220.25C218.63 219.49 222.94 219.21 226.72 220.13C230.34 221.01 231.77 228.7 230.62 233.13C228.28 242.18 221.38 247.42 213.58 251.38C209.43 253.49 206.99 255.64 207.75 260.77C208.54 266.06 208.52 271.48 208.85 276.84C209.12 281.16 206.67 283.71 202.84 284.38C198.55 285.14 197.22 281.4 195.9 278.34C195.12 276.51 194.86 274.45 194.11 272.24ZM214.36 233.49C211.35 236.16 208.23 238.72 205.42 241.59C204.76 242.26 205.16 243.97 205.07 245.2C205.88 244.63 206.69 244.04 207.52 243.49C208.56 242.8 209.68 242.24 210.65 241.47C213.66 239.1 216.68 236.73 219.55 234.19C220.15 233.66 220.11 232.41 220.37 231.49C219.49 231.49 218.55 231.29 217.74 231.53C216.72 231.83 215.81 232.49 214.36 233.49Z" fill="black"/>
<path d="M375.61 242.74C371.2 241.28 365.83 244.26 364.85 248.26C363.89 252.18 363.3 256.27 361.7 259.92C360.73 262.12 358.03 265.17 356.3 265.06C353.32 264.85 351.27 262.16 351.82 258.34C353.6 246.08 354.44 233.61 357.23 221.59C358.34 216.84 363.27 212.69 367.14 208.97C369.53 206.68 375.99 210.46 378.85 215.28C381.16 219.17 381.75 224.18 386.36 226.6C386.8 226.83 386.95 228.11 386.82 228.83C385.26 237.45 387.46 245.73 388.52 254.16C388.8 256.34 384.97 259.03 383.02 261.49C381.45 259.81 379.08 258.37 378.46 256.39C377.13 252.07 376.68 247.47 375.61 242.74ZM370.86 223.99C368.71 220.71 368.24 220.59 366.93 223.7C365.75 226.5 365.13 229.55 364.43 232.53C364.38 232.76 365.7 233.74 366.15 233.61C372.87 231.56 373.18 230.96 370.86 223.99Z" fill="black"/>
<path d="M605.61 239.24C601.63 242.55 598.28 246.35 594.09 248.48C588.82 251.16 584.43 249.55 582.66 245.79C580.37 240.92 581.87 232.68 585.69 230.3C586.34 229.9 588.14 230.3 588.68 230.94C591.05 233.78 592.64 233.96 595.8 231.27C611.43 217.96 627.5 205.17 645.98 195.85C648.61 194.53 651.04 192.8 653.7 191.56C654.71 191.09 656.12 191.46 657.34 191.45C657.11 192.7 657.31 194.41 656.57 195.14C652.25 199.38 647.84 203.54 643.22 207.45C636.61 213.03 629.7 218.27 623.08 223.84C617.22 228.76 611.58 233.93 605.61 239.24Z" fill="#25A78B"/>
<path d="M446.11 264.24C447.39 256.46 448.9 248.93 450.45 241.4C452.47 231.61 454.34 221.81 451.81 211.83C451.48 210.52 450.9 208.95 449.91 208.17C446.23 205.28 448.19 202.87 450.35 200.53C452.83 197.84 455.46 198.1 458.23 200.33C462.35 203.64 462.52 208.43 462.76 212.93C463.37 224.55 462.66 236.07 458.93 247.28C457.44 251.76 459.11 253.15 466 254.5C468.91 255.07 471.83 255.66 474.66 256.52C479.66 258.04 479.86 259.69 476.22 263.69C472.62 267.64 468.38 265.64 464.27 265.51C460.72 265.4 457.15 265.61 453.61 265.44C451.19 265.33 448.78 264.82 446.11 264.24Z" fill="black"/>
<path d="M28.11 261.74C26.06 261.85 23.9 262.31 22.51 261.49C11.46 254.94 6.89996 250.64 13.94 238.38C16.44 234.02 19.47 229.83 22.88 226.14C27.2 221.47 35.61 222.99 38.88 228.46C42.07 233.8 42.78 239.34 40.65 245.2C38.21 251.87 34.93 257.92 28.11 261.74ZM26.86 248.99C31.54 249.54 29.59 245.3 30.75 243.36C31.04 242.87 29.93 241.53 29.46 240.59C28.55 242.11 27.48 243.56 26.78 245.17C26.34 246.14 26.48 247.37 26.86 248.99ZM17.86 242.99C17.19 244.67 16.46 246.33 15.92 248.05C15.81 248.41 16.4 249 16.66 249.49C17.99 248.06 19.47 246.72 20.53 245.1C20.7 244.82 19.12 243.39 17.86 242.99Z" fill="black"/>
<path d="M336.11 506.24C340.69 517.97 339.56 529.66 336.52 541.02C335.31 545.54 337.87 545.78 340.07 546.4C346.97 548.33 354.03 549.72 360.92 551.66C361.65 551.87 362.54 554.79 362.02 555.62C359.41 559.8 354.99 560.11 350.74 559.43C343.82 558.32 336.95 557.33 329.94 556.77C324.39 556.33 322.35 558.43 318.88 560.8C312.18 565.38 298.62 566.54 292.05 561.94C289 559.8 287.21 560.94 284.73 562.04C283.27 562.69 281.15 563.55 280.1 562.95C278.9 562.27 277.98 560.09 277.94 558.53C277.74 550.2 277.8 541.87 277.89 533.53C277.9 532.33 278.52 531.14 278.84 529.94C280 525.74 281.82 521.82 281 517.07C280.23 512.63 284.29 510.63 287.41 508.39C292.36 504.85 298.04 503.48 303.77 504.62C312.72 506.4 315.62 512.28 311.47 523.27C310.5 525.85 309.1 528.51 307.2 530.45C304.35 533.35 306.27 535.16 308.33 536.33C312.6 538.77 317.14 540.78 321.69 542.67C322.4 542.96 324.47 541.89 324.73 541.07C328.02 530.73 329.55 520.16 325.69 509.73C324.12 505.49 324.88 502.19 328.38 500.73C332.47 499.03 334.9 502.03 336.11 506.24ZM297.36 554.49C301.75 554.49 306.15 554.7 310.51 554.37C311.99 554.26 313.36 552.77 314.77 551.9C313.44 551.1 312.2 550 310.75 549.55C307.93 548.67 304.64 548.77 302.17 547.38C293.13 542.29 290.13 539.15 294.89 530.22C295.77 528.56 297.24 527.22 298.21 525.59C299.75 523.01 301.1 520.31 302.53 517.66C299.17 517.6 295.8 517.53 292.44 517.52C292.2 517.52 291.99 518 291.71 518.13C288.83 519.42 286.6 520.82 288.79 524.59C289.61 526 290.29 528.24 289.74 529.57C287.43 535.14 288.94 540.76 288.76 546.36C288.65 549.68 289.75 551.44 292.69 552.52C293.97 552.99 295.14 553.82 297.36 554.49Z" fill="black"/>
<path d="M200.11 561.74C192.55 570.29 183.23 570.74 173.43 568.41C169.19 567.4 165.06 561.24 165.95 557.76C166.35 556.21 167.42 554.56 168.69 553.65C169.2 553.28 171.31 554.49 172.23 555.44C176.89 560.23 182.31 559.69 187.9 557.88C189 557.52 189.88 556.47 190.86 555.74C189.96 554.65 189.26 552.96 188.12 552.59C182.39 550.7 176.55 549.14 170.74 547.5C169.83 547.24 168.61 547.51 167.97 547C162.56 542.72 159.09 545.44 155.04 549.56C150.5 554.17 144.54 556.72 137.93 557.6C136.48 557.79 135.21 559.43 133.86 560.39C134.88 561.27 135.76 562.49 136.94 562.98C144.72 566.19 152.58 565.96 160.51 563.4C161.64 563.03 163 563.37 164.26 563.38C163.84 564.54 163.7 565.94 162.95 566.81C154.28 576.8 135.75 579.31 124.48 568.57C118.19 562.57 118.42 554.71 118.97 546.95C119.2 543.69 120.07 540.46 120.9 537.28C121.87 533.55 123.51 530.91 128.18 530.32C134.81 529.48 141.29 527.51 147.83 526C148.12 525.93 148.38 525.48 148.61 525.51C151.28 525.88 153.94 526.3 156.6 526.71C155.37 528.79 154.21 530.92 152.89 532.94C149.64 537.92 144.13 538.87 139.02 540.42C138.08 540.7 136.87 540.12 135.79 539.9C134.75 539.69 133.71 539.43 132.67 539.19C132.4 540.58 131.74 542.05 132.01 543.33C132.2 544.2 133.87 545.54 134.59 545.38C141.71 543.75 148.9 542.24 155.75 539.79C157.62 539.12 157.96 534.94 159.81 533.25C164.76 528.74 170.07 524.6 175.41 520.55C177.6 518.89 180.39 518.02 182.67 516.45C185.75 514.32 188 516 188.93 518.34C189.63 520.08 189.22 523.3 187.98 524.57C185.51 527.09 182.09 528.66 179.15 530.75C177.71 531.77 176.46 533.08 175.13 534.26C176.82 535 178.45 535.98 180.21 536.45C188.27 538.61 196.59 540.41 200.13 549.34C201.67 553.23 203.29 557.39 200.11 561.74Z" fill="black"/>
<path d="M131.11 504.74C138.22 502.96 145.07 501.35 151.96 499.97C153.34 499.69 154.89 500.3 156.36 500.49C155.99 501.86 155.94 503.46 155.18 504.57C149.44 513.01 140.05 514.91 131.14 517.41C124.97 519.14 118.57 520.02 112.35 521.57C110.41 522.05 108.53 522.3 109.6 526.13C112.61 536.89 113.63 548.06 112.84 559.3C112.54 563.5 112.73 567.84 111.63 571.82C111.02 574.02 108.42 576.86 106.36 577.2C103.12 577.73 100.86 574.91 100.91 571.5C101.02 564.97 102.3 558.37 101.64 551.94C100.81 543.88 98.66 535.93 96.69 528.04C96.41 526.91 93.84 525.49 92.5 525.65C89.15 526.06 85.9 527.29 82.61 528.21C78.78 529.28 73.94 527.07 72.83 523.74C71.89 520.91 74.69 516.52 78.72 515.56C85.43 513.95 92.26 512.85 99.03 511.48C109.67 509.34 120.26 507.15 131.11 504.74Z" fill="black"/>
<path d="M250.86 544.49C243.07 547.21 240.36 552.83 239.34 560.2C239.06 562.2 235.39 565.23 233.41 565.13C230.63 564.99 228.4 562.44 228.76 558.48C229.44 551.16 229.49 543.79 229.9 536.45C229.96 535.41 230.21 534.03 230.91 533.43C236.29 528.79 237.51 521.81 240.9 516.08C244.85 509.4 254.53 505.1 260.38 507.57C265.58 509.76 268.12 514.61 269.41 519.67C272.67 532.55 271.17 545.47 268.91 558.36C268.24 562.2 265.32 564.02 262.56 563.24C259.4 562.34 259.17 558.62 259.48 555.36C260.02 549.73 260.43 544.09 260.84 538.46C260.88 537.86 260.61 537.24 260.48 536.63C259.79 536.91 258.95 537.01 258.45 537.49C256.03 539.75 253.71 542.13 250.86 544.49ZM248.86 524.99C247.59 528.72 246.32 532.45 245.06 536.19C248.46 534.99 251.82 533.66 255.27 532.64C258.41 531.71 259.43 529.56 258.78 526.74C258.28 524.57 257.06 522.57 256.16 520.5C254.13 521.6 252.09 522.69 250.07 523.81C249.79 523.95 249.59 524.25 248.86 524.99Z" fill="black"/>
<path d="M365.61 516.74C367.19 519.43 368.86 521.76 369.77 524.35C370.79 527.25 371.26 529.39 375.32 527.71C378.87 526.24 382.94 526.06 386.71 525.03C387.78 524.74 388.59 523.46 389.52 522.64C388.05 522.34 386.59 521.89 385.11 521.77C382.7 521.57 379.93 522.26 377.95 521.28C376.15 520.39 373.75 517.28 374.18 516.04C374.94 513.83 377.44 511.07 379.58 510.7C388.4 509.19 397.35 508.4 406.27 507.53C409.11 507.25 413.63 506.82 413.45 510.31C413.3 513.13 409.64 515.91 407.22 518.39C406.39 519.24 404.39 518.83 403.26 519.53C400.74 521.11 397.55 522.52 396.19 524.89C392.12 532.01 385.21 534.66 378.33 537.32C375.58 538.38 372.13 538.4 373 542.36C373.56 544.89 375.4 549 376.84 549.07C379.78 549.22 383.51 547.83 385.67 545.77C387.75 543.78 388.82 540.96 392.39 541.49C391.65 544.21 391.7 547.66 390.01 549.52C385.66 554.32 381.7 560.49 373.76 559.41C369.68 558.86 365.79 557.94 364.61 552.82C363.82 549.41 362.4 546.06 360.71 542.98C359.87 541.45 357.89 540.44 356.25 539.49C351.68 536.83 351.2 535.26 355.1 531.89C357.75 529.6 357.97 527.05 357.91 523.99C357.77 518.09 359.41 516.53 365.61 516.74Z" fill="black"/>
<path d="M551.11 517.24C550.62 513.85 547.88 510.21 552.09 507.93C553.53 507.15 556.28 506.89 557.4 507.75C564.6 513.3 564.59 513.54 572.65 508.15C583.71 500.76 596.39 497.2 608.61 492.53C609.63 492.14 610.95 492.32 612.08 492.52C613.28 492.73 614.41 493.29 615.58 493.69C615.06 494.73 614.82 496.16 613.99 496.74C607.83 501.08 601.7 505.47 595.29 509.42C586.71 514.7 577.57 519.13 569.27 524.81C562.12 529.71 552.03 526.77 551.11 517.24Z" fill="#25A78B"/>
<path d="M215.86 530.49C216.19 536.5 216.32 542.04 216.98 547.52C217.2 549.38 218.98 550.99 219.64 552.86C220.16 554.32 220.68 557.1 220.15 557.4C218.13 558.52 214.69 560.14 213.57 559.27C210.51 556.89 207.4 553.69 206.1 550.16C204.44 545.65 204.32 540.51 203.94 535.61C203.73 532.88 203.54 530.91 200.61 529.35C196.6 527.22 196.65 521.54 200.93 520.19C209.02 517.64 214.02 510.98 220.9 506.95C221.42 506.64 222.01 506.35 222.6 506.26C225.08 505.86 227.57 505.54 230.06 505.2C229.77 508.02 230.24 511.25 228.99 513.55C227.48 516.33 224.31 518.14 222.25 520.69C219.9 523.61 217.97 526.87 215.86 530.49Z" fill="black"/>
<path d="M51.86 529.49C57.92 532.83 58.85 534.69 56.8 540.19C55.57 543.5 54.08 546.85 52.03 549.68C48.09 555.11 45.83 555.26 40.34 551.46C31.98 545.68 31.8 544 39.33 536.59C42.7 533.26 45.37 528.48 51.86 529.49Z" fill="black"/>
<path d="M508.61 638.24C510.18 636.82 511.31 635.11 512.85 634.58C522.56 631.22 532.59 630.18 542.61 632.65C545.93 633.47 548.71 636.33 551.9 637.92C553.38 638.66 555.69 639.37 556.91 638.74C563.49 635.33 565.26 636.12 566.87 643.67C568.11 649.47 569.37 655.27 570.9 661C572.15 665.72 579.42 670.2 584.17 669.5C587.67 668.98 590.47 663.72 590.94 658.48C591.74 649.58 588.83 641.63 585.57 633.67C584.81 631.82 584.19 629.85 583.9 627.88C583.16 622.83 587.25 621.17 590.62 620.66C602.33 618.9 614.13 617.64 625.93 616.58C631.26 616.1 633.35 619.19 631.4 624.33C630.21 627.48 628.59 630.66 626.46 633.24C621.43 639.35 622.47 646.42 623.24 653.17C623.81 658.14 626.59 662.84 627.43 667.82C627.83 670.19 626.75 674.16 625.02 675.21C622.35 676.83 620.01 674.59 618.33 671.61C611.03 658.61 611.54 645.33 616.09 631.73C616.41 630.77 616.39 629.7 616.53 628.68C615.63 628.8 614.71 628.85 613.83 629.04C610 629.84 606.22 631.01 602.35 631.42C596.52 632.04 595.33 633.84 597.86 639.45C601.19 646.84 601.8 654.37 599.91 662.3C596.91 674.87 587.5 682.81 573.84 678.3C569.52 676.88 567.92 678.69 565.87 681.23C564.04 683.5 563 687.27 559.14 686.16C554.75 684.9 552.02 681.71 551.89 676.94C551.75 671.39 551.88 665.83 551.85 660.28C551.79 650.47 544.81 643.4 535.08 643.55C530.05 643.63 525.03 644.17 520 644.51C516.25 644.76 515.33 647.29 515.93 650.31C516.66 653.98 519.1 652.16 521.14 651.53C522.63 651.07 524.17 650.71 525.72 650.54C527.26 650.38 528.82 650.52 530.38 650.52C529.87 652.01 529.8 653.96 528.79 654.91C525.53 657.95 522.03 660.75 518.42 663.38C514.53 666.21 514.76 671.22 519.08 673.5C523.9 676.05 531.64 674.91 535.87 670.98C537.09 669.85 538.16 668.55 539.43 667.48C540.51 666.57 541.77 665.87 542.94 665.07C543.09 666.87 543.79 668.86 543.27 670.45C541.55 675.78 538.01 679.8 533.19 682.67C525.6 687.19 512.65 686.79 508.51 680.49C506.77 677.85 505 674.52 505.05 671.53C505.21 661.64 506.15 651.75 506.91 641.88C507 640.71 507.86 639.61 508.61 638.24Z" fill="black"/>
<path d="M136.86 698.49C137.86 693.8 138.97 689.64 135.93 685.69C135.45 685.06 135.75 683.73 135.88 682.75C136.85 675.33 137.16 667.73 139.15 660.59C140.17 656.94 143.71 653.38 147.01 651.09C154.74 645.73 163.2 641.21 172.96 641.63C180.43 641.95 185.31 645.3 185.7 653.99C186.07 662.37 185.14 670.81 184.87 679.22C184.71 684.44 186.72 688.53 191.8 690.46C196.96 692.42 202.31 692.4 206.99 689.51C208.19 688.77 208.3 685.34 208.01 683.26C206.81 674.66 204.77 666.15 203.96 657.52C202.78 644.78 209.94 636.45 220.32 630.58C224.17 628.4 228.47 626.89 232.72 625.59C235.91 624.61 239.41 625.52 239.66 629.32C239.89 632.76 238.26 635.91 234.45 637.58C229.51 639.74 224.62 642.13 220.04 644.97C216.66 647.06 214.69 650.46 214.84 654.74C214.97 658.53 218.22 660.95 221.9 659.97C228.8 658.13 235.69 656.23 242.64 654.61C243.81 654.34 245.48 655.09 246.49 655.9C246.86 656.2 246.25 658.2 245.65 659.15C240.53 667.34 231.56 668.85 223.37 671.38C219.1 672.7 218.67 673.58 220.39 677.78C222.2 682.2 223.25 687.08 223.69 691.85C224.02 695.47 218.88 697.77 215.29 696.63C213.45 696.05 210.62 695.79 209.32 696.79C200.6 703.5 191.71 703.81 182.33 698.53C179.47 696.92 177.84 697.62 176.05 700.66C171.12 709.05 163.38 713.98 153.89 715.42C145.28 716.68 136.93 708.24 136.86 698.49ZM147.86 696.99C149.22 703.65 152.76 705.9 159.64 704.49C166.83 703.01 175.96 693.75 174.79 688.62C172.79 679.89 173.97 671.39 175.88 662.9C177.36 656.33 173.41 651.84 167.35 653.54C163.79 654.54 160.32 655.84 156.82 657.04C155.22 657.59 153.41 657.89 152.11 658.86C149.46 660.84 147.38 669.19 149 671.86C149.51 672.7 151.89 673.24 152.89 672.78C155.7 671.49 158.18 669.51 160.92 668.04C161.7 667.62 162.92 668.03 163.94 668.06C163.73 668.88 163.76 669.89 163.28 670.5C160.42 674.17 158.07 678.72 154.35 681.13C148.47 684.94 147.16 689.79 147.86 696.99Z" fill="black"/>
<path d="M331.11 660.24C331.79 657.26 332.99 653.9 332.49 650.82C331.62 645.35 332.28 643.86 337.68 643.48C338.77 643.4 339.92 643.29 340.93 642.89C348.53 639.85 354.37 641.76 358.85 649.04C368.51 664.76 362.67 679.05 349.76 687.9C346.37 690.22 342.15 690.56 338.25 687.56C335.03 685.08 331.17 683.28 331.86 678.23C331.88 678.07 331.89 677.89 331.86 677.73C331.45 675.74 331.03 673.75 330.61 671.75C329.69 673.37 328.72 674.96 327.87 676.61C323.71 684.65 316.23 688.31 308.38 691.52C306.39 692.33 304.55 693.57 302.53 694.26C300.34 695.01 297.11 696.54 295.89 695.63C292.41 693.03 287.49 690.74 288.88 684.8C289.09 683.91 289.28 682.78 289.9 682.26C296.62 676.52 293.21 669.83 292.16 663.13C291.41 658.38 292.12 653.41 291.76 648.57C291.63 646.86 290.66 644.76 289.37 643.66C286 640.8 285.89 637.71 289.59 635.49C294.99 632.26 301.09 632.67 306.59 633.93C320.26 637.07 329.25 645.27 331.11 660.24ZM313.36 678.49C321.92 674.36 322.47 663.5 319.32 656.43C316.59 650.29 311.47 647.63 305.25 646.32C302.28 645.7 301.24 646.75 301.67 649.84C302.85 658.35 303.78 666.89 304.9 675.41C305.16 677.41 305.77 679.36 306.21 681.33C308.25 680.38 310.31 679.43 313.36 678.49ZM352.36 660.49C352.13 659.59 352.17 658.44 351.61 657.84C349.86 655.95 347.73 652.67 346.02 652.83C342.81 653.13 341.49 656.26 341.79 659.86C342.1 663.65 341.55 667.51 341.98 671.28C342.22 673.42 343.68 675.42 344.59 677.49C346.68 676.24 349.23 675.4 350.77 673.67C353.99 670.04 353.9 665.51 352.36 660.49Z" fill="black"/>
<path d="M669.86 647.49C669.53 646.63 669.12 646.31 668.87 645.9C668.21 644.79 667.61 643.63 666.99 642.49C666.45 644.16 665.47 645.84 665.46 647.51C665.42 653.99 665.99 660.49 665.65 666.95C665.56 668.53 662.86 669.97 661.35 671.48C659.52 669.6 656.15 667.76 656.11 665.85C655.91 655.29 656.39 644.7 656.97 634.15C657.08 632.15 658.2 629.72 659.66 628.38C664.02 624.39 667.81 622.29 671.46 627.89C674.69 632.85 676.48 638.75 678.85 644.27C680.73 648.65 682.14 653.29 684.52 657.37C685.46 658.98 689.69 660.68 690.28 660.12C692.04 658.43 693.65 655.65 693.7 653.26C693.84 646.25 692.99 639.23 692.93 632.2C692.88 626 691.64 619.52 695.85 613.95C696.01 613.74 695.75 613.12 695.91 613.01C698.08 611.51 700.28 610.07 702.48 608.62C703.44 611.58 705.13 614.51 705.25 617.5C705.72 629.93 705.11 642.43 706.12 654.8C706.63 661.01 710.64 661.93 716.93 660.67C721.3 659.79 726.1 659.91 730.52 660.69C734 661.3 736.5 664.71 735.67 668.25C734.92 671.43 732.75 674.36 728.46 674.55C718.88 674.99 709.68 674.25 701.38 668.68C700.19 667.88 697.65 667.87 696.38 668.6C685.31 675.01 672.6 664.29 670.9 655.07C670.44 652.72 670.19 650.35 669.86 647.49Z" fill="black"/>
<path d="M434.61 642.74C438.09 650.28 439.89 657.85 439.91 665.9C439.94 677.07 428.58 691.43 419.36 693.66C411.33 695.6 405.13 691.74 404.83 683.57C404.79 682.54 404.38 681.52 404.14 680.49C403.36 681.01 402.61 681.61 401.78 682.04C396.3 684.88 391.07 689 385.24 690.21C372.99 692.75 364.32 681.53 368.01 668.87C370.12 661.61 372.35 654.36 374.96 647.27C375.96 644.55 378.3 642.35 379.82 639.79C381.92 636.27 385.29 632.5 388.82 634.42C394.5 637.52 396.07 644.06 394.14 648.88C393.08 651.53 391.56 651.52 390.26 650.24C386.51 646.54 384.69 649.01 383.67 652.27C381.5 659.22 379.34 666.24 378 673.38C377.14 677.99 382.93 681.76 387.68 680.11C395.33 677.45 401.79 673.57 404.14 664.88C404.84 662.31 407.1 660.03 409.01 657.96C410.09 656.8 411.92 656.33 413.41 655.54C414.22 657.37 415.71 659.19 415.72 661.03C415.74 666.55 414.93 672.08 414.98 677.6C415 679.57 416.57 681.52 417.43 683.48C419.25 682.64 421.49 682.22 422.81 680.88C430.12 673.49 431.2 664.48 428.67 654.84C427.38 649.92 425.38 645.16 424.28 640.21C423.92 638.61 424.9 635.92 426.19 634.95C427.79 633.75 430.05 633.86 430.96 636.9C431.57 638.93 433.19 640.64 434.61 642.74Z" fill="black"/>
<path d="M82.86 672.49C76.09 666.22 76.32 660.9 82.49 654.27C89.34 646.91 96.98 640.7 106.22 636.71C112.04 634.19 118.24 633.22 124.32 635.62C126.13 636.33 128.12 638.3 128.68 640.11C129.47 642.68 129.36 645.76 126.35 647.5C125.7 647.87 124.9 648.5 124.31 648.38C111.85 645.8 102.61 652.26 93.63 659.33C92.74 660.03 91.71 661.84 92.03 662.47C92.53 663.45 94.07 664.13 95.3 664.46C101.91 666.22 108.65 667.55 115.17 669.58C122.75 671.95 129.31 676.59 131.65 684.21C135.68 697.32 132.49 703.95 117.61 711C109.84 714.68 101.24 715.83 92.5 713.55C87.08 712.14 83.02 706.6 84.79 702.76C85.73 700.71 86.21 700.32 88.58 701.39C98.92 706.09 108.91 705.5 118.32 698.6C122.48 695.55 123.08 691.11 119.86 686.95C115.9 681.84 110.21 680.74 104.44 679.47C97.19 677.86 89.37 677.89 82.86 672.49Z" fill="black"/>
<path d="M471.61 646.74C476.1 650.55 474.74 646.37 474.82 644.74C475.19 637.55 478.17 632.06 484.49 628.3C489.38 625.39 491.99 625.99 494.89 630.91C501.03 641.36 500.61 652.53 499 663.95C498.5 667.54 498.94 671.25 498.84 674.91C498.81 676.16 498.85 677.75 498.14 678.57C496.81 680.11 494.97 681.2 493.34 682.48C491.85 680.1 489.22 677.78 489.09 675.33C488.75 669.18 489.76 662.96 489.79 656.77C489.82 651.91 489.27 647.05 488.79 642.2C488.7 641.26 487.73 640.4 487.17 639.51C486.4 640.36 485.18 641.1 484.93 642.09C482.81 650.39 481.2 658.84 478.68 667.01C477.76 670.01 475.18 672.8 472.71 674.94C470.24 677.08 464.58 672.01 463.82 667.45C462.61 660.15 461.27 652.88 459.78 645.63C459.48 644.19 458.25 642.95 457.45 641.61C456.74 642.92 455.63 644.16 455.42 645.54C454.98 648.43 454.98 651.39 454.86 654.32C454.51 662.67 454.16 671.03 453.86 679.39C453.73 682.97 451.61 685.44 448.44 685.3C445.37 685.17 443.6 682.55 443.83 679.04C444.56 667.83 444.88 656.58 445.97 645.41C446.61 638.78 450.82 634.07 456.78 631.13C459.55 629.76 465.56 633.13 467.8 637.49C469.27 640.33 470.19 643.47 471.61 646.74Z" fill="black"/>
<path d="M823.86 618.49C812.85 625.66 802.37 632.88 791.83 640C785.48 644.29 776.08 639.37 775.88 630.81C775.8 627.59 775.03 624.05 776.11 621.25C777.14 618.59 779.95 615.21 782.38 614.85C786.03 614.31 786.14 618.71 786.81 621.5C787.15 622.92 786.35 624.77 786.98 625.92C788.12 627.99 788.64 631.19 792.83 628.25C807.71 617.81 822.96 607.88 838.11 597.81C839.08 597.17 840.36 597 841.5 596.61C841.4 597.96 841.56 599.4 841.15 600.65C838.95 607.44 833.2 611.18 828.12 615.48C826.88 616.51 825.61 617.49 823.86 618.49Z" fill="#25A78B"/>
<path d="M642.86 639.49C643.08 647.77 643.7 655.58 643.34 663.33C643.16 667.21 641.44 671.12 639.87 674.78C639.32 676.06 637.09 676.61 635.63 677.49C634.71 675.93 632.98 674.37 632.99 672.81C633.09 661.16 633.3 649.49 634.13 637.87C634.24 636.28 637.96 634.94 640.01 633.48C640.96 635.32 641.91 637.15 642.86 639.49Z" fill="black"/>
<path d="M55.6099 664.74C59.6499 669.64 59.1699 674.3 55.8599 678.93C54.1799 681.28 46.3599 683.4 42.9299 682.49C39.2599 681.51 37.0299 676.83 38.5999 673.27C42.4599 664.49 48.8299 661.41 55.6099 664.74Z" fill="black"/>
<path d="M255.61 670.24C257.37 668.49 258.63 666.2 260.43 665.66C263.59 664.71 267.06 664.76 270.41 664.5C274.39 664.19 274.27 666.57 272.8 668.93C269.26 674.62 263.57 678.03 258.08 675.47C256.01 674.51 253.85 673.47 255.61 670.24Z" fill="black"/>
<path d="M647.86 605.49C652.96 608.25 655.98 616.03 653.63 619.99C653.19 620.73 650.42 620.94 649.38 620.31C646.93 618.81 644.62 616.88 642.75 614.7C641.63 613.39 640.6 611.01 641.05 609.59C641.87 606.92 644 604.92 647.86 605.49Z" fill="black"/>
<path d="M83.8599 124.49C80.5599 100.01 80.9099 75.8899 80.7199 51.7699C80.6599 44.8499 78.9799 37.9199 77.7399 31.0399C77.5599 30.0299 75.7399 28.94 74.4899 28.61C73.4499 28.34 72.1199 29.12 70.9399 29.49C66.4999 30.87 60.7999 29.56 59.8699 26.92C58.8999 24.16 63.9899 18.5099 68.1499 17.4599C81.4399 14.1199 95.0899 13.8799 107.89 17.7799C127.56 23.7699 136.12 41.31 128.11 61.68C123.99 72.17 116.06 79.67 107.42 86.55C105.29 88.25 103.71 90.6399 101.87 92.7099C104.1 93.6399 106.27 95.1799 108.56 95.3899C120.2 96.4399 131.47 98.7299 142 104.03C142.56 104.31 143.73 103.88 144.32 103.4C144.64 103.15 144.6 101.9 144.26 101.45C136.3 90.9799 138.21 79.54 140.86 68.01C141.46 65.42 141.84 62.77 142.67 60.26C143.93 56.5 145.88 53.74 150.54 53.11C153.75 52.67 156.61 50.0099 159.84 49.2199C162 48.6899 165.46 48.9199 166.66 50.2799C167.8 51.5799 167.73 55.7599 166.51 56.9799C163.08 60.3899 160.7 66.18 154.05 64.56C153.53 64.43 152.3 65.2299 152.17 65.7799C151.29 69.6099 150.56 73.47 150.01 77.36C149.98 77.59 152.12 78.6399 152.98 78.3899C155.48 77.6699 157.91 76.6199 160.25 75.4699C166.48 72.3899 172.65 69.2099 178.83 66.0199C181.25 64.7699 182.45 65.72 182.86 68.12C183.72 73.14 182.04 77.42 177.79 79.94C171.28 83.79 164.51 87.23 157.66 90.43C153.25 92.49 152.58 94.6299 156.1 98.2299C163.12 105.4 176.28 108.16 185.56 104.28C188.37 103.11 190.13 101.34 189.98 97.68C189.65 89.31 189.56 80.8999 189.96 72.5299C190.42 62.9699 192.91 53.88 199.5 46.57C201.04 44.86 204.63 42.7399 205.84 43.4099C209.46 45.4099 208.33 49.41 207.2 52.57C205.5 57.35 202.13 61.7899 201.53 66.6399C200.48 75.0199 201.01 83.5999 200.88 92.0999C200.87 92.7699 200.87 93.4299 200.88 94.0999C201.06 104.54 208.22 105.46 215.89 101.82C219.68 100.02 222.86 96.94 226.39 94.55C227.24 93.98 228.4 93.87 229.42 93.55C229.57 94.65 230.16 95.9299 229.8 96.8299C225.92 106.67 218.73 113.25 208.48 115.24C203.94 116.12 198.89 114.39 194.8 111.13C193.78 110.32 191.06 110.15 190.16 110.91C181.99 117.78 172.79 119.06 162.98 115.95C158.77 114.61 155.01 111.91 150.9 110.15C149.69 109.63 147.48 109.66 146.62 110.43C142.83 113.82 138.24 113.55 134.35 112.23C125.02 109.06 115.68 106.65 105.76 106.37C102.09 106.27 98.4799 104.69 94.7999 104.05C94.2999 103.96 92.9299 105.5 92.9699 106.23C93.3399 112.68 94.1899 119.12 94.3799 125.57C94.5499 131.22 97.2699 137.34 92.3999 142.33C91.3099 143.44 89.0699 144.69 88.0099 144.26C86.6299 143.7 85.2099 141.63 84.9999 140.05C84.3099 135.07 84.1899 130.02 83.8599 124.49ZM120.86 39.99C118.11 33.6 113.09 29.4599 106.6 27.9599C102.04 26.9099 97.0699 27.76 92.2999 27.43C88.8099 27.19 87.5499 28.4099 87.8199 31.9099C88.5999 42.2599 89.1999 52.63 89.8599 63C90.1999 68.35 90.4599 73.6999 90.9199 79.0399C91.0199 80.1999 91.5799 81.59 92.4099 82.32C92.8399 82.69 94.5899 82.0999 95.3199 81.4599C101.46 76.1299 107.69 70.88 113.53 65.24C120.5 58.48 123.61 50.27 120.86 39.99ZM88.8599 90.99C89.4999 90.29 90.1399 89.5999 90.7699 88.8999C90.3299 88.7599 89.5399 88.46 89.5199 88.51C89.0799 89.48 88.7299 90.49 88.8599 90.99Z" fill="black"/>
<path d="M383.11 36.74C384.19 33.67 384.69 30.68 386 28.1C386.65 26.83 388.81 25.71 390.28 25.72C391.15 25.73 392.77 28.1 392.73 29.37C392.51 36.73 392.49 44.18 391.26 51.41C389.7 60.61 387.09 69.63 384.8 78.7C384.54 79.74 383.59 81.2201 382.74 81.3801C377.04 82.4901 373.13 85.42 370.1 90.55C365.29 98.7 356.45 100.97 348.11 103.38C342.8 104.91 337.29 107.48 331.65 103.84C329.18 102.24 327.26 100.9 326.64 97.43C325.92 93.45 322.9 89.91 322.02 85.93C320.99 81.22 321.14 76.2501 320.87 71.3801C320.49 64.5201 320.07 57.66 319.94 50.8C319.91 49.02 320.4 46.8301 321.48 45.5101C329.13 36.1601 339.27 31.4501 351.19 30.5101C362.69 29.6001 366.5 41.05 364.52 48.09C363.12 53.05 359.84 57.4501 357.76 62.2601C357.29 63.3401 357.85 65.58 358.74 66.37C360.04 67.51 362.06 67.88 363.8 68.48C368.43 70.09 371.46 72.95 371.94 78.14C372.02 78.98 373.21 79.71 373.89 80.49C374.54 79.52 375.79 78.53 375.76 77.58C375.44 65.48 380.76 54.57 382.8 42.98C383.15 41.04 382.86 38.99 383.11 36.74ZM338.86 46.99C336.86 48.96 333.89 50.61 333.09 52.99C331.88 56.55 331.78 60.65 331.95 64.48C332.35 73.54 333.28 82.5801 333.83 91.6301C334.03 95.0201 336.5 95.04 338.35 94.39C345.59 91.82 352.77 89.0101 359.79 85.8801C361.22 85.2401 361.87 82.86 362.87 81.27C361.14 80.34 359.5 78.89 357.68 78.59C353.54 77.92 349.28 78.05 345.13 77.43C338.09 76.38 335.34 74.79 335.83 69.11C336.24 64.29 339.94 62.25 342.98 59.42C347.36 55.33 351.56 50.98 355.33 46.33C357.09 44.16 356.18 41.72 352.72 42.55C348.2 43.63 343.8 45.15 338.86 46.99Z" fill="black"/>
<path d="M262.11 88.2401C262.95 75.0901 263.02 61.7801 269.16 50.1201C271.95 44.8301 277.39 40.67 282.28 36.83C285.88 34 289.91 35.45 293.42 38.48C302.13 46 304.36 56.5001 306.82 66.8801C309.16 76.7501 310.99 86.7401 313.56 96.5501C314.74 101.06 311.51 102.74 309.18 104.3C306.53 106.07 304.88 103.11 303.9 100.97C299.9 92.28 298.23 83.04 297.83 73.53C297.79 72.51 297.36 71.5001 297.11 70.4901C296.33 71.0201 295.52 71.51 294.78 72.08C290.24 75.59 285.78 79.21 281.11 82.54C280.59 82.91 278.93 81.82 277.87 81.27C276.96 80.8 276.16 80.12 275.31 79.53C274.83 80.49 273.9 81.4701 273.93 82.4201C274.1 86.9501 273.63 91.79 275.12 95.89C276.44 99.52 274.76 101.24 272.87 102.73C271.3 103.96 268.18 105.01 266.81 104.24C264.96 103.2 263.53 100.49 263 98.2401C262.26 95.1001 262.53 91.7501 262.11 88.2401ZM275.36 65.4901C275.19 66.5801 274.79 67.71 274.92 68.77C275.07 69.96 275.69 71.0901 276.11 72.2501C276.93 71.5901 277.73 70.91 278.58 70.28C281 68.5 283.2 66.17 285.9 65.09C297.33 60.55 294.59 60.9601 290.46 51.6101C290.4 51.4701 290.16 51.3901 290.13 51.2501C289.19 47.2301 286.25 47.97 284.4 49.65C279.92 53.72 276.42 58.6101 275.36 65.4901Z" fill="black"/>
<path d="M429.86 94.4901C420.58 93.1101 413.58 88.9101 411.78 79.8801C411.31 77.5201 410.46 74.7901 408.83 73.1901C405.62 70.0301 407.08 67.7201 408.92 64.7901C410.28 62.6101 411.74 59.9601 411.72 57.5301C411.6 42.1601 423.77 29.0801 439.5 27.4401C442.92 27.0801 446.31 25.54 449.65 25.71C451.77 25.81 454.58 27.6 455.66 29.45C457.17 32.07 453.08 37.6501 449.88 38.5101C443.6 40.1901 437.42 42.9901 431.06 43.5101C423.39 44.1301 422.97 49.3001 421.88 54.5001C420.57 60.7401 422.09 62.0601 428.32 60.5401C433.48 59.2901 438.65 58.12 443.86 57.09C444.41 56.98 445.71 57.9901 445.77 58.5701C446.14 62.1801 441.34 67.9901 436.91 69.4901C433.69 70.5801 430.41 71.4701 427.23 72.6601C422.36 74.4801 421.68 77.6101 425.94 80.8601C428.41 82.7401 431.81 84.1201 434.89 84.3201C439.87 84.6501 444.92 83.7701 449.95 83.5601C450.78 83.5201 451.73 84.14 452.42 84.7C452.61 84.85 452.14 85.9501 451.85 86.5501C447.83 94.5501 438.83 97.8701 429.86 94.4901Z" fill="black"/>
<path d="M613.86 5.49007C613.47 7.72007 613.65 9.99005 612.59 11.09C598.47 25.8 584.18 40.3501 569.92 54.9201C566.09 58.8301 562.38 62.8701 558.28 66.4701C553.62 70.5501 543.46 66.9901 542.87 61.0701C542.47 56.9901 541.62 52.85 542.04 48.84C542.36 45.75 544.99 44.1301 548.14 46.3201C552.99 49.7101 556.89 48.07 560.52 44.33C560.98 43.85 561.46 43.3801 561.93 42.9201C575.57 29.6101 589.22 16.3101 602.85 2.99007C606.95 -1.01993 610.64 -0.379929 613.86 5.49007Z" fill="#25A78B"/>
<path d="M15.8599 97.49C2.96991 97.49 -2.17009 90.3 1.95991 78.21C3.13991 74.76 5.05991 71.3 7.46991 68.57C12.3299 63.04 21.0499 62.98 26.7599 67.88C32.3499 72.68 33.3099 80.45 29.2599 86.63C26.0199 91.57 21.8399 95.28 15.8599 97.49ZM18.3599 77.49C16.5299 78.67 14.3699 79.58 13.0199 81.17C12.4999 81.79 13.8199 83.96 14.2999 85.43C15.1499 84.71 15.9799 83.97 16.8599 83.29C18.0399 82.37 19.2699 81.5 20.4699 80.61C20.6899 81.98 20.9299 83.35 21.1099 84.73C21.2199 85.62 21.2399 86.53 21.2999 87.43C22.1499 86.85 23.3399 86.47 23.8099 85.67C27.1999 79.79 25.8499 79.46 18.3599 77.49Z" fill="black"/>
<path d="M248.61 112.24C241.9 111.7 241.77 105.97 241.05 101.76C239.44 92.29 238.9 82.65 237.83 73.08C237.55 70.58 236.66 68.13 236.6 65.64C236.55 63.49 236.77 61.03 237.82 59.27C238.64 57.89 241.19 56.39 242.46 56.75C243.89 57.15 245.46 59.46 245.73 61.15C247.3 70.88 248.47 80.67 249.87 90.42C250.4 94.16 250.55 98.13 252 101.51C254.05 106.29 251.89 109.1 248.61 112.24Z" fill="black"/>
<path d="M239.11 39.74C242.5 35.56 245.36 37.45 247.16 40.51C248.52 42.82 248.61 45.87 249.26 48.6C246.83 48.23 244.23 48.3 242.02 47.39C238.86 46.1 237.12 43.64 239.11 39.74Z" fill="black"/>
<path d="M375.11 88.7401C382.7 84.7901 389.23 78.8901 398.46 80.4401C402.06 81.0401 406.02 81.1301 406.74 85.6101C407.24 88.7001 402.38 90.75 397.51 90.77C394.02 90.79 390.47 91.81 387.08 92.83C380.89 94.69 377.76 93.8401 375.11 88.7401Z" fill="black"/>
<path d="M106.11 427.24C100.16 425.34 98.68 422.44 100.47 417.25C100.9 416 99.59 414.09 100.09 412.92C101.25 410.23 102.73 407.56 104.62 405.33C109.87 399.11 115.5 393.21 120.73 386.97C121.94 385.53 122.51 383.32 122.79 381.38C123.26 378.14 122.22 376.42 118.39 375.26C111.18 373.08 104.97 375.89 98.56 377.69C97.28 378.05 96.04 381.01 95.98 382.81C95.71 391.46 95.99 400.12 95.82 408.78C95.66 417.3 95.31 425.83 94.81 434.33C94.53 439.06 90.93 441.6 87.17 443.38C84.34 444.72 82.5 442.52 82.84 438.98C83.56 431.44 83.79 423.82 84.95 416.35C86.74 404.86 85.04 393.76 82.99 382.51C81.59 374.84 84.81 369.17 91.98 365.99C102.54 361.31 113.27 360.78 124.32 365.29C133.51 369.04 133.75 377.59 132.36 384.45C130.24 394.89 122.93 401.92 115.84 409.09C114.56 410.38 113.84 412.23 112.86 413.82C114.76 414.37 116.63 415.17 118.58 415.44C123.34 416.1 128.23 416.11 132.88 417.19C135.82 417.87 138.81 420.12 137.76 423.86C136.74 427.47 134.02 428.93 129.92 428.59C122.08 427.92 114.21 427.82 106.11 427.24ZM131.36 421.49C130.53 421.71 129.69 421.93 128.86 422.15C129.15 422.6 129.44 423.04 129.72 423.49C130.43 422.99 131.15 422.49 131.36 421.49Z" fill="black"/>
<path d="M286.11 370.74C290.62 367.2 295.66 366.98 300.58 367.63C303.3 367.99 306.35 369.43 305.82 373.26C305.36 376.57 304.35 379.39 300.04 379.53C288.28 379.91 281.31 386.54 279.87 398.5C279.56 401.12 278.83 403.92 279.42 406.36C280.36 410.24 287.12 413.39 291.15 412.48C298.83 410.74 301.16 407.49 303 399.85C305.12 391.02 307.8 382.22 311.35 373.87C312.78 370.51 316.8 367.82 320.24 365.85C323.95 363.73 331.05 368.05 332.77 373.5C335.15 381.04 336.75 388.83 338.93 396.44C339.73 399.23 341.3 401.78 342.35 404.51C343.02 406.24 344.05 408.23 343.7 409.84C343.26 411.85 341.94 414.25 340.27 415.17C339.38 415.66 336.7 413.66 335.32 412.29C333.92 410.91 332.84 409.02 332.13 407.17C330.46 402.83 327.94 402.56 325.21 405.8C323.25 408.12 321.19 407.48 320.13 405.95C319.19 404.59 319.48 402.21 319.67 400.32C319.75 399.55 320.86 398.65 321.7 398.23C328.25 395 327.49 390.15 324.89 384.77C323.74 382.39 322.76 379.92 321.71 377.49C320.38 380.04 318.49 382.45 317.83 385.16C315.61 394.27 313.87 403.51 311.84 412.67C311.44 414.45 310.76 416.25 309.83 417.82C307.88 421.1 304.32 421.39 301.42 418.48C299.58 416.63 298.5 416.09 295.76 417.86C284.49 425.16 276.58 423.31 270.18 412.69C267.6 408.4 268.09 401.31 269.23 395.93C271.41 385.69 276.38 376.67 286.11 370.74Z" fill="black"/>
<path d="M192.61 382.24C196.19 376.22 201.08 371.82 207.22 369.9C212.91 368.12 218.32 370.22 222.18 375.25C222.8 376.06 223.8 376.57 224.62 377.22C225.03 376.23 225.85 375.21 225.79 374.24C225.55 370.55 227.14 368.1 230.66 367.59C232.98 367.25 236.2 373.26 235.57 376.26C233.69 385.3 231.52 394.28 229.96 403.37C229.08 408.47 229.97 410.76 236.25 409.39C239.67 408.64 242.84 406.84 246.19 405.72C247.45 405.3 248.92 405.49 250.29 405.41C250.15 406.69 250.31 408.1 249.81 409.23C246.63 416.49 240.77 419.87 233.05 420.49C225.14 421.12 221.17 419.35 218.91 412.8C217.99 410.12 219.01 406.79 219.08 403.75C219.11 402.5 218.94 401.24 218.86 399.99C217.92 400.6 216.94 401.16 216.04 401.82C213.5 403.69 210.36 405.16 208.69 407.62C207.33 409.62 207.3 412.87 207.52 415.5C207.71 417.87 208.71 420.35 209.93 422.43C212.71 427.17 207.88 428.03 206.17 430.48C203.73 428.71 200.08 427.45 199.08 425.07C194.97 415.29 191.95 405.06 187.96 395.22C185.54 389.27 188.43 385.88 192.61 382.24ZM209.36 394.49C210.86 391.47 212.17 388.32 213.91 385.44C216.23 381.61 212.95 381.84 211.53 382.63C208.4 384.38 205.14 386.5 203.08 389.3C201.84 390.99 202.76 394.26 202.71 396.83C204.76 396.22 206.81 395.6 209.36 394.49Z" fill="black"/>
<path d="M363.86 364.49C371.77 362.34 379.24 359.72 385.97 366.12C389.1 369.1 390.21 377.32 387.82 380.94C385.81 383.98 383.51 386.86 381.15 389.65C379.16 392.01 379.15 393.44 382.35 394.55C384.07 395.15 385.72 396.19 387.17 397.34C393.67 402.5 394.61 409.04 389.33 415.42C384.19 421.63 374.81 424.12 365.49 421C355.99 417.81 354.22 410.79 352.93 402.87C352.23 398.58 352.38 394.15 351.81 389.83C351.36 386.44 350.06 383.15 349.76 379.76C349.57 377.54 349.69 374.34 351.06 373.12C354.76 369.8 359.2 367.31 363.86 364.49ZM366.36 409.49C371.36 414.57 376.37 411.76 381.37 409.48C382.21 409.09 382.98 408.54 383.79 408.07C382.89 407.54 382.04 406.91 381.09 406.51C375.78 404.29 369.89 403 366.81 397.28C366.55 396.8 365.42 396.44 364.86 396.59C364.41 396.72 363.84 397.77 363.93 398.31C364.47 401.88 365.19 405.43 366.36 409.49ZM363.6 390.99C364.07 391.79 364.53 392.59 365 393.39C365.53 392.85 366.17 392.39 366.58 391.77C367.62 390.23 368.4 388.49 369.57 387.08C372.27 383.86 375.16 380.8 377.93 377.63C378.45 377.03 378.75 376.24 379.15 375.54C378.3 375.19 377.46 374.55 376.61 374.54C366.68 374.38 363.6 377.48 363.6 387.52C363.6 388.33 363.6 389.16 363.6 390.99Z" fill="black"/>
<path d="M165.11 396.74C166.62 396.41 167.87 396.33 169.13 396.26C169.04 397.52 169.01 398.79 168.85 400.04C168.08 406.25 163.58 409.38 158.9 412.58C156.64 414.13 153.22 415.32 154.28 419.46C155.48 424.14 157.74 426.83 163.14 426.59C169.45 426.31 175.14 424.6 180.6 421.56C181.56 421.03 183.03 421.43 184.27 421.4C184.07 422.66 184.2 424.08 183.63 425.14C178.54 434.62 169.29 437.13 159.78 438.33C153.64 439.1 144.94 431.31 143.93 424.77C142.64 416.4 141.87 407.95 140.85 399.54C140.58 397.34 140.12 395.16 139.87 392.95C139.35 388.29 141.73 385.82 146 384.41C148.46 383.6 150.6 381.85 153.03 380.88C157.03 379.27 161.08 377.65 165.26 376.72C166.12 376.53 168.76 379.44 168.66 380.77C168.32 385.26 161.09 391.94 156.58 392.37C155.75 392.45 154.72 391.16 153.89 390.39C153.31 389.86 152.9 389.15 152.41 388.52C151.9 389.28 150.9 390.08 150.96 390.8C151.18 393.64 151.37 396.57 152.29 399.23C152.88 400.95 154.49 402.08 156.88 400.57C159.31 399.03 162.18 398.15 165.11 396.74Z" fill="black"/>
<path d="M465.86 405.49C466.86 406.28 467.95 407.25 467.77 407.84C465.02 417 454.58 420.92 446.07 416.58C440.95 413.97 441.53 408.78 441.2 405.1C440.44 396.68 441.7 388.1 441.8 379.58C441.9 370.88 448.45 368.2 454.76 366.73C462.06 365.03 469.8 365.19 477.34 364.47C480.84 364.14 481.32 366.38 480.78 368.83C479.7 373.81 474.95 376.98 469.7 377.57C464.74 378.13 459.84 379.36 454.97 380.52C452.27 381.16 450.35 387.27 451.91 390.69C453.18 393.49 455.26 392.5 457.59 391.57C461.02 390.2 464.7 389.41 468.3 388.51C469.28 388.27 470.38 388.52 471.42 388.54C471.23 389.68 471.23 390.88 470.83 391.94C468.23 398.87 462.05 401.16 455.86 403.54C454.67 404 453.84 405.39 452.85 406.35C454.1 407.05 455.5 408.53 456.58 408.32C459.58 407.76 462.44 406.49 465.86 405.49Z" fill="black"/>
<path d="M596.86 385.49C604.32 380.19 611.06 374.55 618.31 369.68C628.93 362.54 639.88 355.9 650.78 349.18C651.98 348.44 653.72 348.6 655.21 348.34C654.94 350.05 655.28 352.36 654.29 353.36C648.65 359.08 642.92 364.75 636.8 369.94C626.27 378.87 615.49 387.51 604.66 396.07C602.28 397.96 599.38 399.85 596.49 400.32C590.55 401.28 588.09 398.94 586.86 392.53C586.15 388.82 585.01 385.08 585.06 381.37C585.09 379.4 587.24 377.45 588.44 375.49C589.91 377 591.52 378.41 592.82 380.06C594.16 381.75 595.19 383.67 596.86 385.49Z" fill="#25A78B"/>
<path d="M418.11 401.24C424.53 403.49 430.7 405.47 436.85 407.51C437.87 407.85 438.8 408.43 439.77 408.9C439.24 409.82 438.76 410.78 438.18 411.66C434.31 417.48 428.69 416.55 423.2 415.25C419.16 414.3 415.25 412.76 411.28 411.49C405.36 409.59 404.09 407.21 405.7 401.14C407.77 393.33 410.29 385.61 411.66 377.68C412.41 373.34 411.4 368.64 410.79 364.15C410.24 360.07 412.94 358 415.77 357.84C417.36 357.75 420.11 360.86 420.7 362.98C423.58 373.36 421.6 383.51 418.42 393.56C417.68 395.85 418.02 398.5 418.11 401.24Z" fill="black"/>
<path d="M47.6099 400.24C46.1899 403.32 45.3299 406.34 43.7899 408.96C40.4199 414.7 35.4099 415.26 29.7199 410.86C25.6499 407.72 24.3499 403.06 26.9299 398.48C29.7399 393.48 31.9599 387.53 39.3099 387.49C44.8599 387.46 47.7899 390.34 47.8599 396.02C47.8699 397.33 47.8599 398.66 47.6099 400.24ZM39.8599 396.99C39.9099 396.49 39.9499 395.99 39.9999 395.49C38.3199 395.82 36.2899 395.69 35.0499 396.61C33.6199 397.68 32.6499 399.6 31.9699 401.34C31.6899 402.05 32.6899 403.26 33.1099 404.24C34.4899 403.35 36.0999 402.67 37.1899 401.51C38.2099 400.44 38.6599 398.85 39.8599 396.99Z" fill="black"/>
<path d="M261.11 413.74C259.59 414.72 257.61 416.35 257.18 416.01C255.77 414.9 254.32 413.2 253.96 411.5C252.24 403.21 250.96 394.83 249.33 386.51C248.64 382.96 250.8 378.33 254.25 377.66C258.15 376.9 259.25 380.23 259.74 382.86C261.06 390.02 261.85 397.27 262.85 404.49C263.29 407.64 264.83 410.98 261.11 413.74Z" fill="black"/>
<path d="M248.61 363.74C247.19 361.7 244.73 358.69 245.08 358.31C246.92 356.34 249.39 353.98 251.81 353.77C254.47 353.54 255.21 356.62 254.88 359.29C254.8 359.94 254.98 360.63 254.85 361.26C254.51 362.92 254.06 364.55 253.65 366.2C252.05 365.47 250.45 364.73 248.61 363.74Z" fill="black"/>
<path d="M404.86 751.49C414.01 754.46 422.51 757.42 430.11 763C441.53 771.38 448.29 782.68 452.79 795.58C456.82 807.14 458.62 819.26 457.75 831.44C455.94 856.73 450.03 880.96 434.74 901.77C425.38 914.51 413.99 925.23 397.81 929.01C385.35 931.92 373.32 930.37 361.45 925.67C341.64 917.82 326.09 904.75 314.99 886.84C306.62 873.33 302.75 858.15 300.68 842.29C297.85 820.61 303.59 801.56 315.13 783.54C318.8 777.8 322.29 772.1 328.28 768.66C333.64 765.59 336.36 767.25 336.87 773.29C336.93 774.03 337.25 774.76 337.44 775.49C338.24 775 339.41 774.7 339.77 773.98C346.62 760.37 360.05 756.96 372.88 753.16C383.08 750.13 393.72 749.33 404.86 751.49ZM315.86 872.99C318.66 881.87 323.68 889.39 329.99 896.11C338.81 905.49 349 912.84 361.09 917.52C371.54 921.56 381.89 924.1 393.26 920.73C413.94 914.6 427.32 899.65 436.36 881.86C446.42 862.06 450.13 840.21 448.05 817.53C446.92 805.15 443.32 793.95 436.77 783.69C431.93 776.1 425.67 770.21 417.03 766.27C406.53 761.48 395.76 761.99 385.13 762.79C376.28 763.46 367.16 765.4 359.74 771.18C353.9 775.72 348.31 780.59 342.57 785.26C341.49 786.14 340.28 787.22 339 787.43C334.84 788.1 333.22 784.89 334.83 779.62C335.22 778.35 335.3 777 335.53 775.68C334.16 776.27 332.29 776.48 331.49 777.52C327.08 783.29 322.7 789.12 318.74 795.21C311.97 805.65 308.38 817.16 307.81 829.65C307.14 844.51 310.52 858.61 315.86 872.99Z" fill="black"/>
<path d="M403.11 872.74C401.34 879.9 395.16 880.92 389.96 882.35C379.33 885.26 369.73 882.64 362.3 874.32C356.44 867.76 354.66 859.55 355.06 850.98C355.12 849.75 357.96 847.61 359.31 847.76C360.94 847.94 363.1 849.83 363.72 851.48C365.18 855.39 365.8 859.6 366.88 863.66C368.46 869.56 371.87 874.34 378.01 875.33C384.21 876.33 389.79 874.02 393.42 868.42C395.47 865.26 398.68 864.83 401.67 865.63C405.63 866.66 403.69 869.94 403.11 872.74Z" fill="black"/>
<path d="M384.86 822.49C387.4 818.64 390.78 818.46 393.78 820.66C395.06 821.6 395.98 824.83 395.32 826.17C394.52 827.81 393.05 830.87 389.65 828.88C387.23 827.45 383.94 827.02 384.86 822.49Z" fill="black"/>
<path d="M357.61 815.74C361.3 818.55 360.22 821.63 357.82 823.62C356.91 824.37 353.7 822.93 351.94 821.84C351.11 821.33 350.65 818.32 351.01 818.1C352.95 816.94 355.21 816.3 357.61 815.74Z" fill="black"/>
</g>
<defs>
<filter id="filter0_d" x="-5.43738" y="0.441162" width="852.937" height="942.042" filterUnits="userSpaceOnUse" color-interpolation-filters="sRGB">
<feFlood flood-opacity="0" result="BackgroundImageFix"/>
<feColorMatrix in="SourceAlpha" type="matrix" values="0 0 0 0 0 0 0 0 0 0 0 0 0 0 0 0 0 0 127 0"/>
<feOffset dy="6"/>
<feGaussianBlur stdDeviation="3"/>
<feColorMatrix type="matrix" values="0 0 0 0 0 0 0 0 0 0 0 0 0 0 0 0 0 0 0.4 0"/>
<feBlend mode="normal" in2="BackgroundImageFix" result="effect1_dropShadow"/>
<feBlend mode="normal" in="SourceGraphic" in2="effect1_dropShadow" result="shape"/>
</filter>
</defs>
</svg>
