<svg width="592" height="606" viewBox="0 0 592 606" fill="none" xmlns="http://www.w3.org/2000/svg">
<g filter="url(#filter0_d)">
<path d="M305.064 29.4885C314.334 23.8435 323.193 17.8867 332.593 13.0458C341.042 8.69721 350.377 6.59675 360.023 7.59775C366.684 8.30338 371.901 11.7659 375.379 17.5257C377.643 21.2672 380.252 24.9758 381.63 29.0619C383.992 36.1509 382.483 43.4369 379.989 50.1649C374.772 64.2446 367.308 77.2576 358.777 89.5814C348.146 104.925 337.269 120.137 326.228 135.201C318.976 145.096 311.2 154.597 303.801 164.378C303.243 165.116 303.276 167.003 303.834 167.758C305.737 170.334 304.326 171.45 302.161 172.189C300.241 172.845 298.223 173.534 296.255 173.567C294.663 173.6 292.53 173.173 291.53 172.107C286.87 167.134 282.507 161.883 278.061 156.698C273.943 151.89 269.923 147 265.806 142.208C254.994 129.622 244.724 116.658 236.718 102.053C229.073 88.0881 222.445 73.6803 217.638 58.4683C214.193 47.5722 212.471 36.3807 213.619 25.025C214.554 15.7863 218.262 7.3516 226.826 2.77325C236.784 -2.55996 245.151 0.31177 254.075 7.20391C262.885 13.9976 270.087 22.301 275.813 31.8351C278.29 35.9704 280.472 40.2862 282.753 44.5364C284.557 47.9004 284.672 47.6542 287.379 45.1107C293.039 39.7775 299.027 34.7889 305.064 29.4885ZM363.272 24.2209C361.418 23.7451 359.581 22.9902 357.694 22.8097C349.393 22.0384 342.01 25.4189 334.742 28.6352C319.354 35.4453 305.967 45.2092 294.516 57.533C291.989 60.2406 289.249 63.3585 290.677 67.625C291.579 70.3163 290.791 71.5142 288.15 72.1378C285.755 72.6957 283.474 73.8116 281.063 74.2218C276.715 74.9767 270.678 68.7245 272.663 64.8682C274.894 60.5196 273.762 56.5156 272.433 52.2818C269.464 42.8626 264.526 34.5263 258.456 26.8958C255.257 22.8753 251.598 18.9862 247.448 15.9996C243.658 13.2756 240.278 12.5535 236.784 17.8211C233.946 22.1041 232.797 26.7645 232.42 31.6054C231.583 42.5179 233.027 53.2172 236.571 63.5882C239.163 71.2024 241.656 78.8986 244.839 86.2666C248.071 93.766 251.549 101.265 255.896 108.141C261.671 117.232 268.234 125.847 274.796 134.413C279.636 140.731 285 146.655 290.119 152.743C291.152 153.974 291.989 154.794 293.301 152.792C295.943 148.772 298.732 144.85 301.636 141.01C307.903 132.707 314.334 124.518 320.568 116.198C325.801 109.208 331.035 102.217 335.924 94.9967C342.42 85.4133 349.196 75.9284 354.724 65.7871C359.909 56.2858 365.372 46.6861 366.126 35.2976C366.422 31.1951 366.619 27.5522 363.272 24.2209Z" fill="#E53E3E"/>
<path d="M363.272 24.2209C361.418 23.7451 359.581 22.9902 357.694 22.8097C349.393 22.0384 342.01 25.4189 334.742 28.6352C319.354 35.4453 305.967 45.2092 294.516 57.533C291.989 60.2406 289.249 63.3585 290.677 67.625C291.579 70.3163 290.791 71.5142 288.15 72.1378C285.755 72.6957 283.474 73.8116 281.063 74.2218C276.715 74.9767 270.678 68.7245 272.663 64.8682C274.894 60.5196 273.762 56.5156 272.433 52.2818C269.464 42.8626 264.526 34.5263 258.456 26.8958C255.257 22.8753 251.598 18.9862 247.448 15.9996C243.658 13.2756 240.278 12.5535 236.784 17.8211C233.946 22.1041 232.797 26.7645 232.42 31.6054C231.583 42.5179 233.027 53.2172 236.571 63.5882C239.163 71.2024 241.656 78.8986 244.839 86.2666C248.071 93.766 251.549 101.265 255.896 108.141C261.671 117.232 268.234 125.847 274.796 134.413C279.636 140.731 285 146.655 290.119 152.743C291.152 153.974 291.989 154.794 293.301 152.792C295.943 148.772 298.732 144.85 301.636 141.01C307.903 132.707 314.334 124.518 320.568 116.198C325.801 109.208 331.035 102.217 335.924 94.9967C342.42 85.4133 349.196 75.9284 354.724 65.7871C359.909 56.2858 365.372 46.6861 366.126 35.2976C366.422 31.1951 366.619 27.5522 363.272 24.2209Z" fill="#E53E3E"/>
<path d="M97.4501 331.102C97.204 325.998 96.9907 321.272 96.7118 316.53C96.4657 312.345 99.1399 309.753 101.945 307.505C104.16 305.732 108.425 308.391 109.705 312.411C110.345 314.397 110.329 316.612 110.476 318.745C110.772 322.995 110.952 327.246 111.247 331.496C111.28 332.004 111.739 332.48 112.002 332.989C112.511 332.677 113.085 332.431 113.528 332.037C115.824 330.019 117.924 327.738 120.402 325.982C126.029 322.027 126.718 320.567 124.667 313.773C123.338 309.375 121.78 305.06 120.336 300.694C119.565 298.348 121.435 294.492 123.863 293.441C126.127 292.44 129.605 293.868 131.016 296.116C134.478 301.613 136.611 307.587 138.103 313.872C138.563 315.808 139.35 317.072 142.32 316.875C145.486 316.678 148.833 318.351 152.032 319.418C153.394 319.878 154.739 320.731 155.772 321.732C158.364 324.259 158.758 323.16 159.168 320.239C160.333 311.64 162.761 303.451 168.093 296.395C173.179 289.651 180.808 290.127 186.172 296.707C190.864 302.467 192.226 309.211 194.03 315.988C194.342 317.137 196.377 318.827 197.246 318.63C201.725 317.597 205.514 318.762 209.075 321.272C211.092 322.717 212.093 322.257 213.635 320.189C215.358 317.859 217.884 315.529 220.526 314.626C224.135 313.396 227.629 315.611 229.336 318.729C233.092 325.588 236.193 332.809 239.622 339.848C240.705 342.064 241.919 344.246 243.28 346.297C243.756 347.02 244.839 347.315 245.643 347.807C245.61 347.003 245.643 346.199 245.528 345.411C244.773 339.799 243.953 334.203 243.231 328.591C242.69 324.44 241.952 320.288 241.902 316.136C241.886 314.019 242.739 311.558 243.986 309.835C247.087 305.568 250.236 307.061 251.844 311.262C254.01 316.907 255.552 322.831 256.93 328.739C258.357 334.843 259.522 341.046 260.342 347.266C260.867 351.204 261.195 355.389 260.457 359.228C259.571 363.823 255.24 366.4 251.254 367.056C248.76 367.466 245.512 364.841 242.969 363.052C236.521 358.49 230.878 353.14 227.958 345.493C227.597 344.558 226.99 343.672 226.301 342.95C226.022 342.655 225.169 342.72 224.66 342.884C224.447 342.95 224.299 343.738 224.381 344.148C225.365 348.939 226.268 353.731 227.449 358.474C228.647 363.282 227.597 366.334 223.971 367.401C220.87 368.32 215.981 365.431 214.964 361.706C213.34 355.7 212.356 349.514 210.469 343.606C208.845 338.486 207.139 332.973 201.216 330.971C199.789 330.478 197.607 330.593 196.459 331.397C195.655 331.955 195.802 334.203 195.917 335.664C196.229 339.734 196.606 343.787 197.18 347.824C198.165 354.765 199.576 361.657 200.33 368.615C200.806 372.996 198.673 374.883 194.047 375.392C191.258 375.704 187.977 373.193 187.403 369.944C186.074 362.478 184.925 354.995 183.744 347.512C183.203 344.099 182.858 340.636 182.153 337.256C182.071 336.878 179.971 336.353 179.331 336.747C172.867 340.8 169.701 350.252 171.604 357.916C172.933 363.216 172.654 367.007 168.47 368.402C166.748 368.976 164.484 369.173 162.86 368.533C157.101 366.285 157.232 360.902 156.904 355.93C156.396 348.316 154.821 341.046 150.309 334.729C149.259 333.268 147.783 331.922 146.208 331.086C142.582 329.133 141.007 330.199 140.909 334.187C140.712 342.671 140.187 351.155 140.302 359.639C140.351 363.971 141.27 368.336 142.205 372.603C142.96 376.016 140.318 377.05 138.464 377.952C136.807 378.756 134.068 378.822 132.476 377.969C128.867 376.049 128.342 371.848 127.997 368.369C127.112 359.179 126.898 349.924 126.406 340.685C126.324 339.225 126.242 337.764 126.144 336.32C124.47 337.19 122.584 337.797 121.206 338.995C119.04 340.866 116.514 342.622 116.694 346.199C116.743 347.249 115.792 348.562 114.955 349.399C112.281 352.123 111.116 355.339 111.165 359.097C111.198 362.724 111.198 366.35 111.165 369.977C111.132 373.653 107.769 377.69 104.357 378.215C102.208 378.543 97.6962 374.424 97.4665 371.273C97.1384 366.662 97.286 362.002 97.4009 357.374C97.5649 350.827 97.9422 344.279 98.0571 337.732C98.1719 335.615 97.6962 333.531 97.4501 331.102ZM180.857 323.471C180.135 320.025 179.413 316.579 178.675 313.133C178.461 312.099 178.166 311.082 177.92 310.048C176.87 310.983 175.246 311.738 174.901 312.887C173.523 317.416 172.408 322.06 171.522 326.704C171.276 328.033 172.096 329.559 172.424 330.987C173.343 330.117 174.245 329.231 175.213 328.411C176.181 327.59 177.264 326.901 178.232 326.081C179.036 325.408 179.741 324.587 180.857 323.471Z" fill="#F7FAFC"/>
<path d="M441.773 287.025C443.184 287.189 444.48 287.452 445.612 287.123C456.817 283.776 466.447 287.747 470.942 298.364C473.731 304.945 475.897 311.82 479.063 318.204C481.934 324.013 486.331 328.509 493.549 328.952C496.962 329.165 497.585 327.311 497.864 324.505C498.553 317.153 497.011 310.13 494.878 303.221C490.383 288.649 492.811 275.39 502.097 263.395C503.77 261.229 505.788 259.227 507.97 257.586C509.578 256.388 511.776 256.65 511.514 259.309C511.038 264.1 510.792 269.122 509.053 273.503C507.183 278.196 507.068 282.939 506.576 287.681C505.821 294.967 509.217 301.515 511.021 308.309C513.072 316.038 515.549 323.799 512.236 331.545C506.772 344.328 497.798 348.824 485.658 342.474C475.782 337.305 468.859 328.69 465.118 317.793C463.281 312.411 460.836 307.242 458.622 301.991C458.408 301.482 457.998 300.809 457.539 300.678C456.522 300.366 455.423 300.35 454.356 300.202C454.438 301.039 454.258 302.007 454.619 302.696C458.523 310.179 461.772 317.859 463.789 326.113C466.431 336.96 462.428 341.063 452.732 345.444C447.088 348.004 440.887 348.907 435.178 344.312C427.861 338.453 422.595 331.906 422.25 321.781C421.824 309.441 425.138 298.692 433.242 289.552C435.211 287.32 437.868 284.81 441.773 287.025ZM441.232 302.434C440.887 301.613 440.542 300.793 440.214 299.956C439.624 300.744 438.689 301.466 438.475 302.352C436.802 309.359 433.619 316.005 435.276 323.701C436.359 328.739 440.477 333.317 445.743 333.284C448.073 333.268 449.057 332.267 449.27 329.904C449.763 324.653 447.974 319.96 446.088 315.266C444.463 311.229 442.856 307.193 441.232 302.434Z" fill="#F7FAFC"/>
<path d="M168.617 525.487C171.751 523.567 174.654 521.778 178.329 523.468C180.905 524.65 182.086 525.881 181.266 529.163C180.298 533.052 178.526 535.645 174.917 537.318C171.816 538.762 170.307 544.654 171.259 548.887C171.997 552.186 172.538 555.271 177.001 554.68C177.23 554.647 177.493 554.729 177.722 554.664C184.941 552.727 195.933 539.763 197.114 532.248C198.279 524.765 197.869 517.659 194.981 510.505C191.027 500.708 185.285 499.986 177.558 506.468C165.484 516.609 159.561 530.147 157.133 545.49C155.821 553.859 156.1 562.13 157.937 570.335C159.348 576.669 168.027 580.804 172.653 581.707C177.755 582.708 180.708 580.526 183.71 577.178C185.958 574.667 188.96 575.324 190.634 578.392C194.784 585.99 192.258 591.602 183.251 594.605C173.67 597.789 165.467 595.426 157.675 589.141C151.26 583.972 146.338 578.08 143.959 570.154C142.007 563.673 141.991 557.158 143.369 550.561C144.878 543.324 145.83 535.923 147.848 528.818C150.899 518.053 155.361 507.748 162.547 499.051C168.732 491.551 176.59 486.792 186.91 487.974C193.242 488.696 197.54 492.93 201.002 497.541C207.351 505.992 211.518 515.641 210.649 526.406C210.206 532.018 208.368 537.745 206.055 542.931C203.643 548.362 200.198 553.433 196.589 558.192C194.998 560.292 191.93 561.277 189.469 562.672C188.107 563.443 186.532 563.869 185.253 564.739C177.706 569.843 174.08 569.761 167.124 564.345C161.005 559.587 159.02 553.564 159.857 545.786C160.464 540.174 160.644 534.758 164.401 530.213C165.746 528.654 167.108 527.177 168.617 525.487Z" fill="#F7FAFC"/>
<path d="M16.9472 292.637C24.297 291.423 31.3351 290.389 38.2747 288.961C48.0361 286.959 57.7975 284.875 67.4768 282.414C79.4694 279.378 91.3799 275.965 103.29 272.617C109.886 270.763 116.415 268.712 122.961 266.742C127.555 265.348 130.212 267.366 129.294 271.944C128.375 276.605 126.127 280.281 121.041 281.79C110.312 285.007 99.6648 288.518 88.9847 291.899C84.2763 293.376 79.5186 294.688 74.8758 296.346C73.9571 296.674 72.7923 298.299 72.9071 299.168C73.9243 307.029 75.0891 314.889 76.4671 322.7C77.7468 329.986 79.371 337.206 80.7326 344.492C81.1592 346.773 81.3725 349.12 81.4709 351.434C81.7826 358.818 82.0943 366.219 82.1435 373.62C82.1599 375.573 81.5365 377.755 80.5358 379.429C79.0593 381.874 76.4015 383.564 73.629 382.465C70.6759 381.283 68.7401 378.641 68.4448 375.162C67.7229 366.514 67.3948 357.817 66.1644 349.251C64.7371 339.208 62.2926 329.313 60.7341 319.287C59.9302 314.134 59.9958 308.834 59.799 303.599C59.7661 302.565 60.3403 301.499 60.652 300.448C59.3724 300.514 58.0599 300.415 56.8295 300.662C43.6557 303.287 30.3835 305.503 17.4066 308.817C11.3693 310.36 7.39912 306.865 2.62506 305.355C0.197016 304.584 -0.50843 301.712 0.426696 299.595C1.64072 296.904 3.56019 294.459 7.0546 294.081C10.2209 293.72 13.4036 293.13 16.9472 292.637Z" fill="#F7FAFC"/>
<path d="M385.387 335.451C380.432 341.407 373.476 341.998 369.949 339.75C363.961 335.926 358.891 331.184 357.136 323.898C356.709 322.109 356.398 320.239 356.414 318.401C356.578 309.195 356.545 299.972 357.234 290.799C357.546 286.631 357.317 281.922 361.188 278.705C363.042 277.163 364.42 275.095 367.472 276.457C370.687 277.901 371.048 280.428 370.868 283.366C370.392 291.751 369.736 300.12 369.49 308.506C369.358 312.903 369.686 317.35 370.228 321.732C370.54 324.275 371.458 326.983 374.674 327.443C377.61 327.869 379.513 326.179 381.023 323.931C386.174 316.202 388.34 307.291 390.325 298.446C391.326 293.966 392.983 290.143 396.69 287.763C398.101 286.861 401.349 287.009 402.58 288.059C404.417 289.618 406.058 292.358 406.238 294.705C406.616 299.644 406.091 304.666 405.713 309.638C405.369 314.282 404.877 318.909 404.204 323.504C403.023 331.561 401.645 339.602 400.381 347.643C399.463 353.436 398.298 359.196 397.773 365.038C396.821 375.589 396.28 386.19 395.525 396.758C395.099 402.731 394.59 408.688 394.065 414.645C393.868 416.958 393.704 419.289 393.179 421.537C392.638 423.851 388.077 426.509 385.78 426.148C383.91 425.853 380.235 421.619 380.35 419.436C380.711 412.741 381.302 406.062 381.745 399.367C381.859 397.562 381.695 395.74 381.777 393.935C382.237 384.106 382.335 374.243 383.336 364.463C384.255 355.471 386.125 346.56 387.569 337.617C387.848 335.877 387.454 335.418 385.387 335.451Z" fill="#F7FAFC"/>
<path d="M523.195 499.401C528.1 498.679 532.661 498.121 537.139 497.104C538.222 496.858 539.732 495.151 539.764 494.101C539.978 484.994 540.109 475.87 539.781 466.779C539.617 462.217 538.435 457.704 537.697 453.175C537.205 450.073 539.699 448.547 541.667 448.219C543.308 447.94 546.376 449.401 546.934 450.828C549.099 456.342 551.084 462.069 552.036 467.895C553.004 473.835 552.676 480.005 552.922 486.06C552.938 486.667 552.938 487.275 552.922 487.882C552.889 489.867 552.134 493.149 552.955 493.609C555.022 494.774 557.909 495.299 560.272 494.905C563.733 494.331 566.785 495.069 569.574 496.563C578.154 501.174 585.011 507.541 588.276 517.026C590.901 524.689 587.833 531.269 583.978 537.702C580.943 542.756 576.333 545.644 570.788 544.939C562.634 543.905 554.595 537.423 556.597 527.528C557.647 522.31 559.025 517.173 560.14 511.971C560.271 511.331 559.632 509.904 559.336 509.904C557.302 509.871 555.219 509.986 553.217 510.33C551.019 510.708 550.723 512.382 550.74 514.351C550.822 520.308 550.543 526.297 550.855 532.238C551.051 536.11 551.708 540.032 552.807 543.741C553.873 547.417 550.084 553.685 547.524 555.162C544.883 556.672 538.632 551.306 538.452 548.155C537.976 539.737 537.402 531.302 537.057 522.884C536.959 520.34 537.369 517.748 537.763 515.204C538.173 512.628 536.91 512.07 534.81 512.48C530.676 513.284 526.607 514.367 522.44 514.942C520.963 515.155 519.126 514.597 517.814 513.809C515.927 512.661 514.368 510.987 512.679 509.526C510.168 507.36 510.382 505.834 513.023 503.717C515.796 501.485 518.765 500.041 522.341 499.894C522.489 499.894 522.653 499.566 523.195 499.401ZM573.232 517.173C572.887 516.599 572.559 516.008 572.215 515.434C571.821 515.943 571.181 516.402 571.099 516.96C570.541 520.816 569.918 524.689 569.705 528.578C569.639 529.694 570.87 530.892 571.493 532.041C572.149 531.351 572.822 530.695 573.445 529.989C577.022 525.887 575.02 521.702 573.232 517.173Z" fill="#F7FAFC"/>
<path d="M311.233 539.852C313.152 537.85 314.612 535.438 316.729 534.404C318.648 533.468 320.502 534.912 322.028 537.029C325.276 541.542 324.866 546.99 326.671 551.815C328.049 555.474 327.639 559.839 330.903 562.744C331.461 563.236 332.232 563.498 332.888 563.876C333.217 563.17 333.676 562.497 333.873 561.743C336.252 552.356 335.776 543.002 333.988 533.55C333.413 530.515 333.577 527.233 334.037 524.164C334.25 522.802 335.841 521.03 337.17 520.652C338.581 520.242 341.206 520.751 341.862 521.785C343.716 524.656 345.143 527.922 346.128 531.22C347.227 534.912 347.654 538.818 348.408 542.625C348.49 543.002 348.802 543.314 349.015 543.659C349.294 543.265 349.671 542.888 349.819 542.461C350.492 540.443 350.607 538.014 351.821 536.439C353.478 534.305 356.267 533.107 358.809 535.027C360.942 536.652 361.598 535.126 362.058 533.879C363.584 529.76 366.438 526.888 370.015 524.525C375.494 520.915 379.317 521.899 383.254 527.249C387.421 532.894 388.389 539.294 388.996 545.923C389.718 553.718 390.341 561.529 391.211 569.307C391.572 572.507 389.652 573.968 387.536 575.576C385.37 577.217 383.582 576.643 381.63 575.133C378.185 572.491 376.544 568.782 376.019 564.778C375.379 559.855 375.478 554.834 375.182 549.862C375.018 547.171 374.739 544.496 374.428 541.821C374.378 541.427 373.87 540.836 373.525 540.804C373.148 540.771 372.459 541.181 372.344 541.542C371.983 542.74 371.901 544.003 371.557 545.218C369.654 552.044 367.718 558.854 365.749 565.665C365.372 566.944 365.027 568.356 364.256 569.373C362.665 571.49 360.614 573.262 357.694 572.622C355.036 572.032 351.394 567.486 351.279 565.008C351.033 559.905 350.82 554.818 350.525 549.714C350.475 548.894 350.098 548.09 349.885 547.269C349.622 548.04 349.212 548.812 349.13 549.599C348.605 554.112 348.49 558.707 347.572 563.121C346.079 570.325 340.107 573.952 334.414 577.283C332.117 578.628 328.754 578.546 326.359 575.74C324.243 573.262 321.404 571.392 319.436 568.832C314.727 562.727 314.087 555.08 312.168 547.942C311.495 545.398 311.413 542.674 311.233 539.852Z" fill="#F7FAFC"/>
<path d="M268.43 358.112C265.461 345.904 262.738 333.875 259.883 321.879C258.636 316.628 257.11 311.426 255.7 306.208C254.486 301.728 257.898 297.101 262.36 297.905C264.149 298.233 266.15 300.35 267.069 302.155C272.138 312.165 273.303 323.307 275.829 334.039C276.387 336.402 276.305 338.913 276.65 341.342C276.715 341.817 277.339 342.228 277.716 342.671C278.077 342.211 278.717 341.785 278.75 341.292C279.373 332.529 283.983 325.063 286.969 317.121C288.035 314.265 291.251 312.05 293.843 309.999C295.565 308.637 299.372 311.394 299.011 313.954C298.338 318.663 297.058 323.274 296.074 327.935C295.352 331.397 294.598 334.843 294.056 338.339C293.203 343.836 297.616 346.297 302.243 347.019C309.543 348.168 316.516 347.315 323.39 344.377C325.047 343.672 328.114 344.328 329.492 345.526C330.411 346.33 330.017 349.448 329.312 351.155C326.933 356.947 321.683 359.294 316.105 360.754C307.049 363.117 298.256 362.084 289.955 357.735C288.052 356.734 287.379 357.177 286.756 359.13C285.82 361.985 285.066 365.152 283.261 367.417C279.603 372.012 278.536 371.831 274.058 367.991C270.99 365.464 269.119 362.264 268.43 358.112Z" fill="#F7FAFC"/>
<path d="M226.366 593.168C221.083 588.163 216.359 583.043 215.473 575.675C215.013 571.786 214.669 567.798 215.046 563.925C215.62 558.001 216.752 552.127 217.868 546.268C219.82 536.045 223.38 526.626 231.878 519.783C237.079 515.598 243.969 517.288 248.202 523.803C254.518 533.534 256.553 544.512 253.911 555.852C253.271 558.592 250.089 560.774 247.972 563.121C247.743 563.384 246.66 563.318 246.348 563.006C242.542 559.281 237.637 556.295 238.113 549.796C238.375 546.317 238.211 542.789 238.113 539.278C238.096 538.539 237.522 537.833 237.21 537.111C236.554 537.637 235.504 538.047 235.307 538.703C233.749 544.118 231.878 549.501 231.009 555.031C230.008 561.398 229.926 567.913 229.434 574.362C229.089 578.924 231.435 581.845 235.209 583.863C239.441 586.128 243.133 584.766 246.561 581.992C246.84 581.763 247.054 581.451 247.333 581.238C248.891 580.007 249.941 577.184 252.55 578.825C255.191 580.483 254.092 583.24 253.796 585.635C252.468 596.827 234.29 601.471 226.366 593.168Z" fill="#F7FAFC"/>
<path d="M562.355 268.712C564.537 260.917 566.752 253.483 568.868 246.033C572.527 233.168 576.201 220.303 579.696 207.388C580.352 204.943 580.204 202.284 580.483 199.725C580.746 197.296 582.058 195.737 584.552 195.442C587.21 195.113 589.309 196.377 589.818 198.838C590.835 203.909 591.836 209.078 591.984 214.231C592.23 223.371 588.588 231.773 585.979 240.339C582.042 253.204 577.973 266.02 573.97 278.853C571.772 285.926 569.869 293.097 567.309 300.022C566.358 302.614 564.11 304.83 562.109 306.865C561.338 307.652 559.254 308.079 558.352 307.603C557.204 306.996 555.809 305.142 555.973 304.075C557.302 295.624 559.008 287.238 560.567 278.82C561.174 275.587 561.764 272.322 562.355 268.712Z" fill="#F7FAFC"/>
<path d="M301.439 554.358C302.226 561.053 302.817 567.568 303.456 574.083C303.588 575.445 303.932 576.774 304.162 578.136C304.785 581.795 302.931 583.748 299.716 585.045C296.517 586.341 293.219 585.964 291.972 582.944C290.43 579.235 289.676 575.149 288.987 571.145C287.838 564.565 287.116 557.919 285.935 551.355C285.705 550.124 284.163 549.123 283.228 548.008C281.998 549.091 280.029 549.96 279.685 551.273C278.585 555.458 278.044 559.806 277.339 564.089C276.584 568.733 276.059 573.426 275.107 578.038C274.303 581.894 267.889 583.436 264.444 581.32C259.866 578.481 259.489 574.92 260.49 570.046C261.179 566.682 260.736 562.891 260.014 559.462C258.784 553.669 261.54 547.154 266.806 544.315C268.102 543.61 269.103 542.248 270.071 541.066C274.074 536.16 277.765 530.728 285.213 531.368C288.56 531.663 291.251 532.96 293.433 536.012C297.386 541.558 300.667 547.236 301.439 554.358Z" fill="#F7FAFC"/>
<path d="M491.728 548.707C490.858 547.837 489.792 547.263 489.562 546.459C488.365 542.044 486.035 542.849 482.918 544.473C475.535 548.329 473.354 547.739 466.168 541.306C459.802 535.612 459.983 528.703 462.591 521.581C466.25 511.538 473.55 504.728 483.361 500.954C491.958 497.639 499.275 502.776 500.341 511.85C500.735 515.132 502.703 518.25 503.015 521.532C503.458 525.963 503.031 530.475 502.9 534.939C502.835 537.039 502.26 539.173 502.49 541.24C502.818 544.309 501.473 546.623 499.849 548.871C497.716 551.858 496.617 551.808 491.728 548.707ZM475.601 524.584C475.355 525.093 474.912 525.602 474.912 526.094C474.945 527.899 474.469 530.475 475.437 531.28C476.421 532.116 479.128 531.772 480.621 531.017C486.544 528.08 487.725 521.598 490.744 516.494C490.875 516.264 489.907 514.902 489.398 514.87C487.905 514.788 486.363 514.968 484.903 515.296C480.178 516.363 477.455 519.645 475.601 524.584Z" fill="#F7FAFC"/>
<path d="M411.685 535.864C411.751 540.295 411.701 544.578 412.308 548.779C413.047 553.948 417.345 555.556 421.791 552.602C422.546 552.094 423.235 551.355 424.071 551.125C424.891 550.896 425.958 550.978 426.696 551.355C427.008 551.519 426.942 552.848 426.729 553.538C425.105 558.658 422.923 563.17 417.935 566.272C413.293 569.143 410.602 566.321 407.633 564.007C401.382 559.117 398.823 552.405 398.445 544.644C398.035 536.307 399.397 528.316 402.842 520.734C405.073 515.795 413.522 507.032 419.576 508C428.058 509.346 436.786 517.337 431.831 527.331C431.241 528.529 430.863 529.825 430.355 531.073C430.027 531.893 429.633 532.714 429.272 533.518C428.517 533.009 427.681 532.582 427.024 531.959C425.433 530.482 423.842 528.988 422.431 527.347C420.856 525.51 418.838 523.721 416.689 524.985C414.982 525.986 413.933 528.398 413.047 530.383C412.292 531.975 412.226 533.895 411.685 535.864Z" fill="#F7FAFC"/>
<path d="M440.69 525.707C446.613 522.211 450.337 524.459 450.714 531.253C450.878 534.076 451.846 536.865 452.043 539.704C452.174 541.755 451.797 543.872 451.354 545.891C450.238 551.043 451.502 556.918 446.317 560.84C444.661 562.087 443.069 563.367 441.396 562.136C439.591 560.807 437.196 558.74 437.114 556.902C436.901 552.307 438 547.679 438.295 543.052C438.525 539.212 438.115 535.323 438.443 531.499C438.59 529.579 439.788 527.741 440.69 525.707Z" fill="#F7FAFC"/>
<path d="M561.092 354.486C559.894 356.176 559.09 357.916 557.762 359.064C557.138 359.622 555.104 359.524 554.448 358.917C552.282 356.947 550.625 354.437 548.459 352.467C546.72 350.892 546.671 349.169 548.115 348.037C550.182 346.412 552.643 344.722 555.153 344.312C558.155 343.803 559.599 346.626 560.436 349.169C560.961 350.81 561.01 352.599 561.092 354.486Z" fill="#F7FAFC"/>
<path d="M449.402 495.955C450.419 495.168 451.206 494.199 452.109 494.068C453.618 493.838 455.636 493.609 456.62 494.396C457.654 495.2 458.08 497.219 458.13 498.729C458.195 500.386 457.539 502.06 457.178 503.734C457.014 504.472 456.817 505.194 456.62 505.933C456.062 505.539 455.423 505.227 454.93 504.751C453.109 502.995 451.19 501.289 449.615 499.319C449.057 498.614 449.32 497.219 449.402 495.955Z" fill="#F7FAFC"/>
</g>
<defs>
<filter id="filter0_d" x="-5.97119" y="0.00811768" width="603.967" height="609.394" filterUnits="userSpaceOnUse" color-interpolation-filters="sRGB">
<feFlood flood-opacity="0" result="BackgroundImageFix"/>
<feColorMatrix in="SourceAlpha" type="matrix" values="0 0 0 0 0 0 0 0 0 0 0 0 0 0 0 0 0 0 127 0"/>
<feOffset dy="6"/>
<feGaussianBlur stdDeviation="3"/>
<feColorMatrix type="matrix" values="0 0 0 0 0 0 0 0 0 0 0 0 0 0 0 0 0 0 0.4 0"/>
<feBlend mode="normal" in2="BackgroundImageFix" result="effect1_dropShadow"/>
<feBlend mode="normal" in="SourceGraphic" in2="effect1_dropShadow" result="shape"/>
</filter>
</defs>
</svg>
