<svg width="984" height="855" viewBox="0 0 984 855" fill="none" xmlns="http://www.w3.org/2000/svg">
<g filter="url(#filter0_d)">
<path d="M978.86 854.43C980.11 851.06 982.05 853.37 983.85 854.21C982.26 854.43 980.67 854.43 978.86 854.43Z" fill="black"/>
<path d="M454.97 195.28C468.34 188.97 481.23 182.53 495.75 180.5C503.39 179.43 510.99 177.45 518.63 177.3C523.71 177.2 528.88 179.51 533.95 180.94C537.56 181.96 538.46 185.02 537.21 187.94C536.13 190.45 537.32 190.6 538.91 190.91C548.03 192.68 557.24 194.05 566.25 196.22C580.14 199.56 592.88 205.71 604.4 214.11C615.95 222.53 626.04 232.52 633.48 244.87C640.1 255.87 644.95 267.54 647.91 280.16C651.18 294.09 651.36 308.22 650.06 322.07C648.04 343.65 641.04 363.88 629 382.32C623.63 390.54 618.2 398.56 611.02 405.21C594.82 420.18 576.76 432.24 555.67 439.26C550.3 441.04 544.71 442.15 539.26 443.68C537 444.31 535.23 445.33 535.7 448.37C537.99 463.28 537.03 478.13 533.01 492.55C528.97 507.05 523.54 521.04 514.97 533.71C503.5 550.68 487.92 561.42 468.12 566.04C460.27 567.87 452.3 569.4 444.3 570.27C440.45 570.69 436.35 569.53 432.47 568.62C429.61 567.95 426.63 565.83 428.32 562.77C429.39 560.84 433.38 558.87 435.41 559.4C456.09 564.79 473.75 558.45 490.05 546.21C503.54 536.08 510.84 521.71 516.53 506.46C520 497.16 523.32 487.63 525.02 477.91C526.41 470 525.31 461.65 525.32 453.5C525.32 452.92 525.34 452.34 525.32 451.76C525.1 447.14 523.89 446.25 519.22 447.09C517.04 447.48 514.84 447.75 512.63 447.96C509.14 448.3 505.62 448.94 502.14 448.78C485.68 448.03 469.2 447.41 453.43 441.7C437.38 435.88 422.09 428.68 408.34 418.42C407.63 417.89 405.84 418.22 404.85 418.73C399.01 421.79 393.36 425.22 387.47 428.15C375.44 434.12 362.89 438.66 349.46 440.12C339.28 441.23 329.04 442.66 318.85 442.55C309.48 442.44 300.12 440.47 290.76 439.28C290.11 439.2 289.37 439 288.89 438.6C286.33 436.43 285.52 437.92 285.68 440.29C286.2 447.99 286.33 455.79 287.69 463.35C290.74 480.35 299.38 494.9 309.43 508.57C319.02 521.61 331.1 532.18 344.15 541.68C356.25 550.49 369.39 557.29 383.81 561.23C397.52 564.97 411.35 568.31 425.27 571.18C435.11 573.22 445.17 574.22 455.15 575.58C456.13 575.71 457.25 574.74 458.25 574.85C459.51 574.99 460.71 575.72 461.94 576.19C461.19 577.45 460.67 579.53 459.64 579.83C455.47 581.04 451.17 582.1 446.86 582.46C443.22 582.76 439.49 581.92 435.79 581.73C422.56 581.06 409.77 577.87 397.09 574.47C385.17 571.28 373.18 567.93 361.82 563.23C352.92 559.55 344.72 554 336.59 548.72C322.79 539.76 311.7 527.98 301.63 514.96C291.39 501.72 283.29 487.47 278.57 471.51C276.33 463.94 275.62 455.9 274.41 448.04C273.86 444.44 273.93 440.74 273.39 437.13C273.27 436.3 271.95 435.28 270.99 434.99C257.97 431.07 245.53 425.65 233.82 418.9C224.26 413.39 215.23 406.87 206.38 400.24C196.52 392.84 188.36 383.72 181.79 373.22C174.39 361.38 168.34 348.89 165.95 335.09C164.33 325.74 162.9 316.07 163.52 306.69C164.18 296.75 166.65 286.75 169.61 277.18C176.24 255.75 187.72 236.89 201.22 219.02C206.93 211.46 212.54 203.96 219.53 197.59C231.53 186.65 244.76 177.52 260.08 171.82C269.24 168.41 278.47 165.08 287.86 162.4C292.74 161.01 298.03 160.88 303.16 160.56C310.84 160.08 318.57 159.45 326.24 159.74C343.98 160.41 361.2 163.8 377.58 170.92C391.06 176.78 403.68 184.01 414.37 194.21C418.79 198.43 422.75 203.12 426.95 207.57C428.6 209.32 429.61 210.91 432.79 208.63C439.67 203.7 447.24 199.68 454.97 195.28ZM376.81 306.87C376.79 312.21 376.15 317.15 369.6 318.43C369.09 318.53 368.47 318.7 368.15 319.06C367.74 319.53 367.58 320.22 367.31 320.82C367.91 320.76 368.51 320.75 369.1 320.65C376.39 319.39 383.64 317.45 390.98 317.04C399.35 316.56 407.81 317.34 416.22 317.76C425.69 318.23 434.93 320.12 443.77 323.55C448.25 325.29 452.48 327.66 456.89 329.61C460.8 331.35 465.09 332.41 468.68 334.63C480.83 342.16 491.15 351.78 500.5 362.64C508.09 371.45 514.96 380.77 519.84 391.15C525.78 403.75 530.7 416.88 533.28 430.75C533.64 432.66 533.11 436.89 537.58 435.82C542.83 434.56 548.14 433.44 553.25 431.72C568.54 426.56 582.47 418.98 594.88 408.51C606.55 398.67 616.69 387.64 623.93 374.13C630.25 362.33 635.54 350.14 637.34 336.71C638.28 329.7 639.46 322.69 639.86 315.65C640.3 307.96 640.85 300.09 639.75 292.53C638.2 281.91 634.84 271.69 630.61 261.64C623.97 245.86 613.18 233.59 600.23 223.24C590.55 215.5 579.03 210.76 567.1 206.93C552.21 202.15 537 200.08 521.51 199.71C514.55 199.54 507.56 200.1 500.6 200.55C497.46 200.75 494.36 201.94 491.24 201.93C483.91 201.92 476.46 206.47 469.21 201.43C468.79 201.14 467.66 201.71 466.93 202.03C462.89 203.81 458.71 205.35 454.89 207.51C449.69 210.44 444.69 213.72 439.77 217.1C437.25 218.83 437 220.81 438.73 223.98C443.66 233.02 448.4 242.24 452.26 251.78C457.7 265.2 460.86 279.22 462.09 293.77C463.01 304.58 464.43 315.3 462.75 326.12C462.59 327.15 461.68 328.83 461.01 328.88C457.81 329.14 452.29 323.08 452.4 319.58C452.95 302.26 451.62 285.18 447.23 268.33C443.54 254.17 438.1 240.83 430.33 228.45C429.53 227.18 428.54 225.52 426.37 227.65C423.09 230.89 419.08 233.39 415.86 236.68C410.92 241.73 405.71 246.74 401.83 252.58C395.58 262 389.71 271.79 384.83 281.98C381.21 289.54 379.42 297.97 376.81 306.87ZM383.76 260.84C388.88 253.7 393.55 246.18 399.23 239.52C405.11 232.63 411.96 226.56 418.39 220.13C422.06 216.46 422.09 215.8 418.29 212.01C410.77 204.51 402.41 198.14 393.52 192.25C374.8 179.87 354.03 173.79 332.06 172.01C317.33 170.82 302.41 171.32 287.95 175.32C270.39 180.17 253.57 186.81 238.4 197.09C237.51 197.69 236.68 200.01 237.12 200.67C239.41 204.12 236.86 205.98 234.8 207.31C225.32 213.47 217.4 221.32 210.55 230.12C200.47 243.07 192.53 257.35 186.2 272.52C180.54 286.08 177.08 300.2 176.36 314.83C176.03 321.49 176.7 328.37 178.11 334.9C179.97 343.55 182.08 352.35 185.71 360.35C191.12 372.28 198.96 382.84 209.73 390.66C219.56 397.79 229.35 405.17 239.92 411.07C250.26 416.84 261.61 420.81 272.43 425.77C274.83 426.87 274.12 425.48 274.38 424.26C276.33 414.95 277.95 405.55 280.46 396.39C286.14 375.68 299.36 359.77 315.19 346.22C328.29 335.01 343.76 327.42 360.2 321.96C361.65 321.48 363.35 319.71 363.67 318.25C365.12 311.71 365.86 305 367.32 298.46C370.29 285.09 375.69 272.68 383.76 260.84ZM394.62 405.44C386.93 395.87 380.7 385.48 375.86 374.15C370.64 361.92 365.32 349.81 364.54 336.27C364.51 335.75 362.61 334.74 361.87 334.95C340.96 341.05 323.54 352.48 309.87 369.49C303.04 377.99 297.39 387.26 294.01 397.63C291.33 405.82 289.52 414.3 287.38 422.67C286.5 426.14 286.26 429.93 290.81 430.53C302.01 432 313.26 433.14 324.52 434.01C328.69 434.33 332.98 433.75 337.17 433.19C344.53 432.21 352 431.53 359.14 429.63C372.41 426.1 385.11 421.03 396.66 413.35C399.26 411.62 398.98 410.27 397.49 408.35C396.78 407.44 395.87 406.69 394.62 405.44ZM492.32 368.53C483.59 359.36 474.21 351.08 463.33 344.37C459.43 341.96 459.57 344.47 458.51 346.17C458.12 346.8 458.57 347.9 458.3 348.68C450.55 371.56 437.95 391.27 419.73 407.24C415.59 410.87 415.65 412.44 420.76 415.05C431.14 420.35 441.42 425.9 452.06 430.61C464.37 436.05 477.51 438.86 490.97 439.22C499.95 439.46 508.95 438.78 517.94 438.44C522.88 438.25 523.92 437.51 522.6 432.96C519.31 421.64 515.89 410.32 511.64 399.33C507.3 388.1 500.52 378.17 492.32 368.53ZM386.37 373.74C391.37 383.91 397.15 393.59 404.63 402.16C406.28 404.05 407.95 405.86 410.76 403.26C429.23 386.19 443.04 366.31 449.2 341.52C449.96 338.46 448.93 337.42 446.92 336.91C436.04 334.15 425.22 330.65 414.15 329.32C404.61 328.18 394.73 329.19 385.07 330C374.99 330.84 374.76 331.27 376.02 341.19C377.44 352.36 381.74 362.69 386.37 373.74ZM508.82 188.76C507.55 189.17 506.26 189.53 505 189.99C504.22 190.27 503.49 190.69 502.74 191.05C503.58 191.3 504.45 191.82 505.27 191.76C511.81 191.26 518.35 190.66 524.88 190.02C525.35 189.97 525.75 189.32 526.19 188.95C525.59 188.74 524.99 188.36 524.39 188.36C519.34 188.31 514.3 188.33 508.82 188.76ZM371.17 334.23C371.54 333.45 371.92 332.66 372.29 331.88C371.14 332 369.94 331.98 368.84 332.29C368.24 332.46 367.78 333.16 367.26 333.63C368.27 333.82 369.29 334.02 371.17 334.23ZM274.34 428.45C273.76 428.89 272.9 429.23 272.7 429.8C272.56 430.2 273.33 430.91 273.7 431.49C273.91 430.77 274.12 430.05 274.34 428.45Z" fill="black"/>
<path d="M407.21 649.47C406.19 655.27 405.01 660.61 404.2 666.01C403.73 669.14 403.55 672.39 403.85 675.52C404.04 677.53 405.53 677.87 407.08 676.11C410.2 672.6 414.18 669.59 416.35 665.59C418.34 661.92 418.59 657.25 419.32 652.97C420.09 648.4 423.3 644.79 426.89 645.22C427.64 645.31 428.79 646.53 428.83 647.28C429.13 653.02 429 658.71 426.88 664.23C426.44 665.37 427.18 666.95 427.38 668.33C428.2 667.38 429.05 666.46 429.83 665.48C430.59 664.52 431.09 663.25 432.03 662.53C436.99 658.74 441.44 660.5 442.78 666.85C443.58 670.62 444.28 674.45 444.5 678.28C444.98 686.98 445.34 695.69 445.33 704.4C445.33 708.07 444.32 711.74 443.65 715.4C443.49 716.29 443.11 717.37 442.45 717.9C441.1 718.98 439.5 719.74 438 720.64C437.29 719.05 436.15 717.52 435.94 715.87C434.64 705.37 433.53 694.84 432.41 684.32C432.1 681.4 432.01 678.46 431.82 675.52C429.45 676.78 427.19 678.49 424.67 679.16C422.6 679.71 419.65 679.82 418.08 678.71C415.13 676.62 413.69 677.89 411.91 679.9C410.58 681.39 408.94 682.62 407.71 684.18C404.18 688.65 400.37 688.29 396.33 685.05C393.56 682.84 390.78 682.86 388.34 685.33C385.26 688.45 382.73 687.03 379.26 685.7C376.02 684.46 371.02 684.02 368.43 685.72C364.02 688.62 360.37 687.74 357.1 685.45C354.35 683.52 354.01 684.65 352.99 686.67C352.32 688.01 351.3 689.22 350.25 690.31C347.25 693.44 342.56 692.7 341.33 688.51C340.23 684.74 339.06 685.73 337.28 687.69C332.89 692.49 327.69 695.87 320.98 695.4C315.9 695.05 311 693.85 308.93 688.07C308.54 686.98 307.49 685.58 306.14 688.19C305.03 690.34 302.55 693 300.5 693.16C297.05 693.43 295.11 689.3 296.08 685.47C296.35 684.42 296.77 683.4 296.88 682.34C296.96 681.55 296.66 680.71 296.53 679.9C295.83 680.28 295.15 680.68 294.43 681.03C289.97 683.19 285.59 685.56 280.98 687.32C279.79 687.77 277.75 686.5 276.31 685.66C272.83 683.64 272.43 683.94 271.65 688C271.23 690.18 270.36 692.6 268.89 694.15C267.67 695.43 264.94 696.56 263.48 696.04C261.32 695.27 260.12 693.03 260.36 690.1C260.92 683.3 260.98 676.45 261.33 669.63C261.51 666.1 260.59 665.55 257.47 667.49C254.66 669.23 251.2 669.93 248.4 671.69C246.81 672.69 245.23 674.78 244.96 676.58C244.02 682.8 243.43 689.09 243.17 695.38C243 699.49 240.03 701 237.3 702.31C234.27 703.76 231.79 701.22 230.74 698.91C229.92 697.12 230.78 694.48 231.16 692.26C231.85 688.23 233.4 684.22 233.3 680.23C233.24 677.72 231.18 674.99 229.43 672.84C226.83 669.65 226.78 668.51 230.15 665.92C231.07 665.21 232.07 664.2 232.35 663.15C233.47 658.96 234.16 654.65 235.36 650.48C235.83 648.85 236.89 647.09 238.21 646.05C244.34 641.19 251.28 638.3 259.23 638.13C260.71 638.1 262.17 637.38 263.65 637.34C268.45 637.2 270.52 638.91 270.97 642.25C271.42 645.63 267.14 649.08 263.65 649.52C258.91 650.12 254.21 651.11 249.54 652.11C248.28 652.38 246.71 653.04 246.09 654.03C245.28 655.31 244.88 657.16 245.13 658.63C245.24 659.24 247.58 659.98 248.76 659.79C257.99 658.29 266.55 655.31 272.9 647.89C276.48 643.7 281.47 643.45 286.08 644.5C289.18 645.2 291.56 647.92 291.79 651.88C292.24 659.45 289.86 666.18 286.36 672.67C285.87 673.58 285.7 674.67 285.38 675.67C286.46 675.62 287.85 675.98 288.59 675.44C293.19 672.1 297.49 668.71 298.92 662.47C299.56 659.69 302.73 657.46 304.86 655.09C305.22 654.69 306.52 654.46 306.78 654.73C311.58 659.75 315.69 654.14 319.9 653.51C326.82 652.47 333.43 651.21 340.24 653.73C341.49 654.19 343.31 654.01 344.54 653.44C349.6 651.1 351.66 651.5 354.18 656.71C356.27 661.03 357.68 665.67 359.5 670.13C359.91 671.14 360.74 671.99 361.37 672.91C361.6 671.76 362.26 670.5 362 669.47C360.84 664.77 359.12 660.19 358.23 655.45C357.82 653.25 358.37 650.54 359.38 648.51C360.01 647.24 362.3 646.81 363.85 646C364.42 647.28 364.96 648.57 365.56 649.84C365.9 650.57 366.34 651.26 366.73 651.96C367.21 651.23 367.97 650.54 368.11 649.75C368.87 645.47 372.04 643.16 375.31 641.11C378.83 638.9 385.18 640.14 388.83 643.75C390.88 645.78 392.4 648.33 394.24 650.59C394.9 651.41 395.78 652.06 396.56 652.78C396.94 651.78 397.46 650.81 397.68 649.77C398.64 645.24 398.68 640.55 404.02 638.01C407.02 636.58 407.88 638.84 407.95 639.85C408.1 642.89 407.5 645.97 407.21 649.47ZM322.54 685.08C324.73 684.79 327.02 684.81 329.09 684.15C335.35 682.17 340.36 673 338.65 667.49C337.42 663.51 334.19 662.27 330.83 661.75C327.84 661.29 328.25 664.48 327.18 666.21C325.62 668.73 323.39 670.97 321.05 672.86C316.5 676.55 316.93 682.3 322.54 685.08ZM376.81 654.25C377.39 660.48 377.7 666.76 378.73 672.92C379 674.56 381.31 676.09 383.02 677.08C383.44 677.32 385.81 675.47 386.23 674.22C388.39 667.8 387.74 661.31 384.69 655.42C383.3 652.71 380.41 650.24 376.81 654.25ZM276.07 673.36C277.68 668.85 279.45 664.39 280.8 659.81C281.15 658.64 280.19 657.08 279.84 655.7C278.01 657.04 274.94 658.12 274.57 659.79C273.58 664.26 273.59 668.98 273.54 673.61C273.53 675.48 274.73 675.98 276.07 673.36ZM319.06 665.97C320.08 665.68 321.19 665.56 322.1 665.06C323.34 664.38 324.43 663.42 325.54 662.53C325.57 662.5 325.13 661.65 324.98 661.67C323.25 661.93 321.42 662.03 319.86 662.72C319.18 663.03 319.03 664.56 319.06 665.97Z" fill="black"/>
<path d="M825.58 85.63C826.79 85 827.75 84.5 828.77 84.2C834.81 82.43 837.18 84.21 837.05 90.63C836.99 93.55 836.74 96.51 836.18 99.38C834.73 106.79 838.37 110.12 845.79 107.97C848.11 107.3 850.37 106.34 852.73 105.88C854.66 105.51 856.42 105.32 856.32 108.67C856.09 116.25 853.33 119.57 845.28 120.57C839.44 121.3 834.01 119.7 828.95 117.04C824.99 114.96 824.12 109.76 826.22 103.25C826.96 100.96 827.89 98.73 828.63 96.44C828.84 95.81 828.67 95.05 828.68 94.35C828.03 94.41 827.29 94.28 826.74 94.55C818.54 98.44 817.63 100.82 819.65 110.03C820.44 113.61 820.58 117.41 820.43 121.08C820.39 122.11 818.32 123.72 817.06 123.85C815.93 123.97 813.84 122.65 813.52 121.57C812.14 116.9 811.27 112.07 810.16 107.31C809.92 106.27 809.45 105.29 809.09 104.28C808.3 104.97 807.17 105.5 806.77 106.37C805.27 109.65 804.07 113.07 802.63 116.37C799.53 123.49 797.43 123.97 791.75 119.18C791.1 118.64 789.64 118.59 788.75 118.89C784.95 120.18 781.32 121.52 777.15 119.86C776.15 119.46 773.7 120.74 773.01 121.89C771.5 124.41 770.37 125.65 767.12 124.25C765.65 123.62 763.15 124.76 761.35 125.61C755.54 128.35 747.75 127.65 743.1 123.26C741.51 121.76 740.77 119.35 739.65 117.36C737.83 118.72 736.09 121.05 734.16 121.23C730.64 121.56 726.54 121.5 723.54 119.95C720.88 118.57 720.46 120.17 719.93 121.24C717.11 126.93 714.37 127.51 710.53 122.95C709.37 121.58 708.68 121.12 706.81 122.59C701.05 127.12 695 130.79 686.93 128.49C680.7 126.71 677.35 123.04 677.28 116.43C677.25 113.76 676.97 111.09 676.81 108.42C675.5 110.33 674.31 112.32 672.87 114.12C668.14 120.05 661.27 122.81 654.65 125.67C649.87 127.73 644.57 128.55 639.58 130.16C631.76 132.69 620.46 127.84 619.28 117.36C618.9 113.98 619.99 110.24 621.14 106.92C626.15 92.55 632.22 78.63 642.65 67.26C646.37 63.21 651.05 59.92 655.7 56.89C657.31 55.84 661.55 55.82 662.1 56.77C663.24 58.74 662.93 61.69 662.76 64.2C662.7 65.09 661.44 66.12 660.5 66.69C646.7 75 637.51 86.96 632.14 102C631.37 104.14 630.56 106.28 629.95 108.47C628.3 114.35 630.24 121.29 640.1 119.82C649.97 118.35 658.61 114.2 667 109.25C667.88 108.73 668.39 107.58 669.08 106.73C667.9 106.43 666.71 105.83 665.55 105.88C662.19 106.01 658.83 106.66 655.49 106.57C654.06 106.53 652.65 105.2 651.24 104.46C651.87 103.27 652.24 101.8 653.17 100.95C658.45 96.08 665.3 94.57 671.96 93.01C673.41 92.67 675.53 94.98 677.28 96.17C678.01 96.66 678.59 97.39 679.23 98.01C679.45 97.13 679.76 96.27 679.88 95.38C680.22 92.85 680.1 90.19 680.86 87.81C681.83 84.79 683.81 83.62 686.36 86.67C687.76 88.34 689.13 88.37 691.45 87.99C697.83 86.95 704.44 86.64 709.34 92.31C710.95 94.17 712.16 93.97 713.89 92.31C718.83 87.61 720.56 87.85 723.23 93.91C724.57 96.96 725.07 100.39 725.9 103.65C726.04 104.19 725.68 104.98 725.96 105.35C727.18 107 728.54 108.54 729.86 110.12C730.09 108.06 730.67 105.97 730.5 103.94C730 97.98 729.17 92.05 728.57 86.1C728.5 85.36 728.84 84.44 729.29 83.82C730.51 82.15 731.88 80.59 733.19 78.99C734.24 80.8 735.7 82.49 736.25 84.44C737.17 87.72 737.45 91.18 738.12 94.54C738.24 95.15 738.91 95.65 739.33 96.2C739.78 95.7 740.66 95.16 740.62 94.7C739.94 85.44 747.26 84.34 753.41 82.3C759.52 80.27 765.72 78.96 771.64 83.22C772.22 83.63 773.79 83.23 774.57 82.7C778.97 79.72 782.72 75.54 788.86 76.24C792.7 76.68 795.94 79.93 796.29 83.83C797.07 92.56 793.53 99.44 787.58 105.43C786.43 106.58 785.62 108.07 784.65 109.4C786.52 109.19 788.54 109.36 790.24 108.7C794.96 106.87 796.66 102.55 797.96 98.14C799 94.64 799.29 90.87 800.72 87.56C802.1 84.36 804.2 81.31 806.57 78.74C808.97 76.14 812.99 76.42 814.81 80.52C815.03 81.01 815.21 81.51 815.43 82C818.51 88.78 818.51 88.78 825.58 85.63ZM749.38 90.63C747.56 93.32 748.59 94.81 751.51 94.45C755.02 94.02 755.09 96.08 754.5 98.21C753.94 100.24 753.05 102.5 751.58 103.88C748.95 106.34 748.58 109.14 749.94 111.9C751.81 115.7 755.79 116.38 759.21 115.19C761.99 114.22 765.14 112.45 765.04 108.32C764.9 102.82 764.88 97.32 765.07 91.82C765.14 89.67 764.57 89.08 762.47 89.28C758.26 89.7 754.03 89.9 749.38 90.63ZM689.45 96.71C689.04 97.12 688.42 97.46 688.26 97.95C687.75 99.59 687.4 101.27 686.99 102.94C688.16 102.46 689.37 102.06 690.48 101.46C691.67 100.81 692.68 99.66 693.92 99.34C694.57 99.18 696.25 100.32 696.27 100.9C696.32 102.79 696.04 104.77 695.48 106.59C694.61 109.42 693.06 111.83 689.51 110.99C686.42 110.26 686.17 111.73 687.48 113.69C688.43 115.11 690.01 116.51 691.6 117.01C696.49 118.53 700.65 116.05 704.55 113.58C705.94 112.7 707.52 110.77 707.53 109.31C707.56 104.67 701.26 97.2 696.81 96.34C694.58 95.91 692.2 96.27 689.45 96.71ZM781.51 97.58C781.81 96.99 782.04 96.33 782.44 95.81C784.13 93.62 785.97 91.54 787.53 89.26C787.99 88.59 787.72 87.42 787.79 86.49C787.08 86.78 786.24 86.91 785.68 87.38C783.2 89.45 780.16 91.23 778.55 93.86C776.58 97.08 775.77 101.03 774.65 104.72C774.51 105.19 775.46 106 775.91 106.66C776.33 106.12 776.82 105.61 777.16 105.02C778.49 102.7 779.77 100.35 781.51 97.58ZM808.87 95.4C809.3 93.86 809.91 92.34 810.06 90.78C810.1 90.38 808.44 89.26 808.01 89.46C806.01 90.37 806.35 94.35 808.87 95.4Z" fill="black"/>
<path d="M37.4702 125.15C31.3802 131.32 25.7702 137.76 17.2802 139.98C14.9502 140.59 11.2102 140.64 9.95019 139.27C8.27019 137.44 8.13019 133.99 7.88019 131.19C7.81019 130.35 9.52019 128.65 10.5602 128.52C16.7502 127.76 21.0602 123.81 25.2102 119.9C30.3002 115.1 34.8302 109.71 39.7302 104.7C42.0602 102.32 41.9002 99.7601 40.6902 97.1401C36.7102 88.5101 32.5302 79.9801 28.5902 71.3301C26.6502 67.0801 25.0902 62.6501 23.3302 58.3201C23.0802 57.7001 22.6402 57.1601 22.3002 56.5801C21.7802 57.0601 21.1302 57.4601 20.7602 58.0401C17.8302 62.7501 15.2002 67.6801 11.9602 72.1601C10.1002 74.7201 7.40019 76.7601 4.81019 78.6601C3.02019 79.9701 -0.579806 76.7001 0.0701939 73.5201C0.980194 69.1201 2.25019 64.3701 4.81019 60.8001C13.2902 48.9501 23.5302 38.7401 36.1202 31.1601C40.9902 28.2301 46.7702 29.6101 49.6302 34.6101C50.3102 35.7901 49.8402 38.1001 49.1302 39.4901C48.3902 40.9301 47.1002 42.7301 44.8602 40.3401C44.2102 39.6501 41.4102 39.9701 40.3902 40.8101C37.4002 43.2501 34.5002 45.9501 32.2102 49.0301C31.2402 50.3301 31.2102 53.1201 31.9002 54.7501C36.7002 66.0801 41.7602 77.2901 46.8102 88.5101C49.0702 93.5301 49.1502 93.5001 52.9702 89.6801C55.0102 87.6401 56.6502 86.1501 55.7502 82.2601C54.2002 75.6101 62.5302 70.7901 69.4602 74.4501C74.4002 77.0601 78.5402 81.1401 83.1702 84.3801C84.9702 85.6401 87.1302 86.4101 89.1202 87.4001C88.3302 85.6201 87.6802 83.7601 86.7202 82.0801C82.7102 75.0501 78.3402 68.2101 74.7002 61.0001C73.4702 58.5601 73.7002 55.2201 73.8202 52.3101C73.9102 50.1401 75.3802 49.6201 77.4102 50.8701C81.2202 53.2001 83.8502 56.3001 85.0602 60.6701C85.5902 62.5801 86.4902 64.4501 87.5502 66.1301C87.9702 66.7901 89.2802 66.8901 90.1802 67.2501C90.3802 66.2601 90.8402 65.2501 90.7402 64.2901C90.3802 60.8601 89.6202 57.4601 89.4002 54.0201C88.9102 46.1701 91.7702 39.6601 97.7402 34.4801C103.18 29.7601 111.59 30.4501 115.35 37.1701C115.9 38.1601 116.15 40.1301 115.57 40.7601C114.68 41.7301 112.43 42.7801 111.66 42.3201C107.73 39.9201 105.51 42.5601 103.9 45.0501C102.05 47.9301 101.08 51.3801 99.8102 54.6201C99.6402 55.0501 99.9502 56.1401 100.07 56.1501C100.85 56.1901 101.75 56.2101 102.4 55.8601C104.65 54.6301 106.69 52.9201 109.05 52.0101C110.98 51.2701 113.29 51.5901 115.34 51.0901C116.6 50.7801 117.98 50.0501 118.8 49.0701C119.71 47.9901 120.19 46.4701 120.58 45.0701C121.62 41.3901 122.94 37.7401 127.32 37.3601C130.81 37.0601 135.72 42.0101 136.14 46.4801C136.61 51.5501 136.09 56.7101 136.34 61.8101C136.42 63.4401 137.75 66.4401 138.22 66.3801C140.36 66.1201 142.58 65.2701 144.39 64.0601C145.09 63.5901 145.22 61.4701 144.85 60.3501C142.27 52.5601 139.08 44.9101 139.73 36.4401C139.86 34.8101 140.1 33.1401 140.61 31.6001C142.07 27.2301 145.32 25.8901 149.26 28.2101C154.44 31.2601 158.74 35.3201 161.39 40.8101C166.11 50.5701 170.7 60.3901 175.3 70.2101C176.55 72.8701 177.77 75.5601 178.75 78.3301C180.27 82.5801 179.13 86.1101 176.27 86.7701C174.07 87.2801 170.95 83.5701 170.03 80.2501C168.78 75.7401 167.08 71.3601 165.38 66.9901C165.24 66.6201 163.29 66.4001 162.84 66.8101C160.79 68.7001 159.66 70.9901 161.09 73.8401C161.93 75.5201 162.69 77.2301 163.56 78.8901C165.1 81.8201 163.73 84.1401 161.36 85.2501C160.17 85.8001 157.83 84.7401 156.46 83.7801C155.2 82.9001 154.46 81.2201 153.63 79.8101C151.4 76.0401 148.88 75.2801 144.91 76.7001C141.99 77.7401 138.9 78.3601 135.84 78.8801C133.89 79.2201 131.88 78.8801 133.5 81.9601C134.04 82.9801 134.04 84.7101 133.54 85.7601C132.76 87.4101 131.34 88.7501 130.2 90.2201C129.03 89.2301 127.37 88.4701 126.77 87.2101C123.13 79.4601 119.61 71.6601 116.33 63.7601C115 60.5501 113.37 60.0801 110.9 62.2001C109.04 63.8001 107.41 65.6701 105.66 67.3901C102.09 70.8801 105.36 74.0301 106.31 77.1301C107.91 82.3701 109.64 87.6301 112.04 92.5401C113.96 96.4601 111.06 97.7901 109.07 99.2401C108.41 99.7301 105.57 98.2201 104.52 96.9601C103.11 95.2701 102.57 92.8801 101.45 90.9001C100.94 90.0001 99.9602 89.3701 99.1902 88.6201C98.8002 89.4701 98.1602 90.2901 98.0602 91.1801C97.3402 97.6001 90.0602 102.14 84.6802 98.7601C80.2802 96.0001 76.7602 91.8401 72.8302 88.3201C72.0202 87.5901 71.1202 86.9701 70.2602 86.3001C70.0702 87.5801 69.3602 89.0901 69.8002 90.0901C71.0502 92.9101 72.9702 95.4301 74.2402 98.2401C75.2302 100.42 76.3202 102.93 76.1002 105.17C75.9302 106.9 74.0302 108.76 72.4202 109.87C71.9202 110.21 69.3802 108.58 68.6002 107.33C66.8402 104.5 65.5602 101.37 64.1802 98.3301C63.1902 96.1601 62.2202 94.6101 60.0702 97.3401C58.6002 99.2101 56.5202 100.79 55.6402 102.89C54.9002 104.65 55.2802 107 55.5302 109.05C55.9302 112.3 56.9402 115.51 57.0602 118.76C57.1002 119.93 55.4002 122.03 54.3202 122.15C52.7702 122.33 50.9302 121.29 49.4502 120.38C48.6402 119.88 48.1802 118.65 47.7902 117.65C47.4102 116.67 47.3202 115.58 47.1002 114.54C46.0002 115.39 44.7302 116.08 43.8502 117.12C41.7002 119.62 39.7302 122.31 37.4702 125.15ZM150.15 37.6501C147.52 35.1201 147.22 37.5801 147.63 39.1401C149.3 45.4901 151.24 51.7801 153.28 58.0301C153.53 58.7901 155.59 59.7901 155.8 59.6001C156.98 58.4901 158.32 57.1701 158.7 55.6901C159.03 54.4201 158.45 52.6701 157.75 51.4201C155.33 47.0501 152.7 42.8101 150.15 37.6501Z" fill="black"/>
<path d="M766.75 170.96C767.41 162.92 768.59 155.65 774.36 149.76C779.44 144.56 786.81 146.38 788.49 153.18C789.4 156.86 791.58 158.66 795.49 157.95C796.05 157.85 796.85 157.69 797.19 157.97C801.98 162.01 804.53 158.98 807.36 155.2C812.47 148.38 819.58 148.08 827.05 150.19C828.41 150.57 829.9 151.71 830.59 152.92C831.18 153.94 831.24 156.31 830.59 156.78C829.43 157.61 827.41 158.01 826.03 157.6C820.61 156 816.28 158.06 812.45 161.39C809.43 164.02 809.59 166.68 813.2 168.17C818.83 170.49 823.74 173.37 827.05 178.66C827.8 179.86 828.94 180.96 829.32 178.15C830.03 172.84 831.02 167.58 831.88 162.29C832.46 158.75 834.48 156.75 838.06 156.18C842.92 155.39 847.77 154.52 852.61 153.58C857.8 152.57 861.69 155.91 860.45 160.89C859.36 165.29 854.87 163.81 851.87 164.85C848.82 165.91 845.62 166.52 842.57 167.57C841.77 167.84 841.27 168.99 840.63 169.73C841.76 170.14 842.92 170.94 844.02 170.86C845.12 170.78 846.11 169.69 847.23 169.27C848.13 168.94 849.59 168.5 850.04 168.92C850.71 169.55 851.04 170.93 850.93 171.93C850.48 175.97 848.08 178.69 844.55 180.53C843.12 181.28 841.59 181.95 840.38 182.98C839.39 183.82 838.81 185.14 838.05 186.25C839.52 187.23 840.92 188.84 842.49 189.05C844.58 189.33 846.81 188.48 848.99 188.18C849.97 188.04 851.32 187.65 851.85 188.11C852.4 188.59 852.4 190.02 852.23 190.95C851.23 196.56 847.8 199.9 842.18 200.42C837.23 200.87 832.62 199.11 829.78 195.08C828.17 192.8 827.79 193.81 826.6 194.9C818.46 202.34 807.01 201.33 800.16 192.78C799.34 191.76 797.57 191.09 796.19 191.01C789.44 190.62 786.64 187.9 786.76 181.11C786.82 178.04 787.43 174.99 787.52 171.92C787.55 170.79 786.81 169.64 786.42 168.5C785.81 169.31 785.16 170.1 784.59 170.95C784.22 171.5 784.12 172.33 783.63 172.7C776.2 178.4 777.41 187.24 775.33 194.91C774.78 196.94 773.03 198.64 771.83 200.5C770.14 199 767.56 197.78 766.96 195.92C766.1 193.26 764.54 193.2 762.81 193.66C757.94 194.98 753.47 195.57 750.65 190.09C750.44 189.67 749.76 189.49 749.31 189.21C749.05 189.75 748.63 190.27 748.54 190.85C747.57 197.02 745.73 197.81 739.85 195.04C738.94 194.61 737.2 195.48 736.04 196.11C731.97 198.32 728.03 200.21 723.51 197.06C719.81 194.48 719.68 190.44 719.07 186.67C718.68 184.27 719.14 181.75 718.88 179.31C718.82 178.77 717.22 177.87 716.52 178.02C714.72 178.41 713.06 179.43 711.27 179.97C706.61 181.38 708.64 185.68 707.91 188.48C706.13 195.36 705.39 202.52 704.23 209.56C703.73 212.59 701.53 212.67 699.11 212.69C696.24 212.72 696.27 210.87 696.44 208.94C696.65 206.45 697.39 203.94 697.22 201.49C696.51 190.98 695.44 180.5 694.72 170C694.13 161.31 696.63 150.82 705.54 146.06C713.7 141.69 724.41 146.96 724.9 157.96C725.28 166.64 726.39 175.08 728.61 183.42C729 184.88 730.17 186.14 730.98 187.49C732.2 186.23 733.83 185.16 734.52 183.66C735.29 181.97 735.28 179.91 735.49 177.99C736.11 172.16 736.58 166.3 737.31 160.48C737.45 159.38 738.36 158.25 739.19 157.4C739.8 156.78 740.85 156.6 741.71 156.22C741.96 157.07 742.23 157.92 742.44 158.78C742.86 160.49 743.24 162.21 743.64 163.93C744.77 162.59 746.03 161.34 746.99 159.88C749.15 156.6 751.94 154.71 755.98 154.42C759.77 154.16 761.3 156.63 761.4 159.38C761.54 163.52 760.83 167.72 760.17 171.85C759.81 174.07 758.52 176.14 758.16 178.36C757.77 180.74 757.64 183.7 761.07 183.9C763.78 184.06 766.44 183 766.71 179.66C766.92 176.91 766.75 174.15 766.75 170.96ZM706.82 159.24C706.24 160.44 705.52 161.6 705.11 162.85C703.8 166.83 705.75 169.57 709.47 168.13C712.47 166.96 715.2 164.12 716.99 161.33C717.72 160.19 715.98 157.01 714.69 155.26C714.26 154.68 711.63 155.43 710.16 155.99C708.93 156.47 707.93 157.55 706.82 159.24ZM807.13 177.91C806.99 179.14 806.9 180.39 806.69 181.61C805.92 186.06 808.65 188.45 812.25 188.87C814.76 189.16 817.51 187.43 820.15 186.6C819.04 185.2 818.21 183.21 816.75 182.51C813.6 180.97 811.91 176.74 807.13 177.91ZM747.64 174C747.66 176.62 747.62 179.25 747.75 181.87C747.77 182.29 748.51 182.69 748.91 183.09C749.35 182.57 750.04 182.12 750.2 181.53C751.43 176.86 752.61 172.17 753.65 167.45C753.79 166.81 753.1 165.99 752.79 165.26C752.23 165.63 751.44 165.88 751.14 166.4C749.9 168.6 748.8 170.88 747.64 174ZM778.47 168.35C779.77 165.03 781.17 161.74 782.3 158.37C782.54 157.67 781.79 156.64 781.5 155.76C780.79 156.18 779.75 156.43 779.43 157.05C777.98 159.87 776.5 162.71 775.52 165.71C775.04 167.21 774.88 169.66 778.47 168.35ZM798.44 176.17C798.3 174.23 798.3 172.27 797.93 170.37C797.79 169.62 796.83 169.02 796.25 168.35C795.68 169.03 794.72 169.65 794.61 170.4C794.36 172.07 794.28 173.86 794.6 175.51C794.92 177.16 795.82 178.7 796.47 180.28C797.28 179.06 798.08 177.83 798.44 176.17Z" fill="black"/>
<path d="M848.38 262.15C846.64 264.65 844.98 267.03 844.13 269.68C843.13 272.8 841.42 273.69 838.3 273.52C835.16 273.35 834.69 271.2 834.57 269.04C834.46 267.01 835.04 264.94 835.36 262.89C836.21 257.46 837.44 252.06 837.86 246.59C838.27 241.23 840.31 236.88 844.44 233.74C845.59 232.87 848.63 232.75 849.52 233.61C851.84 235.86 853.8 238.67 855.24 241.58C856.95 245.04 858.11 245.61 861.48 243.42C865.69 240.67 869.84 237.81 874.18 235.28C877.48 233.36 879.06 234.25 878.67 237.94C878.29 241.54 877.54 245.28 876.03 248.53C874.58 251.66 876.63 251.82 878.29 252.59C880.84 253.76 883.51 254.69 886 255.98C888.53 257.3 890.47 256.49 890.93 253.62C892.21 245.74 903 239.04 910.86 241.37C911.59 241.58 912.68 242.89 912.53 243.31C912.01 244.76 911.31 246.48 910.13 247.29C908.29 248.54 905.9 248.95 903.94 250.07C902.87 250.68 902.2 252 901.35 252.99C902.48 253.15 903.65 253.56 904.74 253.42C908.28 252.97 911.83 252.48 915.29 251.65C916.66 251.32 918.06 250.29 919.01 249.19C924.76 242.49 932.29 238.6 940.42 235.85C942.17 235.26 944.47 236.31 946.51 236.6C946.06 239.4 948.09 242.94 943.77 244.54C940.14 245.88 936.63 247.56 933.09 249.14C932.58 249.37 932.2 249.85 931.75 250.22C932.2 250.73 932.54 251.52 933.1 251.72C935.75 252.68 938.52 253.32 941.12 254.37C948.3 257.27 954.84 260.81 956.16 269.61C957.52 278.61 952.95 285.17 945.38 286.36C937.49 287.59 929.82 286.51 922.64 282.32C919.31 280.38 920.08 278.57 921.54 276.29C924.95 270.94 929.59 273.69 934.01 274.35C937.48 274.87 941.03 275.19 944.53 275.1C946.97 275.03 947.52 272.7 946.07 270.79C941.46 264.74 934.73 262.91 927.84 261.29C925.48 260.73 922.46 260.77 920.94 259.3C918.46 256.9 917.21 258.55 915.2 259.5C911.1 261.45 906.67 262.74 902.69 264.9C900.72 265.97 898.95 268.13 898.09 270.22C897.67 271.23 899.54 274.45 900.43 274.48C903.07 274.55 905.75 273.58 908.39 272.9C909.64 272.58 910.82 272.01 912.03 271.56C911.94 273.09 912.23 274.77 911.71 276.14C907.95 285.87 899.67 287.97 892.04 283.85C890.63 283.09 888.63 281.81 888.48 280.58C887.97 276.24 885.29 277.1 882.82 277.86C877.42 279.52 872.35 279.08 868.09 275.3C863.53 271.26 863.31 265.85 864.58 260.33C865.33 257.05 866.44 253.86 867.27 250.6C867.45 249.89 867.11 249.06 867.01 248.28C866.23 248.49 865.25 248.47 864.7 248.95C860.35 252.76 857.22 258.08 859.54 265.26C860.62 268.61 862.48 272.39 859.63 275.92C858.81 276.94 857.53 278.65 856.81 278.49C855.32 278.15 853.67 277.05 852.77 275.78C850.45 272.48 848.76 268.9 850 264.58C850.21 263.92 849.25 262.96 848.38 262.15ZM879.21 268.23C879.87 267.44 880.53 266.66 881.19 265.87C879.59 264.92 878.05 263.85 876.35 263.11C875.97 262.94 875.08 263.93 874.43 264.38C875.25 265.47 876.01 266.6 876.9 267.61C877.22 267.96 877.85 268.03 879.21 268.23ZM846.21 253.46C849.86 252.79 847.93 249.89 848.3 247.96C848.37 247.62 847.43 247.08 846.96 246.63C846.56 248.19 846.13 249.74 845.79 251.31C845.67 251.86 845.77 252.45 846.21 253.46Z" fill="black"/>
<path d="M192.92 750C191.82 746.23 190.59 742.56 194.66 740.04C197 738.59 199.31 738.16 201.2 740.89C202.25 742.4 203.15 742.85 204.88 741.21C209.16 737.15 213.86 733.79 220.33 736.32C226.74 738.82 230.5 744.03 231.59 750.22C233.76 762.53 226.77 773.83 215.44 778.28C213.45 779.06 211.26 780.77 209.51 780.4C206.92 779.85 203.88 778.37 202.43 776.3C200.48 773.51 199.61 773.81 197.71 775.95C196.42 777.4 194.84 778.64 193.22 779.72C186.59 784.14 180.53 782.66 176.85 775.55C175.39 772.73 174.72 772.51 172.64 775.22C168.08 781.15 161.77 784.97 154.39 785.56C151.51 785.79 148.08 783.33 145.47 781.35C143.71 780.01 142.52 779.9 140.87 780.79C139.45 781.56 137.99 782.3 136.69 783.25C130.62 787.71 123.73 783.64 122.57 777.12C121.1 768.84 120.84 760.28 120.85 751.84C120.85 749.59 123.36 746.88 125.41 745.23C127.59 743.47 130.88 745.74 131.02 748.77C131.35 755.74 131.6 762.71 131.92 769.68C131.97 770.77 132.09 771.92 132.51 772.9C132.81 773.58 133.69 774.01 134.31 774.55C134.67 773.95 135.16 773.4 135.36 772.75C137.42 766.08 139.09 759.26 141.54 752.73C145.7 741.63 159.18 737.56 168.63 745.73C170.16 747.05 171.41 748.7 172.99 749.95C173.6 750.43 174.92 750.61 175.62 750.29C179.58 748.51 181.7 750.72 182.77 753.88C184.11 757.84 184.78 762.02 185.76 766.1C185.98 767.01 186.14 767.98 186.57 768.8C187.15 769.88 187.97 770.83 188.68 771.83C189.44 770.91 190.25 770.04 190.95 769.08C195.23 763.2 195.23 756.82 192.92 750ZM152.75 771.49C154.61 775.85 158 776.74 161.65 773.9C167.87 769.06 166.52 761.08 162.49 755.29C160.72 752.75 153.11 752.97 152.9 755.3C152.44 760.37 152.75 765.51 152.75 771.49ZM213.98 768.45C214.39 768.62 215.13 768.98 215.16 768.94C216.98 765.66 219.55 762.51 220.27 758.99C221.01 755.32 221.69 750.88 216.76 748.39C213.7 746.84 211.94 748.27 211.97 750.56C212.06 756.38 212.97 762.19 213.98 768.45Z" fill="black"/>
<path d="M200.74 148.16C198.38 139.14 195.81 130.41 194.21 121.51C192.78 113.52 190.96 105.28 194.72 97.3401C196.15 94.3201 198.24 92.4201 201.87 94.5001C202.78 95.0201 203.91 95.2101 204.97 95.3801C206.51 95.6301 207.66 95.5601 207.57 93.3101C207.52 92.0001 208.5 90.6601 209.02 89.3301C210.24 90.2701 212.04 90.9501 212.58 92.1901C215.39 98.5401 217.95 105.01 220.46 111.49C221.38 113.86 221.72 116.47 222.69 118.81C224.07 122.15 221.93 123.26 219.63 124.52C216.75 126.1 216.36 123.47 215.46 122.02C212.31 116.98 209.33 111.83 206.18 106.78C205.76 106.11 204.79 105.79 204.07 105.3C203.75 106.04 203.23 106.75 203.15 107.51C201.76 120.29 204.66 132.39 209.23 144.18C210.79 148.21 214.95 148.98 218.05 146.03C225.05 139.37 228.29 131.04 229.21 121.57C229.89 114.53 230.78 107.51 231.83 100.52C232.38 96.8601 238.71 93.6701 242.83 94.7601C244.64 95.2401 246.59 95.6401 248.11 96.6401C253.08 99.9001 253.02 100 254.35 94.7901C254.62 93.7401 254.73 92.6401 255.12 91.6301C256.79 87.3001 258.82 82.9201 264.07 82.4701C271.05 81.8701 276.69 85.1801 280.31 90.8901C285.76 99.4601 288.82 109.14 288 119.25C287.38 126.87 284.61 134.16 276.76 137.97C268.44 142 261.71 138.9 259.56 129.92C259.28 128.74 259.06 127.53 258.67 126.38C258.3 125.28 257.75 124.25 257.28 123.19C256.59 124.35 255.57 125.42 255.27 126.67C253.94 132.32 251.53 137.24 246.35 140.24C242.59 142.42 238.68 140.35 237.86 135.98C237.76 135.42 238.03 134.74 237.81 134.26C237.14 132.84 236.32 131.5 235.56 130.13C235.17 131.41 234.68 132.67 234.39 133.98C232.32 143.23 228.77 152.08 220.53 157.08C213.43 161.4 206.62 160.89 200.74 148.16ZM273.03 95.4001C270.45 93.9101 267.65 90.4301 265.11 94.8401C263.49 97.6601 262.14 101.27 262.38 104.4C262.86 110.74 264.33 117.04 265.75 123.27C266.17 125.12 268.12 128.27 268.74 128.13C271.26 127.55 274.42 126.52 275.75 124.56C281.79 115.71 280.81 103.59 273.03 95.4001ZM241.34 110.6C241.63 115.67 241.8 120.75 242.3 125.79C242.42 126.99 243.64 128.09 244.35 129.24C244.8 128.3 245.25 127.35 245.69 126.4C246.47 124.71 247.28 123.03 248 121.31C251.34 113.32 251.02 111.97 244.48 106.82C243.78 106.26 242.86 105.97 242.05 105.56C241.8 106.95 241.57 108.34 241.34 110.6Z" fill="black"/>
<path d="M742.21 237.18C743.3 240.37 744.04 243.38 745.12 246.27C745.39 247.01 747.08 248 747.54 247.76C753.86 244.55 757.41 246.34 758.95 253.56C759.68 256.99 760.64 260.38 761.55 263.77C761.73 264.43 762.2 265.01 762.54 265.62C763.07 264.88 764.02 264.16 764.05 263.41C764.11 261.77 763.51 260.11 763.53 258.47C763.62 250.08 760.92 241.15 768.24 234.12C769.7 232.72 770.62 232.27 771.08 234.71C771.69 237.94 772.55 241.16 772.75 244.41C773.04 249.02 772.75 253.67 772.88 258.3C772.91 259.29 773.67 260.27 774.09 261.25C774.82 260.42 775.74 259.68 776.26 258.73C779.48 252.83 782.59 246.88 785.77 240.96C786.28 240 786.8 238.88 787.64 238.3C789.21 237.21 791.91 235.29 792.55 235.79C794.87 237.58 795.37 240.47 793.85 243.23C792.8 245.13 791.41 246.85 790.21 248.68C789.85 249.23 789.63 249.87 789.35 250.46C790.02 250.59 790.92 251.07 791.32 250.81C795.81 247.8 800.37 247.47 805.23 249.92C805.85 250.23 807.11 249.66 807.89 249.18C813.04 246.04 816.07 247.91 817.12 254.92C817.34 256.4 817.48 257.96 818.05 259.31C818.5 260.39 819.5 261.89 820.36 261.96C821.23 262.04 822.57 260.78 823.13 259.78C826.05 254.59 826.28 248.8 826.75 243.02C826.96 240.38 827.98 237.78 828.91 235.25C829.19 234.49 830.55 233.46 831.11 233.62C832.07 233.89 833.18 234.85 833.55 235.79C837.55 245.91 833.31 263.25 825.15 271.07C822.13 273.96 818.85 273.75 815.1 272.83C811.38 271.92 810.3 269.64 810.1 266.26C810.05 265.44 809.22 264.67 808.74 263.88C808.16 264.5 807.38 265.03 807.02 265.77C802.61 274.72 794.39 277.71 785.48 279.48C781.06 280.35 776.7 280.15 772.48 278.03C771.53 277.55 769.87 278.27 768.62 278.67C760.73 281.2 754.6 279 753.72 268.88C753.71 268.74 753.77 268.57 753.71 268.45C753.11 267.21 752.49 265.98 751.87 264.75C751.33 266.05 750.08 267.53 750.36 268.63C752.01 275.36 745.76 277.96 743.17 282.34C741.65 284.9 737.37 282.33 737.26 278.54C737.11 273.04 737.24 267.54 737.2 262.04C737.2 261.22 736.96 260.41 736.84 259.59C736.04 260.06 734.84 260.35 734.5 261.05C732.4 265.38 730.54 269.83 728.51 274.2C727.8 275.73 727.21 277.69 725.96 278.5C724.65 279.35 721.69 279.8 721.08 279.07C720.01 277.79 719.55 275.32 719.95 273.61C722.35 263.21 725 252.86 727.71 242.53C728.18 240.75 728.97 238.8 730.23 237.54C735.95 231.85 735.48 229.9 742.21 237.18ZM787.59 263.45C786.5 263.59 785.19 263.41 784.37 263.96C783.23 264.72 782.45 266.03 781.52 267.11C782.7 267.77 784.17 269.26 785 268.96C789.87 267.2 794.61 265.04 799.35 262.93C799.81 262.72 800.03 261.95 800.36 261.44C799.78 261.1 799.19 260.44 798.63 260.47C797.43 260.53 796.25 260.91 795.07 261.2C792.7 261.79 790.36 262.41 787.59 263.45ZM737.22 248.69C736.44 248.03 735.65 247.36 734.87 246.7C734.52 247.39 734.17 248.08 733.82 248.76C734.81 248.88 735.8 249 737.22 248.69Z" fill="black"/>
<path d="M502.74 766.71C505.39 767.14 505.84 768.25 504.93 770.34C504.76 770.73 506.73 772.52 506.78 772.48C510.43 769.57 514.74 770.25 518.89 770.19C522.51 770.14 526.13 770.32 529.73 770.09C530.81 770.02 531.82 768.92 532.86 768.29C532.23 767.47 531.76 766.39 530.94 765.88C525.3 762.42 519.53 759.18 513.91 755.69C503.65 749.32 504.88 740.08 515.14 735.57C521.37 732.84 528.11 731.18 534.75 729.56C535.92 729.27 538.7 731.3 539.03 732.67C539.8 735.84 539.31 739.39 535.47 740.58C531.59 741.78 527.52 742.32 523.56 743.31C522.62 743.54 521.84 744.37 520.98 744.93C521.64 745.82 522.14 746.96 523 747.56C528.48 751.38 534.38 754.69 539.5 758.94C544.67 763.23 544.81 768.29 541.09 773.96C536.3 781.25 527.92 784.39 519.52 782.23C516.61 781.48 513.57 781.28 510.65 780.57C507.92 779.9 505.3 778.82 502.6 778.04C501.53 777.73 500.11 777.24 499.29 777.68C491.91 781.58 484.84 776.61 480.22 771.13C476.72 766.99 475.59 761.92 475.79 756.48C475.97 751.57 475.92 746.64 475.76 741.73C475.72 740.5 474.86 739.29 474.38 738.07C473.49 739.01 472.04 739.83 471.82 740.9C471.27 743.66 471 746.54 471.1 749.36C471.33 755.92 473.06 762.71 469.6 768.78C468.07 771.46 465.08 774.88 462.55 775.05C458.26 775.33 452.9 773.87 450.83 769.63C447.75 763.29 445.91 756.34 443.77 749.58C443.41 748.43 443.76 746.55 444.53 745.66C445.94 744.03 447.75 742.48 449.72 741.77C450.43 741.52 452.54 743.59 453.15 744.98C455.13 749.51 456.65 754.23 458.5 758.82C459 760.05 460.05 761.06 460.85 762.17C461.21 760.73 462.08 759.2 461.84 757.86C460.57 750.6 460.64 743.54 462.66 736.32C464.08 731.25 467.93 729.12 471.87 727.87C476.34 726.45 480.21 729.63 482.4 733.2C484.46 736.55 486.81 737.48 490.34 737.25C493.08 737.07 495.84 737.08 498.58 737.28C499.7 737.36 500.78 738.13 501.88 738.59C501.25 739.49 500.81 740.68 499.95 741.23C496.42 743.47 492.76 745.5 489.18 747.66C488.52 748.06 488.01 748.72 487.43 749.26C488.31 749.59 489.18 750.16 490.06 750.18C490.95 750.2 491.83 749.57 492.74 749.41C493.81 749.22 494.92 749.24 496.01 749.17C495.73 750.46 495.72 751.91 495.1 753.02C494.23 754.58 492.78 755.8 491.83 757.32C490.83 758.92 489.12 760.96 489.48 762.36C490.26 765.39 492.69 767.58 496.15 767.58C498.2 767.53 500.25 767 502.74 766.71Z" fill="black"/>
<path d="M291.05 777.79C289.83 776.57 288.08 775.65 287.95 774.54C287.45 770.39 287.48 766.18 287.31 761.99C287.3 761.85 287.37 761.71 287.35 761.58C287.15 759.53 286.94 757.48 286.74 755.43C285.55 756.68 284.54 758.23 283.13 759.13C279.38 761.52 275.61 763.99 271.55 765.72C269.16 766.74 268.27 767.81 268.21 770.28C268.08 775.37 267.69 780.46 267.38 785.55C267.2 788.61 263.13 793.43 261 792.68C257.81 791.55 255.75 789.16 256.09 785.38C256.41 781.89 257.15 778.35 256.86 774.9C256.25 767.59 255.48 760.25 253.97 753.09C253.2 749.46 254.34 747.65 256.93 745.88C258.92 744.52 261.62 743.45 257.25 741.25C254.07 739.65 254.32 734.95 257.91 732.51C262.11 729.65 266.6 726.94 271.34 725.2C277.26 723.03 287.5 729.91 289.07 736.47C289.49 738.2 289.62 740 289.98 741.74C290.15 742.57 290.54 743.36 290.83 744.16C291.7 743.61 292.61 743.13 293.42 742.51C296.87 739.9 300.04 736.77 303.79 734.73C307.82 732.54 312.34 733.34 315.61 736.54C319.33 740.18 319.14 745.24 318.36 749.93C317.84 753.04 316.2 755.96 315.18 759C314.96 759.66 315.24 760.49 315.29 761.24C315.99 761.02 316.99 761.03 317.34 760.55C319.58 757.46 321.58 754.19 323.87 751.13C325.49 748.97 327.14 746.62 329.3 745.12C333.02 742.55 335.81 744.23 335.96 748.87C336.09 752.77 335.87 756.69 336.02 760.59C336.17 764.81 336.46 769.04 336.89 773.25C337.29 777.16 335.35 779.59 331.94 780.53C329.19 781.29 325.79 777.28 325.59 773.45C325.47 771.14 325.61 768.82 325.55 766.51C325.53 765.71 325.25 764.92 325.09 764.13C324.4 764.55 323.67 764.93 323.01 765.39C319.08 768.14 315.28 771.09 311.19 773.57C309.94 774.33 307.62 774.42 306.3 773.77C302.99 772.13 301.17 773.75 299.53 776.1C296.56 780.37 295.67 780.62 291.05 777.79ZM263.92 748.04C264.5 749.67 264.86 751.43 265.73 752.88C266.36 753.93 267.78 755.41 268.65 755.28C273.4 754.58 277.49 752.04 278.92 747.51C279.75 744.89 279.25 740.72 277.57 738.8C276.29 737.34 272.21 738.19 269.39 738.3C268.44 738.34 267.51 739.24 266.58 739.78C263.62 741.5 262.2 743.78 263.92 748.04ZM303.86 752.38C303.86 753.1 303.72 753.86 303.89 754.54C304.12 755.45 304.59 756.29 304.96 757.16C305.75 756.4 307.01 755.75 307.24 754.85C307.81 752.59 308.03 750.21 308.14 747.87C308.18 747.02 307.51 746.14 307.17 745.27C306.27 745.7 304.82 745.94 304.58 746.61C304.02 748.13 304.07 749.87 303.86 752.38Z" fill="black"/>
<path d="M142.98 696.15C140.6 696.81 137.29 698.3 136.52 697.47C135.09 695.91 134.68 693 134.68 690.65C134.69 683.67 135.2 676.69 135.24 669.71C135.24 669.07 133.04 667.65 132.33 667.9C128.57 669.26 124.71 670.66 121.36 672.79C118.04 674.91 117.03 671.98 117.35 670.69C118 668.09 119.38 665.13 121.41 663.55C123.84 661.66 127.39 661.3 130.2 659.81C131.63 659.05 133.61 657.07 133.42 655.97C132.86 652.72 131.64 649.48 130.02 646.61C129.58 645.82 126.38 645.62 125.22 646.37C117.67 651.23 112.75 664.56 114.48 673.7C116.06 682.04 115.2 690.38 113.68 698.66C113.5 699.64 113.75 700.69 113.64 701.69C113.27 704.94 111.2 707.51 108.24 707.46C105.3 707.41 102.4 705.23 102.43 701.71C102.54 689.96 101.88 678.06 103.58 666.53C104.82 658.12 107.35 649.33 113.35 642.47C117.04 638.25 121.6 634.75 127.15 634.04C132.41 633.37 136.3 637.41 138.62 641.37C141.27 645.9 142.27 651.4 144.08 656.44C144.48 657.56 145.21 658.6 145.92 659.57C146.24 660 146.91 660.17 147.42 660.45C147.74 659.86 148.21 659.3 148.36 658.67C149 656.03 149.26 653.26 150.19 650.74C151.81 646.34 153.99 642.45 158.37 639.81C166.59 634.84 174.66 637.14 175.79 646.42C176.7 653.87 176.92 662.19 171.84 668.82C170.13 671.05 167.18 672.65 164.47 673.68C161.74 674.72 160.12 675.76 160.53 678.94C161.2 684.19 162.4 689.51 161.99 694.69C161.8 697.13 158.77 700.36 156.29 701.3C153.98 702.18 151.26 700.26 150.91 696.56C150.4 691.1 149.33 685.68 148.34 680.28C148.15 679.22 147.26 678.29 146.7 677.3C146.11 678.41 145.07 679.49 145.01 680.63C144.79 684.38 145.08 688.16 144.85 691.91C144.77 693.26 143.78 694.58 142.98 696.15ZM165.78 660.33C165.78 656.89 165.84 653.44 165.73 650C165.71 649.29 165.02 648.59 164.63 647.89C164.12 648.29 163.65 648.76 163.1 649.1C158.99 651.61 159.28 655.99 159.01 659.83C158.89 661.52 160.74 663.34 161.7 665.11C162.92 663.66 164.13 662.21 165.78 660.33Z" fill="black"/>
<path d="M191.18 67.4001C190.67 63.4001 190.45 59.6001 190.08 55.8201C188.95 44.1401 187.53 32.4901 186.74 20.7901C186.41 15.9401 186.46 10.6701 188 6.1601C190.7 -1.7399 194.62 -1.2599 200.56 3.2201C205.06 6.6101 209.13 10.7701 211.07 16.5801C211.77 18.6701 213.82 21.2501 216.34 17.5201C217.65 15.5801 219.11 13.7501 220.49 11.8501C222.23 9.4501 224.17 7.2401 227.45 9.0701C230.58 10.8201 230.91 13.9001 228.63 17.3701C227.58 18.9601 226.37 20.4801 225.62 22.2001C224.9 23.8501 224.66 25.7201 224.22 27.4901C225.81 27.8401 227.48 28.6901 228.98 28.4601C235.39 27.5001 244.01 34.9201 244.71 41.9501C245.32 48.0501 244.85 53.9301 240.72 59.3901C236.55 64.8901 232.62 70.2101 225.56 71.9001C224.05 72.2601 222.35 71.8301 220.73 71.7601C221.09 70.0901 220.99 68.1201 221.88 66.8101C225.05 62.1401 228.62 57.7401 231.89 53.1301C233.13 51.3901 234.17 49.4501 234.95 47.4601C236.82 42.7201 234.76 39.8801 229.59 39.8301C219.39 39.7201 219.17 40.1901 222.14 50.0501C223.02 52.9801 223.27 56.3001 222.92 59.3401C222.73 60.9801 220.87 62.6801 219.37 63.8401C217.7 65.1301 214.57 62.6001 215.43 60.2101C217.71 53.8501 213.41 48.9901 212.34 43.4301C212.12 42.2801 211.38 41.2301 210.97 40.1001C210.62 39.1601 210.39 38.1801 210.11 37.2201C209.16 38.0101 208.03 38.6701 207.3 39.6301C205.06 42.5801 202.96 45.6301 200.82 48.6601C197.79 52.9501 199.26 57.9001 198.67 62.5601C198.42 64.5701 197.2 66.7101 195.81 68.2301C194.61 69.5301 192.61 69.6701 191.18 67.4001ZM201.39 34.1801C201.9 33.3801 202.23 32.2901 202.96 31.8201C206.66 29.4301 206.2 26.0801 204.79 22.9101C203.05 18.9901 200.84 15.2701 198.66 11.5601C198.26 10.8901 197.04 10.7001 196.2 10.2901C195.91 11.1001 195.31 11.9201 195.37 12.7001C195.87 19.8501 196.45 26.9901 197.1 34.1201C197.17 34.8501 197.85 35.5301 198.25 36.2301C199.15 35.7001 200.05 35.1601 201.39 34.1801Z" fill="black"/>
<path d="M280.2 536.36C285.34 534.4 290.31 532.8 295.17 530.89C298.92 529.42 300.84 531.43 301.95 534.34C302.95 536.98 303 539.96 303.92 542.64C305.62 547.6 302.98 551.85 302.17 556.42C301.4 560.78 301.1 565.21 300.3 569.56C300.12 570.55 298.67 572.1 297.9 572.05C293.15 571.71 287.51 568.24 288.21 562.9C288.36 561.76 288.42 560.55 288.19 559.44C287.8 557.6 287.12 556.68 285.08 558.33C270.18 570.38 255.13 582.33 242.5 596.81C232.62 608.13 223.47 620.09 214.23 631.95C210.19 637.12 208.45 637.83 205.26 633.57C204.32 632.31 204.17 629.39 205 628.07C209.05 621.59 213.06 614.96 218 609.17C228.5 596.88 239.23 584.74 250.55 573.21C257.48 566.15 265.51 560.1 273.39 554.06C276.54 551.65 275.23 550.87 272.97 549.62C271.92 549.04 270.43 548.83 269.81 547.97C268.73 546.49 267.34 544.46 267.63 542.97C267.91 541.51 269.95 540.02 271.56 539.28C274.22 538.06 277.16 537.44 280.2 536.36Z" fill="black"/>
<path d="M382.89 779.74C382.89 778.44 383.17 777.43 382.83 776.73C382.15 775.33 385.34 768.11 379.2 774.18C377.72 775.65 374.1 773.52 373.36 770.98C373.2 770.45 373.47 769.79 373.31 769.26C372.97 768.11 372.49 767 372.06 765.88C371.05 766.58 369.93 767.14 369.06 767.99C362.21 774.7 355.95 772.71 353.35 762.97C353.11 762.07 352.94 761.07 352.43 760.34C352.14 759.93 351.12 759.69 350.61 759.87C350.22 760.01 349.92 760.93 349.92 761.51C349.86 765.75 350.44 770.09 349.71 774.21C349.17 777.24 347.19 780.12 345.39 782.75C344.8 783.62 342.26 784.21 341.49 783.67C340.17 782.75 338.43 780.48 338.78 779.39C342.06 769.15 339.64 758.7 340.29 748.38C340.56 744.08 342.01 740.58 345.33 737.87C348.92 734.94 353.34 735.69 355.99 739.53C359.32 744.38 360.75 749.79 361.29 755.59C361.42 757.01 362.71 758.32 363.46 759.68C363.86 758.4 364.57 757.13 364.61 755.84C364.76 751.46 364.46 747.05 364.72 742.68C365.02 737.71 368.57 734.7 372.74 733.43C374.15 733 377.56 735.79 378.48 737.83C380.32 741.9 382.15 743.43 386.48 741.13C388.85 739.87 392.56 743.62 393.31 747.71C395.24 758.19 394.21 768.42 390.71 778.44C389.12 782.96 386.44 783.55 382.89 779.74Z" fill="black"/>
<path d="M616.5 187.46C618.2 190.41 619.56 190.16 621.72 188C634.16 175.59 643.15 160.63 652.91 146.24C654.27 144.24 655.23 141.95 656.64 140C658.87 136.91 662.18 137.5 664.33 140.67C667.59 145.47 665.58 149.65 662.98 153.47C654.41 166.11 645.78 178.74 634.8 189.49C631.42 192.8 627.56 195.62 624.03 198.79C623.3 199.44 623.05 200.63 622.58 201.57C623.46 201.79 624.42 202.35 625.2 202.17C628.61 201.38 631.94 200.29 635.35 199.48C638.14 198.82 640.97 198.13 643.81 198.01C645.1 197.95 647.15 198.91 647.61 199.96C648.26 201.46 648.51 204.12 647.62 205.1C645.76 207.16 643.19 208.76 640.64 209.96C637.63 211.37 634.37 212.32 631.14 213.17C623.92 215.07 617.01 214.94 611.14 209.44C610.61 208.95 609.86 208.51 609.64 207.9C607.63 202.22 605.62 196.54 603.83 190.79C602.99 188.1 606.5 180.63 609.02 179.83C613.27 178.48 613.73 182.73 615.61 184.81C616.11 185.37 616.22 186.28 616.5 187.46Z" fill="black"/>
<path d="M170.12 195.28C173.86 193.89 173.46 193.24 170.72 190.84C160.73 182.09 151.06 172.95 141.59 163.63C127.37 149.63 112.03 137.04 95.7101 125.61C92.1101 123.09 88.5601 120.49 85.2601 117.6C84.4801 116.91 84.8201 114.94 84.6401 113.56C85.8601 113.58 87.1401 113.36 88.2801 113.67C97.7301 116.17 105.09 122.35 112.72 127.95C129.89 140.56 145.56 154.88 160.35 170.19C164.25 174.22 169.15 177.29 172.98 181.37C177.04 185.69 180.32 190.73 184.05 195.38C184.58 196.04 185.68 196.24 186.52 196.65C186.44 195.64 186.38 194.64 186.28 193.64C186.27 193.53 186.03 193.45 185.99 193.33C185.37 191.46 184.69 189.6 184.32 187.68C184.29 187.53 186.71 186.35 187.55 186.7C189.26 187.41 191.68 188.64 191.97 190.03C192.49 192.5 192.04 195.39 191.26 197.87C190.03 201.81 188.35 205.63 186.58 209.37C183.42 216.03 177.75 217.25 172.17 212.45C169.46 210.11 166.72 207.66 164.6 204.81C160.79 199.69 163.04 195.72 170.12 195.28ZM174.9 203.09C175.6 203.84 176.29 204.59 176.99 205.35C177.23 204.38 177.48 203.41 177.72 202.44C176.64 202.51 175.55 202.58 174.9 203.09Z" fill="black"/>
<path d="M313.2 82.1602C318 79.3902 322.52 76.7002 327.19 74.3102C330.22 72.7602 334.32 75.1302 336.31 79.8802C336.75 80.9202 335.16 82.8202 334.48 84.3102C334.37 84.5602 334.11 84.8702 333.88 84.9102C320.63 86.9502 312.11 96.9402 301.84 103.98C301.14 104.46 300.44 105.1 300.03 105.83C299.57 106.63 299.45 107.61 299.18 108.52C300.25 108.49 301.65 108.89 302.35 108.37C306.92 104.96 311.21 101.19 315.87 97.9102C317.53 96.7402 318.82 93.2102 321.81 95.6102C324 97.3602 323.46 101.35 320.74 104.14C316.83 108.17 312.74 112.04 308.89 116.13C308.12 116.95 308.08 118.46 307.71 119.65C308.99 119.87 310.61 120.7 311.48 120.21C315.62 117.89 319.84 115.55 323.45 112.52C325.94 110.43 326.69 112.07 327.25 113.56C329.07 118.44 328.52 122.83 323.94 126.18C316.23 131.83 309.69 135.01 301.67 130.18C296.15 126.86 294.33 121.27 292.67 115.73C291.04 110.28 290.07 104.64 288.87 99.0602C288.55 97.5802 288.11 96.0002 288.32 94.5502C288.64 92.3002 289.47 90.1302 290.08 87.9202C291.7 89.0302 293.67 89.8602 294.86 91.3202C296.79 93.6702 298.55 92.7702 300.29 91.5602C304.57 88.5802 308.76 85.4502 313.2 82.1602Z" fill="black"/>
<path d="M73.73 779.74C76.34 768.1 78.83 756.86 81.59 745.69C82.99 740.02 86.38 735.43 90.9 731.79C93.82 729.43 96.98 729.53 100.01 731.78C100.8 732.37 101.46 733.55 102.26 733.63C109.24 734.33 109.59 739.09 109.39 744.52C109.19 749.86 109.38 755.22 109.33 760.56C109.29 764.4 106.38 767.94 103.66 767.57C100.21 767.11 97.84 762.97 97.82 759.42C97.8 754.61 96.88 749.81 96.27 745.01C96.23 744.67 95.35 744.1 95.24 744.17C94.46 744.73 93.37 745.3 93.12 746.09C91.47 751.35 89.91 756.64 88.52 761.97C87.22 766.95 86.13 771.98 85.03 777.01C83.78 782.7 87.37 786.09 92.78 783.97C96.13 782.66 99.2 780.54 102.21 778.51C103.86 777.4 104.99 775.55 106.59 774.34C107.37 773.75 108.68 773.86 109.75 773.65C109.61 774.48 109.57 775.33 109.32 776.12C106 786.57 98.35 792.22 88.07 794.41C80.99 795.93 74.44 788.77 73.73 779.74Z" fill="black"/>
<path d="M432.39 771.06C431.81 764.65 431.41 758.65 430.53 752.72C430.3 751.19 428.86 749.27 427.47 748.61C424.85 747.38 422.32 749.17 421.5 751.35C420.54 753.9 420.7 756.93 420.7 759.76C420.7 764.32 421.43 768.95 420.86 773.42C420.64 775.13 417.87 777.31 415.94 777.72C414.6 778.01 411.58 775.89 411.24 774.41C409.76 768.03 407.72 761.62 409.72 754.84C410.39 752.56 410.27 750.29 406.36 749.99C403.65 749.79 400.8 747.89 398.6 746.05C397.78 745.36 397.92 741.93 398.84 741.07C400.87 739.19 403.21 737.93 406.76 738.6C410.72 739.34 415.05 738.15 419.22 737.76C424.22 737.3 429.22 736.75 434.23 736.36C434.93 736.31 436.16 736.79 436.35 737.31C438.59 743.61 441.23 749.85 442.64 756.35C443.61 760.81 443.32 765.73 442.63 770.3C442.24 772.89 440.16 775.43 438.28 777.48C437.64 778.17 434.89 777.83 433.83 777.02C432.2 775.81 430.28 773.98 432.39 771.06Z" fill="black"/>
<path d="M203.78 647.08C207.74 653.56 206.56 662.99 201.96 668.57C198.68 672.55 195.88 676.79 190.5 678.32C189.82 678.51 189.4 680.42 189.27 681.58C188.86 685.34 188.98 689.2 188.24 692.88C187.72 695.47 186.11 697.91 182.67 697.2C179.41 696.53 178.07 694.46 177.86 691.09C177.55 685.97 176.13 680.86 176.32 675.79C176.73 664.95 176.05 653.62 185.72 645.51C191.99 640.29 199.93 641.24 203.78 647.08ZM187.93 668.58C188.73 668.65 189.81 669.09 190.28 668.73C193.54 666.23 195.33 662.85 195.25 658.72C195.22 657.14 194.55 655.57 194.17 653.99C192.38 654.8 190.58 655.58 188.83 656.45C188.56 656.58 188.61 657.25 188.35 657.52C185.14 660.83 188.09 664.63 187.93 668.58Z" fill="black"/>
<path d="M694.66 250.86C696.11 245.39 697.56 240.36 698.99 235.32C699.14 234.79 698.96 234.05 699.27 233.72C700.71 232.14 702.11 229.66 703.82 229.39C706.28 229 706.3 231.73 706.96 233.84C709.22 241.09 705.46 247.1 703.7 253.54C702.74 257.04 701.35 260.47 700.84 264.03C700.31 267.73 703.2 269.98 706.88 269.06C709.73 268.35 712.45 267.17 715.27 266.34C716.19 266.07 717.59 265.82 718.12 266.29C718.66 266.77 718.61 268.18 718.47 269.13C716.78 280.86 701.48 282.53 693.91 277.47C689.45 274.49 689.77 269.77 690.46 265.56C691.27 260.7 693.22 256.04 694.66 250.86Z" fill="black"/>
<path d="M205.95 670.53C211.44 669.44 216.71 668.5 222.02 667.86C222.41 667.81 223.74 670.16 223.49 671.08C222.07 676.41 208.79 682.31 203.92 678.65C200.85 676.34 200.28 675.23 203.04 672.6C203.82 671.87 204.83 671.36 205.95 670.53Z" fill="black"/>
<path d="M390.93 727.42C395.28 730.11 396.35 734.56 393.49 738.2C393.01 738.81 391.5 739.11 390.7 738.85C388.7 738.18 386.6 737.4 384.97 736.12C381.45 733.34 381.9 730.4 386.01 728.5C387.46 727.82 389.13 727.62 390.93 727.42Z" fill="black"/>
<path d="M307.56 634.49C307.56 637.24 307.58 639.83 306.99 642.28C306.78 643.13 304.8 644.37 304.08 644.12C301.7 643.3 298.84 642.41 297.43 640.57C295.34 637.84 297.65 635.08 300.02 634.04C302.11 633.13 305.15 629.17 307.56 634.49Z" fill="black"/>
<path d="M428.92 729.37C426.79 728.25 424.84 727.36 423.47 725.92C422.58 724.98 421.74 722.63 422.24 722C423.34 720.61 425.23 719.4 426.96 719.14C427.97 718.99 430.18 720.75 430.26 721.78C430.46 724.28 429.72 726.84 428.92 729.37Z" fill="black"/>
<path d="M329.05 729.37C328.53 731.9 329.03 735.31 325.17 733.61C323.61 732.92 322.53 731.13 321.23 729.84C322.84 728.23 324.45 726.63 326.06 725.02C327.06 726.33 328.05 727.63 329.05 729.37Z" fill="black"/>
</g>
<defs>
<filter id="filter0_d" x="-6.00732" y="0.0012207" width="995.858" height="866.429" filterUnits="userSpaceOnUse" color-interpolation-filters="sRGB">
<feFlood flood-opacity="0" result="BackgroundImageFix"/>
<feColorMatrix in="SourceAlpha" type="matrix" values="0 0 0 0 0 0 0 0 0 0 0 0 0 0 0 0 0 0 127 0"/>
<feOffset dy="6"/>
<feGaussianBlur stdDeviation="3"/>
<feColorMatrix type="matrix" values="0 0 0 0 0 0 0 0 0 0 0 0 0 0 0 0 0 0 0.4 0"/>
<feBlend mode="normal" in2="BackgroundImageFix" result="effect1_dropShadow"/>
<feBlend mode="normal" in="SourceGraphic" in2="effect1_dropShadow" result="shape"/>
</filter>
</defs>
</svg>
