<svg width="985" height="856" viewBox="0 0 985 856" fill="none" xmlns="http://www.w3.org/2000/svg">
<g filter="url(#filter0_d)">
<path d="M979.146 855.145C980.396 851.775 982.335 854.085 984.135 854.925C982.545 855.145 980.956 855.145 979.146 855.145Z" fill="black"/>
<path d="M455.256 195.995C468.626 189.685 481.516 183.245 496.036 181.215C503.676 180.145 511.276 178.165 518.916 178.015C523.996 177.915 529.166 180.225 534.236 181.655C537.846 182.675 538.746 185.735 537.496 188.655C536.416 191.165 537.606 191.315 539.196 191.625C548.316 193.395 557.526 194.765 566.536 196.935C580.426 200.275 593.166 206.425 604.686 214.825C616.236 223.245 626.326 233.235 633.766 245.585C640.386 256.585 645.236 268.255 648.196 280.875C651.466 294.805 651.646 308.935 650.346 322.785C648.326 344.365 641.326 364.595 629.286 383.035C623.916 391.255 618.486 399.275 611.306 405.925C595.106 420.895 577.046 432.955 555.956 439.975C550.586 441.755 544.996 442.865 539.546 444.395C537.286 445.025 535.516 446.045 535.986 449.085C538.276 463.995 537.316 478.845 533.296 493.265C529.256 507.765 523.826 521.755 515.256 534.425C503.786 551.395 488.206 562.135 468.406 566.755C460.556 568.585 452.586 570.115 444.586 570.985C440.736 571.405 436.636 570.245 432.756 569.335C429.896 568.665 426.916 566.545 428.606 563.485C429.676 561.555 433.666 559.585 435.696 560.115C456.376 565.505 474.036 559.165 490.336 546.925C503.826 536.795 511.126 522.425 516.816 507.175C520.286 497.875 523.606 488.345 525.306 478.625C526.696 470.715 525.596 462.365 525.606 454.215C525.606 453.635 525.626 453.055 525.606 452.475C525.386 447.855 524.176 446.965 519.506 447.805C517.326 448.195 515.126 448.465 512.916 448.675C509.426 449.015 505.906 449.655 502.426 449.495C485.966 448.745 469.486 448.125 453.716 442.415C437.666 436.595 422.376 429.395 408.626 419.135C407.916 418.605 406.126 418.935 405.136 419.445C399.296 422.505 393.646 425.935 387.756 428.865C375.726 434.835 363.176 439.375 349.746 440.835C339.566 441.945 329.326 443.375 319.136 443.265C309.766 443.155 300.406 441.185 291.046 439.995C290.396 439.915 289.656 439.715 289.176 439.315C286.616 437.145 285.806 438.635 285.966 441.005C286.486 448.705 286.616 456.505 287.976 464.065C291.026 481.065 299.666 495.615 309.716 509.285C319.306 522.325 331.386 532.895 344.436 542.395C356.536 551.205 369.676 558.005 384.096 561.945C397.806 565.685 411.636 569.025 425.556 571.895C435.396 573.935 445.456 574.935 455.436 576.295C456.416 576.425 457.536 575.455 458.536 575.565C459.796 575.705 460.996 576.435 462.226 576.905C461.476 578.165 460.956 580.245 459.926 580.545C455.756 581.755 451.456 582.815 447.146 583.175C443.506 583.475 439.776 582.635 436.076 582.445C422.846 581.775 410.056 578.585 397.376 575.185C385.456 571.995 373.466 568.645 362.106 563.945C353.206 560.265 345.006 554.715 336.876 549.435C323.076 540.475 311.986 528.695 301.916 515.675C291.676 502.435 283.576 488.185 278.856 472.225C276.616 464.655 275.906 456.615 274.696 448.755C274.146 445.155 274.216 441.455 273.676 437.845C273.556 437.015 272.236 435.995 271.276 435.705C258.256 431.785 245.816 426.365 234.106 419.615C224.546 414.105 215.516 407.585 206.666 400.955C196.806 393.555 188.646 384.435 182.076 373.935C174.676 362.095 168.626 349.605 166.236 335.805C164.616 326.455 163.186 316.785 163.806 307.405C164.466 297.465 166.936 287.465 169.896 277.895C176.526 256.465 188.006 237.605 201.506 219.735C207.216 212.175 212.826 204.675 219.816 198.305C231.816 187.365 245.046 178.235 260.366 172.535C269.526 169.125 278.756 165.795 288.146 163.115C293.026 161.725 298.316 161.595 303.446 161.275C311.126 160.795 318.856 160.165 326.526 160.455C344.266 161.125 361.486 164.515 377.866 171.635C391.346 177.495 403.966 184.725 414.656 194.925C419.076 199.145 423.036 203.835 427.236 208.285C428.886 210.035 429.896 211.625 433.076 209.345C439.956 204.415 447.526 200.395 455.256 195.995ZM377.096 307.595C377.076 312.935 376.436 317.875 369.886 319.155C369.376 319.255 368.756 319.425 368.436 319.785C368.026 320.255 367.866 320.945 367.596 321.545C368.196 321.485 368.796 321.475 369.386 321.375C376.676 320.115 383.926 318.175 391.266 317.765C399.636 317.285 408.096 318.065 416.506 318.485C425.976 318.955 435.216 320.845 444.056 324.275C448.536 326.015 452.766 328.385 457.176 330.335C461.086 332.075 465.376 333.135 468.966 335.355C481.116 342.885 491.436 352.505 500.786 363.365C508.376 372.175 515.246 381.495 520.126 391.875C526.066 404.475 530.986 417.605 533.566 431.475C533.926 433.385 533.396 437.615 537.866 436.545C543.116 435.285 548.426 434.165 553.536 432.445C568.826 427.285 582.756 419.705 595.166 409.235C606.836 399.395 616.976 388.365 624.216 374.855C630.536 363.055 635.826 350.865 637.626 337.435C638.566 330.425 639.746 323.415 640.146 316.375C640.586 308.685 641.136 300.815 640.036 293.255C638.486 282.635 635.126 272.415 630.896 262.365C624.256 246.585 613.466 234.315 600.516 223.965C590.836 216.225 579.316 211.485 567.386 207.655C552.496 202.875 537.286 200.805 521.796 200.435C514.836 200.265 507.846 200.825 500.886 201.275C497.746 201.475 494.646 202.665 491.526 202.655C484.196 202.645 476.746 207.195 469.496 202.155C469.076 201.865 467.946 202.435 467.216 202.755C463.176 204.535 458.996 206.075 455.176 208.235C449.976 211.165 444.976 214.445 440.056 217.825C437.536 219.555 437.286 221.535 439.016 224.705C443.946 233.745 448.686 242.965 452.546 252.505C457.986 265.925 461.146 279.945 462.376 294.495C463.296 305.305 464.716 316.025 463.036 326.845C462.876 327.875 461.966 329.555 461.296 329.605C458.096 329.865 452.576 323.805 452.686 320.305C453.236 302.985 451.906 285.905 447.516 269.055C443.826 254.895 438.386 241.555 430.616 229.175C429.816 227.905 428.826 226.245 426.656 228.375C423.376 231.615 419.366 234.115 416.146 237.405C411.206 242.455 405.996 247.465 402.116 253.305C395.866 262.725 389.996 272.515 385.116 282.705C381.496 290.255 379.706 298.685 377.096 307.595ZM384.046 261.565C389.166 254.425 393.836 246.905 399.516 240.245C405.396 233.355 412.246 227.285 418.676 220.855C422.346 217.185 422.376 216.525 418.576 212.735C411.056 205.235 402.696 198.865 393.806 192.975C375.086 180.595 354.316 174.515 332.346 172.735C317.616 171.545 302.696 172.045 288.236 176.045C270.676 180.895 253.856 187.535 238.686 197.815C237.796 198.415 236.966 200.735 237.406 201.395C239.696 204.845 237.146 206.705 235.086 208.035C225.606 214.195 217.686 222.045 210.836 230.845C200.756 243.795 192.816 258.075 186.486 273.245C180.826 286.805 177.366 300.925 176.646 315.555C176.316 322.215 176.986 329.095 178.396 335.625C180.256 344.275 182.366 353.075 185.996 361.075C191.406 373.005 199.246 383.565 210.016 391.385C219.846 398.515 229.636 405.895 240.206 411.795C250.546 417.565 261.896 421.535 272.716 426.495C275.116 427.595 274.406 426.205 274.666 424.985C276.616 415.675 278.236 406.275 280.746 397.115C286.426 376.405 299.646 360.495 315.476 346.945C328.576 335.735 344.046 328.145 360.486 322.685C361.936 322.205 363.636 320.435 363.956 318.975C365.406 312.435 366.146 305.725 367.606 299.185C370.576 285.805 375.976 273.405 384.046 261.565ZM394.906 406.155C387.216 396.585 380.986 386.195 376.146 374.865C370.926 362.635 365.606 350.525 364.826 336.985C364.796 336.465 362.896 335.455 362.156 335.665C341.246 341.765 323.826 353.195 310.156 370.205C303.326 378.705 297.676 387.975 294.296 398.345C291.616 406.535 289.806 415.015 287.666 423.385C286.786 426.855 286.546 430.645 291.096 431.245C302.296 432.715 313.546 433.855 324.806 434.725C328.976 435.045 333.266 434.465 337.456 433.905C344.816 432.925 352.286 432.245 359.426 430.345C372.696 426.815 385.396 421.745 396.946 414.065C399.546 412.335 399.266 410.985 397.776 409.065C397.066 408.155 396.156 407.415 394.906 406.155ZM492.606 369.245C483.876 360.075 474.496 351.795 463.616 345.085C459.716 342.675 459.856 345.185 458.796 346.885C458.406 347.515 458.856 348.615 458.586 349.395C450.836 372.275 438.236 391.985 420.016 407.955C415.876 411.585 415.936 413.155 421.046 415.765C431.426 421.065 441.706 426.615 452.346 431.325C464.656 436.765 477.796 439.575 491.256 439.935C500.236 440.175 509.236 439.495 518.226 439.155C523.166 438.965 524.206 438.225 522.886 433.675C519.596 422.355 516.176 411.035 511.926 400.045C507.586 388.825 500.806 378.885 492.606 369.245ZM386.656 374.465C391.656 384.635 397.436 394.315 404.916 402.885C406.566 404.775 408.236 406.585 411.046 403.985C429.516 386.915 443.326 367.035 449.486 342.245C450.246 339.185 449.216 338.145 447.206 337.635C436.326 334.875 425.506 331.375 414.436 330.045C404.896 328.905 395.016 329.915 385.356 330.725C375.276 331.565 375.046 331.995 376.306 341.915C377.726 353.085 382.026 363.415 386.656 374.465ZM509.106 189.485C507.836 189.895 506.546 190.255 505.286 190.715C504.506 190.995 503.776 191.415 503.026 191.775C503.866 192.025 504.736 192.545 505.556 192.485C512.096 191.985 518.636 191.385 525.166 190.745C525.636 190.695 526.036 190.045 526.476 189.675C525.876 189.465 525.276 189.085 524.676 189.085C519.626 189.025 514.586 189.045 509.106 189.485ZM371.456 334.945C371.826 334.165 372.206 333.375 372.576 332.595C371.426 332.715 370.226 332.695 369.126 333.005C368.526 333.175 368.066 333.875 367.546 334.345C368.556 334.545 369.576 334.745 371.456 334.945ZM274.626 429.175C274.046 429.615 273.186 429.955 272.986 430.525C272.846 430.925 273.616 431.635 273.986 432.215C274.196 431.485 274.406 430.765 274.626 429.175Z" fill="black"/>
<path d="M407.495 650.195C406.475 655.995 405.295 661.335 404.485 666.735C404.015 669.865 403.835 673.115 404.135 676.245C404.325 678.255 405.815 678.595 407.365 676.835C410.485 673.325 414.465 670.315 416.635 666.315C418.625 662.645 418.875 657.975 419.605 653.695C420.375 649.125 423.585 645.515 427.175 645.945C427.925 646.035 429.075 647.255 429.115 648.005C429.415 653.745 429.285 659.435 427.165 664.955C426.725 666.085 427.465 667.675 427.665 669.055C428.485 668.105 429.335 667.185 430.115 666.205C430.875 665.245 431.375 663.975 432.315 663.255C437.275 659.465 441.725 661.225 443.065 667.575C443.865 671.345 444.565 675.175 444.785 679.005C445.265 687.705 445.625 696.415 445.615 705.125C445.615 708.795 444.605 712.465 443.935 716.125C443.775 717.015 443.395 718.095 442.735 718.625C441.385 719.705 439.785 720.465 438.285 721.365C437.575 719.775 436.435 718.245 436.225 716.595C434.925 706.095 433.815 695.565 432.695 685.045C432.385 682.125 432.295 679.185 432.105 676.245C429.735 677.505 427.475 679.215 424.955 679.885C422.885 680.435 419.935 680.545 418.365 679.435C415.415 677.345 413.975 678.615 412.195 680.625C410.865 682.115 409.225 683.345 407.995 684.905C404.465 689.375 400.655 689.015 396.615 685.775C393.845 683.565 391.065 683.585 388.625 686.055C385.545 689.175 383.015 687.755 379.545 686.425C376.305 685.185 371.305 684.745 368.715 686.445C364.305 689.345 360.655 688.465 357.385 686.175C354.635 684.245 354.295 685.375 353.275 687.395C352.605 688.735 351.585 689.945 350.535 691.035C347.535 694.165 342.845 693.425 341.615 689.235C340.515 685.465 339.345 686.455 337.565 688.415C333.175 693.215 327.975 696.595 321.265 696.125C316.185 695.775 311.285 694.575 309.215 688.795C308.825 687.705 307.775 686.305 306.425 688.915C305.315 691.065 302.835 693.725 300.785 693.885C297.335 694.155 295.395 690.025 296.365 686.195C296.635 685.145 297.055 684.125 297.165 683.065C297.245 682.275 296.945 681.435 296.815 680.625C296.115 681.005 295.435 681.405 294.715 681.755C290.255 683.915 285.875 686.285 281.265 688.045C280.075 688.495 278.035 687.225 276.595 686.385C273.115 684.365 272.715 684.665 271.935 688.725C271.515 690.905 270.645 693.325 269.175 694.875C267.955 696.155 265.225 697.285 263.765 696.765C261.605 695.995 260.405 693.755 260.645 690.825C261.205 684.025 261.265 677.175 261.615 670.355C261.795 666.825 260.875 666.275 257.755 668.215C254.945 669.955 251.485 670.655 248.685 672.415C247.095 673.415 245.515 675.505 245.245 677.305C244.305 683.525 243.715 689.815 243.455 696.105C243.285 700.215 240.315 701.725 237.585 703.035C234.555 704.485 232.075 701.945 231.025 699.635C230.205 697.845 231.065 695.205 231.445 692.985C232.135 688.955 233.685 684.945 233.585 680.965C233.525 678.455 231.465 675.725 229.715 673.575C227.115 670.385 227.065 669.245 230.435 666.655C231.355 665.945 232.355 664.935 232.635 663.885C233.755 659.695 234.445 655.385 235.645 651.215C236.115 649.585 237.175 647.825 238.495 646.785C244.625 641.925 251.565 639.035 259.515 638.865C260.995 638.835 262.455 638.115 263.935 638.075C268.735 637.935 270.805 639.645 271.255 642.985C271.705 646.365 267.425 649.815 263.935 650.255C259.195 650.855 254.495 651.845 249.825 652.845C248.565 653.115 246.995 653.775 246.375 654.765C245.565 656.045 245.165 657.895 245.415 659.365C245.525 659.975 247.865 660.715 249.045 660.525C258.275 659.025 266.835 656.045 273.185 648.625C276.765 644.435 281.755 644.185 286.365 645.235C289.465 645.935 291.845 648.655 292.075 652.615C292.525 660.185 290.145 666.915 286.645 673.405C286.155 674.315 285.985 675.405 285.665 676.405C286.745 676.355 288.135 676.715 288.875 676.175C293.475 672.835 297.775 669.445 299.205 663.205C299.845 660.425 303.015 658.195 305.145 655.825C305.505 655.425 306.805 655.195 307.065 655.465C311.865 660.485 315.975 654.875 320.185 654.245C327.105 653.205 333.715 651.945 340.525 654.465C341.775 654.925 343.595 654.745 344.825 654.175C349.885 651.835 351.945 652.235 354.465 657.445C356.555 661.765 357.965 666.405 359.785 670.865C360.195 671.875 361.025 672.725 361.655 673.645C361.885 672.495 362.545 671.235 362.285 670.205C361.125 665.505 359.405 660.925 358.515 656.185C358.105 653.985 358.655 651.275 359.665 649.245C360.295 647.975 362.585 647.545 364.135 646.735C364.705 648.015 365.245 649.305 365.845 650.575C366.185 651.305 366.625 651.995 367.015 652.695C367.495 651.965 368.255 651.275 368.395 650.485C369.155 646.205 372.325 643.895 375.595 641.845C379.115 639.635 385.465 640.875 389.115 644.485C391.165 646.515 392.685 649.065 394.525 651.325C395.185 652.145 396.065 652.795 396.845 653.515C397.225 652.515 397.745 651.545 397.965 650.505C398.925 645.975 398.965 641.285 404.305 638.745C407.305 637.315 408.165 639.575 408.235 640.585C408.385 643.605 407.785 646.695 407.495 650.195ZM322.825 685.795C325.015 685.505 327.305 685.525 329.375 684.865C335.635 682.885 340.645 673.715 338.935 668.205C337.705 664.225 334.475 662.985 331.115 662.465C328.125 662.005 328.535 665.195 327.465 666.925C325.905 669.445 323.675 671.685 321.335 673.575C316.785 677.265 317.215 683.025 322.825 685.795ZM377.095 654.965C377.675 661.195 377.985 667.475 379.015 673.635C379.285 675.275 381.595 676.805 383.305 677.795C383.725 678.035 386.095 676.185 386.515 674.935C388.675 668.515 388.025 662.025 384.975 656.135C383.585 653.425 380.695 650.955 377.095 654.965ZM276.355 674.075C277.965 669.565 279.735 665.105 281.085 660.525C281.435 659.355 280.475 657.795 280.125 656.415C278.295 657.755 275.225 658.835 274.855 660.505C273.865 664.975 273.875 669.695 273.825 674.325C273.815 676.205 275.015 676.695 276.355 674.075ZM319.345 666.695C320.365 666.405 321.475 666.285 322.385 665.785C323.625 665.105 324.715 664.145 325.825 663.255C325.855 663.225 325.415 662.375 325.265 662.395C323.535 662.655 321.705 662.755 320.145 663.445C319.465 663.745 319.315 665.285 319.345 666.695Z" fill="black"/>
<path d="M825.865 86.3551C827.075 85.7251 828.035 85.2251 829.055 84.9251C835.095 83.1551 837.465 84.9351 837.335 91.3551C837.275 94.2751 837.025 97.2351 836.465 100.105C835.015 107.515 838.655 110.845 846.075 108.695C848.395 108.025 850.655 107.065 853.015 106.605C854.945 106.235 856.705 106.045 856.605 109.395C856.375 116.975 853.615 120.295 845.565 121.295C839.725 122.025 834.295 120.425 829.235 117.765C825.275 115.685 824.405 110.485 826.505 103.975C827.245 101.685 828.175 99.4551 828.915 97.1651C829.125 96.5351 828.955 95.7751 828.965 95.0751C828.315 95.1351 827.575 95.0051 827.025 95.2751C818.825 99.1651 817.915 101.545 819.935 110.755C820.725 114.335 820.865 118.135 820.715 121.805C820.675 122.835 818.605 124.445 817.345 124.575C816.215 124.695 814.125 123.375 813.805 122.295C812.425 117.625 811.555 112.795 810.445 108.035C810.205 106.995 809.735 106.015 809.375 105.005C808.585 105.695 807.455 106.225 807.055 107.095C805.555 110.375 804.355 113.795 802.915 117.095C799.815 124.215 797.715 124.695 792.035 119.905C791.385 119.365 789.925 119.315 789.035 119.615C785.235 120.905 781.605 122.245 777.435 120.585C776.435 120.185 773.985 121.465 773.295 122.615C771.785 125.135 770.655 126.375 767.405 124.975C765.935 124.345 763.435 125.485 761.635 126.335C755.825 129.075 748.035 128.375 743.385 123.985C741.795 122.485 741.055 120.075 739.935 118.085C738.115 119.445 736.375 121.775 734.445 121.955C730.925 122.285 726.825 122.225 723.825 120.675C721.165 119.295 720.745 120.895 720.215 121.965C717.395 127.655 714.655 128.235 710.815 123.675C709.655 122.305 708.965 121.845 707.095 123.315C701.335 127.845 695.285 131.515 687.215 129.215C680.985 127.435 677.635 123.765 677.565 117.155C677.535 114.485 677.255 111.815 677.095 109.145C675.785 111.055 674.595 113.045 673.155 114.845C668.425 120.775 661.555 123.535 654.935 126.395C650.155 128.455 644.855 129.275 639.865 130.885C632.045 133.415 620.745 128.565 619.565 118.085C619.185 114.705 620.275 110.965 621.425 107.645C626.435 93.2751 632.505 79.3551 642.935 67.9851C646.655 63.9351 651.335 60.6451 655.985 57.6151C657.595 56.5651 661.835 56.5451 662.385 57.4951C663.525 59.4651 663.215 62.4151 663.045 64.9251C662.985 65.8151 661.725 66.8451 660.785 67.4151C646.985 75.7051 637.805 87.6651 632.425 102.705C631.655 104.845 630.845 106.985 630.235 109.175C628.585 115.055 630.525 121.995 640.385 120.525C650.255 119.055 658.895 114.905 667.285 109.955C668.165 109.435 668.675 108.285 669.365 107.435C668.185 107.135 666.995 106.535 665.835 106.585C662.475 106.715 659.115 107.365 655.775 107.275C654.345 107.235 652.935 105.905 651.525 105.165C652.155 103.975 652.525 102.505 653.455 101.655C658.735 96.7851 665.585 95.2751 672.245 93.7151C673.695 93.3751 675.815 95.6851 677.565 96.8751C678.295 97.3651 678.875 98.0951 679.515 98.7151C679.735 97.8351 680.045 96.9751 680.165 96.0851C680.505 93.5551 680.385 90.8951 681.145 88.5151C682.115 85.4951 684.095 84.3251 686.645 87.3751C688.045 89.0451 689.415 89.0751 691.735 88.6951C698.115 87.6551 704.725 87.3451 709.625 93.0151C711.235 94.8751 712.445 94.6751 714.175 93.0151C719.115 88.3151 720.845 88.5551 723.515 94.6151C724.855 97.6651 725.355 101.095 726.185 104.355C726.325 104.895 725.965 105.685 726.245 106.055C727.465 107.705 728.825 109.245 730.145 110.825C730.375 108.765 730.955 106.675 730.785 104.645C730.285 98.6851 729.455 92.7551 728.855 86.8051C728.785 86.0651 729.125 85.1451 729.575 84.5251C730.795 82.8551 732.165 81.2951 733.475 79.6951C734.525 81.5051 735.985 83.1951 736.535 85.1451C737.455 88.4251 737.735 91.8851 738.405 95.2451C738.525 95.8551 739.195 96.3551 739.615 96.9051C740.065 96.4051 740.945 95.8651 740.905 95.4051C740.225 86.1451 747.545 85.0451 753.695 83.0051C759.805 80.9751 766.005 79.6651 771.925 83.9251C772.505 84.3351 774.075 83.9351 774.855 83.4051C779.255 80.4251 783.005 76.2451 789.145 76.9451C792.985 77.3851 796.225 80.6351 796.575 84.5351C797.355 93.2651 793.815 100.145 787.865 106.135C786.715 107.285 785.905 108.775 784.935 110.105C786.805 109.895 788.825 110.065 790.525 109.405C795.245 107.575 796.945 103.255 798.245 98.8451C799.285 95.3451 799.575 91.5751 801.005 88.2651C802.385 85.0651 804.485 82.0151 806.855 79.4451C809.255 76.8451 813.275 77.1251 815.095 81.2251C815.315 81.7151 815.495 82.2151 815.715 82.7051C818.795 89.4951 818.795 89.4951 825.865 86.3551ZM749.665 91.3451C747.845 94.0351 748.875 95.5251 751.795 95.1651C755.305 94.7351 755.375 96.7951 754.785 98.9251C754.225 100.955 753.335 103.215 751.865 104.595C749.235 107.055 748.865 109.855 750.225 112.615C752.095 116.415 756.075 117.095 759.495 115.905C762.275 114.935 765.425 113.165 765.325 109.035C765.185 103.535 765.165 98.0351 765.355 92.5351C765.425 90.3851 764.855 89.7951 762.755 89.9951C758.545 90.4151 754.315 90.6251 749.665 91.3451ZM689.735 97.4251C689.325 97.8351 688.705 98.1751 688.545 98.6651C688.035 100.305 687.685 101.985 687.275 103.655C688.445 103.175 689.655 102.775 690.765 102.175C691.955 101.525 692.965 100.375 694.205 100.055C694.855 99.8951 696.535 101.035 696.555 101.615C696.605 103.505 696.325 105.485 695.765 107.305C694.895 110.135 693.345 112.545 689.795 111.705C686.705 110.975 686.455 112.445 687.765 114.405C688.715 115.825 690.295 117.225 691.885 117.725C696.775 119.245 700.935 116.765 704.835 114.295C706.225 113.415 707.805 111.485 707.815 110.025C707.845 105.385 701.545 97.9151 697.095 97.0551C694.865 96.6351 692.485 96.9951 689.735 97.4251ZM781.795 98.2951C782.095 97.7051 782.325 97.0451 782.725 96.5251C784.415 94.3351 786.255 92.2551 787.815 89.9751C788.275 89.3051 788.005 88.1351 788.075 87.2051C787.365 87.4951 786.525 87.6251 785.965 88.0951C783.485 90.1651 780.445 91.9451 778.835 94.5751C776.865 97.7951 776.055 101.745 774.935 105.435C774.795 105.905 775.745 106.715 776.195 107.375C776.615 106.835 777.105 106.325 777.445 105.735C778.775 103.415 780.055 101.065 781.795 98.2951ZM809.155 96.1251C809.585 94.5851 810.195 93.0651 810.345 91.5051C810.385 91.1051 808.725 89.9851 808.295 90.1851C806.295 91.0951 806.635 95.0751 809.155 96.1251Z" fill="black"/>
<path d="M37.7554 125.865C31.6654 132.035 26.0554 138.475 17.5654 140.695C15.2354 141.305 11.4953 141.355 10.2353 139.985C8.55535 138.155 8.41535 134.705 8.16535 131.905C8.09535 131.065 9.80535 129.365 10.8454 129.235C17.0354 128.475 21.3453 124.525 25.4954 120.615C30.5854 115.815 35.1154 110.425 40.0154 105.415C42.3454 103.035 42.1853 100.475 40.9753 97.8551C36.9954 89.2251 32.8154 80.6951 28.8754 72.0451C26.9354 67.7951 25.3754 63.3651 23.6154 59.0351C23.3654 58.4151 22.9254 57.8751 22.5854 57.2951C22.0654 57.7751 21.4154 58.1751 21.0454 58.7551C18.1154 63.4651 15.4854 68.3951 12.2454 72.8751C10.3854 75.4351 7.68535 77.4751 5.09535 79.3751C3.30535 80.6851 -0.294649 77.4151 0.355351 74.2351C1.26535 69.8351 2.53535 65.0851 5.09535 61.5151C13.5754 49.6651 23.8154 39.4551 36.4054 31.8751C41.2754 28.9451 47.0554 30.3251 49.9154 35.3251C50.5954 36.5051 50.1254 38.8151 49.4154 40.2051C48.6754 41.6451 47.3854 43.4451 45.1454 41.0551C44.4954 40.3651 41.6954 40.6851 40.6754 41.5251C37.6854 43.9651 34.7854 46.6651 32.4954 49.7451C31.5254 51.0451 31.4954 53.8351 32.1854 55.4651C36.9854 66.7951 42.0454 78.0051 47.0954 89.2251C49.3554 94.2451 49.4354 94.2151 53.2554 90.3951C55.2954 88.3551 56.9354 86.8651 56.0354 82.9751C54.4854 76.3251 62.8153 71.5051 69.7453 75.1651C74.6853 77.7751 78.8253 81.8551 83.4553 85.0951C85.2553 86.3551 87.4154 87.1251 89.4054 88.1151C88.6154 86.3351 87.9653 84.4751 87.0053 82.7951C82.9953 75.7651 78.6253 68.9251 74.9853 61.7151C73.7553 59.2751 73.9853 55.9351 74.1053 53.0251C74.1953 50.8551 75.6654 50.3351 77.6954 51.5851C81.5054 53.9151 84.1353 57.0151 85.3453 61.3851C85.8753 63.2951 86.7754 65.1651 87.8354 66.8451C88.2554 67.5051 89.5653 67.6051 90.4653 67.9651C90.6653 66.9751 91.1253 65.9651 91.0253 65.0051C90.6653 61.5751 89.9053 58.1751 89.6853 54.7351C89.1953 46.8851 92.0553 40.3751 98.0253 35.1951C103.465 30.4751 111.875 31.1651 115.635 37.8851C116.185 38.8751 116.435 40.8451 115.855 41.4751C114.965 42.4451 112.715 43.4951 111.945 43.0351C108.015 40.6351 105.795 43.2751 104.185 45.7651C102.335 48.6451 101.365 52.0951 100.095 55.3351C99.9253 55.7651 100.235 56.8551 100.355 56.8651C101.135 56.9051 102.035 56.9251 102.685 56.5751C104.935 55.3451 106.975 53.6351 109.335 52.7251C111.265 51.9851 113.575 52.3051 115.625 51.8051C116.885 51.4951 118.265 50.7651 119.085 49.7851C119.995 48.7051 120.475 47.1851 120.865 45.7851C121.905 42.1051 123.225 38.4551 127.605 38.0751C131.095 37.7751 136.005 42.7251 136.425 47.1951C136.895 52.2651 136.375 57.4251 136.625 62.5251C136.705 64.1551 138.035 67.1551 138.505 67.0951C140.645 66.8351 142.865 65.9851 144.675 64.7751C145.375 64.3051 145.505 62.1851 145.135 61.0651C142.555 53.2751 139.365 45.6251 140.015 37.1551C140.145 35.5251 140.385 33.8551 140.895 32.3151C142.355 27.9451 145.605 26.6051 149.545 28.9251C154.725 31.9751 159.025 36.0351 161.675 41.5251C166.395 51.2851 170.985 61.1051 175.585 70.9251C176.835 73.5851 178.055 76.2751 179.035 79.0451C180.555 83.2951 179.415 86.8251 176.555 87.4851C174.355 87.9951 171.235 84.2851 170.315 80.9651C169.065 76.4551 167.365 72.0751 165.665 67.7051C165.525 67.3351 163.575 67.1151 163.125 67.5251C161.075 69.4151 159.945 71.7051 161.375 74.5551C162.215 76.2351 162.975 77.9451 163.845 79.6051C165.385 82.5351 164.015 84.8551 161.645 85.9651C160.455 86.5151 158.115 85.4551 156.745 84.4951C155.485 83.6151 154.745 81.9351 153.915 80.5251C151.685 76.7551 149.165 75.9951 145.195 77.4151C142.275 78.4551 139.185 79.0751 136.125 79.5951C134.175 79.9351 132.165 79.5951 133.785 82.6751C134.325 83.6951 134.325 85.4251 133.825 86.4751C133.045 88.1251 131.625 89.4651 130.485 90.9351C129.315 89.9451 127.655 89.1851 127.055 87.9251C123.415 80.1751 119.895 72.3751 116.615 64.4751C115.285 61.2651 113.655 60.7951 111.185 62.9151C109.325 64.5151 107.695 66.3851 105.945 68.1051C102.375 71.5951 105.645 74.7451 106.595 77.8451C108.195 83.0851 109.925 88.3451 112.325 93.2551C114.245 97.1751 111.345 98.5051 109.355 99.9551C108.695 100.445 105.855 98.9351 104.805 97.6751C103.395 95.9851 102.855 93.5951 101.735 91.6151C101.225 90.7151 100.245 90.0851 99.4754 89.3351C99.0854 90.1851 98.4453 91.0051 98.3453 91.8951C97.6253 98.3151 90.3453 102.855 84.9653 99.4751C80.5653 96.7151 77.0453 92.5551 73.1153 89.0351C72.3053 88.3051 71.4053 87.6851 70.5453 87.0151C70.3553 88.2951 69.6454 89.8051 70.0854 90.8051C71.3354 93.6251 73.2553 96.1451 74.5253 98.9551C75.5153 101.135 76.6053 103.645 76.3853 105.885C76.2153 107.615 74.3153 109.475 72.7053 110.585C72.2053 110.925 69.6653 109.295 68.8853 108.045C67.1253 105.215 65.8453 102.085 64.4653 99.0451C63.4753 96.8751 62.5054 95.3251 60.3554 98.0551C58.8854 99.9251 56.8054 101.505 55.9254 103.605C55.1854 105.365 55.5653 107.715 55.8153 109.765C56.2153 113.015 57.2254 116.225 57.3454 119.475C57.3854 120.645 55.6854 122.745 54.6054 122.865C53.0554 123.045 51.2154 122.005 49.7354 121.095C48.9254 120.595 48.4654 119.365 48.0754 118.365C47.6954 117.385 47.6053 116.295 47.3853 115.255C46.2853 116.105 45.0153 116.795 44.1353 117.835C41.9853 120.335 40.0154 123.025 37.7554 125.865ZM150.435 38.3751C147.805 35.8451 147.505 38.3051 147.915 39.8651C149.585 46.2151 151.525 52.5051 153.565 58.7551C153.815 59.5151 155.875 60.5151 156.085 60.3251C157.265 59.2151 158.605 57.8951 158.985 56.4151C159.315 55.1451 158.735 53.3951 158.035 52.1451C155.615 47.7651 152.985 43.5251 150.435 38.3751Z" fill="black"/>
<path d="M767.035 171.675C767.695 163.635 768.875 156.365 774.645 150.475C779.725 145.275 787.095 147.095 788.775 153.895C789.685 157.575 791.865 159.375 795.775 158.665C796.335 158.565 797.135 158.405 797.475 158.685C802.265 162.725 804.815 159.695 807.645 155.915C812.755 149.095 819.865 148.795 827.335 150.905C828.695 151.285 830.185 152.425 830.875 153.635C831.465 154.655 831.525 157.025 830.875 157.495C829.715 158.325 827.695 158.725 826.315 158.315C820.895 156.715 816.565 158.775 812.735 162.105C809.715 164.725 809.875 167.395 813.485 168.885C819.115 171.205 824.025 174.085 827.335 179.375C828.085 180.575 829.225 181.675 829.605 178.865C830.315 173.555 831.305 168.295 832.165 163.005C832.745 159.465 834.765 157.465 838.345 156.895C843.205 156.105 848.055 155.235 852.895 154.295C858.085 153.285 861.975 156.625 860.735 161.605C859.645 166.005 855.155 164.525 852.155 165.565C849.105 166.625 845.905 167.235 842.855 168.285C842.055 168.555 841.555 169.705 840.915 170.445C842.045 170.855 843.205 171.655 844.305 171.575C845.405 171.495 846.395 170.405 847.515 169.985C848.415 169.655 849.875 169.215 850.325 169.635C850.995 170.265 851.325 171.645 851.215 172.645C850.765 176.685 848.365 179.405 844.835 181.245C843.405 181.995 841.875 182.665 840.665 183.695C839.675 184.535 839.095 185.855 838.335 186.965C839.805 187.945 841.205 189.555 842.775 189.765C844.865 190.045 847.095 189.195 849.275 188.895C850.255 188.755 851.605 188.365 852.135 188.825C852.685 189.305 852.685 190.735 852.515 191.665C851.515 197.275 848.085 200.615 842.465 201.135C837.515 201.585 832.905 199.825 830.065 195.795C828.455 193.515 828.075 194.525 826.885 195.615C818.745 203.055 807.295 202.045 800.445 193.495C799.625 192.475 797.855 191.805 796.475 191.725C789.725 191.335 786.925 188.615 787.045 181.825C787.105 178.755 787.715 175.705 787.805 172.635C787.835 171.505 787.095 170.355 786.705 169.215C786.095 170.025 785.445 170.815 784.875 171.665C784.505 172.215 784.405 173.045 783.915 173.415C776.485 179.115 777.695 187.955 775.615 195.625C775.065 197.655 773.315 199.355 772.115 201.215C770.425 199.715 767.845 198.495 767.245 196.635C766.385 193.975 764.825 193.915 763.095 194.375C758.225 195.695 753.755 196.285 750.935 190.805C750.725 190.385 750.045 190.205 749.595 189.925C749.335 190.465 748.915 190.985 748.825 191.565C747.855 197.735 746.015 198.525 740.135 195.755C739.225 195.325 737.485 196.195 736.325 196.825C732.255 199.035 728.315 200.925 723.795 197.775C720.095 195.195 719.965 191.155 719.355 187.385C718.965 184.985 719.425 182.465 719.165 180.025C719.105 179.485 717.505 178.585 716.805 178.735C715.005 179.125 713.345 180.145 711.555 180.685C706.895 182.095 708.925 186.395 708.195 189.195C706.415 196.075 705.675 203.235 704.515 210.275C704.015 213.305 701.815 213.385 699.395 213.405C696.525 213.435 696.555 211.585 696.725 209.655C696.935 207.165 697.675 204.655 697.505 202.205C696.795 191.695 695.725 181.215 695.005 170.715C694.415 162.025 696.915 151.535 705.825 146.775C713.985 142.405 724.695 147.675 725.185 158.675C725.565 167.355 726.675 175.795 728.895 184.135C729.285 185.595 730.455 186.855 731.265 188.205C732.485 186.945 734.115 185.875 734.805 184.375C735.575 182.685 735.565 180.625 735.775 178.705C736.395 172.875 736.865 167.015 737.595 161.195C737.735 160.095 738.645 158.965 739.475 158.115C740.085 157.495 741.135 157.315 741.995 156.935C742.245 157.785 742.515 158.635 742.725 159.495C743.145 161.205 743.525 162.925 743.925 164.645C745.055 163.305 746.315 162.055 747.275 160.595C749.435 157.315 752.225 155.425 756.265 155.135C760.055 154.875 761.585 157.345 761.685 160.095C761.825 164.235 761.115 168.435 760.455 172.565C760.095 174.785 758.805 176.855 758.445 179.075C758.055 181.455 757.925 184.415 761.355 184.615C764.065 184.775 766.725 183.715 766.995 180.375C767.205 177.625 767.035 174.865 767.035 171.675ZM707.105 159.955C706.525 161.155 705.805 162.315 705.395 163.565C704.085 167.545 706.035 170.285 709.755 168.845C712.755 167.675 715.485 164.835 717.275 162.045C718.005 160.905 716.265 157.725 714.975 155.975C714.545 155.395 711.915 156.145 710.445 156.705C709.215 157.185 708.215 158.275 707.105 159.955ZM807.415 178.625C807.275 179.855 807.185 181.105 806.975 182.325C806.205 186.775 808.935 189.165 812.535 189.585C815.045 189.875 817.795 188.145 820.435 187.315C819.325 185.915 818.495 183.925 817.035 183.225C813.885 181.695 812.195 177.455 807.415 178.625ZM747.925 174.715C747.945 177.335 747.905 179.965 748.035 182.585C748.055 183.005 748.795 183.405 749.195 183.805C749.635 183.285 750.325 182.835 750.485 182.245C751.715 177.575 752.895 172.885 753.935 168.165C754.075 167.525 753.385 166.705 753.075 165.975C752.515 166.345 751.725 166.595 751.425 167.115C750.185 169.325 749.085 171.605 747.925 174.715ZM778.755 169.075C780.055 165.755 781.455 162.465 782.585 159.095C782.825 158.395 782.075 157.365 781.785 156.485C781.075 156.905 780.035 157.155 779.715 157.775C778.265 160.595 776.785 163.435 775.805 166.435C775.325 167.935 775.165 170.375 778.755 169.075ZM798.725 176.885C798.585 174.945 798.585 172.985 798.215 171.085C798.075 170.335 797.115 169.735 796.535 169.065C795.965 169.745 795.005 170.365 794.895 171.115C794.645 172.785 794.565 174.575 794.885 176.225C795.205 177.875 796.105 179.415 796.755 180.995C797.565 179.775 798.365 178.545 798.725 176.885Z" fill="black"/>
<path d="M848.665 262.865C846.925 265.365 845.265 267.745 844.415 270.395C843.415 273.515 841.705 274.405 838.585 274.235C835.445 274.065 834.975 271.915 834.855 269.755C834.745 267.725 835.325 265.655 835.645 263.605C836.495 258.175 837.725 252.775 838.145 247.305C838.555 241.945 840.595 237.595 844.725 234.455C845.875 233.585 848.915 233.465 849.805 234.325C852.125 236.575 854.085 239.385 855.525 242.295C857.235 245.755 858.395 246.325 861.765 244.135C865.975 241.385 870.125 238.525 874.465 235.995C877.765 234.075 879.345 234.965 878.955 238.655C878.575 242.255 877.825 245.995 876.315 249.245C874.865 252.375 876.915 252.535 878.575 253.305C881.125 254.475 883.795 255.405 886.285 256.695C888.815 258.015 890.755 257.205 891.215 254.335C892.495 246.455 903.285 239.755 911.145 242.085C911.875 242.295 912.965 243.605 912.815 244.025C912.295 245.475 911.595 247.195 910.415 248.005C908.575 249.255 906.185 249.665 904.225 250.785C903.155 251.395 902.485 252.715 901.635 253.705C902.765 253.865 903.935 254.275 905.025 254.135C908.565 253.685 912.115 253.195 915.575 252.365C916.945 252.035 918.345 251.005 919.295 249.905C925.045 243.205 932.575 239.315 940.705 236.565C942.455 235.975 944.755 237.025 946.795 237.315C946.345 240.115 948.375 243.655 944.055 245.255C940.425 246.595 936.915 248.275 933.375 249.855C932.865 250.085 932.485 250.565 932.035 250.935C932.485 251.445 932.825 252.235 933.385 252.435C936.035 253.395 938.805 254.035 941.405 255.085C948.585 257.985 955.125 261.525 956.445 270.325C957.805 279.325 953.235 285.885 945.665 287.075C937.775 288.305 930.105 287.225 922.925 283.035C919.595 281.095 920.365 279.285 921.825 277.005C925.235 271.655 929.875 274.405 934.295 275.065C937.765 275.585 941.315 275.905 944.815 275.815C947.255 275.745 947.805 273.415 946.355 271.505C941.745 265.455 935.015 263.625 928.125 262.005C925.765 261.445 922.745 261.485 921.225 260.015C918.745 257.615 917.495 259.265 915.485 260.215C911.385 262.165 906.955 263.455 902.975 265.615C901.005 266.685 899.235 268.845 898.375 270.935C897.955 271.945 899.825 275.165 900.715 275.195C903.355 275.265 906.035 274.295 908.675 273.615C909.925 273.295 911.105 272.725 912.315 272.275C912.225 273.805 912.515 275.485 911.995 276.855C908.235 286.585 899.955 288.685 892.325 284.565C890.915 283.805 888.915 282.525 888.765 281.295C888.255 276.955 885.575 277.815 883.105 278.575C877.705 280.235 872.635 279.795 868.375 276.015C863.815 271.975 863.595 266.565 864.865 261.045C865.615 257.765 866.725 254.575 867.555 251.315C867.735 250.605 867.395 249.775 867.295 248.995C866.515 249.205 865.535 249.185 864.985 249.665C860.635 253.475 857.505 258.795 859.825 265.975C860.905 269.325 862.765 273.105 859.915 276.635C859.095 277.655 857.815 279.365 857.095 279.205C855.605 278.865 853.955 277.765 853.055 276.495C850.735 273.195 849.045 269.615 850.285 265.295C850.495 264.635 849.535 263.675 848.665 262.865ZM879.495 268.945C880.155 268.155 880.815 267.375 881.475 266.585C879.875 265.635 878.335 264.565 876.635 263.825C876.255 263.655 875.365 264.645 874.715 265.095C875.535 266.185 876.295 267.315 877.185 268.325C877.505 268.675 878.135 268.745 879.495 268.945ZM846.495 254.185C850.145 253.515 848.215 250.615 848.585 248.685C848.655 248.345 847.715 247.805 847.245 247.355C846.845 248.915 846.415 250.465 846.075 252.035C845.955 252.575 846.055 253.175 846.495 254.185Z" fill="black"/>
<path d="M193.206 750.715C192.106 746.945 190.876 743.275 194.946 740.755C197.286 739.305 199.596 738.875 201.486 741.605C202.536 743.115 203.436 743.565 205.166 741.925C209.446 737.865 214.146 734.505 220.616 737.035C227.026 739.535 230.786 744.745 231.876 750.935C234.046 763.245 227.056 774.545 215.726 778.995C213.736 779.775 211.546 781.485 209.796 781.115C207.206 780.565 204.166 779.085 202.716 777.015C200.766 774.225 199.896 774.525 197.996 776.665C196.706 778.115 195.126 779.355 193.506 780.435C186.876 784.855 180.816 783.375 177.136 776.265C175.676 773.445 175.006 773.225 172.926 775.935C168.366 781.865 162.056 785.685 154.676 786.275C151.796 786.505 148.366 784.045 145.756 782.065C143.996 780.725 142.806 780.615 141.156 781.505C139.736 782.275 138.276 783.015 136.976 783.965C130.906 788.425 124.016 784.355 122.856 777.835C121.386 769.555 121.126 760.995 121.136 752.555C121.136 750.305 123.646 747.595 125.696 745.945C127.876 744.185 131.166 746.455 131.306 749.485C131.636 756.455 131.886 763.425 132.206 770.395C132.256 771.485 132.376 772.635 132.796 773.615C133.096 774.295 133.976 774.725 134.596 775.265C134.956 774.665 135.446 774.115 135.646 773.465C137.706 766.795 139.376 759.975 141.826 753.445C145.986 742.345 159.466 738.275 168.916 746.445C170.446 747.765 171.696 749.415 173.276 750.665C173.886 751.145 175.206 751.325 175.906 751.005C179.866 749.225 181.986 751.435 183.056 754.595C184.396 758.555 185.066 762.735 186.046 766.815C186.266 767.725 186.426 768.695 186.856 769.515C187.436 770.595 188.256 771.545 188.966 772.545C189.726 771.625 190.536 770.755 191.236 769.795C195.516 763.915 195.516 757.545 193.206 750.715ZM153.036 772.205C154.896 776.565 158.286 777.455 161.936 774.615C168.156 769.775 166.806 761.795 162.776 756.005C161.006 753.465 153.396 753.685 153.186 756.015C152.726 761.085 153.036 766.225 153.036 772.205ZM214.266 769.165C214.676 769.335 215.416 769.695 215.446 769.655C217.266 766.375 219.836 763.225 220.556 759.705C221.296 756.035 221.976 751.595 217.046 749.105C213.986 747.555 212.226 748.985 212.256 751.275C212.346 757.095 213.256 762.915 214.266 769.165Z" fill="black"/>
<path d="M201.025 148.885C198.665 139.865 196.095 131.135 194.495 122.235C193.065 114.245 191.245 106.005 195.005 98.065C196.435 95.045 198.525 93.145 202.155 95.225C203.065 95.745 204.195 95.935 205.255 96.105C206.795 96.355 207.945 96.285 207.855 94.035C207.805 92.725 208.785 91.385 209.305 90.055C210.525 90.995 212.325 91.675 212.865 92.915C215.675 99.265 218.235 105.735 220.745 112.215C221.665 114.585 222.005 117.195 222.975 119.535C224.355 122.875 222.215 123.985 219.915 125.245C217.035 126.825 216.645 124.195 215.745 122.745C212.595 117.705 209.615 112.555 206.465 107.505C206.045 106.835 205.075 106.515 204.355 106.025C204.035 106.765 203.515 107.475 203.435 108.235C202.045 121.015 204.945 133.115 209.515 144.905C211.075 148.935 215.235 149.705 218.335 146.755C225.335 140.095 228.575 131.765 229.495 122.295C230.175 115.255 231.065 108.235 232.115 101.245C232.665 97.585 238.995 94.395 243.115 95.485C244.925 95.965 246.875 96.365 248.395 97.365C253.365 100.625 253.305 100.725 254.635 95.515C254.905 94.465 255.015 93.365 255.405 92.355C257.075 88.025 259.105 83.645 264.355 83.195C271.335 82.595 276.975 85.905 280.595 91.615C286.045 100.185 289.105 109.865 288.285 119.985C287.665 127.605 284.895 134.895 277.045 138.705C268.725 142.735 261.995 139.635 259.845 130.655C259.565 129.475 259.345 128.265 258.955 127.115C258.585 126.015 258.035 124.985 257.565 123.925C256.875 125.085 255.855 126.155 255.555 127.405C254.225 133.055 251.815 137.975 246.635 140.975C242.875 143.155 238.965 141.085 238.145 136.715C238.045 136.155 238.315 135.475 238.095 134.995C237.425 133.575 236.605 132.235 235.845 130.865C235.455 132.145 234.965 133.405 234.675 134.715C232.605 143.965 229.055 152.815 220.815 157.815C213.715 162.115 206.905 161.605 201.025 148.885ZM273.315 96.125C270.735 94.635 267.935 91.155 265.395 95.565C263.775 98.385 262.425 101.995 262.665 105.125C263.145 111.465 264.615 117.765 266.035 123.995C266.455 125.845 268.405 128.995 269.025 128.855C271.545 128.275 274.705 127.245 276.035 125.285C282.075 116.435 281.095 104.315 273.315 96.125ZM241.625 111.325C241.915 116.395 242.085 121.475 242.585 126.515C242.705 127.715 243.925 128.815 244.635 129.965C245.085 129.025 245.535 128.075 245.975 127.125C246.755 125.435 247.565 123.755 248.285 122.035C251.625 114.045 251.305 112.695 244.765 107.545C244.065 106.985 243.145 106.695 242.335 106.285C242.085 107.665 241.855 109.065 241.625 111.325Z" fill="black"/>
<path d="M742.496 237.895C743.586 241.085 744.326 244.095 745.406 246.985C745.676 247.725 747.366 248.715 747.826 248.475C754.146 245.265 757.696 247.055 759.236 254.275C759.966 257.705 760.926 261.095 761.836 264.485C762.016 265.145 762.486 265.725 762.826 266.335C763.356 265.595 764.306 264.875 764.336 264.125C764.396 262.485 763.796 260.825 763.816 259.185C763.906 250.795 761.206 241.865 768.526 234.835C769.986 233.435 770.906 232.985 771.366 235.425C771.976 238.655 772.836 241.875 773.036 245.135C773.326 249.745 773.036 254.395 773.166 259.025C773.196 260.015 773.956 260.995 774.376 261.975C775.106 261.145 776.026 260.405 776.546 259.455C779.766 253.555 782.876 247.605 786.056 241.685C786.566 240.725 787.086 239.605 787.926 239.025C789.496 237.935 792.196 236.015 792.836 236.515C795.156 238.305 795.656 241.195 794.136 243.955C793.086 245.855 791.696 247.575 790.496 249.405C790.136 249.955 789.916 250.595 789.636 251.185C790.306 251.315 791.206 251.795 791.606 251.535C796.096 248.525 800.656 248.195 805.516 250.645C806.136 250.955 807.396 250.385 808.176 249.905C813.326 246.765 816.356 248.635 817.406 255.645C817.626 257.125 817.766 258.685 818.336 260.035C818.786 261.115 819.786 262.615 820.646 262.685C821.516 262.765 822.856 261.505 823.416 260.505C826.336 255.315 826.566 249.525 827.036 243.745C827.246 241.105 828.266 238.505 829.196 235.975C829.476 235.215 830.836 234.185 831.396 234.345C832.356 234.615 833.466 235.575 833.836 236.515C837.836 246.635 833.596 263.975 825.436 271.795C822.416 274.685 819.136 274.475 815.386 273.555C811.666 272.645 810.586 270.365 810.386 266.985C810.336 266.165 809.506 265.395 809.026 264.605C808.446 265.225 807.666 265.755 807.306 266.495C802.896 275.445 794.676 278.435 785.766 280.205C781.346 281.075 776.986 280.875 772.766 278.755C771.816 278.275 770.156 278.995 768.906 279.395C761.016 281.925 754.886 279.725 754.006 269.605C753.996 269.465 754.056 269.295 753.996 269.175C753.396 267.935 752.776 266.705 752.156 265.475C751.616 266.775 750.366 268.255 750.646 269.355C752.296 276.085 746.046 278.685 743.456 283.065C741.936 285.625 737.656 283.055 737.546 279.265C737.396 273.765 737.526 268.265 737.486 262.765C737.486 261.945 737.246 261.135 737.126 260.315C736.326 260.785 735.126 261.075 734.786 261.775C732.686 266.105 730.826 270.555 728.796 274.925C728.086 276.455 727.496 278.415 726.246 279.225C724.936 280.075 721.976 280.525 721.366 279.795C720.296 278.515 719.836 276.045 720.236 274.335C722.636 263.935 725.286 253.585 727.996 243.255C728.466 241.475 729.256 239.525 730.516 238.265C736.236 232.565 735.766 230.615 742.496 237.895ZM787.876 264.165C786.786 264.305 785.476 264.125 784.656 264.675C783.516 265.435 782.736 266.745 781.806 267.825C782.986 268.485 784.456 269.975 785.286 269.675C790.156 267.915 794.896 265.755 799.636 263.645C800.096 263.435 800.316 262.665 800.646 262.155C800.066 261.815 799.476 261.155 798.916 261.185C797.716 261.245 796.536 261.625 795.356 261.915C792.986 262.505 790.646 263.125 787.876 264.165ZM737.506 249.405C736.726 248.745 735.936 248.075 735.156 247.415C734.806 248.105 734.456 248.795 734.106 249.475C735.096 249.595 736.086 249.715 737.506 249.405Z" fill="black"/>
<path d="M503.025 767.435C505.675 767.865 506.125 768.975 505.215 771.065C505.045 771.455 507.015 773.245 507.065 773.205C510.715 770.295 515.025 770.975 519.175 770.915C522.795 770.865 526.415 771.045 530.015 770.815C531.095 770.745 532.105 769.645 533.145 769.015C532.515 768.195 532.045 767.115 531.225 766.605C525.585 763.145 519.815 759.905 514.195 756.415C503.935 750.045 505.165 740.805 515.425 736.295C521.655 733.565 528.395 731.905 535.035 730.285C536.205 729.995 538.985 732.025 539.315 733.395C540.085 736.565 539.595 740.115 535.755 741.305C531.875 742.505 527.805 743.045 523.845 744.035C522.905 744.265 522.125 745.095 521.265 745.655C521.925 746.545 522.425 747.685 523.285 748.285C528.765 752.105 534.665 755.415 539.785 759.665C544.955 763.955 545.095 769.015 541.375 774.685C536.585 781.975 528.205 785.115 519.805 782.955C516.895 782.205 513.855 782.005 510.935 781.295C508.205 780.625 505.585 779.545 502.885 778.765C501.815 778.455 500.395 777.965 499.575 778.405C492.195 782.305 485.125 777.335 480.505 771.855C477.005 767.715 475.875 762.645 476.075 757.205C476.255 752.295 476.205 747.365 476.045 742.455C476.005 741.225 475.145 740.015 474.665 738.795C473.775 739.735 472.325 740.555 472.105 741.625C471.555 744.385 471.285 747.265 471.385 750.085C471.615 756.645 473.345 763.435 469.885 769.505C468.355 772.185 465.365 775.605 462.835 775.775C458.545 776.055 453.185 774.595 451.115 770.355C448.035 764.015 446.195 757.065 444.055 750.305C443.695 749.155 444.045 747.275 444.815 746.385C446.225 744.755 448.035 743.205 450.005 742.495C450.715 742.245 452.825 744.315 453.435 745.705C455.415 750.235 456.935 754.955 458.785 759.545C459.285 760.775 460.335 761.785 461.135 762.895C461.495 761.455 462.365 759.925 462.125 758.585C460.855 751.325 460.925 744.265 462.945 737.045C464.365 731.975 468.215 729.845 472.155 728.595C476.625 727.175 480.495 730.355 482.685 733.925C484.745 737.275 487.095 738.205 490.625 737.975C493.365 737.795 496.125 737.805 498.865 738.005C499.985 738.085 501.065 738.855 502.165 739.315C501.535 740.215 501.095 741.405 500.235 741.955C496.705 744.195 493.045 746.225 489.465 748.385C488.805 748.785 488.295 749.445 487.715 749.985C488.595 750.315 489.465 750.885 490.345 750.905C491.235 750.925 492.115 750.295 493.025 750.135C494.095 749.945 495.205 749.965 496.295 749.895C496.015 751.185 496.005 752.635 495.385 753.745C494.515 755.305 493.065 756.525 492.115 758.045C491.115 759.645 489.405 761.685 489.765 763.085C490.545 766.115 492.975 768.305 496.435 768.305C498.485 768.245 500.535 767.725 503.025 767.435Z" fill="black"/>
<path d="M291.335 778.505C290.115 777.285 288.365 776.365 288.235 775.255C287.735 771.105 287.765 766.895 287.595 762.705C287.585 762.565 287.655 762.425 287.635 762.295C287.435 760.245 287.225 758.195 287.025 756.145C285.835 757.395 284.825 758.945 283.415 759.845C279.665 762.235 275.895 764.705 271.835 766.435C269.445 767.455 268.555 768.525 268.495 770.995C268.365 776.085 267.975 781.175 267.665 786.265C267.485 789.325 263.415 794.145 261.285 793.395C258.095 792.265 256.035 789.875 256.375 786.095C256.695 782.605 257.435 779.065 257.145 775.615C256.535 768.305 255.765 760.965 254.255 753.805C253.485 750.175 254.625 748.365 257.215 746.595C259.205 745.235 261.905 744.165 257.535 741.965C254.355 740.365 254.605 735.665 258.195 733.225C262.395 730.365 266.885 727.655 271.625 725.915C277.545 723.745 287.785 730.625 289.355 737.185C289.775 738.915 289.905 740.715 290.265 742.455C290.435 743.285 290.825 744.075 291.115 744.875C291.985 744.325 292.895 743.845 293.705 743.225C297.155 740.615 300.325 737.485 304.075 735.445C308.105 733.255 312.625 734.055 315.895 737.255C319.615 740.895 319.425 745.955 318.645 750.645C318.125 753.755 316.485 756.675 315.465 759.715C315.245 760.375 315.525 761.205 315.575 761.955C316.275 761.735 317.275 761.745 317.625 761.265C319.865 758.175 321.865 754.905 324.155 751.845C325.775 749.685 327.425 747.335 329.585 745.835C333.305 743.265 336.095 744.945 336.245 749.585C336.375 753.485 336.155 757.405 336.305 761.305C336.455 765.525 336.745 769.755 337.175 773.965C337.575 777.875 335.635 780.305 332.225 781.245C329.475 782.005 326.075 777.995 325.875 774.165C325.755 771.855 325.895 769.535 325.835 767.225C325.815 766.425 325.535 765.635 325.375 764.845C324.685 765.265 323.955 765.645 323.295 766.105C319.365 768.855 315.565 771.805 311.475 774.285C310.225 775.045 307.905 775.135 306.585 774.485C303.275 772.845 301.455 774.465 299.815 776.815C296.845 781.095 295.955 781.345 291.335 778.505ZM264.205 748.765C264.785 750.395 265.145 752.155 266.015 753.605C266.645 754.655 268.065 756.135 268.935 756.005C273.685 755.305 277.775 752.765 279.205 748.235C280.035 745.615 279.535 741.445 277.855 739.525C276.575 738.065 272.495 738.915 269.675 739.025C268.725 739.065 267.795 739.965 266.865 740.505C263.905 742.225 262.485 744.495 264.205 748.765ZM304.145 753.105C304.145 753.825 304.005 754.585 304.175 755.265C304.405 756.175 304.875 757.015 305.245 757.885C306.035 757.125 307.295 756.475 307.525 755.575C308.095 753.315 308.315 750.935 308.425 748.595C308.465 747.745 307.795 746.865 307.455 745.995C306.555 746.425 305.105 746.665 304.865 747.335C304.305 748.845 304.355 750.585 304.145 753.105Z" fill="black"/>
<path d="M143.266 696.875C140.886 697.535 137.576 699.025 136.806 698.195C135.376 696.635 134.966 693.725 134.966 691.375C134.976 684.395 135.486 677.415 135.526 670.435C135.526 669.795 133.326 668.375 132.616 668.625C128.856 669.985 124.996 671.385 121.646 673.515C118.326 675.635 117.316 672.705 117.636 671.415C118.286 668.815 119.666 665.855 121.696 664.275C124.126 662.385 127.676 662.025 130.486 660.535C131.916 659.775 133.896 657.795 133.706 656.695C133.146 653.445 131.926 650.205 130.306 647.335C129.866 646.545 126.666 646.345 125.506 647.095C117.956 651.955 113.036 665.285 114.766 674.425C116.346 682.765 115.486 691.105 113.966 699.385C113.786 700.365 114.036 701.415 113.926 702.415C113.556 705.665 111.486 708.235 108.526 708.185C105.586 708.135 102.686 705.955 102.716 702.435C102.826 690.685 102.166 678.785 103.866 667.255C105.106 658.845 107.636 650.055 113.636 643.195C117.326 638.975 121.886 635.475 127.436 634.765C132.696 634.095 136.586 638.135 138.906 642.095C141.556 646.625 142.556 652.125 144.366 657.165C144.766 658.285 145.496 659.325 146.206 660.295C146.526 660.725 147.196 660.895 147.706 661.175C148.026 660.585 148.496 660.025 148.646 659.395C149.286 656.755 149.546 653.985 150.476 651.465C152.096 647.065 154.276 643.175 158.656 640.535C166.876 635.565 174.946 637.865 176.076 647.145C176.986 654.595 177.206 662.915 172.126 669.545C170.416 671.775 167.466 673.375 164.756 674.405C162.026 675.445 160.406 676.485 160.816 679.665C161.486 684.915 162.686 690.235 162.276 695.415C162.086 697.855 159.056 701.085 156.576 702.025C154.266 702.905 151.546 700.985 151.196 697.285C150.686 691.825 149.616 686.405 148.626 681.005C148.436 679.945 147.546 679.015 146.986 678.025C146.396 679.135 145.356 680.215 145.296 681.355C145.076 685.105 145.366 688.885 145.136 692.635C145.056 693.975 144.066 695.305 143.266 696.875ZM166.066 661.045C166.066 657.605 166.126 654.155 166.016 650.715C165.996 650.005 165.306 649.305 164.916 648.605C164.406 649.005 163.936 649.475 163.386 649.815C159.276 652.325 159.566 656.705 159.296 660.545C159.176 662.235 161.026 664.055 161.986 665.825C163.206 664.375 164.416 662.925 166.066 661.045Z" fill="black"/>
<path d="M191.465 68.115C190.955 64.115 190.735 60.3151 190.365 56.5351C189.235 44.8551 187.815 33.205 187.025 21.505C186.695 16.655 186.745 11.385 188.285 6.87502C190.985 -1.02498 194.905 -0.544979 200.845 3.93502C205.345 7.32502 209.415 11.4851 211.355 17.2951C212.055 19.3851 214.105 21.9651 216.625 18.2351C217.935 16.2951 219.395 14.465 220.775 12.565C222.515 10.165 224.455 7.95506 227.735 9.78506C230.865 11.5351 231.195 14.615 228.915 18.085C227.865 19.675 226.655 21.1951 225.905 22.9151C225.185 24.5651 224.945 26.435 224.505 28.205C226.095 28.555 227.765 29.4051 229.265 29.1751C235.675 28.2151 244.295 35.6351 244.995 42.6651C245.605 48.7651 245.135 54.6451 241.005 60.1051C236.835 65.6051 232.905 70.925 225.845 72.615C224.335 72.975 222.635 72.5451 221.015 72.4751C221.375 70.8051 221.275 68.835 222.165 67.525C225.335 62.855 228.905 58.4551 232.175 53.8451C233.415 52.1051 234.455 50.1651 235.235 48.1751C237.105 43.4351 235.045 40.5951 229.875 40.5451C219.675 40.4351 219.455 40.905 222.425 50.765C223.305 53.695 223.555 57.015 223.205 60.055C223.015 61.695 221.155 63.395 219.655 64.555C217.985 65.845 214.855 63.3151 215.715 60.9251C217.995 54.5651 213.695 49.705 212.625 44.145C212.405 42.995 211.665 41.945 211.255 40.815C210.905 39.875 210.675 38.895 210.395 37.935C209.445 38.725 208.315 39.3851 207.585 40.3451C205.345 43.2951 203.245 46.345 201.105 49.375C198.075 53.665 199.545 58.615 198.955 63.275C198.705 65.285 197.485 67.425 196.095 68.945C194.895 70.255 192.895 70.385 191.465 68.115ZM201.675 34.895C202.185 34.095 202.515 33.0051 203.245 32.5351C206.945 30.1451 206.485 26.795 205.075 23.625C203.335 19.705 201.125 15.985 198.945 12.275C198.545 11.605 197.325 11.415 196.485 11.005C196.195 11.815 195.595 12.6351 195.655 13.4151C196.155 20.5651 196.735 27.705 197.385 34.835C197.455 35.565 198.135 36.245 198.535 36.945C199.435 36.425 200.335 35.875 201.675 34.895Z" fill="black"/>
<path d="M280.485 537.075C285.625 535.125 290.595 533.515 295.455 531.605C299.205 530.135 301.125 532.145 302.235 535.055C303.235 537.695 303.285 540.675 304.205 543.355C305.905 548.315 303.265 552.565 302.455 557.135C301.685 561.495 301.385 565.925 300.585 570.275C300.405 571.265 298.955 572.815 298.185 572.765C293.435 572.425 287.795 568.955 288.495 563.615C288.645 562.475 288.705 561.265 288.475 560.155C288.085 558.315 287.405 557.395 285.365 559.045C270.465 571.095 255.415 583.045 242.785 597.525C232.905 608.845 223.755 620.805 214.515 632.665C210.475 637.835 208.735 638.545 205.545 634.285C204.605 633.025 204.455 630.105 205.285 628.785C209.335 622.305 213.345 615.675 218.285 609.885C228.785 597.595 239.515 585.455 250.835 573.925C257.765 566.865 265.795 560.815 273.675 554.775C276.825 552.365 275.515 551.585 273.255 550.335C272.205 549.755 270.715 549.545 270.095 548.685C269.015 547.205 267.625 545.175 267.915 543.685C268.195 542.225 270.235 540.735 271.845 539.995C274.505 538.775 277.445 538.165 280.485 537.075Z" fill="black"/>
<path d="M452.561 362.233C442.732 361.437 433.301 361.04 423.989 360.198C416.805 359.553 413.867 362.962 412.637 367.299C411.534 371.231 412.243 375.282 411.295 379.24C409.547 386.563 415.466 391.369 418.158 397.265C420.721 402.89 422.452 408.779 425.066 414.38C425.658 415.656 428.699 417.234 430.08 416.89C438.589 414.726 447.871 408.007 445.172 401.03C444.595 399.54 444.162 397.924 444.281 396.339C444.494 393.709 445.479 392.22 449.615 393.721C479.824 404.689 510.279 415.467 537.03 430.538C557.954 442.318 577.728 455.225 597.638 467.965C606.339 473.514 609.68 473.852 614.314 466.941C615.678 464.899 615.167 460.893 613.311 459.403C604.24 452.085 595.202 444.548 584.705 438.483C562.398 425.612 539.715 413.028 516.127 401.48C501.686 394.409 485.525 389.1 469.637 383.75C463.287 381.617 465.45 380.092 469.207 377.589C470.953 376.428 473.595 375.609 474.487 374.223C476.046 371.832 478.018 368.586 477.094 366.673C476.195 364.797 472.102 363.512 468.989 363.088C463.845 362.39 458.358 362.619 452.561 362.233Z" fill="#25A78B"/>
<path d="M383.176 780.455C383.176 779.155 383.456 778.145 383.116 777.445C382.436 776.045 385.626 768.825 379.486 774.895C378.006 776.365 374.386 774.235 373.646 771.695C373.486 771.165 373.756 770.505 373.596 769.975C373.256 768.825 372.776 767.715 372.346 766.595C371.336 767.295 370.216 767.855 369.346 768.705C362.496 775.415 356.236 773.425 353.636 763.685C353.396 762.785 353.226 761.785 352.716 761.055C352.426 760.645 351.406 760.405 350.896 760.585C350.506 760.725 350.206 761.645 350.206 762.225C350.146 766.465 350.726 770.805 349.996 774.925C349.456 777.955 347.476 780.835 345.676 783.465C345.086 784.335 342.546 784.925 341.776 784.385C340.456 783.465 338.716 781.195 339.066 780.105C342.346 769.865 339.926 759.415 340.576 749.095C340.846 744.795 342.296 741.295 345.616 738.585C349.206 735.655 353.626 736.405 356.276 740.245C359.606 745.095 361.036 750.505 361.576 756.305C361.706 757.725 362.996 759.035 363.746 760.395C364.146 759.115 364.856 757.845 364.896 756.555C365.046 752.175 364.746 747.765 365.006 743.395C365.306 738.425 368.856 735.415 373.026 734.145C374.436 733.715 377.846 736.505 378.766 738.545C380.606 742.615 382.436 744.145 386.766 741.845C389.136 740.585 392.846 744.335 393.596 748.425C395.526 758.905 394.496 769.135 390.996 779.155C389.406 783.675 386.726 784.265 383.176 780.455Z" fill="black"/>
<path d="M616.785 188.175C618.485 191.125 619.845 190.875 622.005 188.715C634.445 176.305 643.435 161.345 653.195 146.955C654.555 144.955 655.515 142.665 656.925 140.715C659.155 137.625 662.465 138.215 664.615 141.385C667.875 146.185 665.865 150.365 663.265 154.185C654.695 166.825 646.065 179.455 635.085 190.205C631.705 193.515 627.845 196.335 624.315 199.505C623.585 200.155 623.335 201.345 622.865 202.285C623.745 202.505 624.705 203.065 625.485 202.885C628.895 202.095 632.225 201.005 635.635 200.195C638.425 199.535 641.255 198.845 644.095 198.725C645.385 198.665 647.435 199.625 647.895 200.675C648.545 202.175 648.795 204.835 647.905 205.815C646.045 207.875 643.475 209.475 640.925 210.675C637.915 212.085 634.655 213.035 631.425 213.885C624.205 215.785 617.295 215.655 611.425 210.155C610.895 209.665 610.145 209.225 609.925 208.615C607.915 202.935 605.905 197.255 604.115 191.505C603.275 188.815 606.785 181.345 609.305 180.545C613.555 179.195 614.015 183.445 615.895 185.525C616.395 186.085 616.505 186.995 616.785 188.175Z" fill="black"/>
<path d="M170.405 195.995C174.145 194.605 173.745 193.955 171.005 191.565C161.015 182.815 151.345 173.675 141.875 164.355C127.655 150.355 112.315 137.765 95.9953 126.335C92.3953 123.815 88.8453 121.215 85.5453 118.325C84.7653 117.635 85.1053 115.665 84.9253 114.285C86.1453 114.305 87.4253 114.085 88.5653 114.395C98.0153 116.895 105.375 123.075 113.005 128.675C130.175 141.285 145.845 155.605 160.635 170.915C164.535 174.945 169.435 178.015 173.265 182.095C177.325 186.415 180.605 191.455 184.335 196.105C184.865 196.765 185.965 196.965 186.805 197.375C186.725 196.365 186.665 195.365 186.565 194.365C186.555 194.255 186.315 194.175 186.275 194.055C185.655 192.185 184.975 190.325 184.605 188.405C184.575 188.255 186.995 187.075 187.835 187.425C189.545 188.135 191.965 189.365 192.255 190.755C192.775 193.225 192.325 196.115 191.545 198.595C190.315 202.535 188.635 206.355 186.865 210.095C183.705 216.755 178.035 217.975 172.455 213.175C169.745 210.835 167.005 208.385 164.885 205.535C161.075 200.415 163.325 196.435 170.405 195.995ZM175.185 203.815C175.885 204.565 176.575 205.315 177.275 206.075C177.515 205.105 177.765 204.135 178.005 203.165C176.925 203.235 175.835 203.305 175.185 203.815Z" fill="black"/>
<path d="M313.485 82.875C318.285 80.105 322.805 77.4151 327.475 75.0251C330.505 73.4751 334.605 75.8451 336.595 80.5951C337.035 81.6351 335.445 83.5351 334.765 85.0251C334.655 85.2751 334.395 85.585 334.165 85.625C320.915 87.665 312.395 97.655 302.125 104.695C301.425 105.175 300.725 105.815 300.315 106.545C299.855 107.345 299.735 108.325 299.465 109.235C300.535 109.205 301.935 109.605 302.635 109.085C307.205 105.675 311.495 101.905 316.155 98.625C317.815 97.455 319.105 93.925 322.095 96.325C324.285 98.075 323.745 102.065 321.025 104.855C317.115 108.885 313.026 112.755 309.176 116.845C308.406 117.665 308.365 119.175 307.995 120.365C309.275 120.585 310.895 121.415 311.765 120.925C315.905 118.605 320.126 116.265 323.736 113.235C326.226 111.145 326.975 112.785 327.535 114.275C329.355 119.155 328.805 123.545 324.225 126.895C316.515 132.545 309.976 135.725 301.956 130.895C296.436 127.575 294.616 121.985 292.956 116.445C291.326 110.995 290.355 105.355 289.155 99.7751C288.835 98.2951 288.395 96.715 288.605 95.265C288.925 93.015 289.755 90.845 290.365 88.635C291.985 89.745 293.955 90.5751 295.145 92.0351C297.075 94.3851 298.835 93.4851 300.575 92.2751C304.855 89.2951 309.045 86.165 313.485 82.875Z" fill="black"/>
<path d="M74.0151 780.455C76.6251 768.815 79.1151 757.575 81.8751 746.405C83.2751 740.735 86.6651 736.145 91.1851 732.505C94.1051 730.145 97.2651 730.245 100.295 732.495C101.085 733.085 101.745 734.265 102.545 734.345C109.525 735.045 109.875 739.805 109.675 745.235C109.475 750.575 109.665 755.935 109.615 761.275C109.575 765.115 106.665 768.655 103.945 768.285C100.495 767.825 98.1251 763.685 98.1051 760.135C98.0851 755.325 97.1651 750.525 96.5551 745.725C96.5151 745.385 95.6351 744.815 95.5251 744.885C94.7451 745.445 93.6551 746.015 93.4051 746.805C91.7551 752.065 90.1951 757.355 88.8051 762.685C87.5051 767.665 86.4151 772.695 85.3151 777.725C84.0651 783.415 87.6551 786.805 93.0651 784.685C96.4151 783.375 99.4851 781.255 102.495 779.225C104.145 778.115 105.275 776.265 106.875 775.055C107.655 774.465 108.965 774.575 110.035 774.365C109.895 775.195 109.855 776.045 109.605 776.835C106.275 787.305 98.6251 792.955 88.3451 795.145C81.2751 796.655 74.7251 789.495 74.0151 780.455Z" fill="black"/>
<path d="M432.675 771.775C432.095 765.365 431.695 759.365 430.815 753.435C430.585 751.905 429.145 749.985 427.755 749.325C425.135 748.095 422.605 749.885 421.785 752.065C420.825 754.615 420.985 757.645 420.985 760.475C420.985 765.035 421.715 769.665 421.145 774.135C420.925 775.845 418.155 778.025 416.225 778.435C414.885 778.725 411.865 776.605 411.525 775.125C410.045 768.745 408.005 762.335 410.005 755.555C410.675 753.275 410.555 751.005 406.645 750.705C403.935 750.505 401.085 748.605 398.885 746.765C398.065 746.075 398.205 742.645 399.125 741.785C401.155 739.905 403.495 738.645 407.045 739.315C411.005 740.055 415.335 738.865 419.505 738.475C424.505 738.015 429.505 737.465 434.515 737.075C435.215 737.025 436.445 737.505 436.635 738.025C438.875 744.325 441.515 750.565 442.925 757.065C443.895 761.525 443.605 766.445 442.915 771.015C442.525 773.605 440.445 776.145 438.565 778.195C437.925 778.885 435.175 778.545 434.115 777.735C432.485 776.525 430.565 774.695 432.675 771.775Z" fill="black"/>
<path d="M204.065 647.805C208.025 654.285 206.845 663.715 202.245 669.295C198.965 673.275 196.165 677.515 190.785 679.045C190.105 679.235 189.685 681.145 189.555 682.305C189.145 686.065 189.265 689.925 188.525 693.605C188.005 696.195 186.395 698.635 182.955 697.925C179.695 697.255 178.355 695.185 178.145 691.815C177.835 686.695 176.415 681.585 176.605 676.515C177.015 665.675 176.335 654.345 186.005 646.235C192.275 641.005 200.215 641.955 204.065 647.805ZM188.215 669.295C189.015 669.365 190.095 669.805 190.565 669.445C193.825 666.945 195.615 663.565 195.535 659.435C195.505 657.855 194.835 656.285 194.455 654.705C192.665 655.515 190.865 656.295 189.115 657.165C188.845 657.295 188.895 657.965 188.635 658.235C185.425 661.545 188.375 665.345 188.215 669.295Z" fill="black"/>
<path d="M694.946 251.575C696.396 246.105 697.846 241.075 699.276 236.035C699.426 235.505 699.246 234.765 699.556 234.435C700.996 232.855 702.396 230.375 704.106 230.105C706.566 229.715 706.586 232.445 707.246 234.555C709.506 241.805 705.746 247.815 703.986 254.255C703.026 257.755 701.636 261.185 701.126 264.745C700.596 268.445 703.486 270.695 707.166 269.775C710.016 269.065 712.736 267.885 715.556 267.055C716.476 266.785 717.876 266.535 718.406 267.005C718.946 267.485 718.895 268.895 718.755 269.845C717.065 281.575 701.766 283.245 694.196 278.185C689.736 275.205 690.056 270.485 690.746 266.275C691.556 261.415 693.506 256.755 694.946 251.575Z" fill="black"/>
<path d="M206.235 671.255C211.725 670.165 216.995 669.225 222.305 668.585C222.695 668.535 224.025 670.885 223.775 671.805C222.355 677.135 209.075 683.035 204.205 679.375C201.135 677.065 200.565 675.955 203.325 673.325C204.105 672.585 205.115 672.085 206.235 671.255Z" fill="black"/>
<path d="M391.215 728.135C395.565 730.825 396.635 735.275 393.775 738.915C393.295 739.525 391.785 739.825 390.985 739.565C388.985 738.895 386.885 738.115 385.255 736.835C381.735 734.055 382.185 731.115 386.295 729.215C387.745 728.535 389.415 728.335 391.215 728.135Z" fill="black"/>
<path d="M307.845 635.215C307.845 637.965 307.865 640.555 307.275 643.005C307.065 643.855 305.085 645.095 304.365 644.845C301.985 644.025 299.125 643.135 297.715 641.295C295.625 638.565 297.935 635.805 300.305 634.765C302.395 633.845 305.435 629.885 307.845 635.215Z" fill="black"/>
<path d="M429.205 730.085C427.075 728.965 425.125 728.075 423.755 726.635C422.865 725.695 422.025 723.345 422.525 722.715C423.625 721.325 425.515 720.115 427.245 719.855C428.255 719.705 430.465 721.465 430.545 722.495C430.745 724.995 430.005 727.555 429.205 730.085Z" fill="black"/>
<path d="M329.335 730.085C328.815 732.615 329.315 736.025 325.455 734.325C323.895 733.635 322.815 731.845 321.515 730.555C323.125 728.945 324.735 727.345 326.345 725.735C327.345 727.045 328.335 728.355 329.335 730.085Z" fill="black"/>
<path d="M838.23 493.591C847.023 497.91 854.687 503.33 856.818 512.871C860.007 527.225 858.596 532.927 843.96 538.897C836.226 542.059 828.844 541.889 821.491 537.613C820.376 536.964 818.174 537.994 816.537 538.46C809.664 540.436 802.748 541.339 795.621 539.885C787.096 538.149 786.757 526.985 790.498 521.241C790.907 520.62 792.107 520.408 792.982 520.253C793.207 520.21 793.772 521.001 793.899 521.481C795.706 528.566 800.688 531.417 807.42 528.679C810.059 527.606 812.219 525.348 814.604 523.626C812.346 522.017 810.299 519.787 807.787 518.94C801.295 516.724 794.562 515.242 787.985 513.252C779.334 510.641 777.442 504.374 782.255 496.767C788.183 487.381 796.566 481.524 806.898 478.179C810.228 477.106 812.487 478.348 814.011 481.623C815.747 485.349 812.769 485.772 810.765 487.113C805.359 490.754 799.968 494.396 794.732 498.263C791.33 500.775 792.685 502.907 795.988 503.965C801.944 505.871 807.956 507.564 814.011 509.117C814.66 509.286 816.509 507.719 816.41 507.197C816.128 505.56 815.324 503.951 814.42 502.511C814.18 502.13 812.825 502.61 812.077 502.37C808.069 501.1 807.547 498.715 810.807 495.934C817.398 490.331 825.302 491.418 833.022 491.926C834.645 492.025 836.184 493.013 838.23 493.591ZM826.417 525.588C831.667 530.584 841.279 530.076 846.868 524.967C849.352 522.709 849.62 520.154 848.829 517.585C846.402 509.54 837.03 502.046 828.873 501.58C827.772 501.509 825.768 502.822 825.556 503.796C824.003 510.782 823.128 517.811 826.417 525.588Z" fill="#25A78B"/>
<path d="M714.185 539.871C704.404 543.047 693.579 539.532 692.521 528.608C692.267 525.955 691.999 523.287 691.476 520.676C691.293 519.773 690.305 519.039 689.684 518.22C689.317 518.94 688.781 519.617 688.625 520.38C687.581 525.376 686.932 530.457 685.534 535.34C684.589 538.671 682.331 541.042 678.209 540.93C674.371 540.817 673.114 538.869 671.633 535.467C665.027 520.14 667.441 504.078 666.961 488.242C666.947 487.692 667.229 486.958 667.624 486.577C668.979 485.25 670.433 484.036 671.844 482.78C672.832 484.234 674.455 485.603 674.695 487.184C675.627 493.267 676.248 499.392 676.728 505.532C677.01 509.117 676.671 512.744 676.84 516.343C676.883 517.317 677.744 518.234 678.224 519.194C678.732 518.277 679.494 517.402 679.677 516.428C680.439 512.462 680.891 508.425 681.752 504.487C682.204 502.455 682.994 500.338 684.165 498.63C688.244 492.773 693.184 492.999 695.88 499.674C698.096 505.165 698.914 511.206 700.396 516.978C701.201 520.083 701.737 523.329 703.12 526.166C703.798 527.55 706.112 528.128 707.693 529.074C708.54 527.31 710.121 525.531 710.106 523.781C710.036 513.76 709.387 503.725 709.344 493.704C709.33 490.373 710.431 487 711.292 483.726C711.504 482.935 712.816 481.961 713.635 481.961C714.468 481.947 715.568 482.865 716.091 483.669C719.774 489.301 720.339 495.553 720.184 502.173C720.014 509.568 721.03 516.978 720.96 524.374C720.918 530.161 719.718 535.891 714.185 539.871Z" fill="#25A78B"/>
<path d="M656.093 500.493C660.44 506.167 659.692 512.377 660.271 518.531C660.737 523.541 663.362 528.34 664.928 533.266C665.436 534.875 666.297 536.851 665.789 538.206C664.886 540.591 663.051 542.623 661.598 544.811C659.763 543.188 657.152 541.904 656.234 539.871C653.821 534.48 652.339 528.693 650.038 523.245C649.46 521.876 647.329 520.465 645.79 520.323C637.929 519.632 635.558 522.158 633.342 531.657C632.523 535.171 630.971 538.544 629.432 541.833C627.936 545.009 625.424 547.041 621.755 545.362C618.777 543.992 617.986 538.516 620.513 535.679C625.212 530.415 625.537 523.753 626.398 517.458C628.148 504.77 628.727 491.912 630.689 479.266C631.408 474.679 634.217 470.148 636.955 466.21C639.397 462.696 642.332 463.67 645.31 467.043C650.038 472.406 651.351 479.026 653.059 485.518C654.343 490.246 655.105 495.158 656.093 500.493ZM639.354 493.097C639.03 496.711 638.437 500.324 638.493 503.937C638.522 505.419 639.933 508.143 640.681 508.129C643.151 508.101 645.635 507.183 645.282 503.669C644.562 496.442 644.054 489.202 643.193 482.004C643.066 480.903 641.556 479.971 640.681 478.969C640.244 480.084 639.481 481.199 639.411 482.329C639.241 485.589 639.354 488.863 639.354 493.097Z" fill="#25A78B"/>
<path d="M731.898 478.828C735.624 474.792 736.541 474.919 738.743 479.266C741.805 485.335 743.104 485.292 749.836 484.248C756.117 483.274 762.637 483.782 769.045 483.839C769.793 483.839 771.289 485.532 771.162 485.744C770.386 487.155 769.525 489.004 768.212 489.527C764.825 490.881 761.198 491.615 757.669 492.603C754.141 493.591 750.627 494.636 747.07 495.539C743.796 496.372 743.104 498.814 743.781 501.467C744.544 504.389 746.534 503.104 748.637 502.554C753.562 501.241 758.883 501.142 763.541 499.293C767.577 497.684 768.466 500.846 769.031 502.427C769.722 504.332 770.527 507.465 766.66 508.609C759.97 510.585 753.322 512.815 746.83 515.383C745.108 516.061 744.035 518.39 742.709 519.999C742.554 520.196 742.723 520.634 742.681 520.958C741.707 530.415 743.838 535.058 756.498 534.832C763.865 534.705 771.614 536.78 778.501 532.165C778.826 531.939 779.715 532.207 780.138 532.532C783.441 535.044 782.538 542.313 778.459 543.823C774.747 545.206 770.724 546.618 766.871 546.561C758.615 546.434 750.147 546.307 742.201 544.373C736.386 542.948 733.337 537.175 732.886 530.895C732.42 524.473 731.757 518.023 732.011 511.629C732.236 506.04 732.872 500.775 731.234 495.031C729.908 490.26 731.573 484.601 731.898 478.828Z" fill="#25A78B"/>
<path d="M924.14 530.274C926.37 531.995 928.769 534.578 931.324 534.734C937.379 535.086 943.518 534.522 949.573 533.844C951.521 533.619 953.765 532.235 955.049 530.697C957.604 527.648 959.241 529.751 960.2 531.558C962.12 535.129 959.791 540.817 955.868 542.835C945.988 547.93 935.544 547.831 925.1 545.46C911.72 542.426 910.224 533.802 913.145 522.765C915.319 514.551 918.41 506.59 920.88 498.461C921.924 495.031 923.872 493.634 927.443 493.563C935.671 493.422 943.899 492.632 952.113 492.815C954.922 492.872 957.829 494.791 960.384 496.344C961.372 496.936 962.261 499.802 961.894 500.112C960.582 501.255 958.436 502.695 957.081 502.314C948.416 499.9 940.371 503.203 932.185 504.657C927.33 505.518 925.495 510.105 923.971 514.24C922.926 517.091 925.199 519.025 928.6 518.178C937.04 516.047 945.395 513.605 953.849 511.516C955.19 511.191 957.956 511.812 958.14 512.518C958.662 514.522 959.043 517.387 957.985 518.827C954.372 523.753 948.26 524.444 942.883 525.997C936.842 527.747 930.562 528.707 924.14 530.274Z" fill="#25A78B"/>
<path d="M911.099 514.268C910.111 522.723 909.278 530.697 908.079 538.629C907.585 541.889 904.621 542.44 902.081 541.664C900.867 541.297 899.328 539.067 899.441 537.81C899.935 531.897 901.403 526.039 901.671 520.126C901.996 513.125 901.488 506.082 901.163 499.068C901.135 498.517 899.738 498.037 898.99 497.515C898.439 498.404 897.592 499.209 897.367 500.168C895.955 506.336 894.869 512.561 893.302 518.686C892.568 521.594 891.622 524.826 889.703 526.943C887.91 528.947 883.719 531.417 882.336 530.612C879.485 528.975 876.944 525.588 875.871 522.398C874.601 518.587 875.081 514.198 874.601 510.091C874.488 509.131 873.613 508.256 873.091 507.353C872.315 508.171 870.889 508.947 870.847 509.808C870.621 514.282 871.115 518.813 870.621 523.245C870.099 527.973 868.984 532.687 867.587 537.232C867.305 538.149 864.341 539.109 863.141 538.657C861.758 538.135 860.234 536.159 860.064 534.663C859.782 532.25 860.572 529.709 860.883 527.211C861.871 519.251 862.576 511.248 863.988 503.358C864.524 500.338 866.401 497.43 868.151 494.805C870.113 491.869 874.178 491.982 876.789 495.384C878.878 498.108 880.43 501.425 881.446 504.727C882.364 507.691 882.166 510.994 882.59 514.113C882.688 514.847 883.309 515.525 883.691 516.216C884.297 515.581 885.314 515.002 885.441 514.282C886.231 509.822 886.513 505.25 887.572 500.86C888.376 497.515 889.661 494.1 891.495 491.206C896.04 483.98 902.673 484.629 907.147 492.589C910.831 499.195 913.273 506.068 911.099 514.268Z" fill="#25A78B"/>
<path d="M979.867 539.871C980.7 543.639 978.555 545.121 976.042 545.644C974.589 545.954 971.808 545.361 971.441 544.458C970.453 542.002 970.284 539.095 973.135 537.26C974.405 536.441 976.395 534.776 976.903 535.129C978.216 536.06 978.908 537.895 979.867 539.871Z" fill="#25A78B"/>
</g>
<defs>
<filter id="filter0_d" x="-5.72217" y="0.716187" width="995.858" height="866.429" filterUnits="userSpaceOnUse" color-interpolation-filters="sRGB">
<feFlood flood-opacity="0" result="BackgroundImageFix"/>
<feColorMatrix in="SourceAlpha" type="matrix" values="0 0 0 0 0 0 0 0 0 0 0 0 0 0 0 0 0 0 127 0"/>
<feOffset dy="6"/>
<feGaussianBlur stdDeviation="3"/>
<feColorMatrix type="matrix" values="0 0 0 0 0 0 0 0 0 0 0 0 0 0 0 0 0 0 0.4 0"/>
<feBlend mode="normal" in2="BackgroundImageFix" result="effect1_dropShadow"/>
<feBlend mode="normal" in="SourceGraphic" in2="effect1_dropShadow" result="shape"/>
</filter>
</defs>
</svg>
